<svg width="352" height="193" viewBox="0 0 352 193" fill="none" xmlns="http://www.w3.org/2000/svg">
<g filter="url(#filter0_bd)">
<g clip-path="url(#clip0)">
<rect width="350" height="191" rx="15" fill="url(#paint0_linear)"/>
<g opacity="0.3">
<path d="M-37.9993 182.977V193.581C-37.9993 197.375 -34.1668 201.169 -26.489 204.073C-18.6953 207.019 -8.42938 208.502 1.8402 208.502C11.9644 208.502 22.0885 207.068 29.8584 204.189C37.735 201.268 41.6797 197.43 41.6797 193.581V182.977C41.6797 186.822 37.735 190.667 29.8584 193.587C22.0904 196.464 11.9644 197.9 1.8402 197.9C-8.42938 197.9 -18.6953 196.427 -26.489 193.471C-34.1668 190.562 -37.9993 186.767 -37.9993 182.977Z" fill="#D96D00"/>
<path d="M-37.9993 182.351V192.957C-37.9993 196.751 -34.1668 200.543 -26.489 203.45C-18.6953 206.395 -8.42938 207.88 1.8402 207.88C11.9644 207.88 22.0885 206.443 29.8584 203.566C37.735 200.648 41.6797 196.803 41.6797 192.955V182.351C41.6797 186.196 37.735 190.043 29.8584 192.961C22.0904 195.838 11.9644 197.274 1.8402 197.274C-8.42938 197.274 -18.6953 195.801 -26.489 192.845C-34.1668 189.935 -37.9993 186.143 -37.9993 182.351Z" fill="url(#paint1_linear)"/>
<g style="mix-blend-mode:multiply">
<g style="mix-blend-mode:multiply">
<path d="M37.5527 199.573C37.3503 199.726 37.1459 199.878 36.9269 200.031V189.425C37.1459 189.272 37.3503 189.117 37.5527 188.965V199.573Z" fill="#F5C491"/>
</g>
<g style="mix-blend-mode:multiply">
<path d="M33.9762 191.174C34.1916 191.063 34.3959 190.951 34.6021 190.84V201.452C34.3959 201.563 34.1916 201.675 33.9762 201.784V191.174Z" fill="#F5C491"/>
</g>
<g style="mix-blend-mode:multiply">
<path d="M40.5015 196.565C40.308 196.854 40.0991 197.132 39.8756 197.397V186.789C40.099 186.524 40.308 186.247 40.5015 185.959V196.565Z" fill="#F5C491"/>
</g>
</g>
<path d="M-26.1707 172.794C-18.4045 169.917 -8.28039 168.481 1.84193 168.481C12.1115 168.481 22.3793 169.953 30.1712 172.911C45.6335 178.771 45.501 188.221 29.8619 194.018C22.0903 196.895 11.9643 198.323 1.84009 198.323C-8.42949 198.323 -18.6954 196.85 -26.4891 193.894C-41.9607 188.039 -41.8171 178.588 -26.1707 172.794Z" fill="url(#paint2_linear)"/>
<g style="mix-blend-mode:overlay" opacity="0.3">
<path d="M-26.1708 172.794C-23.639 171.871 -21.0474 171.122 -18.4139 170.552L39.7687 178.835C44.1019 183.897 41.0334 189.648 30.6055 193.723L-37.9682 183.965C-38.3658 179.928 -34.4321 175.851 -26.1708 172.794Z" fill="white"/>
</g>
<g style="mix-blend-mode:overlay" opacity="0.6">
<path d="M29.8584 194.785C22.0904 197.662 11.9644 199.098 1.84025 199.098C-8.42933 199.098 -18.6952 197.626 -26.489 194.669C-34.2202 191.741 -38.0545 187.914 -37.9992 184.094C-37.9992 183.995 -37.9827 183.892 -37.9753 183.79C-37.7286 187.455 -33.9128 191.095 -26.489 193.915C-18.6952 196.851 -8.42933 198.323 1.84025 198.323C11.9644 198.323 22.0886 196.887 29.8584 194.01C37.4791 191.185 41.4091 187.494 41.6558 183.774C41.9374 187.757 38.0038 191.768 29.8584 194.785Z" fill="white"/>
</g>
<path d="M-18.9914 175.516C-13.2151 173.377 -5.68825 172.31 1.8386 172.31C9.47406 172.31 17.1169 173.414 22.8987 175.603C34.3997 179.962 34.2985 186.988 22.6631 191.295C16.8886 193.434 9.36361 194.502 1.8386 194.502C-5.79686 194.502 -13.4305 193.397 -19.2215 191.205C-30.7244 186.85 -30.6176 179.825 -18.9914 175.516Z" fill="#F28500"/>
<g style="mix-blend-mode:overlay" opacity="0.6">
<path d="M22.902 178.274C17.111 176.08 9.47738 174.979 1.84193 174.979C-5.68493 174.979 -13.2118 176.048 -18.9881 178.187C-23.8587 179.991 -26.7008 182.274 -27.5218 184.63C-28.6852 181.316 -25.8375 177.828 -18.9881 175.288C-13.2118 173.149 -5.68493 172.081 1.84193 172.081C9.47738 172.081 17.1202 173.186 22.902 175.376C29.5858 177.907 32.3433 181.342 31.2038 184.621C30.3902 182.309 27.6272 180.065 22.902 178.274Z" fill="white"/>
</g>
<path d="M22.902 178.495C17.111 176.3 9.47738 175.201 1.84193 175.201C-5.68493 175.201 -13.2118 176.269 -18.9881 178.41C-23.8587 180.214 -26.7008 182.496 -27.5218 184.853C-28.6852 181.53 -25.8375 178.042 -18.9881 175.511C-13.2118 173.372 -5.68493 172.304 1.84193 172.304C9.47738 172.304 17.1202 173.409 22.902 175.597C29.5858 178.13 32.3433 181.565 31.2038 184.84C30.3902 182.528 27.6272 180.284 22.902 178.495Z" fill="#D96D00"/>
<path d="M-12.33 184.845V182.861L-1.19159 179.468C-1.05866 179.418 -0.917608 179.393 -0.775582 179.395C-0.635333 179.395 -0.49629 179.421 -0.365097 179.47L18.1143 184.472V186.559C18.1143 186.612 18.048 186.666 17.9302 186.712L13.5657 188.328C13.2998 188.424 13.0089 188.424 12.7429 188.328L6.5948 185.999C6.50553 185.967 6.40797 185.967 6.31869 185.999L3.39005 187.084C1.99335 187.595 0.541493 187.94 -0.935727 188.113C-1.80892 188.222 -2.68804 188.276 -3.56802 188.276C-4.21412 188.276 -4.85654 188.247 -5.4916 188.186C-6.8879 188.07 -8.26196 187.764 -9.57624 187.279C-10.8095 186.809 -11.6379 186.294 -12.0502 185.731C-12.2522 185.482 -12.3522 185.165 -12.33 184.845V184.845ZM-4.30615 185.41C-3.71188 185.624 -3.08381 185.727 -2.45252 185.716H-2.26844C-1.52634 185.701 -0.791807 185.563 -0.094511 185.309L2.22669 184.449C2.31505 184.416 2.31505 184.379 2.22669 184.346L-1.43458 182.96C-1.47811 182.944 -1.52422 182.935 -1.57079 182.934C-1.61854 182.935 -1.66583 182.944 -1.71069 182.96L-4.02452 183.82C-4.70744 184.07 -5.07191 184.343 -5.12897 184.637C-5.18604 184.932 -4.90256 185.182 -4.30615 185.41V185.41Z" fill="#D96D00"/>
<path d="M-11.9582 181.94C-11.4796 181.375 -10.5905 180.851 -9.28356 180.365L-1.19528 177.37C-1.06224 177.32 -0.921182 177.296 -0.779267 177.298C-0.639051 177.297 -0.499848 177.322 -0.368782 177.372L17.9302 184.302C18.0535 184.35 18.1143 184.4 18.1143 184.457C18.1143 184.514 18.048 184.563 17.9302 184.609L13.5657 186.226C13.2998 186.321 13.0089 186.321 12.7429 186.226L6.5948 183.895C6.50553 183.863 6.40797 183.863 6.31869 183.895L3.39005 184.981C1.99309 185.491 0.541334 185.837 -0.935727 186.01C-1.80904 186.118 -2.68811 186.172 -3.56802 186.172C-4.21412 186.172 -4.85654 186.143 -5.4916 186.084C-6.88684 185.967 -8.26004 185.663 -9.57441 185.18C-10.8077 184.711 -11.6361 184.193 -12.0484 183.632C-12.4607 183.071 -12.4313 182.504 -11.9582 181.94ZM-4.30615 183.308C-3.71165 183.52 -3.08374 183.624 -2.45252 183.614H-2.26844C-1.52634 183.599 -0.791807 183.461 -0.094511 183.207L2.22669 182.345C2.31505 182.312 2.31505 182.279 2.22669 182.244L-1.43458 180.858C-1.47782 180.84 -1.52404 180.831 -1.57079 180.83C-1.61873 180.831 -1.66617 180.84 -1.71069 180.858L-4.02452 181.716C-4.70744 181.968 -5.07191 182.24 -5.12897 182.533C-5.18604 182.826 -4.90256 183.08 -4.30615 183.308V183.308Z" fill="url(#paint3_linear)"/>
<g style="mix-blend-mode:overlay" opacity="0.6">
<g style="mix-blend-mode:overlay" opacity="0.6">
<path d="M-4.02842 181.539L-1.71459 180.679C-1.66973 180.663 -1.62243 180.654 -1.57469 180.654C-1.52812 180.654 -1.48201 180.663 -1.43847 180.679L2.2228 182.065C2.31115 182.099 2.31115 182.134 2.2228 182.167L2.1234 182.203L-1.43847 180.856C-1.48171 180.838 -1.52794 180.829 -1.57469 180.828C-1.62263 180.829 -1.67007 180.838 -1.71459 180.856L-4.02842 181.714C-4.68373 181.955 -5.03898 182.216 -5.11261 182.498C-5.12658 182.452 -5.13158 182.403 -5.12734 182.354C-5.0758 182.062 -4.71134 181.789 -4.02842 181.539Z" fill="white"/>
</g>
<g style="mix-blend-mode:overlay" opacity="0.6">
<path d="M-12.0502 183.457C-11.6379 184.009 -10.8095 184.536 -9.57624 185.005C-8.26188 185.488 -6.88868 185.792 -5.49344 185.909C-4.85838 185.968 -4.21596 185.997 -3.56985 185.997C-2.68991 185.996 -1.81085 185.942 -0.937571 185.834C0.539803 185.662 1.99176 185.316 3.38821 184.805L6.31685 183.72C6.40568 183.686 6.50412 183.686 6.59296 183.72L12.7374 186.049C13.0033 186.145 13.2943 186.145 13.5602 186.049L17.9247 184.433C17.9704 184.418 18.0134 184.396 18.0517 184.366C18.0903 184.396 18.1143 184.425 18.1143 184.457C18.1143 184.488 18.048 184.563 17.9302 184.609L13.5657 186.226C13.2998 186.321 13.0089 186.321 12.7429 186.226L6.5948 183.895C6.50552 183.863 6.40796 183.863 6.31869 183.895L3.39005 184.981C1.99309 185.491 0.541332 185.837 -0.935728 186.01C-1.80904 186.118 -2.68811 186.172 -3.56802 186.172C-4.21412 186.172 -4.85654 186.143 -5.4916 186.084C-6.88684 185.967 -8.26005 185.663 -9.57441 185.18C-10.8077 184.711 -11.6361 184.193 -12.0484 183.632C-12.2507 183.383 -12.3513 183.067 -12.33 182.747C-12.3064 183.005 -12.2093 183.252 -12.0502 183.457V183.457Z" fill="white"/>
</g>
</g>
<path d="M-37.9993 171.779V182.386C-37.9993 186.18 -34.1668 189.972 -26.489 192.878C-18.6953 195.823 -8.42938 197.309 1.8402 197.309C11.9644 197.309 22.0885 195.873 29.8584 192.994C37.735 190.077 41.6797 186.231 41.6797 182.384V171.778C41.6797 175.627 37.735 179.472 29.8584 182.39C22.0904 185.268 11.9644 186.702 1.8402 186.702C-8.42938 186.702 -18.6953 185.23 -26.489 182.274C-34.1668 179.363 -37.9993 175.571 -37.9993 171.779Z" fill="#D96D00"/>
<path d="M-37.9993 171.154V181.756C-37.9993 185.548 -34.1668 189.34 -26.489 192.249C-18.6953 195.194 -8.42938 196.679 1.8402 196.679C11.9644 196.679 22.0885 195.244 29.8584 192.366C37.735 189.453 41.6797 185.607 41.6797 181.756V171.154C41.6797 175.001 37.735 178.846 29.8584 181.764C22.0904 184.641 11.9644 186.077 1.8402 186.077C-8.42938 186.077 -18.6953 184.604 -26.489 181.648C-34.1668 178.739 -37.9993 174.946 -37.9993 171.154Z" fill="url(#paint4_linear)"/>
<g style="mix-blend-mode:multiply">
<g style="mix-blend-mode:multiply">
<path d="M16.277 185.07C16.485 185.038 16.6948 185.011 16.9028 184.978V195.58C16.6948 195.613 16.485 195.641 16.277 195.672V185.07Z" fill="#F5C491"/>
</g>
<g style="mix-blend-mode:multiply">
<path d="M19.2262 184.582C19.4342 184.545 19.644 184.506 19.8521 184.466V195.072L19.2262 195.19V184.582Z" fill="#F5C491"/>
</g>
<g style="mix-blend-mode:multiply">
<path d="M22.1769 183.989C22.3867 183.941 22.5929 183.894 22.8027 183.842V194.458L22.1769 194.603V183.989Z" fill="#F5C491"/>
</g>
<g style="mix-blend-mode:multiply">
<path d="M7.42688 185.929L8.05273 185.893V196.499L7.42688 196.538V185.929Z" fill="#F5C491"/>
</g>
<g style="mix-blend-mode:multiply">
<path d="M10.3757 185.729C10.5856 185.712 10.7954 185.697 11.0034 185.679V196.285C10.7954 196.304 10.5856 196.32 10.3757 196.335V185.729Z" fill="#F5C491"/>
</g>
<g style="mix-blend-mode:multiply">
<path d="M4.47765 186.042L5.10352 186.025V196.631L4.47765 196.648V186.042Z" fill="#F5C491"/>
</g>
<g style="mix-blend-mode:multiply">
<path d="M13.3263 185.438L13.9521 185.362V195.971L13.3263 196.044V185.438Z" fill="#F5C491"/>
</g>
<g style="mix-blend-mode:multiply">
<path d="M28.7021 192.777C28.4941 192.851 28.2861 192.921 28.0763 192.989V182.382C28.2861 182.314 28.4941 182.242 28.7021 182.171V192.777Z" fill="#F5C491"/>
</g>
<g style="mix-blend-mode:multiply">
<path d="M25.1274 183.264C25.3373 183.207 25.5435 183.146 25.7515 183.08V193.688L25.1274 193.872V183.264Z" fill="#F5C491"/>
</g>
<g style="mix-blend-mode:multiply">
<path d="M37.5527 188.383C37.3503 188.536 37.1459 188.69 36.9269 188.841V178.226C37.1459 178.077 37.3503 177.922 37.5527 177.769V188.383Z" fill="#F5C491"/>
</g>
<g style="mix-blend-mode:multiply">
<path d="M33.9762 179.974C34.1916 179.866 34.3959 179.755 34.6021 179.641V190.25C34.3959 190.362 34.1916 190.474 33.9762 190.583V179.974Z" fill="#F5C491"/>
</g>
<g style="mix-blend-mode:multiply">
<path d="M40.5015 185.37C40.308 185.658 40.099 185.935 39.8756 186.2V175.594C40.0986 175.328 40.3075 175.051 40.5015 174.764V185.37Z" fill="#F5C491"/>
</g>
<g style="mix-blend-mode:multiply">
<path d="M1.52697 196.681V186.073H1.8399H2.15283V196.681H1.8399H1.52697Z" fill="#F5C491"/>
</g>
<g style="mix-blend-mode:multiply">
<path d="M31.0269 181.309L31.6509 181.049V191.656C31.4447 191.742 31.2385 191.84 31.0269 191.915V181.309Z" fill="#F5C491"/>
</g>
</g>
<path d="M-26.1707 161.596C-18.4045 158.721 -8.28039 157.285 1.84193 157.285C12.1115 157.285 22.3793 158.758 30.1712 161.714C45.6335 167.575 45.501 177.024 29.8619 182.82C22.0939 185.697 11.9679 187.133 1.84378 187.133C-8.4258 187.133 -18.6917 185.661 -26.4855 182.704C-41.9607 176.843 -41.8171 167.398 -26.1707 161.596Z" fill="url(#paint5_linear)"/>
<g style="mix-blend-mode:overlay" opacity="0.3">
<path d="M-26.1708 161.596C-23.6387 160.675 -21.0472 159.926 -18.4139 159.354L39.7687 167.638C44.1019 172.702 41.0334 178.45 30.6055 182.526L-37.9645 172.76C-38.3658 168.731 -34.4321 164.656 -26.1708 161.596Z" fill="white"/>
</g>
<g style="mix-blend-mode:overlay" opacity="0.6">
<path d="M29.8584 183.597C22.0904 186.474 11.9644 187.908 1.84025 187.908C-8.42933 187.908 -18.6952 186.435 -26.489 183.479C-34.2202 180.55 -38.0545 176.724 -37.9992 172.906C-37.9992 172.803 -37.9827 172.701 -37.9753 172.602C-37.7286 176.267 -33.9128 179.904 -26.489 182.717C-18.6952 185.662 -8.42933 187.146 1.84025 187.146C11.9644 187.146 22.0886 185.71 29.8584 182.833C37.4791 180.009 41.4091 176.319 41.6558 172.597C41.9374 176.562 38.0038 180.571 29.8584 183.597Z" fill="white"/>
</g>
<path d="M-18.9914 164.321C-13.2151 162.18 -5.68825 161.112 1.8386 161.112C9.47406 161.112 17.1169 162.217 22.8987 164.407C34.3997 168.764 34.2985 175.791 22.6631 180.098C16.8886 182.239 9.36361 183.305 1.8386 183.305C-5.79686 183.305 -13.4305 182.2 -19.2215 180.01C-30.7244 175.654 -30.6176 168.63 -18.9914 164.321Z" fill="#F28500"/>
<g style="mix-blend-mode:overlay" opacity="0.6">
<path d="M22.902 167.076C17.111 164.882 9.47738 163.783 1.84193 163.783C-5.68493 163.783 -13.2118 164.851 -18.9881 166.99C-23.8587 168.795 -26.7008 171.076 -27.5218 173.432C-28.6852 170.119 -25.8375 166.622 -18.9881 164.092C-13.2118 161.952 -5.68493 160.884 1.84193 160.884C9.47738 160.884 17.1202 161.988 22.902 164.179C29.5858 166.712 32.3433 170.145 31.2038 173.423C30.3902 171.109 27.6272 168.871 22.902 167.076Z" fill="white"/>
</g>
<path d="M22.902 167.299C17.111 165.105 9.47738 164.006 1.84193 164.006C-5.68493 164.006 -13.2118 165.072 -18.9881 167.212C-23.8587 169.016 -26.7008 171.299 -27.5218 173.655C-28.6852 170.342 -25.8375 166.844 -18.9881 164.315C-13.2118 162.174 -5.68493 161.107 1.84193 161.107C9.47738 161.107 17.1202 162.211 22.902 164.402C29.5858 166.934 32.3433 170.367 31.2038 173.644C30.3902 171.332 27.6272 169.09 22.902 167.299Z" fill="#D96D00"/>
<path d="M-12.33 173.657V171.669L-1.1916 168.274C-1.05831 168.226 -0.917422 168.202 -0.775583 168.203C-0.635443 168.202 -0.496397 168.227 -0.365098 168.276L18.1143 173.276V175.363C18.1143 175.417 18.048 175.47 17.9302 175.516L13.5657 177.13C13.3003 177.229 13.0084 177.229 12.7429 177.13L6.5948 174.802C6.50597 174.767 6.40752 174.767 6.31869 174.802L3.39005 175.886C1.99342 176.398 0.541563 176.744 -0.935728 176.917C-1.80904 177.024 -2.68811 177.078 -3.56802 177.079C-4.21412 177.079 -4.85654 177.049 -5.4916 176.99C-6.88684 176.873 -8.26005 176.569 -9.57441 176.087C-10.8077 175.617 -11.6361 175.102 -12.0484 174.539C-12.25 174.291 -12.3506 173.976 -12.33 173.657V173.657ZM-4.30615 174.209C-3.71154 174.421 -3.08363 174.524 -2.45252 174.513H-2.26845C-1.52624 174.497 -0.791711 174.359 -0.0945125 174.104L2.22669 173.245C2.31505 173.211 2.31505 173.176 2.22669 173.143L-1.43458 171.757C-1.47782 171.739 -1.52404 171.73 -1.57079 171.73C-1.61873 171.73 -1.66617 171.739 -1.71069 171.757L-4.02452 172.617C-4.70744 172.867 -5.07191 173.138 -5.12898 173.43C-5.18604 173.723 -4.90256 173.986 -4.30615 174.209Z" fill="#D96D00"/>
<path d="M-11.9582 170.743C-11.4796 170.18 -10.5905 169.653 -9.28356 169.167L-1.19528 166.173C-1.06199 166.124 -0.921106 166.1 -0.779267 166.101C-0.639051 166.1 -0.499848 166.125 -0.368782 166.174L17.9302 173.105C18.0535 173.155 18.1143 173.204 18.1143 173.259C18.1143 173.315 18.048 173.368 17.9302 173.412L13.5657 175.03C13.4336 175.078 13.294 175.103 13.1534 175.102C13.0135 175.102 12.8746 175.078 12.7429 175.03L6.5948 172.7C6.50597 172.666 6.40752 172.666 6.31869 172.7L3.39005 173.784C1.99317 174.295 0.541408 174.641 -0.935727 174.815C-1.80904 174.922 -2.68811 174.977 -3.56802 174.977C-4.21412 174.977 -4.85654 174.946 -5.4916 174.887C-6.88688 174.771 -8.26019 174.467 -9.57441 173.985C-10.8077 173.515 -11.6361 172.998 -12.0484 172.435C-12.4607 171.872 -12.4313 171.308 -11.9582 170.743ZM-4.30615 172.111C-3.71188 172.324 -3.08381 172.428 -2.45252 172.416H-2.26844C-1.52697 172.399 -0.793537 172.258 -0.0981849 172L2.22301 171.139C2.31136 171.106 2.31136 171.071 2.22301 171.038L-1.43826 169.652C-1.48155 169.634 -1.52782 169.625 -1.57447 169.626C-1.62231 169.626 -1.66976 169.634 -1.71437 169.652L-4.02821 170.528C-4.71113 170.778 -5.0756 171.051 -5.13266 171.343C-5.18972 171.636 -4.90256 171.884 -4.30615 172.111V172.111Z" fill="url(#paint6_linear)"/>
<g style="mix-blend-mode:overlay" opacity="0.6">
<g style="mix-blend-mode:overlay" opacity="0.6">
<path d="M-4.02842 170.344L-1.71459 169.486C-1.66982 169.469 -1.62253 169.459 -1.57469 169.458C-1.52802 169.459 -1.48191 169.469 -1.43847 169.486L2.2228 170.87C2.31115 170.905 2.31115 170.94 2.2228 170.973L2.1234 171.01L-1.43847 169.661C-1.48176 169.643 -1.52803 169.634 -1.57469 169.635C-1.62252 169.635 -1.66997 169.643 -1.71459 169.661L-4.02842 170.528C-4.68373 170.769 -5.03898 171.028 -5.11261 171.31C-5.12671 171.264 -5.13171 171.216 -5.12734 171.168C-5.0758 170.864 -4.71134 170.592 -4.02842 170.344Z" fill="white"/>
</g>
<g style="mix-blend-mode:overlay" opacity="0.6">
<path d="M-12.0502 172.262C-11.6379 172.814 -10.8095 173.339 -9.57624 173.808C-8.26187 174.291 -6.88868 174.594 -5.49344 174.712C-4.85838 174.771 -4.21595 174.8 -3.56985 174.8C-2.68994 174.8 -1.81088 174.746 -0.937569 174.638C0.539722 174.465 1.99158 174.119 3.38821 173.607L6.31685 172.523C6.40612 172.491 6.50368 172.491 6.59296 172.523L12.7374 174.852C13.0029 174.95 13.2948 174.95 13.5602 174.852L17.9247 173.237C17.9698 173.221 18.0125 173.199 18.0517 173.171C18.0683 173.18 18.0827 173.192 18.0935 173.208C18.1044 173.223 18.1115 173.241 18.1143 173.259C18.1143 173.315 18.048 173.368 17.9302 173.412L13.5657 175.03C13.4336 175.078 13.294 175.103 13.1534 175.102C13.0135 175.102 12.8746 175.077 12.7429 175.03L6.5948 172.7C6.50597 172.665 6.40752 172.665 6.31869 172.7L3.39005 173.784C1.99317 174.295 0.541408 174.641 -0.935727 174.815C-1.80904 174.922 -2.68811 174.976 -3.56802 174.977C-4.21412 174.977 -4.85654 174.946 -5.4916 174.887C-6.88688 174.771 -8.26019 174.467 -9.57441 173.985C-10.8077 173.515 -11.6361 172.998 -12.0484 172.435C-12.2506 172.186 -12.3512 171.871 -12.33 171.551C-12.3061 171.81 -12.209 172.056 -12.0502 172.262Z" fill="white"/>
</g>
</g>
<path d="M-37.9993 160.588V171.19C-37.9993 174.982 -34.1668 178.776 -26.489 181.683C-18.6953 184.628 -8.42938 186.113 1.8402 186.113C11.9644 186.113 22.0885 184.676 29.8584 181.799C37.735 178.879 41.6797 175.034 41.6797 171.187V160.588C41.6797 164.435 37.735 168.28 29.8584 171.2C22.0904 174.077 11.9644 175.513 1.8402 175.513C-8.42938 175.513 -18.6953 174.04 -26.489 171.084C-34.1668 168.17 -37.9993 164.376 -37.9993 160.588Z" fill="#D96D00"/>
<path d="M-37.9993 159.956V170.564C-37.9993 174.356 -34.1668 178.15 -26.489 181.057C-18.6953 184.002 -8.42938 185.486 1.8402 185.486C11.9644 185.486 22.0885 184.05 29.8584 181.173C37.735 178.259 41.6797 174.412 41.6797 170.564V159.956C41.6797 163.803 37.735 167.649 29.8584 170.568C22.0904 173.445 11.9644 174.881 1.8402 174.881C-8.42938 174.881 -18.6953 173.408 -26.489 170.45C-34.1668 167.542 -37.9993 163.748 -37.9993 159.956Z" fill="url(#paint7_linear)"/>
<g style="mix-blend-mode:multiply">
<g style="mix-blend-mode:multiply">
<path d="M16.277 173.867L16.9028 173.775V184.383L16.277 184.475V173.867Z" fill="#F5C491"/>
</g>
<g style="mix-blend-mode:multiply">
<path d="M19.2262 173.386L19.8521 173.27V183.877C19.644 183.917 19.4342 183.954 19.2262 183.993V173.386Z" fill="#F5C491"/>
</g>
<g style="mix-blend-mode:multiply">
<path d="M22.1769 172.792C22.3867 172.746 22.5929 172.696 22.8027 172.646V183.255L22.1769 183.4V172.792Z" fill="#F5C491"/>
</g>
<g style="mix-blend-mode:multiply">
<path d="M7.42688 174.734L8.05273 174.697V185.303L7.42688 185.342V174.734Z" fill="#F5C491"/>
</g>
<g style="mix-blend-mode:multiply">
<path d="M10.3757 174.531C10.5856 174.515 10.7954 174.5 11.0034 174.482V185.088L10.3757 185.14V174.531Z" fill="#F5C491"/>
</g>
<g style="mix-blend-mode:multiply">
<path d="M4.47765 174.844L5.10352 174.828V185.438L4.47765 185.452V174.844Z" fill="#F5C491"/>
</g>
<g style="mix-blend-mode:multiply">
<path d="M13.3263 174.248L13.9521 174.172V184.781L13.3263 184.856V174.248Z" fill="#F5C491"/>
</g>
<g style="mix-blend-mode:multiply">
<path d="M28.7021 181.581L28.0763 181.793V171.185C28.2861 171.117 28.4941 171.045 28.7021 170.975V181.581Z" fill="#F5C491"/>
</g>
<g style="mix-blend-mode:multiply">
<path d="M25.1274 172.066C25.3373 172.011 25.5435 171.95 25.7515 171.882V182.492C25.5435 182.551 25.3373 182.612 25.1274 182.677V172.066Z" fill="#F5C491"/>
</g>
<g style="mix-blend-mode:multiply">
<path d="M37.5527 177.178C37.3503 177.333 37.1459 177.486 36.9269 177.637V167.03C37.1459 166.879 37.3503 166.725 37.5527 166.572V177.178Z" fill="#F5C491"/>
</g>
<g style="mix-blend-mode:multiply">
<path d="M33.9762 168.779C34.1916 168.669 34.3959 168.558 34.6021 168.446V179.052C34.3959 179.165 34.1916 179.277 33.9762 179.385V168.779Z" fill="#F5C491"/>
</g>
<g style="mix-blend-mode:multiply">
<path d="M40.5015 174.172C40.3084 174.46 40.0995 174.737 39.8756 175.002V164.395C40.099 164.13 40.308 163.853 40.5015 163.565V174.172Z" fill="#F5C491"/>
</g>
<g style="mix-blend-mode:multiply">
<path d="M1.52697 185.486V174.877H1.8399H2.15283V185.486H1.52697V185.486Z" fill="#F5C491"/>
</g>
<g style="mix-blend-mode:multiply">
<path d="M31.0269 170.112C31.2385 170.027 31.4447 169.941 31.6509 169.852V180.468C31.4447 180.556 31.2385 180.643 31.0269 180.727V170.112Z" fill="#F5C491"/>
</g>
</g>
<path d="M-26.1707 150.401C-18.4045 147.524 -8.28039 146.086 1.84193 146.086C12.1115 146.086 22.3793 147.559 30.1712 150.517C45.6335 156.378 45.501 165.828 29.8619 171.623C22.0939 174.5 11.9679 175.937 1.84378 175.937C-8.4258 175.937 -18.6917 174.465 -26.4855 171.507C-41.9607 165.646 -41.8171 156.195 -26.1707 150.401Z" fill="url(#paint8_linear)"/>
<g style="mix-blend-mode:overlay" opacity="0.3">
<path d="M-26.1708 150.401C-23.6393 149.478 -21.0476 148.729 -18.4139 148.159L39.7687 156.442C44.1019 161.504 41.0334 167.255 30.6055 171.33L-37.9645 161.563C-38.3658 157.536 -34.4321 153.458 -26.1708 150.401Z" fill="white"/>
</g>
<g style="mix-blend-mode:overlay" opacity="0.6">
<path d="M29.8584 172.39C22.0904 175.269 11.9644 176.705 1.84025 176.705C-8.42933 176.705 -18.6952 175.232 -26.489 172.276C-34.2202 169.346 -38.0545 165.521 -37.9992 161.701C-37.9992 161.6 -37.9827 161.499 -37.9753 161.397C-37.7286 165.062 -33.9128 168.7 -26.489 171.521C-18.6952 174.467 -8.42933 175.952 1.84025 175.952C11.9644 175.952 22.0886 174.515 29.8584 171.637C37.4791 168.816 41.4091 165.123 41.6558 161.401C41.9374 165.373 38.0038 169.373 29.8584 172.39Z" fill="white"/>
</g>
<path d="M-18.9917 153.123C-13.2117 150.984 -5.68484 149.911 1.84202 149.911C9.47747 149.911 17.1203 151.016 22.9021 153.204C34.4032 157.563 34.3019 164.587 22.6665 168.897C16.892 171.036 9.36703 172.101 1.84202 172.101C-5.79344 172.101 -13.4271 170.997 -19.2181 168.808C-30.7246 164.453 -30.6179 157.431 -18.9917 153.123Z" fill="#F28500"/>
<g style="mix-blend-mode:overlay" opacity="0.6">
<path d="M22.902 155.881C17.111 153.685 9.47738 152.588 1.84193 152.588C-5.68493 152.588 -13.2118 153.655 -18.9881 155.794C-23.8587 157.6 -26.7008 159.881 -27.5218 162.237C-28.6852 158.923 -25.8375 155.426 -18.9881 152.895C-13.2118 150.756 -5.68493 149.688 1.84193 149.688C9.47738 149.688 17.1202 150.793 22.902 152.983C29.5858 155.516 32.3433 158.949 31.2038 162.226C30.3902 159.914 27.6272 157.672 22.902 155.881Z" fill="white"/>
</g>
<path d="M22.902 156.103C17.111 153.907 9.47738 152.808 1.84193 152.808C-5.68493 152.808 -13.2118 153.876 -18.9881 156.015C-23.8587 157.821 -26.7008 160.102 -27.5218 162.458C-28.6852 159.133 -25.8375 155.647 -18.9881 153.116C-13.2118 150.984 -5.68493 149.911 1.84193 149.911C9.47738 149.911 17.1202 151.016 22.902 153.204C29.5858 155.737 32.3433 159.17 31.2038 162.449C30.3902 160.135 27.6272 157.894 22.902 156.103Z" fill="#D96D00"/>
<path d="M-12.33 162.452V160.471L-1.19159 157.079C-1.05855 157.03 -0.917496 157.005 -0.775582 157.007C-0.635366 157.006 -0.496163 157.031 -0.365097 157.081L18.1143 162.078V164.166C18.1143 164.219 18.048 164.273 17.9302 164.321L13.5657 165.935C13.4339 165.984 13.2941 166.008 13.1534 166.007C13.0134 166.007 12.8744 165.983 12.7429 165.935L6.5948 163.606C6.50597 163.572 6.40752 163.572 6.31869 163.606L3.39005 164.691C1.99309 165.201 0.541334 165.546 -0.935727 165.719C-1.80892 165.829 -2.68804 165.883 -3.56802 165.883C-4.21412 165.883 -4.85654 165.854 -5.4916 165.793C-6.88661 165.676 -8.25969 165.372 -9.57441 164.891C-10.8077 164.42 -11.6361 163.903 -12.0484 163.341C-12.2518 163.091 -12.3525 162.774 -12.33 162.452V162.452ZM-4.30615 163.017C-3.71188 163.231 -3.08381 163.334 -2.45252 163.323H-2.26844C-1.52633 163.306 -0.79195 163.168 -0.094511 162.914L2.22301 162.06C2.31136 162.027 2.31136 161.994 2.22301 161.959L-1.43826 160.573C-1.4815 160.555 -1.52773 160.546 -1.57447 160.545C-1.62242 160.546 -1.66986 160.555 -1.71437 160.573L-4.02821 161.432C-4.71113 161.683 -5.0756 161.955 -5.13266 162.248C-5.18972 162.541 -4.90256 162.796 -4.30615 163.017V163.017Z" fill="#D96D00"/>
<path d="M-11.9582 159.548C-11.4796 158.983 -10.5905 158.456 -9.28356 157.972L-1.19528 154.975C-1.06189 154.927 -0.920998 154.904 -0.779267 154.905C-0.639051 154.904 -0.499848 154.929 -0.368782 154.979L17.9302 161.909C18.0535 161.957 18.1143 162.007 18.1143 162.062C18.1143 162.117 18.048 162.171 17.9302 162.215L13.5657 163.831C13.2998 163.927 13.0089 163.927 12.7429 163.831L6.5948 161.508C6.50553 161.476 6.40797 161.476 6.31869 161.508L3.39005 162.592C1.99342 163.104 0.541565 163.45 -0.935727 163.623C-1.809 163.731 -2.68807 163.786 -3.56802 163.787C-4.21412 163.787 -4.85654 163.756 -5.4916 163.697C-6.88661 163.579 -8.25969 163.276 -9.57441 162.795C-10.8077 162.323 -11.6361 161.806 -12.0484 161.245C-12.4607 160.683 -12.4313 160.111 -11.9582 159.548ZM-4.30615 160.915C-3.71165 161.128 -3.08374 161.231 -2.45252 161.221H-2.26844C-1.52624 161.205 -0.79171 161.067 -0.094511 160.812L2.22669 159.953C2.31505 159.919 2.31505 159.884 2.22669 159.85L-1.43458 158.465C-1.47782 158.447 -1.52404 158.438 -1.57079 158.438C-1.61873 158.438 -1.66617 158.447 -1.71069 158.465L-4.02452 159.323C-4.70744 159.575 -5.07191 159.846 -5.12897 160.14C-5.18604 160.435 -4.90256 160.687 -4.30615 160.915V160.915Z" fill="url(#paint9_linear)"/>
<g style="mix-blend-mode:overlay" opacity="0.6">
<g style="mix-blend-mode:overlay" opacity="0.6">
<path d="M-4.02842 159.144L-1.71459 158.288C-1.67007 158.271 -1.62263 158.261 -1.57469 158.261C-1.52794 158.261 -1.48171 158.271 -1.43847 158.288L2.2228 159.667C2.31115 159.702 2.31115 159.735 2.2228 159.768L2.1234 159.805L-1.43847 158.458C-1.48171 158.44 -1.52794 158.431 -1.57469 158.43C-1.62263 158.431 -1.67007 158.44 -1.71459 158.458L-4.02842 159.316C-4.68373 159.557 -5.03898 159.818 -5.11261 160.098C-5.12671 160.052 -5.13171 160.004 -5.12734 159.956C-5.0758 159.667 -4.71134 159.396 -4.02842 159.144Z" fill="white"/>
</g>
<g style="mix-blend-mode:overlay" opacity="0.6">
<path d="M-12.0502 161.064C-11.6379 161.616 -10.8095 162.141 -9.57624 162.612C-8.26203 163.095 -6.88873 163.398 -5.49344 163.514C-4.85838 163.575 -4.21596 163.603 -3.56985 163.603C-2.68992 163.603 -1.8108 163.549 -0.937571 163.441C0.53949 163.267 1.99125 162.922 3.38821 162.412L6.31685 161.324C6.40568 161.289 6.50412 161.289 6.59296 161.324L12.7374 163.652C12.8688 163.701 13.0078 163.726 13.1479 163.726C13.2887 163.727 13.4285 163.702 13.5602 163.652L17.9247 162.038C17.9699 162.021 18.0126 161.998 18.0517 161.97C18.0903 161.999 18.1143 162.029 18.1143 162.058C18.1143 162.088 18.048 162.167 17.9302 162.211L13.5657 163.827C13.2998 163.923 13.0089 163.923 12.7429 163.827L6.5948 161.508C6.50552 161.476 6.40796 161.476 6.31869 161.508L3.39005 162.592C1.99342 163.104 0.541563 163.45 -0.935728 163.623C-1.809 163.731 -2.68807 163.786 -3.56802 163.787C-4.21412 163.787 -4.85654 163.755 -5.4916 163.696C-6.88661 163.579 -8.25969 163.275 -9.57441 162.794C-10.8077 162.323 -11.6361 161.806 -12.0484 161.245C-12.2504 160.996 -12.351 160.68 -12.33 160.361C-12.3053 160.617 -12.2083 160.861 -12.0502 161.064V161.064Z" fill="white"/>
</g>
</g>
<path d="M-37.9993 149.387V159.995C-37.9993 163.787 -34.1668 167.579 -26.489 170.487C-18.6953 173.432 -8.42938 174.916 1.8402 174.916C11.9644 174.916 22.0885 173.48 29.8584 170.603C37.735 167.684 41.6797 163.838 41.6797 159.991V149.387C41.6797 153.232 37.735 157.079 29.8584 159.997C22.0904 162.874 11.9644 164.31 1.8402 164.31C-8.42938 164.31 -18.6953 162.837 -26.489 159.881C-34.1668 156.972 -37.9993 153.179 -37.9993 149.387Z" fill="#D96D00"/>
<path d="M-37.9993 148.761V159.367C-37.9993 163.159 -34.1668 166.953 -26.489 169.859C-18.6953 172.805 -8.42938 174.29 1.8402 174.29C11.9644 174.29 22.0885 172.854 29.8584 169.977C37.735 167.058 41.6797 163.212 41.6797 159.365V148.761C41.6797 152.606 37.735 156.451 29.8584 159.373C22.0904 162.248 11.9644 163.684 1.8402 163.684C-8.42938 163.684 -18.6953 162.211 -26.489 159.255C-34.1668 156.354 -37.9993 152.553 -37.9993 148.761Z" fill="url(#paint10_linear)"/>
<g style="mix-blend-mode:multiply">
<g style="mix-blend-mode:multiply">
<path d="M16.277 162.671L16.9028 162.579V173.188L16.277 173.278V162.671Z" fill="#F5C491"/>
</g>
<g style="mix-blend-mode:multiply">
<path d="M19.2262 162.187C19.4342 162.15 19.644 162.113 19.8521 162.073V172.681L19.2262 172.795V162.187Z" fill="#F5C491"/>
</g>
<g style="mix-blend-mode:multiply">
<path d="M22.1769 161.596L22.8027 161.451V172.057L22.1769 172.204V161.596Z" fill="#F5C491"/>
</g>
<g style="mix-blend-mode:multiply">
<path d="M7.42688 163.533C7.63489 163.533 7.84289 163.509 8.05273 163.496V174.104C7.84289 174.117 7.63489 174.13 7.42688 174.139V163.533Z" fill="#F5C491"/>
</g>
<g style="mix-blend-mode:multiply">
<path d="M10.3757 163.336L11.0034 163.284V173.891C10.7954 173.911 10.5856 173.926 10.3757 173.942V163.336Z" fill="#F5C491"/>
</g>
<g style="mix-blend-mode:multiply">
<path d="M4.47765 163.647L5.10352 163.63V174.239L4.47765 174.255V163.647Z" fill="#F5C491"/>
</g>
<g style="mix-blend-mode:multiply">
<path d="M13.3266 163.052L13.958 162.981V173.583L13.3321 173.659L13.3266 163.052Z" fill="#F5C491"/>
</g>
<g style="mix-blend-mode:multiply">
<path d="M28.7021 170.384L28.0763 170.596V159.989L28.7021 159.777V170.384Z" fill="#F5C491"/>
</g>
<g style="mix-blend-mode:multiply">
<path d="M25.1274 160.871C25.3373 160.814 25.5435 160.753 25.7515 160.687V171.295L25.1274 171.47V160.871Z" fill="#F5C491"/>
</g>
<g style="mix-blend-mode:multiply">
<path d="M37.5527 165.981C37.3503 166.136 37.1459 166.288 36.9269 166.441V155.835C37.1459 155.682 37.3503 155.527 37.5527 155.375V165.981Z" fill="#F5C491"/>
</g>
<g style="mix-blend-mode:multiply">
<path d="M33.9762 157.584C34.1916 157.473 34.3959 157.361 34.6021 157.249V167.857C34.3959 167.967 34.1916 168.08 33.9762 168.19V157.584Z" fill="#F5C491"/>
</g>
<g style="mix-blend-mode:multiply">
<path d="M40.5015 162.98C40.3084 163.269 40.0995 163.546 39.8756 163.812V153.2C40.0991 152.934 40.308 152.656 40.5015 152.368V162.98Z" fill="#F5C491"/>
</g>
<g style="mix-blend-mode:multiply">
<path d="M1.52697 174.288V163.682H2.15283V174.288H1.8399H1.52697Z" fill="#F5C491"/>
</g>
<g style="mix-blend-mode:multiply">
<path d="M31.0269 158.916L31.6509 158.657V169.263C31.4447 169.35 31.2385 169.447 31.0269 169.523V158.916Z" fill="#F5C491"/>
</g>
</g>
<path d="M-26.1707 139.203C-18.4045 136.326 -8.28039 134.891 1.84193 134.891C12.1115 134.891 22.3793 136.363 30.1712 139.321C45.6335 145.182 45.501 154.631 29.8619 160.427C22.0939 163.304 11.9679 164.74 1.84378 164.74C-8.4258 164.74 -18.6917 163.268 -26.4855 160.311C-41.9607 154.449 -41.8171 145 -26.1707 139.203Z" fill="url(#paint11_linear)"/>
<g style="mix-blend-mode:overlay" opacity="0.3">
<path d="M-26.1708 139.204C-23.639 138.281 -21.0474 137.532 -18.4139 136.962L39.7687 145.245C44.1019 150.307 41.0334 156.058 30.6055 160.133L-37.9645 150.377C-38.3658 146.34 -34.4321 142.263 -26.1708 139.204Z" fill="white"/>
</g>
<g style="mix-blend-mode:overlay" opacity="0.6">
<path d="M29.8584 161.195C22.0904 164.072 11.9644 165.51 1.84025 165.51C-8.42933 165.51 -18.6952 164.037 -26.489 161.079C-34.2202 158.15 -38.0545 154.323 -37.9992 150.504C-37.9992 150.403 -37.9827 150.301 -37.9753 150.2C-37.7286 153.865 -33.9128 157.504 -26.489 160.324C-18.6952 163.27 -8.42933 164.753 1.84025 164.753C11.9644 164.753 22.0886 163.317 29.8584 160.44C37.4791 157.617 41.4091 153.924 41.6558 150.204C41.9374 154.169 38.0038 158.178 29.8584 161.195Z" fill="white"/>
</g>
<path d="M-18.9917 141.926C-13.2117 139.787 -5.68484 138.719 1.84202 138.719C9.47747 138.719 17.1203 139.824 22.9021 142.014C34.4032 146.373 34.3019 153.398 22.6665 157.705C16.892 159.844 9.36703 160.912 1.84202 160.912C-5.79344 160.912 -13.4271 159.807 -19.2181 157.618C-30.7246 153.259 -30.6179 146.23 -18.9917 141.926Z" fill="#F28500"/>
<g style="mix-blend-mode:overlay" opacity="0.6">
<path d="M22.902 144.685C17.111 142.489 9.47738 141.39 1.84193 141.39C-5.68493 141.39 -13.2118 142.458 -18.9881 144.597C-23.8587 146.401 -26.7008 148.683 -27.5218 151.039C-28.6852 147.717 -25.8375 144.229 -18.9881 141.698C-13.2118 139.566 -5.68493 138.498 1.84193 138.498C9.47738 138.498 17.1202 139.603 22.902 141.792C29.5858 144.326 32.3433 147.757 31.2038 151.036C30.3902 148.716 27.6272 146.476 22.902 144.685Z" fill="white"/>
</g>
<path d="M22.902 144.906C17.111 142.712 9.47738 141.613 1.84193 141.613C-5.68493 141.613 -13.2118 142.679 -18.9881 144.818C-23.8587 146.624 -26.7008 148.904 -27.5218 151.26C-28.6852 147.947 -25.8375 144.459 -18.9881 141.92C-13.2118 139.787 -5.68493 138.719 1.84193 138.719C9.47738 138.719 17.1202 139.824 22.902 142.014C29.5858 144.545 32.3433 147.98 31.2038 151.257C30.3902 148.939 27.6272 146.697 22.902 144.906Z" fill="#D96D00"/>
<path d="M-12.33 151.257V149.274L-1.19159 145.882C-1.05831 145.833 -0.917421 145.809 -0.775582 145.81C-0.63525 145.809 -0.496043 145.835 -0.365097 145.885L18.1143 150.881V152.969C18.1143 153.024 18.048 153.075 17.9302 153.123L13.5657 154.738C13.2998 154.833 13.0089 154.833 12.7429 154.738L6.5948 152.411C6.50597 152.377 6.40752 152.377 6.31869 152.411L3.39005 153.493C1.99342 154.005 0.541565 154.351 -0.935727 154.524C-1.80904 154.632 -2.68811 154.686 -3.56802 154.686C-4.21412 154.686 -4.85654 154.657 -5.4916 154.598C-6.88684 154.481 -8.26004 154.177 -9.57441 153.694C-10.8077 153.225 -11.6361 152.707 -12.0484 152.146C-12.2516 151.896 -12.3523 151.578 -12.33 151.257V151.257ZM-4.30615 151.82C-3.71176 152.032 -3.08353 152.134 -2.45252 152.12H-2.26844C-1.52624 152.105 -0.79171 151.966 -0.094511 151.711L2.22669 150.852C2.31505 150.817 2.31505 150.784 2.22669 150.751L-1.43458 149.363C-1.47811 149.346 -1.52422 149.337 -1.57079 149.337C-1.61854 149.338 -1.66583 149.346 -1.71069 149.363L-4.02452 150.222C-4.70744 150.474 -5.07191 150.747 -5.12897 151.04C-5.18604 151.332 -4.90256 151.594 -4.30615 151.82V151.82Z" fill="#D96D00"/>
<path d="M-11.9582 148.35C-11.4796 147.785 -10.5905 147.26 -9.28357 146.776L-1.19528 143.78C-1.06224 143.73 -0.921183 143.706 -0.779268 143.708C-0.639128 143.707 -0.500082 143.732 -0.368783 143.781L17.9302 150.712C18.0535 150.762 18.1143 150.811 18.1143 150.866C18.1143 150.922 18.048 150.973 17.9302 151.019L13.5657 152.635C13.4339 152.685 13.2941 152.709 13.1534 152.707C13.0134 152.708 12.8744 152.684 12.7429 152.635L6.5948 150.307C6.50597 150.273 6.40752 150.273 6.31869 150.307L3.38821 151.384C1.99151 151.895 0.539649 152.24 -0.937571 152.413C-1.8108 152.521 -2.68992 152.575 -3.56985 152.575C-4.21596 152.575 -4.85838 152.547 -5.49344 152.488C-6.88868 152.371 -8.26188 152.067 -9.57624 151.584C-10.8095 151.115 -11.6379 150.598 -12.0502 150.036C-12.4625 149.475 -12.4313 148.913 -11.9582 148.35ZM-4.30615 149.727C-3.71131 149.938 -3.08356 150.041 -2.45252 150.031H-2.26845C-1.52634 150.016 -0.791809 149.878 -0.0945125 149.624L2.22669 148.764C2.31505 148.729 2.31505 148.694 2.22669 148.661L-1.43458 147.277C-1.47782 147.259 -1.52404 147.25 -1.57079 147.249C-1.61873 147.25 -1.66617 147.259 -1.71069 147.277L-4.02452 148.135C-4.70744 148.385 -5.07191 148.658 -5.12898 148.95C-5.18604 149.243 -4.90256 149.49 -4.30615 149.727Z" fill="url(#paint12_linear)"/>
<g style="mix-blend-mode:overlay" opacity="0.6">
<g style="mix-blend-mode:overlay" opacity="0.6">
<path d="M-4.02842 147.949L-1.71459 147.089C-1.66973 147.073 -1.62243 147.064 -1.57469 147.063C-1.52812 147.064 -1.48201 147.072 -1.43847 147.089L2.2228 148.477C2.31115 148.51 2.31115 148.543 2.2228 148.578L2.1234 148.613L-1.43847 147.268C-1.48171 147.25 -1.52794 147.24 -1.57469 147.24C-1.62263 147.24 -1.67007 147.25 -1.71459 147.268L-4.02842 148.125C-4.68373 148.365 -5.03898 148.626 -5.11261 148.906C-5.12647 148.861 -5.13147 148.813 -5.12734 148.766C-5.0758 148.471 -4.71134 148.201 -4.02842 147.949Z" fill="white"/>
</g>
<g style="mix-blend-mode:overlay" opacity="0.6">
<path d="M-12.0502 149.867C-11.6379 150.428 -10.8095 150.946 -9.57624 151.415C-8.26187 151.898 -6.88868 152.202 -5.49344 152.319C-4.85838 152.378 -4.21595 152.407 -3.56985 152.407C-2.68994 152.407 -1.81088 152.353 -0.937569 152.245C0.539566 152.071 1.99132 151.725 3.38821 151.214L6.31685 150.13C6.40612 150.098 6.50368 150.098 6.59296 150.13L12.7374 152.459C13.0029 152.557 13.2948 152.557 13.5602 152.459L17.9247 150.844C17.9694 150.827 18.0121 150.805 18.0517 150.778C18.0683 150.787 18.0827 150.799 18.0935 150.815C18.1044 150.83 18.1115 150.848 18.1143 150.866C18.1143 150.92 18.048 150.973 17.9302 151.019L13.5657 152.635C13.4339 152.685 13.2941 152.709 13.1534 152.707C13.0134 152.708 12.8744 152.684 12.7429 152.635L6.5948 150.307C6.50597 150.273 6.40752 150.273 6.31869 150.307L3.38821 151.384C1.99151 151.895 0.53965 152.24 -0.937569 152.413C-1.8108 152.521 -2.68991 152.575 -3.56985 152.575C-4.21595 152.575 -4.85838 152.547 -5.49344 152.488C-6.88868 152.371 -8.26187 152.067 -9.57624 151.584C-10.8095 151.115 -11.6379 150.598 -12.0502 150.036C-12.2525 149.787 -12.3531 149.47 -12.3319 149.149C-12.3094 149.411 -12.2116 149.66 -12.0502 149.867Z" fill="white"/>
</g>
</g>
<path d="M-37.9993 138.191V148.796C-37.9993 152.588 -34.1668 156.382 -26.489 159.288C-18.6953 162.244 -8.42938 163.717 1.8402 163.717C11.9644 163.717 22.0885 162.281 29.8584 159.404C37.735 156.485 41.6797 152.641 41.6797 148.792V138.189C41.6797 142.037 37.735 145.882 29.8584 148.8C22.0904 151.679 11.9644 153.114 1.8402 153.114C-8.42938 153.114 -18.6953 151.642 -26.489 148.685C-34.1668 145.775 -37.9993 141.981 -37.9993 138.191Z" fill="#D96D00"/>
<path d="M-37.9993 137.565V148.172C-37.9993 151.964 -34.1668 155.757 -26.489 158.664C-18.6953 161.609 -8.42938 163.095 1.8402 163.095C11.9644 163.095 22.0885 161.657 29.8584 158.78C37.735 155.86 41.6797 152.015 41.6797 148.168V137.563C41.6797 141.411 37.735 145.256 29.8584 148.175C22.0904 151.051 11.9644 152.488 1.8402 152.488C-8.42938 152.488 -18.6953 151.016 -26.489 148.059C-34.1668 145.149 -37.9993 141.357 -37.9993 137.565Z" fill="url(#paint13_linear)"/>
<g style="mix-blend-mode:multiply">
<g style="mix-blend-mode:multiply">
<path d="M16.277 151.474L16.9028 151.384V161.99C16.6948 162.023 16.485 162.051 16.277 162.081V151.474Z" fill="#F5C491"/>
</g>
<g style="mix-blend-mode:multiply">
<path d="M19.2262 150.992L19.8521 150.878V161.484L19.2262 161.598V150.992Z" fill="#F5C491"/>
</g>
<g style="mix-blend-mode:multiply">
<path d="M22.1769 150.399C22.3867 150.353 22.5929 150.301 22.8027 150.254V160.86L22.1769 161.007V150.399Z" fill="#F5C491"/>
</g>
<g style="mix-blend-mode:multiply">
<path d="M7.42688 152.341L8.05273 152.302V162.909C7.84289 162.924 7.63489 162.938 7.42688 162.947V152.341Z" fill="#F5C491"/>
</g>
<g style="mix-blend-mode:multiply">
<path d="M10.3757 152.138L11.0034 152.087V162.695L10.3757 162.747V152.138Z" fill="#F5C491"/>
</g>
<g style="mix-blend-mode:multiply">
<path d="M4.47765 152.451L5.10352 152.435V163.041L4.47765 163.06V152.451Z" fill="#F5C491"/>
</g>
<g style="mix-blend-mode:multiply">
<path d="M13.3263 151.855L13.9521 151.78V162.388L13.3263 162.463V151.855Z" fill="#F5C491"/>
</g>
<g style="mix-blend-mode:multiply">
<path d="M28.7021 159.189L28.0763 159.4V148.792C28.2861 148.724 28.4941 148.652 28.7021 148.58V159.189Z" fill="#F5C491"/>
</g>
<g style="mix-blend-mode:multiply">
<path d="M25.1274 149.674L25.7515 149.499V160.105L25.1274 160.289V149.674Z" fill="#F5C491"/>
</g>
<g style="mix-blend-mode:multiply">
<path d="M37.5527 154.786C37.3503 154.94 37.1459 155.093 36.9269 155.244V144.637C37.1459 144.486 37.3503 144.332 37.5527 144.179V154.786Z" fill="#F5C491"/>
</g>
<g style="mix-blend-mode:multiply">
<path d="M33.9762 146.388C34.1916 146.276 34.3959 146.165 34.6021 146.053V156.661C34.3959 156.772 34.1916 156.884 33.9762 156.993V146.388Z" fill="#F5C491"/>
</g>
<g style="mix-blend-mode:multiply">
<path d="M40.5015 151.78C40.308 152.068 40.0991 152.346 39.8756 152.612V141.996C40.0986 141.73 40.3075 141.453 40.5015 141.166V151.78Z" fill="#F5C491"/>
</g>
<g style="mix-blend-mode:multiply">
<path d="M1.52697 163.093V152.488H2.15283V163.095H1.8399L1.52697 163.093Z" fill="#F5C491"/>
</g>
<g style="mix-blend-mode:multiply">
<path d="M31.0269 147.719C31.2385 147.634 31.4447 147.546 31.6509 147.459V158.066C31.4447 158.152 31.2385 158.25 31.0269 158.325V147.719Z" fill="#F5C491"/>
</g>
</g>
<path d="M-26.1707 128.006C-18.4045 125.131 -8.28039 123.693 1.84193 123.693C12.1115 123.693 22.3793 125.166 30.1712 128.126C45.6335 133.985 45.501 143.435 29.8619 149.23C22.0939 152.107 11.9679 153.545 1.84378 153.545C-8.4258 153.545 -18.6917 152.072 -26.4855 149.114C-41.9607 143.253 -41.8171 133.801 -26.1707 128.006Z" fill="url(#paint14_linear)"/>
<g style="mix-blend-mode:overlay" opacity="0.6">
<path d="M29.8584 150C22.0904 152.877 11.9644 154.313 1.84025 154.313C-8.42933 154.313 -18.6952 152.84 -26.489 149.884C-34.2202 146.953 -38.0545 143.126 -37.9992 139.308C-37.9992 139.207 -37.9827 139.104 -37.9753 139.003C-37.7286 142.668 -33.9128 146.309 -26.489 149.127C-18.6952 152.072 -8.42933 153.558 1.84025 153.558C11.9644 153.558 22.0886 152.12 29.8584 149.243C37.4791 146.419 41.4091 142.727 41.6558 139.008C41.9374 142.972 38.0038 146.981 29.8584 150Z" fill="white"/>
</g>
<path d="M-18.9914 130.731C-13.2151 128.592 -5.68825 127.522 1.8386 127.522C9.47406 127.522 17.1169 128.627 22.8987 130.817C34.3997 135.174 34.2985 142.202 22.6631 146.51C16.8886 148.647 9.36361 149.716 1.8386 149.716C-5.79686 149.716 -13.4305 148.612 -19.2215 146.419C-30.7244 142.064 -30.6176 135.04 -18.9914 130.731Z" fill="#F28500"/>
<g style="mix-blend-mode:overlay" opacity="0.6">
<path d="M22.902 133.488C17.111 131.294 9.47738 130.193 1.84193 130.193C-5.68493 130.193 -13.2118 131.262 -18.9881 133.401C-23.8587 135.205 -26.7008 137.488 -27.5218 139.844C-28.6852 136.52 -25.8375 133.033 -18.9881 130.502C-13.2118 128.374 -5.68493 127.301 1.84193 127.301C9.47738 127.301 17.1202 128.406 22.902 130.596C29.5858 133.127 32.3433 136.562 31.2038 139.839C30.3902 137.519 27.6272 135.279 22.902 133.488Z" fill="white"/>
</g>
<path d="M22.902 133.712C17.111 131.518 9.47738 130.419 1.84193 130.419C-5.68493 130.419 -13.2118 131.487 -18.9881 133.626C-23.8587 135.432 -26.7008 137.712 -27.5218 140.069C-28.6852 136.746 -25.8375 133.258 -18.9881 130.729C-13.2118 128.59 -5.68493 127.52 1.84193 127.52C9.47738 127.52 17.1202 128.625 22.902 130.815C29.5858 133.348 32.3433 136.783 31.2038 140.058C30.3902 137.742 27.6272 135.5 22.902 133.712Z" fill="#D96D00"/>
<path d="M1.33562 146.509C-2.26674 146.673 -10.02 146.618 -11.9178 145.51C-14.02 144.284 -11.014 143.086 -9.1254 142.502C-9.98256 141.902 -10.7256 141.154 -11.3196 140.293C-11.7867 139.629 -12.0391 138.837 -12.043 138.025C-14.5704 137.63 -18.9348 136.746 -18.5022 135.411C-18.1083 134.204 -10.8428 133.512 -7.22574 133.368C-5.24508 132.652 -2.72508 132.185 0.201722 132.059C9.28033 131.675 18.8394 134.734 21.5545 138.894C24.2696 143.054 19.11 146.739 10.0332 147.126C7.12009 147.245 4.20286 147.038 1.33562 146.509V146.509ZM2.39959 135.85C2.15661 135.481 0.972992 135.214 -0.241907 135.266C-1.45681 135.318 -2.24465 135.664 -2.00167 136.037C-1.75869 136.411 -0.575077 136.67 0.639823 136.619C1.85472 136.567 2.64257 136.223 2.39959 135.85V135.85ZM7.33097 141.092C8.4888 140.941 8.63238 140.54 8.42438 140.223C8.36566 140.137 8.29213 140.061 8.20717 140C7.89424 139.768 7.28679 139.59 6.58178 139.5C7.13401 139.354 7.48191 139.132 7.48375 138.892C7.48099 138.81 7.45411 138.73 7.40643 138.662C7.19843 138.344 6.55601 137.979 5.26932 137.926C5.05947 137.926 4.87723 137.963 4.86435 138.027C4.85146 138.092 5.01161 138.149 5.2325 138.156C6.26701 138.195 6.73088 138.598 6.72904 138.872C6.7272 139.146 6.13815 139.38 5.25643 139.433L5.16255 139.443H5.14231C5.11155 139.448 5.08135 139.456 5.05211 139.467H5.03922C5.01831 139.473 4.99931 139.484 4.984 139.5V139.5C4.97965 139.506 4.97731 139.513 4.97731 139.521C4.97731 139.528 4.97965 139.536 4.984 139.542C4.984 139.542 4.984 139.542 4.984 139.542C4.99215 139.55 5.00148 139.556 5.01162 139.56C5.02044 139.568 5.03037 139.574 5.04107 139.579C5.05708 139.586 5.07371 139.593 5.09077 139.597L5.14599 139.614H5.20305L5.28036 139.623H5.34847C5.36868 139.625 5.38901 139.625 5.40922 139.623C6.30383 139.601 7.1469 139.765 7.50768 140.032C7.86847 140.299 7.93106 140.711 7.00148 140.834C6.8174 140.858 6.73457 140.926 6.8174 140.985C6.97497 141.069 7.15311 141.106 7.33097 141.092V141.092ZM7.25366 143.301C7.01068 142.933 5.82707 142.668 4.61217 142.719C3.39727 142.771 2.60942 143.115 2.8524 143.489C3.09538 143.862 4.279 144.124 5.4939 144.07C6.7088 144.017 7.504 143.673 7.26102 143.299L7.25366 143.301Z" fill="#DB7E27"/>
<path d="M1.10761 146.158C-2.49475 146.322 -10.248 146.268 -12.1458 145.158C-14.2498 143.932 -11.242 142.736 -9.35341 142.15C-10.2114 141.552 -10.9547 140.804 -11.5476 139.942C-12.0144 139.278 -12.2669 138.487 -12.271 137.676C-14.7984 137.278 -19.1646 136.387 -18.7302 135.062C-18.3381 133.854 -11.0708 133.162 -7.45375 133.018C-5.47494 132.302 -2.95494 131.833 -0.0262945 131.71C9.05232 131.323 18.6114 134.382 21.3265 138.543C24.0416 142.703 18.8819 146.39 9.80334 146.776C6.89079 146.893 3.97428 146.686 1.10761 146.158V146.158ZM2.17709 135.498C1.93226 135.13 0.750504 134.865 -0.464395 134.916C-1.67929 134.968 -2.46714 135.312 -2.22416 135.686C-1.98118 136.059 -0.797576 136.321 0.417323 136.267C1.63222 136.214 2.41454 135.872 2.17709 135.498ZM7.11031 140.74C8.26815 140.59 8.41173 140.188 8.20372 139.873C8.14438 139.786 8.07024 139.71 7.98467 139.649C7.67358 139.417 7.06429 139.24 6.36112 139.148C6.91335 139.005 7.26126 138.78 7.2631 138.541C7.25907 138.458 7.23162 138.378 7.18395 138.311C6.97778 137.992 6.33535 137.628 5.04866 137.574C4.83697 137.574 4.65659 137.613 4.6437 137.676C4.63082 137.738 4.79096 137.797 5.00081 137.806C6.03716 137.843 6.50102 138.246 6.49918 138.521C6.49734 138.795 5.9083 139.03 5.02657 139.082C4.99567 139.083 4.96492 139.087 4.93454 139.093H4.91429C4.88372 139.099 4.85359 139.107 4.82409 139.117H4.80936C4.7898 139.125 4.77175 139.136 4.75599 139.15C4.75179 139.156 4.74953 139.163 4.74953 139.17C4.74953 139.178 4.75179 139.185 4.75599 139.191V139.191C4.75599 139.191 4.75599 139.191 4.75599 139.2C4.75599 139.209 4.77439 139.211 4.78359 139.218C4.79287 139.225 4.80273 139.231 4.81305 139.237C4.82902 139.244 4.84567 139.249 4.86275 139.253C4.88044 139.261 4.89897 139.266 4.91797 139.27L4.97319 139.279L5.05235 139.288H5.12045H5.1812C6.07397 139.264 6.91887 139.428 7.27966 139.697C7.64045 139.966 7.69935 140.405 6.77898 140.523C6.5949 140.549 6.51207 140.617 6.5949 140.676C6.75715 140.746 6.93587 140.768 7.11031 140.74ZM7.033 142.949C6.78818 142.581 5.60642 142.314 4.38968 142.366C3.17294 142.417 2.38693 142.763 2.63175 143.135C2.87657 143.507 4.05834 143.77 5.27324 143.719C6.48814 143.667 7.27598 143.323 7.033 142.949Z" fill="#FFE83B"/>
<path d="M90.8921 147.24C90.7857 161.996 89.2015 176.704 86.1632 191.144C84.8599 197.344 83.218 203.661 79.7555 208.815C78.675 210.426 77.3975 211.93 75.8145 212.9C72.8232 214.73 69.2301 214.415 65.9038 213.927C63.498 213.574 60.9154 213.055 59.2918 211.102C58.2168 209.813 57.7161 208.061 57.313 206.349C56.1478 201.388 55.5469 196.312 55.522 191.216L59.8864 190.793C54.9493 189.788 49.9532 189.099 44.9284 188.729C43.2717 188.606 41.4991 188.545 40.0154 189.307L45.1272 189.552C43.5417 194.381 41.4299 199.02 38.83 203.387C37.9317 204.891 36.934 206.402 35.5479 207.299C33.455 208.655 30.9202 208.355 28.5991 207.952C25.3925 207.4 21.9907 206.586 19.8058 203.928C18.6461 202.518 17.9356 200.696 17.4367 198.833C15.8408 192.865 16.2697 186.364 16.9765 180.057C18.6228 165.397 21.6879 150.931 26.1288 136.862L63.59 123.679L90.8921 147.24Z" fill="#FFD087"/>
<path d="M70.1505 215.994C72.3741 215.994 74.6309 215.606 76.6999 214.338C78.2848 213.368 79.7445 211.867 81.1656 209.752C84.7716 204.377 86.5038 197.798 87.8254 191.49C90.8855 176.939 92.4814 162.117 92.5893 147.248C92.5911 147.001 92.5393 146.758 92.4376 146.534C92.3359 146.31 92.1867 146.111 92.0003 145.95L64.7 122.388C64.4737 122.193 64.1998 122.06 63.906 122.005C63.6121 121.949 63.3088 121.972 63.0268 122.072L25.5655 135.259C25.317 135.346 25.0922 135.489 24.909 135.679C24.7259 135.868 24.5895 136.097 24.5108 136.348C20.0368 150.522 16.9483 165.096 15.2886 179.866C14.5707 186.268 14.1344 193.047 15.7966 199.26C16.4501 201.706 17.3337 203.582 18.4933 204.994C21.0704 208.123 24.9102 209.022 28.3083 209.612C30.8853 210.063 33.8655 210.402 36.472 208.712C38.2023 207.591 39.3491 205.82 40.2879 204.247C42.8648 199.919 44.9739 195.329 46.5796 190.555C48.9984 190.77 51.419 191.063 53.8248 191.429C53.8673 196.581 54.4847 201.712 55.6656 206.726C56.0871 208.519 56.6504 210.564 57.9923 212.177C59.9969 214.588 63.0028 215.206 65.6627 215.597C67.1471 215.837 68.6469 215.97 70.1505 215.994V215.994ZM89.1857 148.011C89.0312 162.391 87.4626 176.721 84.5029 190.794C83.0487 197.697 81.4472 203.242 78.3455 207.864C77.2043 209.565 76.0851 210.737 74.9273 211.446C72.3944 212.996 69.2025 212.688 66.1505 212.241C64.0189 211.928 61.8358 211.505 60.597 210.01C59.7263 208.966 59.2992 207.369 58.9642 205.96C57.9468 201.628 57.3714 197.205 57.2468 192.757L60.0503 192.484C60.4563 192.448 60.8357 192.266 61.1189 191.973C61.4021 191.679 61.5703 191.294 61.5927 190.887C61.615 190.48 61.49 190.078 61.2406 189.756C60.9912 189.433 60.634 189.211 60.2343 189.13C55.2266 188.112 50.1592 187.413 45.0628 187.037C43.1355 186.896 41.1015 186.839 39.2423 187.801C38.9105 187.973 38.6445 188.249 38.4857 188.587C38.3269 188.926 38.2841 189.307 38.364 189.672C38.4439 190.037 38.6421 190.365 38.9277 190.606C39.2133 190.847 39.5704 190.987 39.9437 191.004L42.7895 191.14C41.3456 195.093 39.535 198.903 37.3813 202.518C36.645 203.762 35.7523 205.152 34.6349 205.876C33.0574 206.897 30.9369 206.636 28.901 206.281C25.9742 205.771 22.9627 205.086 21.1256 202.851C20.2807 201.822 19.6125 200.364 19.0861 198.395C17.654 193.044 17.8859 187.273 18.6719 180.258C20.2772 165.988 23.2357 151.903 27.5075 138.193L63.2256 125.613L89.1857 148.011Z" fill="#7B413B"/>
<path d="M90.8463 145.19C96.6907 140.936 109.653 128.071 117.613 134.107C120.054 135.958 121.178 139.261 120.731 142.289C119.759 148.871 113.414 155.822 108.03 159.209C101.219 163.502 93.1859 165.375 85.5394 167.592" fill="#96E2CE"/>
<path d="M85.5412 169.412C85.7132 169.412 85.8843 169.387 86.0493 169.339C87.1188 169.029 88.1974 168.726 89.278 168.418C95.9857 166.528 102.923 164.575 109.004 160.746C114.944 157.004 121.497 149.552 122.531 142.55C123.095 138.727 121.596 134.841 118.713 132.654C110.909 126.731 100.161 135.404 93.0497 141.144C91.7814 142.169 90.6843 143.053 89.775 143.721C89.3844 144.005 89.1226 144.432 89.0472 144.909C88.9718 145.386 89.0889 145.873 89.3728 146.264C89.6567 146.654 90.0841 146.916 90.561 146.992C91.0379 147.067 91.5252 146.95 91.9158 146.666C92.8987 145.95 94.0271 145.041 95.334 143.984C101.184 139.263 110.98 131.36 116.514 135.561C118.327 136.938 119.299 139.537 118.931 142.027C118.067 147.881 112.173 154.458 107.065 157.674C101.431 161.223 94.7505 163.104 88.2895 164.923C87.1997 165.23 86.1137 165.536 85.035 165.843C84.6154 165.966 84.2541 166.236 84.0172 166.604C83.7804 166.971 83.6837 167.412 83.7449 167.845C83.8061 168.278 84.0211 168.674 84.3506 168.962C84.6801 169.249 85.1021 169.409 85.5394 169.41L85.5412 169.412Z" fill="#7B413B"/>
<path d="M10.8287 88.4152C10.7882 80.1042 13.0781 66.0685 21.8549 63.4656C31.5464 60.5885 42.9518 68.235 46.637 73.3358C57.8082 71.1288 69.3084 71.1814 80.459 73.4904C84.1884 68.4228 92.9504 61.5697 100.313 63.8945C111.437 67.4067 108.803 82.9077 108.687 91.2169C115.016 98.7382 117.243 108.678 114.681 118.25C109.629 137.146 91.6269 144.133 73.9538 146.896C55.0087 149.86 27.4765 148.001 12.7578 133.996C0.351125 122.2 -0.215824 101.301 10.8287 88.4152Z" fill="white"/>
<path d="M58.0495 149.935C63.4684 149.941 68.8796 149.529 74.2353 148.704C84.8638 147.047 93.289 144.255 99.9948 140.186C108.475 135.032 114.009 127.82 116.44 118.727C119.102 108.768 116.945 98.5504 110.52 90.5799C110.548 89.6099 110.601 88.5422 110.658 87.4249C111.096 78.7328 111.763 65.6009 100.862 62.1587C92.8748 59.6387 84.0171 66.2083 79.7134 71.4821C69.0383 69.4202 58.0719 69.3709 47.3787 71.3367C42.994 66.1549 31.7065 58.6355 21.3356 61.7187C12.3436 64.3878 9.09094 77.251 9.00258 87.7525C-2.33832 101.558 -1.25779 123.187 11.5005 135.323C18.4199 141.906 28.7833 146.5 41.468 148.612C46.9498 149.504 52.4955 149.947 58.0495 149.935V149.935ZM97.2245 65.2603C98.0857 65.2554 98.9425 65.3833 99.7647 65.6395C107.982 68.2332 107.45 78.777 107.021 87.2482C106.951 88.66 106.883 89.9946 106.866 91.1984V91.8758L107.284 92.3876C113.272 99.5095 115.325 108.77 112.913 117.79C108.941 132.661 96.1072 141.597 73.6739 145.105C53.7514 148.22 27.5795 145.587 14.0131 132.685C2.45133 121.687 1.62483 101.956 12.2092 89.6007L12.6491 89.0852V88.406C12.6381 86.0811 12.8203 80.0619 14.7586 74.3886C16.5018 69.2861 19.0642 66.1918 22.3702 65.2106C27.2574 63.7601 32.3102 65.4094 35.7046 67.0514C40.4077 69.3284 43.7376 72.4356 45.1606 74.4144L45.8471 75.3606L46.9958 75.1286C57.9245 72.9695 69.1749 73.0208 80.0834 75.2796L81.2302 75.5207L81.9241 74.5782C84.9724 70.4292 91.4813 65.253 97.2245 65.253V65.2603Z" fill="#7B413B"/>
<path d="M76.8198 113.203C76.8198 113.203 72.8696 113.041 72.1701 109.324C72.1701 109.324 71.0656 112.728 67.478 113.505C67.478 113.505 66.0054 120.814 71.7025 120.516C77.3997 120.218 76.8198 113.203 76.8198 113.203Z" fill="#EF8FA0"/>
<path d="M76.7442 114.167C77.1437 116.168 76.3613 118.386 74.8262 119.598C74.0661 120.191 73.1445 120.541 72.1821 120.602C71.2197 120.663 70.2614 120.431 69.4327 119.938C68.8313 119.583 68.3346 119.075 67.9933 118.466C67.3398 117.243 67.476 115.732 67.6343 114.333" fill="#EF8FA0"/>
<path d="M77.5393 113.998C78.1964 117.621 75.785 121.177 72.3318 121.457C71.4905 121.534 70.6428 121.412 69.8576 121.1C69.0724 120.788 68.3718 120.296 67.8127 119.662C66.5426 118.18 66.6181 116.133 66.8242 114.267C66.9476 113.162 68.5656 113.278 68.4423 114.396C68.2932 115.739 68.0741 117.341 68.9816 118.445C69.7602 119.404 71.0359 119.822 72.1956 119.734C74.7045 119.53 76.4293 116.964 75.9489 114.339C75.7482 113.234 77.3405 112.899 77.5393 114V113.998Z" fill="#7D3D41"/>
<path d="M72.183 115.121C72.3798 113.902 72.3798 112.659 72.183 111.439Z" fill="#7D3D41"/>
<path d="M71.6254 114.839C71.6751 114.534 71.7137 114.224 71.7395 113.91L71.7174 114.182C71.7607 113.596 71.7607 113.008 71.7174 112.422L71.7376 112.696C71.7119 112.358 71.6732 112.028 71.6217 111.701C71.5388 111.185 71.7284 110.561 72.0322 110.44C72.3359 110.318 72.6525 110.609 72.7409 111.159C72.964 112.562 72.964 113.991 72.7409 115.393C72.6562 115.909 72.323 116.279 72.0248 116.107C71.7266 115.936 71.5352 115.395 71.6254 114.843V114.839Z" fill="#7D3D41"/>
<path d="M77.8137 114.283C80.1423 114.283 82.8095 113.278 83.4906 110.567C83.5173 110.46 83.5227 110.349 83.5064 110.24C83.4902 110.131 83.4526 110.026 83.3959 109.931C83.3391 109.837 83.2643 109.754 83.1757 109.689C83.0871 109.623 82.9865 109.576 82.8795 109.549C82.7725 109.522 82.6613 109.517 82.5523 109.533C82.4432 109.549 82.3385 109.587 82.2439 109.644C82.1494 109.7 82.067 109.775 82.0014 109.864C81.9358 109.952 81.8883 110.053 81.8615 110.16C81.2909 112.441 78.4212 112.886 76.5657 112.474C74.6366 112.047 73.2781 110.364 73.1861 108.288C73.1733 108.068 73.0742 107.861 72.9103 107.713C72.7464 107.565 72.5308 107.488 72.3103 107.498C72.0899 107.508 71.8821 107.604 71.7322 107.766C71.5822 107.928 71.5021 108.143 71.5091 108.363C71.6343 111.163 73.5634 113.517 76.2031 114.114C76.7323 114.228 77.2723 114.285 77.8137 114.283V114.283Z" fill="#7D3D42"/>
<path d="M66.9034 114.234C67.4204 114.235 67.9361 114.183 68.4422 114.077C71.0856 113.516 73.0441 111.169 73.1859 108.371C73.1963 108.259 73.1839 108.145 73.1495 108.038C73.115 107.93 73.0592 107.83 72.9854 107.745C72.9116 107.659 72.8212 107.59 72.7198 107.54C72.6184 107.49 72.508 107.461 72.3952 107.455C72.2824 107.449 72.1695 107.466 72.0634 107.505C71.9572 107.543 71.8599 107.603 71.7773 107.68C71.6948 107.757 71.6286 107.85 71.5828 107.953C71.537 108.056 71.5125 108.168 71.5108 108.281C71.4003 110.355 70.0271 112.025 68.0925 112.435C66.2333 112.831 63.3691 112.358 62.8187 110.072C62.7665 109.855 62.6304 109.668 62.4403 109.552C62.2503 109.436 62.0219 109.4 61.8054 109.452C61.5889 109.505 61.402 109.641 61.2858 109.831C61.1696 110.021 61.1337 110.249 61.186 110.466C61.8486 113.212 64.5564 114.234 66.9034 114.234Z" fill="#7D3D42"/>
<path d="M38.5617 98.3904C40.0461 98.5479 41.4717 99.0571 42.7199 99.8759C43.8244 100.623 45.3614 101.917 45.5713 103.314C45.8216 104.995 43.5464 105.801 42.3278 106.324C40.7418 107.011 39.0699 107.48 37.3578 107.717C36.7117 107.806 36.0693 107.554 35.8852 106.867C35.7324 106.302 36.0858 105.475 36.7356 105.394C37.9979 105.227 39.2391 104.927 40.4392 104.502C40.9988 104.303 41.5453 104.069 42.0757 103.802C42.5248 103.578 43.1488 103.349 43.4783 102.963L43.1654 103.495C43.2261 103.778 43.193 103.791 43.0697 103.535C43.0071 103.44 42.9408 103.351 42.8727 103.254C42.7368 103.082 42.5918 102.918 42.4383 102.762C42.1013 102.412 41.7245 102.104 41.3154 101.842C40.4819 101.3 39.5391 100.949 38.5543 100.813C37.9082 100.732 37.3504 100.31 37.3523 99.6016C37.3523 99.0107 37.9045 98.3131 38.5653 98.3996L38.5617 98.3904Z" fill="#7D3D41"/>
<path d="M19.5756 106.988C19.7924 106.988 20.0012 106.906 20.161 106.76C20.3208 106.613 20.4202 106.412 20.4398 106.196C20.4594 105.98 20.3977 105.765 20.2668 105.592C20.1359 105.419 19.9452 105.302 19.7321 105.262L13.6355 104.144C13.5216 104.12 13.404 104.119 13.2895 104.141C13.1751 104.162 13.0662 104.207 12.9694 104.272C12.8725 104.336 12.7896 104.42 12.7256 104.517C12.6615 104.615 12.6177 104.724 12.5966 104.838C12.5755 104.953 12.5777 105.071 12.6029 105.184C12.6281 105.298 12.6759 105.406 12.7434 105.5C12.811 105.595 12.8969 105.676 12.996 105.737C13.0952 105.798 13.2056 105.839 13.3207 105.856L19.4192 106.974C19.4708 106.983 19.5232 106.988 19.5756 106.988V106.988Z" fill="#7D3D42"/>
<path d="M13.6469 113.302C13.7364 113.303 13.8253 113.288 13.9102 113.26L19.819 111.384C20.0262 111.305 20.1952 111.149 20.2915 110.949C20.3877 110.749 20.4038 110.519 20.3366 110.308C20.2693 110.096 20.1238 109.918 19.9297 109.81C19.7357 109.703 19.5077 109.673 19.2925 109.728L13.3837 111.605C13.1854 111.668 13.0161 111.799 12.9064 111.976C12.7967 112.153 12.7539 112.363 12.7857 112.568C12.8175 112.774 12.9219 112.961 13.0798 113.097C13.2378 113.232 13.439 113.306 13.6469 113.306V113.302Z" fill="#7D3D42"/>
<path d="M107.708 107.39C107.758 107.39 107.808 107.386 107.857 107.377L113.964 106.315C114.077 106.295 114.185 106.253 114.281 106.192C114.377 106.131 114.461 106.052 114.527 105.958C114.592 105.865 114.639 105.759 114.664 105.648C114.689 105.536 114.692 105.421 114.672 105.309C114.653 105.196 114.611 105.089 114.55 104.992C114.489 104.896 114.409 104.812 114.316 104.746C114.222 104.681 114.117 104.634 114.005 104.609C113.894 104.584 113.779 104.581 113.666 104.601L107.559 105.661C107.344 105.699 107.151 105.815 107.018 105.988C106.885 106.16 106.822 106.377 106.84 106.594C106.859 106.811 106.959 107.013 107.119 107.16C107.28 107.308 107.49 107.39 107.708 107.39V107.39Z" fill="#7D3D42"/>
<path d="M113.578 113.759C113.785 113.76 113.987 113.686 114.145 113.552C114.304 113.418 114.409 113.231 114.442 113.026C114.475 112.821 114.433 112.611 114.325 112.433C114.216 112.256 114.048 112.124 113.85 112.06L107.96 110.129C107.851 110.093 107.736 110.079 107.622 110.088C107.508 110.097 107.397 110.128 107.294 110.179C107.192 110.231 107.101 110.302 107.027 110.389C106.952 110.476 106.896 110.577 106.86 110.686C106.824 110.794 106.81 110.909 106.819 111.023C106.828 111.137 106.859 111.249 106.91 111.351C106.962 111.453 107.034 111.544 107.12 111.618C107.207 111.693 107.308 111.75 107.417 111.785L113.307 113.716C113.395 113.745 113.486 113.759 113.578 113.759V113.759Z" fill="#7D3D42"/>
<path d="M23.8481 142.677C21.2527 138.55 18.4971 134.613 15.6457 130.659C11.6568 125.125 2.49906 117.908 -3.08027 125.771C-8.40374 133.276 -3.12445 143.391 1.75355 149.639C7.41204 156.886 14.6112 163.076 22.0773 168.398" fill="#96E2CE"/>
<path d="M22.0757 170.218C22.4617 170.219 22.8379 170.097 23.15 169.87C23.462 169.643 23.6937 169.323 23.8116 168.955C23.9294 168.588 23.9273 168.192 23.8055 167.826C23.6838 167.46 23.4486 167.142 23.1342 166.918C14.6667 160.877 8.13754 154.857 3.18774 148.52C-6.3529 136.301 -3.33774 129.276 -1.59823 126.824C-0.309696 125.015 1.18501 124.131 2.98711 124.126H3.00919C6.73857 124.126 11.4435 127.944 14.1697 131.723C16.6418 135.152 19.5429 139.25 22.3058 143.645C22.5626 144.054 22.9711 144.343 23.4415 144.45C23.9118 144.558 24.4055 144.474 24.8139 144.217C25.2222 143.96 25.5119 143.552 25.6191 143.081C25.7263 142.611 25.6422 142.117 25.3854 141.709C22.5691 137.227 19.6257 133.07 17.1204 129.595C13.8476 125.057 8.21854 120.487 3.00919 120.487H2.97422C-0.00228364 120.498 -2.61064 121.959 -4.57288 124.72C-7.29904 128.562 -7.86048 133.263 -6.24245 138.697C-4.78273 143.601 -1.87434 147.964 0.310638 150.76C5.47764 157.386 12.2498 163.634 21.0118 169.882C21.3223 170.103 21.6945 170.221 22.0757 170.218V170.218Z" fill="#7B413B"/>
<path d="M30.5894 114.705C27.7073 114.692 25.3765 113.442 25.3835 111.913C25.3904 110.384 27.7324 109.155 30.6145 109.168C33.4966 109.181 35.8274 110.431 35.8204 111.96C35.8135 113.489 33.4715 114.718 30.5894 114.705Z" fill="#F397B7"/>
<path d="M101.407 115.028C98.5247 115.015 96.1939 113.765 96.2008 112.236C96.2078 110.707 98.5498 109.478 101.432 109.491C104.314 109.504 106.645 110.755 106.638 112.283C106.631 113.812 104.289 115.041 101.407 115.028Z" fill="#F397B7"/>
<path d="M92.7607 108.428C89.9335 108.428 87.6416 106.136 87.6416 103.309C87.6416 100.481 89.9335 98.1896 92.7607 98.1896C95.588 98.1896 97.8799 100.481 97.8799 103.309C97.8799 106.136 95.588 108.428 92.7607 108.428Z" fill="#7D3D42"/>
<path d="M46.6906 168.537L61.4351 170.573C64.4584 170.99 66.5709 173.779 66.1536 176.801C65.7363 179.824 62.9472 181.936 59.924 181.519L45.1795 179.483C42.1563 179.066 40.0437 176.277 40.461 173.255C40.8783 170.232 43.6674 168.12 46.6906 168.537Z" fill="white"/>
<path d="M19.112 150.52C19.7048 153.466 20.8516 156.354 23.0641 158.29C26.3959 161.195 29.3927 159.612 33.2362 159.947C36.2495 160.201 37.9872 162.68 39.7874 164.981C42.8836 168.937 48.2015 170.32 52.0358 166.973C54.5797 164.753 56.3561 162.555 59.0933 162.892C61.8176 162.579 63.5902 164.792 66.1139 167.03C69.9169 170.413 75.2551 169.083 78.3844 165.152C80.2049 162.868 81.9647 160.405 84.9817 160.182C88.827 159.888 91.809 161.499 95.1666 158.623C97.3976 156.705 98.5701 153.837 99.1813 150.892C99.8826 147.579 99.196 143.56 97.9829 139.557C90.9623 143.433 82.6918 145.631 74.4875 146.92C58.276 149.451 35.7654 148.455 20.3914 139.321C19.1562 143.259 18.4512 147.235 19.112 150.52Z" fill="white"/>
<path d="M20.6198 150.104C20.8087 151.06 21.0659 152.002 21.3892 152.921C21.4629 153.129 21.5402 153.335 21.6249 153.539C21.7261 153.793 21.5475 153.374 21.6598 153.622C21.704 153.723 21.75 153.823 21.796 153.922C22.0052 154.364 22.2387 154.794 22.4955 155.211C22.9426 155.955 23.5085 156.622 24.1706 157.184C24.4634 157.441 24.7838 157.665 25.126 157.852C25.3051 157.956 25.4894 158.051 25.6782 158.136C25.4499 158.036 25.6782 158.136 25.7224 158.148C25.8604 158.195 25.9985 158.244 26.1384 158.285C26.3225 158.338 26.5065 158.382 26.6906 158.421C26.7826 158.439 26.8747 158.454 26.9686 158.471C26.6685 158.419 26.906 158.471 26.9686 158.471C27.3883 158.509 27.8098 158.526 28.2313 158.52C29.0854 158.506 29.934 158.423 30.7863 158.375C32.732 158.263 34.6758 158.356 36.4061 159.352C37.9579 160.245 39.1323 161.631 40.2202 163.021C40.7379 163.728 41.305 164.397 41.9173 165.024C42.0812 165.182 42.2505 165.335 42.4236 165.482C42.5009 165.547 42.5782 165.611 42.6573 165.666C42.8543 165.826 42.4917 165.548 42.696 165.696C43.0537 165.955 43.4268 166.193 43.8133 166.408C43.9974 166.513 44.2017 166.605 44.3968 166.701C44.4429 166.725 44.6711 166.818 44.4189 166.715C44.5054 166.752 44.603 166.785 44.684 166.818C45.0817 166.966 45.4896 167.084 45.9044 167.172C46.0038 167.192 46.5045 167.268 46.1769 167.229C46.3609 167.251 46.545 167.268 46.7291 167.277C47.1443 167.297 47.5605 167.283 47.9734 167.234C47.6476 167.273 48.1336 167.201 48.244 167.177C48.4281 167.137 48.6122 167.091 48.7871 167.038C48.9619 166.984 49.1552 166.92 49.3227 166.853C49.7479 166.697 49.1662 166.933 49.4129 166.813C49.5215 166.76 49.632 166.708 49.7387 166.651C49.913 166.558 50.0842 166.458 50.2523 166.353C50.337 166.299 50.4198 166.242 50.5026 166.185C50.4713 166.207 50.8708 165.911 50.7162 166.034C50.9499 165.85 51.4617 165.379 51.7912 165.079C53.3079 163.697 54.8542 162.134 56.8735 161.528C57.7847 161.254 58.7695 161.269 59.7101 161.293C60.728 161.331 61.7224 161.61 62.6111 162.108C64.4408 163.104 65.8104 164.753 67.3861 166.077C67.4118 166.097 67.6658 166.296 67.5333 166.196C67.4008 166.097 67.6566 166.281 67.6843 166.299C67.8683 166.426 68.0524 166.546 68.253 166.656C68.4537 166.767 68.5973 166.841 68.7721 166.925C68.8182 166.949 69.0483 167.039 68.7942 166.938C68.9268 166.991 69.0593 167.039 69.1937 167.084C69.5489 167.199 69.9118 167.288 70.2797 167.352C70.3497 167.365 70.5798 167.371 70.2797 167.352C70.3718 167.352 70.4638 167.371 70.5558 167.376C70.7853 167.393 71.0154 167.399 71.2461 167.393C71.4302 167.393 71.6143 167.374 71.7983 167.361C72.1039 167.338 71.8609 167.361 71.7983 167.361L72.0726 167.315C72.4887 167.239 72.8984 167.132 73.2986 166.995C73.3575 166.975 73.8729 166.776 73.5912 166.896C73.7753 166.82 73.9428 166.737 74.114 166.649C74.5075 166.451 74.887 166.226 75.2498 165.975L75.4927 165.802C75.8811 165.528 75.3731 165.905 75.5921 165.727C75.7486 165.6 75.9014 165.467 76.0523 165.333C76.3936 165.021 76.7158 164.688 77.0169 164.337C77.5838 163.673 78.1011 162.966 78.6644 162.298C79.8737 160.867 81.2856 159.612 83.073 158.973C84.8235 158.349 86.7821 158.57 88.5952 158.71C89.3989 158.789 90.2074 158.809 91.014 158.769L91.3637 158.738C91.2993 158.738 91.0619 158.791 91.3637 158.738C91.5478 158.703 91.7319 158.666 91.916 158.62C92.1 158.574 92.2841 158.507 92.4682 158.449C92.748 158.36 92.5805 158.412 92.5142 158.449C92.656 158.388 92.7959 158.318 92.9339 158.246C94.5372 157.405 95.5257 156.1 96.3338 154.493C96.7289 153.698 97.0434 152.867 97.2726 152.01C97.3953 151.554 97.5094 151.095 97.6149 150.631C97.6628 150.414 97.7033 150.195 97.7438 149.976C97.7438 149.952 97.7917 149.674 97.7622 149.887C97.7825 149.745 97.7953 149.604 97.8082 149.462C98.0107 147.33 97.7622 145.328 97.3259 143.299C97.1051 142.18 96.8069 141.075 96.4755 139.971L98.7673 140.891C93.5211 143.774 87.7908 145.707 81.9704 147.049C76.8146 148.232 71.5748 149.013 66.2982 149.386C56.0231 150.123 45.4976 149.501 35.4839 146.994C29.9506 145.602 24.5204 143.572 19.6 140.659L21.8936 139.728C21.3272 141.505 20.8965 143.322 20.6051 145.164C20.484 146.023 20.4225 146.89 20.421 147.757C20.421 148.172 20.4339 148.586 20.467 148.998C20.467 149.061 20.5314 149.635 20.5057 149.438C20.5351 149.663 20.5775 149.883 20.6198 150.104C20.7744 150.903 20.3952 151.827 19.5301 152.026C18.757 152.201 17.7758 151.792 17.6083 150.935C16.8278 146.907 17.6875 142.756 18.8821 138.898C18.9487 138.669 19.0662 138.459 19.2257 138.282C19.3852 138.105 19.5826 137.966 19.8032 137.877C20.0238 137.787 20.2619 137.748 20.4995 137.763C20.7372 137.779 20.9684 137.847 21.1757 137.965C22.236 138.592 23.319 139.178 24.4246 139.724C24.9364 139.978 25.453 140.224 25.9746 140.461C26.6041 140.746 27.0164 140.923 27.4766 141.11C29.7972 142.055 32.1717 142.862 34.5875 143.527C37.0265 144.205 39.5023 144.751 41.9947 145.184C42.6168 145.293 43.2396 145.395 43.863 145.49C44.1336 145.532 44.4061 145.572 44.6766 145.611L45.1663 145.679L45.2418 145.69L45.5676 145.733C46.8193 145.895 48.0741 146.031 49.3319 146.143C54.359 146.585 59.4113 146.666 64.45 146.386C66.762 146.263 69.0673 146.061 71.3658 145.779L72.2291 145.668C72.2816 145.664 72.3338 145.657 72.3855 145.648L72.669 145.609C73.3243 145.517 73.9778 145.418 74.6294 145.311C76.0628 145.079 77.4912 144.818 78.9147 144.527C85.2929 143.218 91.5331 141.309 97.1916 138.198C97.399 138.082 97.6301 138.013 97.8677 137.998C98.1052 137.983 98.3431 138.022 98.5636 138.111C98.7841 138.201 98.9815 138.339 99.1411 138.516C99.3006 138.693 99.4183 138.903 99.4852 139.132C100.803 143.514 101.595 148.103 100.372 152.597C99.3121 156.501 96.8032 160.738 92.5547 161.685C90.7692 162.084 88.991 161.843 87.1907 161.736C86.7508 161.71 86.309 161.694 85.8691 161.699C85.6261 161.699 85.3831 161.709 85.1328 161.725C85.026 161.725 84.9174 161.74 84.8106 161.749C85.1052 161.72 84.6376 161.786 84.6266 161.79C84.4326 161.832 84.2409 161.884 84.0523 161.946C83.9602 161.975 83.8682 162.009 83.778 162.044C84.0246 161.95 83.7982 162.044 83.7504 162.058C83.5663 162.158 83.3657 162.255 83.1816 162.368C83.0785 162.43 82.9773 162.496 82.8779 162.563C82.8502 162.583 82.5428 162.804 82.6846 162.697C82.8263 162.59 82.4821 162.866 82.5005 162.85L82.2796 163.043C82.1323 163.176 81.9906 163.314 81.8507 163.454C81.512 163.792 81.1936 164.149 80.8843 164.516C80.3026 165.202 79.7799 165.935 79.1835 166.614C77.8905 168.097 76.249 169.236 74.4067 169.927C72.6954 170.568 70.8347 170.696 69.0519 170.296C66.9608 169.824 65.4017 168.523 63.872 167.098C63.5039 166.75 63.1247 166.401 62.7418 166.06C62.5706 165.909 62.3994 165.76 62.2227 165.616C62.1859 165.585 61.9135 165.366 62.0884 165.5C61.9834 165.419 61.8748 165.342 61.7644 165.267C61.4146 165.013 61.0396 164.796 60.6452 164.619C60.8863 164.722 60.6544 164.619 60.6084 164.619C60.4906 164.586 60.3765 164.543 60.2586 164.514C60.1408 164.484 60.0746 164.468 59.9733 164.449C59.8721 164.431 59.8758 164.431 60.0212 164.449C59.9457 164.449 59.8721 164.437 59.7966 164.435C59.3585 164.414 58.9057 164.418 58.4676 164.425C58.3663 164.425 58.2669 164.435 58.1657 164.442C58.4363 164.424 58.2007 164.442 58.1418 164.442C57.9031 164.493 57.6677 164.558 57.4368 164.637C57.1459 164.737 57.341 164.68 57.4018 164.652C57.2895 164.705 57.1772 164.76 57.0686 164.821C56.8643 164.932 56.6692 165.053 56.4759 165.189C56.3894 165.248 56.3029 165.311 56.2163 165.373C56.1998 165.386 55.9844 165.545 56.1427 165.423C55.92 165.594 55.7065 165.778 55.4929 165.963C53.851 167.382 52.4078 168.957 50.3627 169.799C48.6378 170.473 46.7475 170.601 44.9472 170.167C43.1065 169.747 41.4001 168.759 39.9993 167.498C38.6445 166.279 37.7075 164.685 36.4485 163.374C36.143 163.053 35.8184 162.751 35.4765 162.469C35.6974 162.653 35.2575 162.316 35.2096 162.285C35.0095 162.151 34.8025 162.028 34.5893 161.917C34.5028 161.872 34.4163 161.832 34.3279 161.791C34.569 161.902 34.3482 161.791 34.2985 161.791C34.0868 161.72 33.8788 161.65 33.6597 161.598C33.5622 161.574 33.4628 161.556 33.3633 161.535C33.0817 161.482 33.7315 161.554 33.2382 161.521C32.9676 161.502 32.697 161.482 32.4264 161.477C30.7016 161.434 28.9824 161.758 27.2594 161.635C25.1284 161.492 23.1206 160.584 21.6046 159.08C20.0952 157.607 19.0791 155.732 18.3778 153.767C18.0561 152.848 17.799 151.907 17.6083 150.951C17.4463 150.154 17.8403 149.226 18.6999 149.031C19.4804 148.838 20.4449 149.25 20.6198 150.104Z" fill="#7B413B"/>
<path d="M97.661 232.975C117.409 232.977 135.892 220.328 142.432 200.451C144.387 194.574 145.162 188.369 144.714 182.192C144.265 176.014 142.602 169.986 139.818 164.453C137.064 158.933 133.244 154.013 128.578 149.978C123.912 145.942 118.492 142.872 112.632 140.944C106.772 139.015 100.588 138.267 94.4376 138.743C88.2869 139.219 82.2915 140.909 76.7979 143.715C71.2726 146.515 66.3544 150.377 62.3254 155.082C58.2963 159.786 55.2357 165.24 53.319 171.13C51.3633 177.007 50.5869 183.212 51.0345 189.39C51.4821 195.567 53.1449 201.596 55.9274 207.129C59.7984 214.886 65.7524 221.413 73.1225 225.977C80.4927 230.542 88.988 232.965 97.6573 232.975H97.661ZM98.0107 142.307C104.855 142.335 111.595 143.986 117.678 147.124C123.761 150.261 129.013 154.797 133.003 160.358C136.993 165.919 139.608 172.346 140.633 179.114C141.658 185.881 141.063 192.795 138.898 199.288C131.398 222.069 106.9 234.544 84.275 227.102C78.877 225.337 73.8847 222.514 69.5895 218.799C65.2944 215.083 61.7826 210.549 59.2591 205.462C56.6938 200.364 55.1602 194.81 54.7464 189.118C54.3326 183.426 55.0467 177.708 56.8477 172.293V172.293C59.6877 163.605 65.1922 156.032 72.5798 150.649C79.9675 145.267 88.8629 142.348 98.0034 142.307H98.0107Z" fill="#7B413B"/>
<path d="M85.215 226.354C62.2798 218.818 49.7831 194.157 57.3029 171.272C64.8227 148.387 89.5114 135.944 112.447 143.48C135.382 151.016 147.879 175.678 140.359 198.563C132.839 221.448 108.15 233.891 85.215 226.354Z" fill="#FFFDEE"/>
<path d="M55.0746 172.957C47.5791 195.746 59.844 220.239 82.4724 227.685C105.101 235.131 129.518 222.698 137.014 199.919C144.51 177.14 132.245 152.635 109.616 145.19C86.9878 137.744 62.5702 150.176 55.0746 172.957Z" fill="#E68725"/>
<path d="M56.8697 171.849C49.5233 194.172 61.9115 218.306 84.54 225.75C107.168 233.194 131.465 221.134 138.809 198.811C146.154 176.488 133.767 152.354 111.139 144.91C88.5105 137.466 64.2107 149.527 56.8697 171.849Z" fill="url(#paint15_linear)"/>
<g style="mix-blend-mode:overlay" opacity="0.3">
<path d="M138.794 199.026C145.78 175.435 132.941 152.058 111.122 144.923C88.9357 137.668 64.3818 149.457 56.7316 172.024L138.794 199.026Z" fill="white"/>
</g>
<path d="M65.7068 174.64C59.949 192.127 69.659 211.05 87.3928 216.883C105.127 222.717 124.169 213.266 129.925 195.77C135.681 178.274 125.971 159.362 108.238 153.526C90.5037 147.691 71.4629 157.144 65.7068 174.64Z" fill="#D77D28"/>
<path d="M64.7186 176.203C59.0933 193.3 68.7112 211.825 86.2021 217.579C103.693 223.333 122.434 214.141 128.059 197.044C133.684 179.947 124.065 161.423 106.574 155.667C89.0829 149.911 70.3421 159.115 64.7186 176.203Z" fill="#FAF3CD"/>
<path d="M66.2356 175.104C60.7557 191.759 70.2761 209.853 87.4982 215.521C104.72 221.189 123.115 212.281 128.6 195.626C134.086 178.971 124.562 160.875 107.338 155.209C90.1139 149.543 71.71 158.448 66.2356 175.104Z" fill="#FBB325"/>
<path opacity="0.2" d="M128.269 195.991C128.27 196.001 128.27 196.012 128.269 196.022C122.857 212.475 104.569 221.24 87.4242 215.597C70.2794 209.953 60.759 192.046 66.1727 175.593L66.1837 175.562L128.269 195.991Z" fill="#F6932B"/>
<path d="M73.254 178.504C73.2153 174.323 74.5664 165.629 78.756 164.3C83.3855 162.828 87.1499 167.098 88.9225 169.655C94.2542 168.519 99.7655 168.519 105.097 169.655C106.87 167.098 110.634 162.831 115.264 164.3C119.453 165.629 120.804 174.323 120.766 178.504C122.991 181.265 124.263 184.442 124.263 187.833C124.263 198.343 112.063 206.862 97.0108 206.862C81.9589 206.862 69.7676 198.343 69.7676 187.833C69.7584 184.442 71.0212 181.259 73.254 178.504ZM110.621 187.534C111.28 187.509 111.904 187.23 112.361 186.755C112.818 186.28 113.074 185.646 113.074 184.987C113.074 184.327 112.818 183.694 112.361 183.219C111.904 182.744 111.28 182.464 110.621 182.439C109.272 182.439 108.177 183.581 108.177 184.987C108.177 186.393 109.263 187.534 110.612 187.534H110.621ZM97.528 188.015C97.5063 187.965 97.4804 187.917 97.4507 187.871L97.4323 187.853C97.3944 187.818 97.353 187.786 97.309 187.759C97.264 187.737 97.2153 187.724 97.1654 187.72H97.147C97.1129 187.723 97.079 187.729 97.0458 187.737C97.0214 187.741 96.9974 187.747 96.974 187.755C96.95 187.767 96.9272 187.781 96.9059 187.798C96.8822 187.813 96.8601 187.83 96.8396 187.849C96.8072 187.892 96.7783 187.938 96.7531 187.985C96.745 188.01 96.7389 188.035 96.7347 188.061C97 188.076 97.2662 188.061 97.528 188.015ZM83.6598 187.542C85.0091 187.542 86.1043 186.402 86.1043 184.994C86.1043 183.586 85.0091 182.447 83.6598 182.447C83.0009 182.472 82.3773 182.751 81.92 183.226C81.4627 183.701 81.2072 184.335 81.2072 184.994C81.2072 185.654 81.4627 186.287 81.92 186.762C82.3773 187.237 83.0009 187.517 83.6598 187.542V187.542Z" fill="#DB7E27"/>
<path d="M74.5187 178.504C74.4801 174.323 75.8312 165.629 80.0226 164.3C84.6503 162.828 88.4165 167.098 90.1891 169.655C95.5202 168.519 101.031 168.519 106.362 169.655C108.135 167.098 111.899 162.831 116.528 164.3C120.72 165.629 122.069 174.323 122.032 178.504C124.258 181.265 125.53 184.442 125.53 187.833C125.53 198.343 113.329 206.862 98.2866 206.862C83.2439 206.862 71.0213 198.343 71.0213 187.831C71.0213 184.442 72.297 181.259 74.5187 178.504ZM111.886 187.534C112.214 187.528 112.537 187.457 112.837 187.325C113.138 187.193 113.409 187.004 113.636 186.767C113.863 186.53 114.041 186.252 114.16 185.946C114.28 185.641 114.337 185.315 114.331 184.987C114.331 183.581 113.237 182.439 111.886 182.439C111.227 182.464 110.604 182.744 110.146 183.219C109.689 183.694 109.434 184.327 109.434 184.987C109.434 185.646 109.689 186.28 110.146 186.755C110.604 187.23 111.227 187.509 111.886 187.534V187.534ZM92.6925 189.246C93.0607 190.66 94.4339 191.115 95.5862 191.115C95.8613 191.116 96.1358 191.089 96.4053 191.034C96.8235 190.945 97.2181 190.769 97.5636 190.517C97.909 190.265 98.1974 189.943 98.4099 189.572C98.6225 189.943 98.9109 190.265 99.2563 190.517C99.6017 190.769 99.9964 190.945 100.415 191.034C100.684 191.089 100.959 191.116 101.234 191.115C102.386 191.115 103.768 190.66 104.127 189.246C104.157 189.137 104.143 189.02 104.087 188.921C104.032 188.822 103.94 188.748 103.831 188.716C103.777 188.703 103.722 188.7 103.667 188.708C103.612 188.716 103.56 188.735 103.512 188.763C103.465 188.792 103.424 188.83 103.391 188.874C103.359 188.919 103.336 188.97 103.323 189.024C103.034 190.163 101.545 190.388 100.578 190.185C100.096 190.088 99.6602 189.832 99.3407 189.458C99.0213 189.084 98.8368 188.613 98.8167 188.122C98.8151 188.083 98.8076 188.044 98.7946 188.008C98.7946 188.008 98.7946 187.993 98.7946 187.984C98.7772 187.941 98.7536 187.9 98.7247 187.864L98.7081 187.846C98.6761 187.811 98.6388 187.782 98.5977 187.759H98.5829C98.5381 187.737 98.4893 187.724 98.4394 187.72H98.421C98.41 187.719 98.3988 187.719 98.3878 187.72C98.3647 187.725 98.3419 187.731 98.3197 187.739C98.2959 187.743 98.2725 187.749 98.2498 187.757C98.2011 187.782 98.1559 187.814 98.1154 187.851C98.0998 187.869 98.0863 187.888 98.0749 187.908C98.0561 187.932 98.0406 187.959 98.0289 187.987C98.02 188.012 98.0138 188.037 98.0105 188.063C98.0032 188.085 97.9977 188.108 97.9939 188.131C97.9725 188.62 97.7883 189.088 97.4704 189.46C97.1525 189.832 96.7193 190.087 96.2397 190.185C95.2733 190.386 93.7841 190.161 93.4951 189.024C93.4824 188.97 93.4591 188.919 93.4266 188.874C93.394 188.83 93.3529 188.792 93.3056 188.763C93.2583 188.735 93.2058 188.716 93.1511 188.708C93.0964 188.7 93.0406 188.703 92.9871 188.716C92.8778 188.748 92.7854 188.821 92.7297 188.92C92.6739 189.02 92.6593 189.137 92.6888 189.246H92.6925ZM84.9337 187.534C85.4419 187.555 85.9447 187.423 86.3773 187.156C86.8099 186.888 87.1527 186.498 87.3615 186.034C87.5703 185.57 87.6356 185.054 87.5491 184.553C87.4625 184.052 87.228 183.588 86.8757 183.221C86.5234 182.854 86.0695 182.601 85.5722 182.494C85.0749 182.388 84.5571 182.432 84.0852 182.622C83.6134 182.812 83.2091 183.138 82.9243 183.56C82.6396 183.981 82.4874 184.478 82.4874 184.987C82.4741 185.648 82.7238 186.288 83.1818 186.766C83.6397 187.244 84.2685 187.52 84.9301 187.534H84.9337Z" fill="#FFE83B"/>
</g>
</g>
</g>
<defs>
<filter id="filter0_bd" x="-19.5311" y="-19.5311" width="389.062" height="230.062" filterUnits="userSpaceOnUse" color-interpolation-filters="sRGB">
<feFlood flood-opacity="0" result="BackgroundImageFix"/>
<feGaussianBlur in="BackgroundImage" stdDeviation="9.76557"/>
<feComposite in2="SourceAlpha" operator="in" result="effect1_backgroundBlur"/>
<feColorMatrix in="SourceAlpha" type="matrix" values="0 0 0 0 0 0 0 0 0 0 0 0 0 0 0 0 0 0 127 0"/>
<feOffset dx="1" dy="1"/>
<feGaussianBlur stdDeviation="0.5"/>
<feColorMatrix type="matrix" values="0 0 0 0 0.0883651 0 0 0 0 0.0720128 0 0 0 0 0.169563 0 0 0 0.1 0"/>
<feBlend mode="normal" in2="effect1_backgroundBlur" result="effect2_dropShadow"/>
<feBlend mode="normal" in="SourceGraphic" in2="effect2_dropShadow" result="shape"/>
</filter>
<linearGradient id="paint0_linear" x1="350" y1="1.24259e-05" x2="37.5663" y2="231.48" gradientUnits="userSpaceOnUse">
<stop stop-color="#FAE8BA"/>
<stop offset="1" stop-color="#50E3C2"/>
</linearGradient>
<linearGradient id="paint1_linear" x1="41.6797" y1="195.116" x2="-37.9993" y2="195.116" gradientUnits="userSpaceOnUse">
<stop stop-color="#F28500"/>
<stop offset="1" stop-color="#FBA905"/>
</linearGradient>
<linearGradient id="paint2_linear" x1="-13.6186" y1="176.663" x2="36.0506" y2="198.329" gradientUnits="userSpaceOnUse">
<stop stop-color="#FBCF0A"/>
<stop offset="1" stop-color="#FBA505"/>
</linearGradient>
<linearGradient id="paint3_linear" x1="-26214.3" y1="5845.22" x2="-23137.3" y2="10386.9" gradientUnits="userSpaceOnUse">
<stop stop-color="#FBCF0A"/>
<stop offset="1" stop-color="#FBA505"/>
</linearGradient>
<linearGradient id="paint4_linear" x1="-44610.4" y1="17216" x2="-79100.3" y2="17216" gradientUnits="userSpaceOnUse">
<stop stop-color="#F28500"/>
<stop offset="1" stop-color="#FBA905"/>
</linearGradient>
<linearGradient id="paint5_linear" x1="-68547.3" y1="17096" x2="-57685.8" y2="29744.6" gradientUnits="userSpaceOnUse">
<stop stop-color="#FBCF0A"/>
<stop offset="1" stop-color="#FBA505"/>
</linearGradient>
<linearGradient id="paint6_linear" x1="-26214.3" y1="5287.69" x2="-23136.4" y2="9829.52" gradientUnits="userSpaceOnUse">
<stop stop-color="#FBCF0A"/>
<stop offset="1" stop-color="#FBA505"/>
</linearGradient>
<linearGradient id="paint7_linear" x1="-44610.4" y1="15654.3" x2="-79100.3" y2="15654.3" gradientUnits="userSpaceOnUse">
<stop stop-color="#F28500"/>
<stop offset="1" stop-color="#FBA905"/>
</linearGradient>
<linearGradient id="paint8_linear" x1="-68547.2" y1="15271" x2="-57684.2" y2="27919.9" gradientUnits="userSpaceOnUse">
<stop stop-color="#FBCF0A"/>
<stop offset="1" stop-color="#FBA505"/>
</linearGradient>
<linearGradient id="paint9_linear" x1="-26214.3" y1="4727.08" x2="-23138.4" y2="9268.21" gradientUnits="userSpaceOnUse">
<stop stop-color="#FBCF0A"/>
<stop offset="1" stop-color="#FBA505"/>
</linearGradient>
<linearGradient id="paint10_linear" x1="-44610.4" y1="14090.4" x2="-79100.3" y2="14090.4" gradientUnits="userSpaceOnUse">
<stop stop-color="#F28500"/>
<stop offset="1" stop-color="#FBA905"/>
</linearGradient>
<linearGradient id="paint11_linear" x1="-68548" y1="13443.4" x2="-57685.1" y2="26092.6" gradientUnits="userSpaceOnUse">
<stop stop-color="#FBCF0A"/>
<stop offset="1" stop-color="#FBA505"/>
</linearGradient>
<linearGradient id="paint12_linear" x1="-26215.1" y1="4169.52" x2="-23138.1" y2="8711.13" gradientUnits="userSpaceOnUse">
<stop stop-color="#FBCF0A"/>
<stop offset="1" stop-color="#FBA505"/>
</linearGradient>
<linearGradient id="paint13_linear" x1="-44610.4" y1="12527.1" x2="-79100.3" y2="12527.1" gradientUnits="userSpaceOnUse">
<stop stop-color="#F28500"/>
<stop offset="1" stop-color="#FBA905"/>
</linearGradient>
<linearGradient id="paint14_linear" x1="-68547.3" y1="11617.1" x2="-57684.2" y2="24266" gradientUnits="userSpaceOnUse">
<stop stop-color="#FBCF0A"/>
<stop offset="1" stop-color="#FBA505"/>
</linearGradient>
<linearGradient id="paint15_linear" x1="-1689.38" y1="57714.7" x2="-42030.1" y2="57714.7" gradientUnits="userSpaceOnUse">
<stop stop-color="#FBCF0A"/>
<stop offset="1" stop-color="#FBA505"/>
</linearGradient>
<clipPath id="clip0">
<rect width="350" height="191" rx="15" fill="white"/>
</clipPath>
</defs>
</svg>
