<svg width="732" height="152" viewBox="0 0 732 152" fill="none" xmlns="http://www.w3.org/2000/svg">
<g filter="url(#filter0_bd)">
<g clip-path="url(#clip0)">
<rect width="730" height="150" rx="15" fill="url(#paint0_linear)"/>
<g opacity="0.3">
<path d="M722.974 130.977V141.581C722.974 145.375 719.141 149.169 711.464 152.073C703.67 155.019 693.404 156.502 683.134 156.502C673.01 156.502 662.886 155.068 655.116 152.189C647.24 149.268 643.295 145.43 643.295 141.581V130.977C643.295 134.822 647.24 138.667 655.116 141.587C662.884 144.464 673.01 145.9 683.134 145.9C693.404 145.9 703.67 144.427 711.464 141.471C719.141 138.562 722.974 134.767 722.974 130.977Z" fill="#D96D00"/>
<path d="M722.974 130.351V140.957C722.974 144.751 719.141 148.543 711.464 151.45C703.67 154.395 693.404 155.88 683.134 155.88C673.01 155.88 662.886 154.443 655.116 151.566C647.24 148.648 643.295 144.803 643.295 140.955V130.351C643.295 134.196 647.24 138.043 655.116 140.961C662.884 143.838 673.01 145.274 683.134 145.274C693.404 145.274 703.67 143.801 711.464 140.845C719.141 137.935 722.974 134.143 722.974 130.351Z" fill="url(#paint1_linear)"/>
<g style="mix-blend-mode:multiply">
<g style="mix-blend-mode:multiply">
<path d="M668.698 144.26L668.072 144.169V154.778L668.698 154.868V144.26Z" fill="#F5C491"/>
</g>
<g style="mix-blend-mode:multiply">
<path d="M665.748 143.777L665.123 143.663V154.27C665.331 154.31 665.54 154.347 665.748 154.385V143.777Z" fill="#F5C491"/>
</g>
<g style="mix-blend-mode:multiply">
<path d="M662.798 143.194L662.172 143.046V153.653L662.798 153.8V143.194Z" fill="#F5C491"/>
</g>
<g style="mix-blend-mode:multiply">
<path d="M677.548 145.126L676.922 145.088V155.696L677.548 155.735V145.126Z" fill="#F5C491"/>
</g>
<g style="mix-blend-mode:multiply">
<path d="M674.599 144.924C674.389 144.907 674.179 144.893 673.971 144.874V155.481L674.599 155.532V144.924Z" fill="#F5C491"/>
</g>
<g style="mix-blend-mode:multiply">
<path d="M680.497 145.239L679.871 145.22V155.829L680.497 155.845V145.239Z" fill="#F5C491"/>
</g>
<g style="mix-blend-mode:multiply">
<path d="M671.648 144.642L671.022 144.567V155.175L671.648 155.249V144.642Z" fill="#F5C491"/>
</g>
<g style="mix-blend-mode:multiply">
<path d="M656.272 151.974L656.898 152.186V141.577C656.688 141.509 656.48 141.438 656.272 141.368V151.974Z" fill="#F5C491"/>
</g>
<g style="mix-blend-mode:multiply">
<path d="M715.896 138.84C715.69 138.951 715.488 139.063 715.272 139.174V149.778C715.488 149.67 715.69 149.557 715.896 149.447V138.84Z" fill="#F5C491"/>
</g>
<g style="mix-blend-mode:multiply">
<path d="M721.172 145.403C721.4 145.126 721.61 144.85 721.798 144.571V133.957C721.614 134.235 721.4 134.509 721.172 134.789V145.403Z" fill="#F5C491"/>
</g>
<g style="mix-blend-mode:multiply">
<path d="M712.322 151.109C712.532 151.024 712.745 150.94 712.948 150.855V140.249C712.745 140.333 712.532 140.418 712.322 140.501V151.109Z" fill="#F5C491"/>
</g>
<g style="mix-blend-mode:multiply">
<path d="M659.847 142.457L659.223 142.273V152.88C659.431 152.938 659.637 152.999 659.847 153.064V142.457Z" fill="#F5C491"/>
</g>
<g style="mix-blend-mode:multiply">
<path d="M718.847 136.965C718.646 137.117 718.438 137.27 718.221 137.421V148.028C718.438 147.877 718.646 147.726 718.847 147.573V136.965Z" fill="#F5C491"/>
</g>
<g style="mix-blend-mode:multiply">
<path d="M704.097 143.039C703.889 143.089 703.683 143.14 703.471 143.186V153.795C703.683 153.747 703.889 153.695 704.097 153.647V143.039Z" fill="#F5C491"/>
</g>
<g style="mix-blend-mode:multiply">
<path d="M647.422 147.573C647.624 147.726 647.829 147.878 648.048 148.031V137.425C647.829 137.272 647.624 137.117 647.422 136.965V147.573Z" fill="#F5C491"/>
</g>
<g style="mix-blend-mode:multiply">
<path d="M707.048 142.286C706.842 142.345 706.632 142.402 706.422 142.459V153.066C706.632 153.009 706.842 152.953 707.048 152.894V142.286Z" fill="#F5C491"/>
</g>
<g style="mix-blend-mode:multiply">
<path d="M709.998 141.371C709.792 141.443 709.579 141.508 709.371 141.576V152.184C709.579 152.114 709.792 152.05 709.998 151.98V141.371Z" fill="#F5C491"/>
</g>
<g style="mix-blend-mode:multiply">
<path d="M650.998 139.174C650.783 139.063 650.579 138.951 650.373 138.84V149.452C650.579 149.563 650.783 149.675 650.998 149.784V139.174Z" fill="#F5C491"/>
</g>
<g style="mix-blend-mode:multiply">
<path d="M644.473 144.565C644.667 144.854 644.876 145.132 645.099 145.397V134.789C644.876 134.524 644.667 134.247 644.473 133.959V144.565Z" fill="#F5C491"/>
</g>
<g style="mix-blend-mode:multiply">
<path d="M683.448 155.879V145.272H682.822V155.879H683.135H683.448Z" fill="#F5C491"/>
</g>
<g style="mix-blend-mode:multiply">
<path d="M653.948 140.504C653.736 140.42 653.53 140.331 653.324 140.245V150.853L653.948 151.113V140.504Z" fill="#F5C491"/>
</g>
<g style="mix-blend-mode:multiply">
<path d="M689.347 145.088C689.139 145.102 688.931 145.115 688.721 145.124V155.733L689.347 155.696V145.088Z" fill="#F5C491"/>
</g>
<g style="mix-blend-mode:multiply">
<path d="M686.398 145.219L685.772 145.237V155.843L686.398 155.825V145.219Z" fill="#F5C491"/>
</g>
<g style="mix-blend-mode:multiply">
<path d="M701.148 143.661L700.522 143.779V154.386L701.148 154.27V143.661Z" fill="#F5C491"/>
</g>
<g style="mix-blend-mode:multiply">
<path d="M692.298 144.872L691.672 144.924V155.527L692.298 155.475V144.872Z" fill="#F5C491"/>
</g>
<g style="mix-blend-mode:multiply">
<path d="M695.248 144.567C695.039 144.593 694.832 144.62 694.623 144.644V155.251L695.248 155.175V144.567Z" fill="#F5C491"/>
</g>
<g style="mix-blend-mode:multiply">
<path d="M698.198 144.169C697.991 144.203 697.782 144.23 697.572 144.26V154.866C697.782 154.837 697.991 154.809 698.198 154.778V144.169Z" fill="#F5C491"/>
</g>
</g>
<path d="M711.145 120.794C703.379 117.917 693.255 116.481 683.133 116.481C672.863 116.481 662.595 117.953 654.803 120.911C639.341 126.771 639.474 136.221 655.113 142.018C662.884 144.895 673.01 146.323 683.135 146.323C693.404 146.323 703.67 144.85 711.464 141.894C726.935 136.039 726.792 126.588 711.145 120.794Z" fill="url(#paint2_linear)"/>
<g style="mix-blend-mode:overlay" opacity="0.3">
<path d="M711.145 120.794C708.614 119.871 706.022 119.122 703.388 118.552L645.206 126.835C640.873 131.897 643.941 137.648 654.369 141.723L722.943 131.965C723.34 127.928 719.407 123.851 711.145 120.794Z" fill="white"/>
</g>
<g style="mix-blend-mode:overlay" opacity="0.6">
<path d="M655.116 142.785C662.884 145.662 673.01 147.098 683.134 147.098C693.404 147.098 703.67 145.626 711.464 142.669C719.195 139.741 723.029 135.914 722.974 132.094C722.974 131.995 722.957 131.892 722.95 131.79C722.703 135.455 718.887 139.095 711.464 141.915C703.67 144.851 693.404 146.323 683.134 146.323C673.01 146.323 662.886 144.887 655.116 142.01C647.495 139.185 643.565 135.494 643.319 131.774C643.037 135.757 646.971 139.768 655.116 142.785Z" fill="white"/>
</g>
<path d="M703.966 123.516C698.19 121.377 690.663 120.31 683.136 120.31C675.501 120.31 667.858 121.414 662.076 123.603C650.575 127.962 650.676 134.988 662.312 139.295C668.086 141.434 675.611 142.502 683.136 142.502C690.771 142.502 698.405 141.397 704.196 139.205C715.699 134.85 715.592 127.825 703.966 123.516Z" fill="#F28500"/>
<g style="mix-blend-mode:overlay" opacity="0.6">
<path d="M662.073 126.274C667.864 124.08 675.497 122.979 683.133 122.979C690.66 122.979 698.186 124.048 703.963 126.187C708.833 127.991 711.675 130.274 712.496 132.63C713.66 129.316 710.812 125.828 703.963 123.288C698.186 121.149 690.66 120.081 683.133 120.081C675.497 120.081 667.854 121.186 662.073 123.376C655.389 125.907 652.631 129.342 653.771 132.621C654.584 130.309 657.347 128.065 662.073 126.274Z" fill="white"/>
</g>
<path d="M662.073 126.495C667.864 124.3 675.497 123.201 683.133 123.201C690.66 123.201 698.186 124.269 703.963 126.41C708.833 128.214 711.675 130.496 712.496 132.853C713.66 129.53 710.812 126.042 703.963 123.511C698.186 121.372 690.66 120.304 683.133 120.304C675.497 120.304 667.854 121.409 662.073 123.597C655.389 126.13 652.631 129.565 653.771 132.84C654.584 130.528 657.347 128.284 662.073 126.495Z" fill="#D96D00"/>
<path d="M697.305 132.845V130.861L686.166 127.468C686.033 127.418 685.892 127.393 685.75 127.395C685.61 127.395 685.471 127.421 685.34 127.47L666.86 132.472V134.559C666.86 134.612 666.927 134.666 667.044 134.712L671.409 136.328C671.675 136.424 671.966 136.424 672.232 136.328L678.38 133.999C678.469 133.967 678.567 133.967 678.656 133.999L681.585 135.084C682.981 135.595 684.433 135.94 685.91 136.113C686.784 136.222 687.663 136.276 688.543 136.276C689.189 136.276 689.831 136.247 690.466 136.186C691.863 136.07 693.237 135.764 694.551 135.279C695.784 134.809 696.612 134.294 697.025 133.731C697.227 133.482 697.327 133.165 697.305 132.845V132.845ZM689.281 133.41C688.686 133.624 688.058 133.727 687.427 133.716H687.243C686.501 133.701 685.766 133.563 685.069 133.309L682.748 132.449C682.66 132.416 682.66 132.379 682.748 132.346L686.409 130.96C686.453 130.944 686.499 130.935 686.545 130.934C686.593 130.935 686.64 130.944 686.685 130.96L688.999 131.82C689.682 132.07 690.047 132.343 690.104 132.637C690.161 132.932 689.877 133.182 689.281 133.41V133.41Z" fill="#D96D00"/>
<path d="M696.933 129.94C696.454 129.375 695.565 128.851 694.258 128.365L686.17 125.37C686.037 125.32 685.896 125.296 685.754 125.298C685.614 125.297 685.474 125.322 685.343 125.372L667.044 132.302C666.921 132.35 666.86 132.4 666.86 132.457C666.86 132.514 666.927 132.563 667.044 132.609L671.409 134.226C671.675 134.321 671.966 134.321 672.232 134.226L678.38 131.895C678.469 131.863 678.567 131.863 678.656 131.895L681.585 132.981C682.982 133.491 684.433 133.837 685.91 134.01C686.784 134.118 687.663 134.172 688.543 134.172C689.189 134.172 689.831 134.143 690.466 134.084C691.861 133.967 693.235 133.663 694.549 133.18C695.782 132.711 696.611 132.193 697.023 131.632C697.435 131.071 697.406 130.504 696.933 129.94ZM689.281 131.308C688.686 131.52 688.058 131.624 687.427 131.614H687.243C686.501 131.599 685.766 131.461 685.069 131.207L682.748 130.345C682.66 130.312 682.66 130.279 682.748 130.244L686.409 128.858C686.452 128.84 686.499 128.831 686.545 128.83C686.593 128.831 686.641 128.84 686.685 128.858L688.999 129.716C689.682 129.968 690.047 130.24 690.104 130.533C690.161 130.826 689.877 131.08 689.281 131.308V131.308Z" fill="url(#paint3_linear)"/>
<g style="mix-blend-mode:overlay" opacity="0.6">
<g style="mix-blend-mode:overlay" opacity="0.6">
<path d="M689.003 129.539L686.689 128.679C686.644 128.663 686.597 128.654 686.549 128.654C686.503 128.654 686.457 128.663 686.413 128.679L682.752 130.065C682.663 130.099 682.663 130.134 682.752 130.167L682.851 130.203L686.413 128.856C686.456 128.838 686.503 128.829 686.549 128.828C686.597 128.829 686.645 128.838 686.689 128.856L689.003 129.714C689.658 129.955 690.014 130.216 690.087 130.498C690.101 130.452 690.106 130.403 690.102 130.354C690.05 130.062 689.686 129.789 689.003 129.539Z" fill="white"/>
</g>
<g style="mix-blend-mode:overlay" opacity="0.6">
<path d="M697.025 131.457C696.612 132.009 695.784 132.536 694.551 133.005C693.236 133.488 691.863 133.792 690.468 133.909C689.833 133.968 689.191 133.997 688.544 133.997C687.665 133.996 686.785 133.942 685.912 133.834C684.435 133.662 682.983 133.316 681.586 132.805L678.658 131.72C678.569 131.686 678.47 131.686 678.382 131.72L672.237 134.049C671.971 134.145 671.68 134.145 671.414 134.049L667.05 132.433C667.004 132.418 666.961 132.396 666.923 132.366C666.884 132.396 666.86 132.425 666.86 132.457C666.86 132.488 666.927 132.563 667.044 132.609L671.409 134.226C671.675 134.321 671.966 134.321 672.232 134.226L678.38 131.895C678.469 131.863 678.567 131.863 678.656 131.895L681.585 132.981C682.982 133.491 684.433 133.837 685.91 134.01C686.784 134.118 687.663 134.172 688.543 134.172C689.189 134.172 689.831 134.143 690.466 134.084C691.861 133.967 693.235 133.663 694.549 133.18C695.782 132.711 696.611 132.193 697.023 131.632C697.225 131.383 697.326 131.067 697.305 130.747C697.281 131.005 697.184 131.252 697.025 131.457V131.457Z" fill="white"/>
</g>
</g>
<path d="M722.974 119.779V130.386C722.974 134.18 719.141 137.972 711.464 140.878C703.67 143.823 693.404 145.309 683.134 145.309C673.01 145.309 662.886 143.873 655.116 140.994C647.24 138.077 643.295 134.231 643.295 130.384V119.778C643.295 123.627 647.24 127.472 655.116 130.39C662.884 133.268 673.01 134.702 683.134 134.702C693.404 134.702 703.67 133.23 711.464 130.274C719.141 127.363 722.974 123.571 722.974 119.779Z" fill="#D96D00"/>
<path d="M722.974 119.154V129.756C722.974 133.548 719.141 137.34 711.464 140.249C703.67 143.194 693.404 144.679 683.134 144.679C673.01 144.679 662.886 143.244 655.116 140.366C647.24 137.453 643.295 133.607 643.295 129.756V119.154C643.295 123.001 647.24 126.846 655.116 129.764C662.884 132.641 673.01 134.077 683.134 134.077C693.404 134.077 703.67 132.604 711.464 129.648C719.141 126.739 722.974 122.946 722.974 119.154Z" fill="url(#paint4_linear)"/>
<g style="mix-blend-mode:multiply">
<g style="mix-blend-mode:multiply">
<path d="M668.698 133.07C668.49 133.038 668.28 133.011 668.072 132.978V143.58C668.28 143.613 668.49 143.641 668.698 143.672V133.07Z" fill="#F5C491"/>
</g>
<g style="mix-blend-mode:multiply">
<path d="M665.748 132.582C665.54 132.545 665.331 132.506 665.123 132.466V143.072L665.748 143.19V132.582Z" fill="#F5C491"/>
</g>
<g style="mix-blend-mode:multiply">
<path d="M662.798 131.989C662.588 131.941 662.382 131.894 662.172 131.842V142.458L662.798 142.603V131.989Z" fill="#F5C491"/>
</g>
<g style="mix-blend-mode:multiply">
<path d="M677.548 133.929L676.922 133.893V144.499L677.548 144.538V133.929Z" fill="#F5C491"/>
</g>
<g style="mix-blend-mode:multiply">
<path d="M674.599 133.729C674.389 133.712 674.179 133.697 673.971 133.679V144.285C674.179 144.304 674.389 144.32 674.599 144.335V133.729Z" fill="#F5C491"/>
</g>
<g style="mix-blend-mode:multiply">
<path d="M680.497 134.042L679.871 134.025V144.631L680.497 144.648V134.042Z" fill="#F5C491"/>
</g>
<g style="mix-blend-mode:multiply">
<path d="M671.648 133.438L671.022 133.362V143.971L671.648 144.044V133.438Z" fill="#F5C491"/>
</g>
<g style="mix-blend-mode:multiply">
<path d="M656.272 140.777C656.48 140.851 656.688 140.921 656.898 140.989V130.382C656.688 130.314 656.48 130.242 656.272 130.171V140.777Z" fill="#F5C491"/>
</g>
<g style="mix-blend-mode:multiply">
<path d="M715.896 127.641C715.69 127.755 715.488 127.866 715.272 127.974V138.592C715.488 138.483 715.69 138.371 715.896 138.259V127.641Z" fill="#F5C491"/>
</g>
<g style="mix-blend-mode:multiply">
<path d="M721.172 134.2C721.395 133.932 721.604 133.653 721.798 133.364V122.761C721.604 123.049 721.395 123.327 721.172 123.594V134.2Z" fill="#F5C491"/>
</g>
<g style="mix-blend-mode:multiply">
<path d="M712.322 139.914C712.532 139.831 712.745 139.746 712.948 139.66V129.053C712.745 129.14 712.532 129.223 712.322 129.305V139.914Z" fill="#F5C491"/>
</g>
<g style="mix-blend-mode:multiply">
<path d="M659.847 131.264C659.637 131.207 659.431 131.146 659.223 131.08V141.688L659.847 141.872V131.264Z" fill="#F5C491"/>
</g>
<g style="mix-blend-mode:multiply">
<path d="M718.847 125.769C718.646 125.922 718.438 126.073 718.221 126.224V136.832C718.438 136.679 718.646 136.529 718.847 136.376V125.769Z" fill="#F5C491"/>
</g>
<g style="mix-blend-mode:multiply">
<path d="M704.097 131.844C703.889 131.893 703.683 131.945 703.471 131.991V142.597C703.683 142.551 703.889 142.5 704.097 142.45V131.844Z" fill="#F5C491"/>
</g>
<g style="mix-blend-mode:multiply">
<path d="M647.422 136.383C647.624 136.536 647.829 136.69 648.048 136.841V126.226C647.829 126.077 647.624 125.922 647.422 125.769V136.383Z" fill="#F5C491"/>
</g>
<g style="mix-blend-mode:multiply">
<path d="M707.048 131.091L706.422 131.262V141.868C706.632 141.811 706.842 141.756 707.048 141.697V131.091Z" fill="#F5C491"/>
</g>
<g style="mix-blend-mode:multiply">
<path d="M709.998 130.176C709.792 130.246 709.579 130.312 709.371 130.38V140.985C709.579 140.917 709.792 140.851 709.998 140.781V130.176Z" fill="#F5C491"/>
</g>
<g style="mix-blend-mode:multiply">
<path d="M650.998 127.974C650.783 127.866 650.579 127.755 650.373 127.641V138.25C650.579 138.362 650.783 138.474 650.998 138.583V127.974Z" fill="#F5C491"/>
</g>
<g style="mix-blend-mode:multiply">
<path d="M644.473 133.37C644.667 133.658 644.876 133.935 645.099 134.2V123.594C644.876 123.328 644.667 123.051 644.473 122.764V133.37Z" fill="#F5C491"/>
</g>
<g style="mix-blend-mode:multiply">
<path d="M683.448 144.681V134.073H683.135H682.822V144.681H683.135H683.448Z" fill="#F5C491"/>
</g>
<g style="mix-blend-mode:multiply">
<path d="M653.948 129.309L653.324 129.049V139.656C653.53 139.742 653.736 139.84 653.948 139.915V129.309Z" fill="#F5C491"/>
</g>
<g style="mix-blend-mode:multiply">
<path d="M689.347 133.893L688.721 133.929V144.536C688.931 144.536 689.139 144.512 689.347 144.501V133.893Z" fill="#F5C491"/>
</g>
<g style="mix-blend-mode:multiply">
<path d="M686.398 134.023L685.772 134.041V144.648C685.98 144.648 686.19 144.648 686.398 144.631V134.023Z" fill="#F5C491"/>
</g>
<g style="mix-blend-mode:multiply">
<path d="M701.148 132.466L700.522 132.584V143.194L701.148 143.076V132.466Z" fill="#F5C491"/>
</g>
<g style="mix-blend-mode:multiply">
<path d="M692.298 133.677C692.09 133.696 691.882 133.712 691.672 133.727V144.335C691.882 144.32 692.09 144.302 692.298 144.284V133.677Z" fill="#F5C491"/>
</g>
<g style="mix-blend-mode:multiply">
<path d="M695.248 133.37L694.623 133.445V144.053L695.248 143.978V133.37Z" fill="#F5C491"/>
</g>
<g style="mix-blend-mode:multiply">
<path d="M698.198 132.974L697.572 133.064V143.67C697.782 143.641 697.991 143.613 698.198 143.582V132.974Z" fill="#F5C491"/>
</g>
</g>
<path d="M711.145 109.596C703.379 106.721 693.255 105.285 683.133 105.285C672.863 105.285 662.595 106.758 654.803 109.714C639.341 115.575 639.474 125.024 655.113 130.82C662.881 133.697 673.007 135.133 683.131 135.133C693.4 135.133 703.666 133.661 711.46 130.704C726.935 124.843 726.792 115.398 711.145 109.596Z" fill="url(#paint5_linear)"/>
<g style="mix-blend-mode:overlay" opacity="0.3">
<path d="M711.145 109.596C708.613 108.675 706.022 107.926 703.388 107.354L645.206 115.638C640.873 120.702 643.941 126.45 654.369 130.526L722.939 120.76C723.34 116.731 719.407 112.656 711.145 109.596Z" fill="white"/>
</g>
<g style="mix-blend-mode:overlay" opacity="0.6">
<path d="M655.116 131.597C662.884 134.474 673.01 135.908 683.134 135.908C693.404 135.908 703.67 134.435 711.464 131.479C719.195 128.55 723.029 124.724 722.974 120.906C722.974 120.803 722.957 120.701 722.95 120.602C722.703 124.267 718.887 127.904 711.464 130.717C703.67 133.662 693.404 135.146 683.134 135.146C673.01 135.146 662.886 133.71 655.116 130.833C647.495 128.009 643.565 124.319 643.319 120.597C643.037 124.562 646.971 128.571 655.116 131.597Z" fill="white"/>
</g>
<path d="M703.966 112.321C698.19 110.18 690.663 109.112 683.136 109.112C675.501 109.112 667.858 110.217 662.076 112.407C650.575 116.764 650.676 123.791 662.312 128.098C668.086 130.239 675.611 131.305 683.136 131.305C690.771 131.305 698.405 130.2 704.196 128.01C715.699 123.654 715.592 116.63 703.966 112.321Z" fill="#F28500"/>
<g style="mix-blend-mode:overlay" opacity="0.6">
<path d="M662.073 115.076C667.864 112.882 675.497 111.783 683.133 111.783C690.66 111.783 698.186 112.851 703.963 114.99C708.833 116.795 711.675 119.076 712.496 121.432C713.66 118.119 710.812 114.622 703.963 112.092C698.186 109.952 690.66 108.884 683.133 108.884C675.497 108.884 667.854 109.988 662.073 112.179C655.389 114.712 652.631 118.145 653.771 121.423C654.584 119.109 657.347 116.871 662.073 115.076Z" fill="white"/>
</g>
<path d="M662.073 115.299C667.864 113.105 675.497 112.006 683.133 112.006C690.66 112.006 698.186 113.072 703.963 115.212C708.833 117.016 711.675 119.299 712.496 121.655C713.66 118.342 710.812 114.844 703.963 112.315C698.186 110.174 690.66 109.107 683.133 109.107C675.497 109.107 667.854 110.211 662.073 112.402C655.389 114.934 652.631 118.367 653.771 121.644C654.584 119.332 657.347 117.09 662.073 115.299Z" fill="#D96D00"/>
<path d="M697.305 121.657V119.669L686.166 116.274C686.033 116.226 685.892 116.202 685.75 116.203C685.61 116.202 685.471 116.227 685.34 116.276L666.86 121.276V123.363C666.86 123.417 666.927 123.47 667.044 123.516L671.409 125.13C671.674 125.229 671.966 125.229 672.232 125.13L678.38 122.802C678.469 122.767 678.567 122.767 678.656 122.802L681.585 123.886C682.981 124.398 684.433 124.744 685.91 124.917C686.784 125.024 687.663 125.078 688.543 125.079C689.189 125.079 689.831 125.049 690.466 124.99C691.861 124.873 693.235 124.569 694.549 124.087C695.782 123.617 696.611 123.102 697.023 122.539C697.225 122.291 697.325 121.976 697.305 121.657V121.657ZM689.281 122.209C688.686 122.421 688.058 122.524 687.427 122.513H687.243C686.501 122.497 685.766 122.359 685.069 122.104L682.748 121.245C682.66 121.211 682.66 121.176 682.748 121.143L686.409 119.757C686.452 119.739 686.499 119.73 686.545 119.73C686.593 119.73 686.641 119.739 686.685 119.757L688.999 120.617C689.682 120.867 690.047 121.138 690.104 121.43C690.161 121.723 689.877 121.986 689.281 122.209Z" fill="#D96D00"/>
<path d="M696.933 118.743C696.454 118.18 695.565 117.653 694.258 117.167L686.17 114.173C686.037 114.124 685.896 114.1 685.754 114.101C685.614 114.1 685.474 114.125 685.343 114.174L667.044 121.105C666.921 121.155 666.86 121.204 666.86 121.259C666.86 121.315 666.927 121.368 667.044 121.412L671.409 123.03C671.541 123.078 671.681 123.103 671.821 123.102C671.961 123.102 672.1 123.078 672.232 123.03L678.38 120.7C678.469 120.666 678.567 120.666 678.656 120.7L681.585 121.784C682.981 122.295 684.433 122.641 685.91 122.815C686.784 122.922 687.663 122.977 688.543 122.977C689.189 122.977 689.831 122.946 690.466 122.887C691.861 122.771 693.235 122.467 694.549 121.985C695.782 121.515 696.611 120.998 697.023 120.435C697.435 119.872 697.406 119.308 696.933 118.743ZM689.281 120.111C688.686 120.324 688.058 120.428 687.427 120.416H687.243C686.502 120.399 685.768 120.258 685.073 120L682.752 119.139C682.663 119.106 682.663 119.071 682.752 119.038L686.413 117.652C686.456 117.634 686.502 117.625 686.549 117.626C686.597 117.626 686.644 117.634 686.689 117.652L689.003 118.528C689.686 118.778 690.05 119.051 690.107 119.343C690.164 119.636 689.877 119.884 689.281 120.111V120.111Z" fill="url(#paint6_linear)"/>
<g style="mix-blend-mode:overlay" opacity="0.6">
<g style="mix-blend-mode:overlay" opacity="0.6">
<path d="M689.003 118.344L686.689 117.486C686.644 117.469 686.597 117.459 686.549 117.458C686.503 117.459 686.457 117.469 686.413 117.486L682.752 118.87C682.663 118.905 682.663 118.94 682.752 118.973L682.851 119.01L686.413 117.661C686.456 117.643 686.503 117.634 686.549 117.635C686.597 117.635 686.645 117.643 686.689 117.661L689.003 118.528C689.658 118.769 690.014 119.028 690.087 119.31C690.101 119.264 690.106 119.216 690.102 119.168C690.05 118.864 689.686 118.592 689.003 118.344Z" fill="white"/>
</g>
<g style="mix-blend-mode:overlay" opacity="0.6">
<path d="M697.025 120.262C696.612 120.814 695.784 121.339 694.551 121.808C693.236 122.291 691.863 122.594 690.468 122.712C689.833 122.771 689.191 122.8 688.544 122.8C687.665 122.8 686.785 122.746 685.912 122.638C684.435 122.465 682.983 122.119 681.586 121.607L678.658 120.523C678.568 120.491 678.471 120.491 678.382 120.523L672.237 122.852C671.972 122.95 671.68 122.95 671.414 122.852L667.05 121.237C667.005 121.221 666.962 121.199 666.923 121.171C666.906 121.18 666.892 121.192 666.881 121.208C666.87 121.223 666.863 121.241 666.86 121.259C666.86 121.315 666.927 121.368 667.044 121.412L671.409 123.03C671.541 123.078 671.681 123.103 671.821 123.102C671.961 123.102 672.1 123.077 672.232 123.03L678.38 120.7C678.469 120.665 678.567 120.665 678.656 120.7L681.585 121.784C682.981 122.295 684.433 122.641 685.91 122.815C686.784 122.922 687.663 122.976 688.543 122.977C689.189 122.977 689.831 122.946 690.466 122.887C691.861 122.771 693.235 122.467 694.549 121.985C695.782 121.515 696.611 120.998 697.023 120.435C697.225 120.186 697.326 119.871 697.305 119.551C697.281 119.81 697.184 120.056 697.025 120.262Z" fill="white"/>
</g>
</g>
<path d="M722.974 108.588V119.19C722.974 122.982 719.141 126.776 711.464 129.683C703.67 132.628 693.404 134.113 683.134 134.113C673.01 134.113 662.886 132.676 655.116 129.799C647.24 126.879 643.295 123.034 643.295 119.187V108.588C643.295 112.435 647.24 116.28 655.116 119.2C662.884 122.077 673.01 123.513 683.134 123.513C693.404 123.513 703.67 122.04 711.464 119.084C719.141 116.17 722.974 112.376 722.974 108.588Z" fill="#D96D00"/>
<path d="M722.974 107.956V118.564C722.974 122.356 719.141 126.15 711.464 129.057C703.67 132.002 693.404 133.486 683.134 133.486C673.01 133.486 662.886 132.05 655.116 129.173C647.24 126.259 643.295 122.412 643.295 118.564V107.956C643.295 111.803 647.24 115.649 655.116 118.568C662.884 121.445 673.01 122.881 683.134 122.881C693.404 122.881 703.67 121.408 711.464 118.45C719.141 115.542 722.974 111.748 722.974 107.956Z" fill="url(#paint7_linear)"/>
<g style="mix-blend-mode:multiply">
<g style="mix-blend-mode:multiply">
<path d="M668.698 121.867L668.072 121.775V132.383L668.698 132.475V121.867Z" fill="#F5C491"/>
</g>
<g style="mix-blend-mode:multiply">
<path d="M665.748 121.386L665.123 121.27V131.877C665.331 131.917 665.54 131.954 665.748 131.993V121.386Z" fill="#F5C491"/>
</g>
<g style="mix-blend-mode:multiply">
<path d="M662.798 120.792C662.588 120.746 662.382 120.696 662.172 120.646V131.255L662.798 131.4V120.792Z" fill="#F5C491"/>
</g>
<g style="mix-blend-mode:multiply">
<path d="M677.548 122.734L676.922 122.697V133.303L677.548 133.342V122.734Z" fill="#F5C491"/>
</g>
<g style="mix-blend-mode:multiply">
<path d="M674.599 122.531C674.389 122.515 674.179 122.5 673.971 122.482V133.088L674.599 133.14V122.531Z" fill="#F5C491"/>
</g>
<g style="mix-blend-mode:multiply">
<path d="M680.497 122.844L679.871 122.828V133.438L680.497 133.452V122.844Z" fill="#F5C491"/>
</g>
<g style="mix-blend-mode:multiply">
<path d="M671.648 122.248L671.022 122.172V132.781L671.648 132.856V122.248Z" fill="#F5C491"/>
</g>
<g style="mix-blend-mode:multiply">
<path d="M656.272 129.581L656.898 129.793V119.185C656.688 119.117 656.48 119.045 656.272 118.975V129.581Z" fill="#F5C491"/>
</g>
<g style="mix-blend-mode:multiply">
<path d="M715.896 116.446C715.69 116.558 715.488 116.669 715.272 116.779V127.385C715.488 127.277 715.69 127.165 715.896 127.052V116.446Z" fill="#F5C491"/>
</g>
<g style="mix-blend-mode:multiply">
<path d="M721.172 123.003C721.4 122.726 721.61 122.45 721.798 122.169V111.562C721.614 111.842 721.4 112.114 721.172 112.396V123.003Z" fill="#F5C491"/>
</g>
<g style="mix-blend-mode:multiply">
<path d="M712.322 128.716C712.532 128.631 712.745 128.55 712.948 128.464V117.856C712.745 117.942 712.532 118.025 712.322 118.11V128.716Z" fill="#F5C491"/>
</g>
<g style="mix-blend-mode:multiply">
<path d="M659.847 120.066C659.637 120.011 659.431 119.95 659.223 119.882V130.492C659.431 130.551 659.637 130.612 659.847 130.677V120.066Z" fill="#F5C491"/>
</g>
<g style="mix-blend-mode:multiply">
<path d="M718.847 114.572C718.646 114.725 718.438 114.875 718.221 115.028V125.635C718.438 125.484 718.646 125.331 718.847 125.178V114.572Z" fill="#F5C491"/>
</g>
<g style="mix-blend-mode:multiply">
<path d="M704.097 120.648C703.889 120.696 703.683 120.748 703.471 120.794V131.402C703.683 131.354 703.889 131.304 704.097 131.255V120.648Z" fill="#F5C491"/>
</g>
<g style="mix-blend-mode:multiply">
<path d="M647.422 125.178C647.624 125.333 647.829 125.486 648.048 125.637V115.03C647.829 114.879 647.624 114.725 647.422 114.572V125.178Z" fill="#F5C491"/>
</g>
<g style="mix-blend-mode:multiply">
<path d="M707.048 119.894C706.842 119.952 706.632 120.008 706.422 120.065V130.677L707.048 130.507V119.894Z" fill="#F5C491"/>
</g>
<g style="mix-blend-mode:multiply">
<path d="M709.998 118.98C709.792 119.05 709.579 119.115 709.371 119.183V129.791C709.579 129.721 709.792 129.657 709.998 129.587V118.98Z" fill="#F5C491"/>
</g>
<g style="mix-blend-mode:multiply">
<path d="M650.998 116.779C650.783 116.669 650.579 116.558 650.373 116.446V127.052C650.579 127.165 650.783 127.277 650.998 127.385V116.779Z" fill="#F5C491"/>
</g>
<g style="mix-blend-mode:multiply">
<path d="M644.473 122.172C644.666 122.46 644.875 122.737 645.099 123.002V112.395C644.876 112.13 644.667 111.853 644.473 111.565V122.172Z" fill="#F5C491"/>
</g>
<g style="mix-blend-mode:multiply">
<path d="M683.448 133.486V122.877H683.135H682.822V133.486H683.448V133.486Z" fill="#F5C491"/>
</g>
<g style="mix-blend-mode:multiply">
<path d="M653.948 118.112C653.736 118.027 653.53 117.941 653.324 117.852V128.468C653.53 128.556 653.736 128.643 653.948 128.727V118.112Z" fill="#F5C491"/>
</g>
<g style="mix-blend-mode:multiply">
<path d="M689.347 122.697L688.721 122.734V133.34L689.347 133.305V122.697Z" fill="#F5C491"/>
</g>
<g style="mix-blend-mode:multiply">
<path d="M686.398 122.828L685.772 122.844V133.451L686.398 133.436V122.828Z" fill="#F5C491"/>
</g>
<g style="mix-blend-mode:multiply">
<path d="M701.148 121.269L700.522 121.386V131.993L701.148 131.875V121.269Z" fill="#F5C491"/>
</g>
<g style="mix-blend-mode:multiply">
<path d="M692.298 122.48L691.672 122.531V133.139L692.298 133.088V122.48Z" fill="#F5C491"/>
</g>
<g style="mix-blend-mode:multiply">
<path d="M695.248 122.172C695.039 122.198 694.832 122.226 694.623 122.25V132.858C694.832 132.832 695.039 132.805 695.248 132.781V122.172Z" fill="#F5C491"/>
</g>
<g style="mix-blend-mode:multiply">
<path d="M698.198 121.776L697.572 121.867V132.473L698.198 132.385V121.776Z" fill="#F5C491"/>
</g>
</g>
<path d="M711.145 98.4007C703.379 95.5236 693.255 94.0859 683.133 94.0859C672.863 94.0859 662.595 95.5585 654.803 98.5166C639.341 104.378 639.474 113.828 655.113 119.623C662.881 122.5 673.007 123.937 683.131 123.937C693.4 123.937 703.666 122.465 711.46 119.507C726.935 113.646 726.792 104.195 711.145 98.4007Z" fill="url(#paint8_linear)"/>
<g style="mix-blend-mode:overlay" opacity="0.3">
<path d="M711.145 98.4009C708.614 97.4776 706.022 96.7285 703.388 96.1588L645.206 104.442C640.873 109.504 643.941 115.255 654.369 119.33L722.939 109.563C723.34 105.536 719.407 101.458 711.145 98.4009Z" fill="white"/>
</g>
<g style="mix-blend-mode:overlay" opacity="0.6">
<path d="M655.116 120.39C662.884 123.269 673.01 124.705 683.134 124.705C693.404 124.705 703.67 123.232 711.464 120.276C719.195 117.346 723.029 113.521 722.974 109.701C722.974 109.6 722.957 109.499 722.95 109.397C722.703 113.062 718.887 116.7 711.464 119.521C703.67 122.467 693.404 123.952 683.134 123.952C673.01 123.952 662.886 122.515 655.116 119.637C647.495 116.816 643.565 113.123 643.319 109.401C643.037 113.373 646.971 117.373 655.116 120.39Z" fill="white"/>
</g>
<path d="M703.966 101.123C698.186 98.9843 690.659 97.9111 683.133 97.9111C675.497 97.9111 667.854 99.0156 662.072 101.204C650.571 105.563 650.673 112.587 662.308 116.897C668.083 119.036 675.608 120.101 683.133 120.101C690.768 120.101 698.402 118.997 704.193 116.808C715.699 112.453 715.592 105.431 703.966 101.123Z" fill="#F28500"/>
<g style="mix-blend-mode:overlay" opacity="0.6">
<path d="M662.073 103.881C667.864 101.685 675.497 100.588 683.133 100.588C690.66 100.588 698.186 101.655 703.963 103.794C708.833 105.6 711.675 107.881 712.496 110.237C713.66 106.923 710.812 103.426 703.963 100.895C698.186 98.756 690.66 97.6884 683.133 97.6884C675.497 97.6884 667.854 98.7928 662.073 100.983C655.389 103.516 652.631 106.949 653.771 110.226C654.584 107.914 657.347 105.672 662.073 103.881Z" fill="white"/>
</g>
<path d="M662.073 104.103C667.864 101.907 675.497 100.808 683.133 100.808C690.66 100.808 698.186 101.876 703.963 104.015C708.833 105.821 711.675 108.102 712.496 110.458C713.66 107.133 710.812 103.647 703.963 101.116C698.186 98.9843 690.66 97.9111 683.133 97.9111C675.497 97.9111 667.854 99.0156 662.073 101.204C655.389 103.737 652.631 107.17 653.771 110.449C654.584 108.135 657.347 105.894 662.073 104.103Z" fill="#D96D00"/>
<path d="M697.305 110.452V108.471L686.166 105.079C686.033 105.03 685.892 105.005 685.75 105.007C685.61 105.006 685.471 105.031 685.34 105.081L666.86 110.078V112.166C666.86 112.219 666.927 112.273 667.044 112.321L671.409 113.935C671.541 113.984 671.681 114.008 671.821 114.007C671.961 114.007 672.1 113.983 672.232 113.935L678.38 111.606C678.469 111.572 678.567 111.572 678.656 111.606L681.585 112.691C682.982 113.201 684.433 113.546 685.91 113.719C686.784 113.829 687.663 113.883 688.543 113.883C689.189 113.883 689.831 113.854 690.466 113.793C691.861 113.676 693.234 113.372 694.549 112.891C695.782 112.42 696.611 111.903 697.023 111.341C697.226 111.091 697.327 110.774 697.305 110.452V110.452ZM689.281 111.017C688.686 111.231 688.058 111.334 687.427 111.323H687.243C686.501 111.306 685.767 111.168 685.069 110.914L682.752 110.06C682.663 110.027 682.663 109.994 682.752 109.959L686.413 108.573C686.456 108.555 686.502 108.546 686.549 108.545C686.597 108.546 686.644 108.555 686.689 108.573L689.003 109.432C689.686 109.683 690.05 109.955 690.107 110.248C690.164 110.541 689.877 110.796 689.281 111.017V111.017Z" fill="#D96D00"/>
<path d="M696.933 107.548C696.454 106.983 695.565 106.456 694.258 105.972L686.17 102.975C686.036 102.927 685.896 102.904 685.754 102.905C685.614 102.904 685.474 102.929 685.343 102.979L667.044 109.909C666.921 109.957 666.86 110.007 666.86 110.062C666.86 110.117 666.927 110.171 667.044 110.215L671.409 111.831C671.675 111.927 671.966 111.927 672.232 111.831L678.38 109.508C678.469 109.476 678.567 109.476 678.656 109.508L681.585 110.592C682.981 111.104 684.433 111.45 685.91 111.623C686.784 111.731 687.663 111.786 688.543 111.787C689.189 111.787 689.831 111.756 690.466 111.697C691.861 111.579 693.234 111.276 694.549 110.795C695.782 110.323 696.611 109.806 697.023 109.245C697.435 108.683 697.406 108.111 696.933 107.548ZM689.281 108.915C688.686 109.128 688.058 109.231 687.427 109.221H687.243C686.501 109.205 685.766 109.067 685.069 108.812L682.748 107.953C682.66 107.919 682.66 107.884 682.748 107.85L686.409 106.465C686.452 106.447 686.499 106.438 686.545 106.438C686.593 106.438 686.641 106.447 686.685 106.465L688.999 107.323C689.682 107.575 690.047 107.846 690.104 108.14C690.161 108.435 689.877 108.687 689.281 108.915V108.915Z" fill="url(#paint9_linear)"/>
<g style="mix-blend-mode:overlay" opacity="0.6">
<g style="mix-blend-mode:overlay" opacity="0.6">
<path d="M689.003 107.144L686.689 106.288C686.645 106.271 686.597 106.261 686.549 106.261C686.503 106.261 686.456 106.271 686.413 106.288L682.752 107.667C682.663 107.702 682.663 107.735 682.752 107.768L682.851 107.805L686.413 106.458C686.456 106.44 686.503 106.431 686.549 106.43C686.597 106.431 686.645 106.44 686.689 106.458L689.003 107.316C689.658 107.557 690.014 107.818 690.087 108.098C690.101 108.052 690.106 108.004 690.102 107.956C690.05 107.667 689.686 107.396 689.003 107.144Z" fill="white"/>
</g>
<g style="mix-blend-mode:overlay" opacity="0.6">
<path d="M697.025 109.064C696.612 109.616 695.784 110.141 694.551 110.612C693.237 111.095 691.863 111.398 690.468 111.514C689.833 111.575 689.191 111.603 688.544 111.603C687.665 111.603 686.785 111.549 685.912 111.441C684.435 111.267 682.983 110.922 681.586 110.412L678.658 109.324C678.569 109.289 678.47 109.289 678.382 109.324L672.237 111.652C672.106 111.701 671.967 111.726 671.827 111.726C671.686 111.727 671.546 111.702 671.414 111.652L667.05 110.038C667.005 110.021 666.962 109.998 666.923 109.97C666.884 109.999 666.86 110.029 666.86 110.058C666.86 110.088 666.927 110.167 667.044 110.211L671.409 111.827C671.675 111.923 671.966 111.923 672.232 111.827L678.38 109.508C678.469 109.476 678.567 109.476 678.656 109.508L681.585 110.592C682.981 111.104 684.433 111.45 685.91 111.623C686.784 111.731 687.663 111.786 688.543 111.787C689.189 111.787 689.831 111.755 690.466 111.696C691.861 111.579 693.234 111.275 694.549 110.794C695.782 110.323 696.611 109.806 697.023 109.245C697.225 108.996 697.326 108.68 697.305 108.361C697.28 108.617 697.183 108.861 697.025 109.064V109.064Z" fill="white"/>
</g>
</g>
<path d="M722.974 97.3866V107.995C722.974 111.787 719.141 115.579 711.464 118.487C703.67 121.432 693.404 122.916 683.134 122.916C673.01 122.916 662.886 121.48 655.116 118.603C647.24 115.684 643.295 111.838 643.295 107.991V97.3866C643.295 101.232 647.24 105.079 655.116 107.997C662.884 110.874 673.01 112.31 683.134 112.31C693.404 112.31 703.67 110.837 711.464 107.881C719.141 104.972 722.974 101.179 722.974 97.3866Z" fill="#D96D00"/>
<path d="M722.974 96.7606V107.367C722.974 111.159 719.141 114.953 711.464 117.859C703.67 120.805 693.404 122.29 683.134 122.29C673.01 122.29 662.886 120.854 655.116 117.977C647.24 115.058 643.295 111.212 643.295 107.365V96.7606C643.295 100.606 647.24 104.451 655.116 107.373C662.884 110.248 673.01 111.684 683.134 111.684C693.404 111.684 703.67 110.211 711.464 107.255C719.141 104.354 722.974 100.553 722.974 96.7606Z" fill="url(#paint10_linear)"/>
<g style="mix-blend-mode:multiply">
<g style="mix-blend-mode:multiply">
<path d="M668.698 110.671L668.072 110.579V121.188L668.698 121.278V110.671Z" fill="#F5C491"/>
</g>
<g style="mix-blend-mode:multiply">
<path d="M665.748 110.187C665.54 110.15 665.331 110.113 665.123 110.073V120.681L665.748 120.795V110.187Z" fill="#F5C491"/>
</g>
<g style="mix-blend-mode:multiply">
<path d="M662.798 109.596L662.172 109.451V120.057L662.798 120.204V109.596Z" fill="#F5C491"/>
</g>
<g style="mix-blend-mode:multiply">
<path d="M677.548 111.533C677.34 111.533 677.132 111.509 676.922 111.496V122.104C677.132 122.117 677.34 122.13 677.548 122.139V111.533Z" fill="#F5C491"/>
</g>
<g style="mix-blend-mode:multiply">
<path d="M674.599 111.336L673.971 111.284V121.891C674.179 121.911 674.389 121.926 674.599 121.942V111.336Z" fill="#F5C491"/>
</g>
<g style="mix-blend-mode:multiply">
<path d="M680.497 111.647L679.871 111.63V122.239L680.497 122.255V111.647Z" fill="#F5C491"/>
</g>
<g style="mix-blend-mode:multiply">
<path d="M671.648 111.052L671.017 110.981V121.583L671.642 121.659L671.648 111.052Z" fill="#F5C491"/>
</g>
<g style="mix-blend-mode:multiply">
<path d="M656.272 118.384L656.898 118.596V107.989L656.272 107.777V118.384Z" fill="#F5C491"/>
</g>
<g style="mix-blend-mode:multiply">
<path d="M715.896 105.249C715.69 105.361 715.488 105.473 715.272 105.584V116.19C715.488 116.08 715.69 115.967 715.896 115.857V105.249Z" fill="#F5C491"/>
</g>
<g style="mix-blend-mode:multiply">
<path d="M721.172 111.805C721.4 111.529 721.61 111.253 721.798 110.973V100.367C721.614 100.645 721.4 100.919 721.172 101.199V111.805Z" fill="#F5C491"/>
</g>
<g style="mix-blend-mode:multiply">
<path d="M712.322 117.521C712.532 117.436 712.745 117.353 712.948 117.267V106.658C712.745 106.747 712.532 106.828 712.322 106.914V117.521Z" fill="#F5C491"/>
</g>
<g style="mix-blend-mode:multiply">
<path d="M659.847 108.871C659.637 108.814 659.431 108.753 659.223 108.687V119.295L659.847 119.47V108.871Z" fill="#F5C491"/>
</g>
<g style="mix-blend-mode:multiply">
<path d="M718.847 103.377C718.646 103.528 718.438 103.68 718.221 103.831V114.44C718.438 114.289 718.646 114.136 718.847 113.983V103.377Z" fill="#F5C491"/>
</g>
<g style="mix-blend-mode:multiply">
<path d="M704.097 109.451C703.889 109.499 703.683 109.55 703.471 109.596V120.204C703.683 120.157 703.889 120.105 704.097 120.057V109.451Z" fill="#F5C491"/>
</g>
<g style="mix-blend-mode:multiply">
<path d="M647.422 113.981C647.624 114.136 647.829 114.288 648.048 114.441V103.835C647.829 103.682 647.624 103.527 647.422 103.375V113.981Z" fill="#F5C491"/>
</g>
<g style="mix-blend-mode:multiply">
<path d="M707.048 108.698C706.842 108.757 706.632 108.812 706.422 108.869V119.476C706.632 119.419 706.842 119.363 707.048 119.305V108.698Z" fill="#F5C491"/>
</g>
<g style="mix-blend-mode:multiply">
<path d="M709.998 107.783C709.792 107.853 709.579 107.92 709.371 107.988V118.594C709.579 118.526 709.792 118.46 709.998 118.39V107.783Z" fill="#F5C491"/>
</g>
<g style="mix-blend-mode:multiply">
<path d="M650.998 105.584C650.783 105.473 650.579 105.361 650.373 105.249V115.857C650.579 115.967 650.783 116.08 650.998 116.19V105.584Z" fill="#F5C491"/>
</g>
<g style="mix-blend-mode:multiply">
<path d="M644.473 110.98C644.666 111.269 644.875 111.546 645.099 111.812V101.2C644.876 100.934 644.667 100.656 644.473 100.368V110.98Z" fill="#F5C491"/>
</g>
<g style="mix-blend-mode:multiply">
<path d="M683.448 122.288V111.682H682.822V122.288H683.135H683.448Z" fill="#F5C491"/>
</g>
<g style="mix-blend-mode:multiply">
<path d="M653.948 106.916L653.324 106.657V117.263C653.53 117.35 653.736 117.447 653.948 117.523V106.916Z" fill="#F5C491"/>
</g>
<g style="mix-blend-mode:multiply">
<path d="M689.347 111.5L688.721 111.536V122.143C688.931 122.143 689.139 122.121 689.347 122.108V111.5Z" fill="#F5C491"/>
</g>
<g style="mix-blend-mode:multiply">
<path d="M686.398 111.63C686.19 111.63 685.98 111.643 685.772 111.647V122.255L686.398 122.239V111.63Z" fill="#F5C491"/>
</g>
<g style="mix-blend-mode:multiply">
<path d="M701.148 110.071L700.522 110.189V120.797L701.148 120.68V110.071Z" fill="#F5C491"/>
</g>
<g style="mix-blend-mode:multiply">
<path d="M692.298 111.284L691.672 111.336V121.942L692.298 121.891V111.284Z" fill="#F5C491"/>
</g>
<g style="mix-blend-mode:multiply">
<path d="M695.248 110.981L694.623 111.056V121.657C694.832 121.633 695.039 121.605 695.248 121.58V110.981Z" fill="#F5C491"/>
</g>
<g style="mix-blend-mode:multiply">
<path d="M698.198 110.581C697.991 110.612 697.782 110.638 697.572 110.671V121.278L698.198 121.187V110.581Z" fill="#F5C491"/>
</g>
</g>
<path d="M711.145 87.2034C703.379 84.3263 693.255 82.8905 683.133 82.8905C672.863 82.8905 662.595 84.3631 654.803 87.3212C639.341 93.1822 639.474 102.631 655.113 108.427C662.881 111.304 673.007 112.74 683.131 112.74C693.4 112.74 703.666 111.268 711.46 108.311C726.935 102.449 726.792 92.9999 711.145 87.2034Z" fill="url(#paint11_linear)"/>
<g style="mix-blend-mode:overlay" opacity="0.3">
<path d="M711.145 87.2037C708.614 86.2813 706.022 85.5322 703.388 84.9617L645.206 93.2451C640.873 98.3072 643.941 104.058 654.369 108.133L722.939 98.3771C723.34 94.3403 719.407 90.263 711.145 87.2037Z" fill="white"/>
</g>
<g style="mix-blend-mode:overlay" opacity="0.6">
<path d="M655.116 109.195C662.884 112.072 673.01 113.51 683.134 113.51C693.404 113.51 703.67 112.037 711.464 109.079C719.195 106.15 723.029 102.323 722.974 98.5039C722.974 98.4027 722.957 98.3014 722.95 98.2002C722.703 101.865 718.887 105.504 711.464 108.324C703.67 111.27 693.404 112.753 683.134 112.753C673.01 112.753 662.886 111.317 655.116 108.44C647.495 105.617 643.565 101.924 643.319 98.2039C643.037 102.169 646.971 106.178 655.116 109.195Z" fill="white"/>
</g>
<path d="M703.966 89.926C698.186 87.787 690.659 86.7194 683.133 86.7194C675.497 86.7194 667.854 87.8238 662.072 90.0143C650.571 94.3732 650.673 101.398 662.308 105.705C668.083 107.844 675.608 108.912 683.133 108.912C690.768 108.912 698.402 107.807 704.193 105.618C715.699 101.259 715.592 94.2296 703.966 89.926Z" fill="#F28500"/>
<g style="mix-blend-mode:overlay" opacity="0.6">
<path d="M662.073 92.6852C667.864 90.4892 675.497 89.3902 683.133 89.3902C690.66 89.3902 698.186 90.4579 703.963 92.5968C708.833 94.4008 711.675 96.6833 712.496 99.0395C713.66 95.7169 710.812 92.2287 703.963 89.6976C698.186 87.5661 690.66 86.4984 683.133 86.4984C675.497 86.4984 667.854 87.6029 662.073 89.7915C655.389 92.3263 652.631 95.7574 653.771 99.0358C654.584 96.7164 657.347 94.4762 662.073 92.6852Z" fill="white"/>
</g>
<path d="M662.073 92.9061C667.864 90.712 675.497 89.613 683.133 89.613C690.66 89.613 698.186 90.6788 703.963 92.8178C708.833 94.6236 711.675 96.9043 712.496 99.2604C713.66 95.9471 710.812 92.4588 703.963 89.9204C698.186 87.787 690.66 86.7194 683.133 86.7194C675.497 86.7194 667.854 87.8238 662.073 90.0143C655.389 92.5454 652.631 95.9802 653.771 99.2567C654.584 96.9392 657.347 94.6972 662.073 92.9061Z" fill="#D96D00"/>
<path d="M697.305 99.2568V97.2743L686.166 93.8818C686.033 93.8332 685.892 93.8089 685.75 93.81C685.61 93.8094 685.471 93.835 685.34 93.8854L666.86 98.8812V100.969C666.86 101.024 666.927 101.075 667.044 101.123L671.409 102.738C671.675 102.833 671.966 102.833 672.232 102.738L678.38 100.411C678.469 100.377 678.567 100.377 678.656 100.411L681.585 101.493C682.981 102.005 684.433 102.351 685.91 102.524C686.784 102.632 687.663 102.686 688.543 102.686C689.189 102.686 689.831 102.657 690.466 102.598C691.861 102.481 693.235 102.177 694.549 101.694C695.782 101.225 696.611 100.707 697.023 100.146C697.226 99.8959 697.327 99.5781 697.305 99.2568V99.2568ZM689.281 99.82C688.686 100.032 688.058 100.134 687.427 100.12H687.243C686.501 100.105 685.766 99.9664 685.069 99.7114L682.748 98.8518C682.66 98.8168 682.66 98.7837 682.748 98.7506L686.409 97.3626C686.453 97.3461 686.499 97.3374 686.545 97.3369C686.593 97.3375 686.64 97.3462 686.685 97.3626L688.999 98.2223C689.682 98.4744 690.047 98.7469 690.104 99.0396C690.161 99.3322 689.877 99.5936 689.281 99.82V99.82Z" fill="#D96D00"/>
<path d="M696.933 96.3501C696.454 95.785 695.565 95.2604 694.258 94.7763L686.17 91.7795C686.037 91.7301 685.896 91.7058 685.754 91.7078C685.614 91.7075 685.475 91.7324 685.343 91.7814L667.044 98.7118C666.921 98.7615 666.86 98.8112 666.86 98.8665C666.86 98.9217 666.927 98.9732 667.044 99.0192L671.409 100.635C671.541 100.685 671.681 100.709 671.821 100.707C671.961 100.708 672.1 100.684 672.232 100.635L678.38 98.3069C678.469 98.2725 678.567 98.2725 678.656 98.3069L681.586 99.3837C682.983 99.8948 684.435 100.24 685.912 100.413C686.785 100.521 687.665 100.575 688.544 100.575C689.191 100.575 689.833 100.547 690.468 100.488C691.863 100.371 693.236 100.067 694.551 99.5844C695.784 99.115 696.612 98.5977 697.025 98.0363C697.437 97.4748 697.406 96.9134 696.933 96.3501ZM689.281 97.727C688.686 97.9379 688.058 98.0408 687.427 98.0308H687.243C686.501 98.0158 685.766 97.8783 685.069 97.6239L682.748 96.7643C682.66 96.7293 682.66 96.6944 682.748 96.6612L686.409 95.277C686.452 95.2592 686.499 95.2498 686.545 95.2494C686.593 95.2498 686.641 95.2592 686.685 95.277L688.999 96.1348C689.682 96.3851 690.047 96.6575 690.104 96.9502C690.161 97.2429 689.877 97.4896 689.281 97.727Z" fill="url(#paint12_linear)"/>
<g style="mix-blend-mode:overlay" opacity="0.6">
<g style="mix-blend-mode:overlay" opacity="0.6">
<path d="M689.003 95.9486L686.689 95.089C686.644 95.0726 686.597 95.0639 686.549 95.0632C686.503 95.0637 686.457 95.0725 686.413 95.089L682.752 96.4769C682.663 96.5101 682.663 96.5432 682.752 96.5782L682.851 96.6132L686.413 95.2676C686.456 95.2498 686.503 95.2404 686.549 95.2399C686.597 95.2404 686.645 95.2498 686.689 95.2676L689.003 96.1253C689.658 96.3646 690.014 96.626 690.087 96.9058C690.101 96.8606 690.106 96.8131 690.102 96.7659C690.05 96.4714 689.686 96.2008 689.003 95.9486Z" fill="white"/>
</g>
<g style="mix-blend-mode:overlay" opacity="0.6">
<path d="M697.025 97.8669C696.612 98.4284 695.784 98.9456 694.551 99.415C693.236 99.8976 691.863 100.202 690.468 100.319C689.833 100.378 689.191 100.407 688.544 100.407C687.665 100.407 686.785 100.353 685.912 100.245C684.435 100.071 682.983 99.7252 681.586 99.2144L678.658 98.1302C678.568 98.0983 678.471 98.0983 678.382 98.1302L672.237 100.459C671.972 100.557 671.68 100.557 671.414 100.459L667.05 98.8444C667.005 98.8273 666.963 98.8051 666.923 98.7781C666.906 98.7869 666.892 98.7995 666.881 98.8148C666.87 98.8302 666.863 98.8479 666.86 98.8665C666.86 98.9199 666.927 98.9732 667.044 99.0193L671.409 100.635C671.541 100.685 671.681 100.709 671.821 100.707C671.961 100.708 672.1 100.684 672.232 100.635L678.38 98.3069C678.469 98.2725 678.567 98.2725 678.656 98.3069L681.586 99.3837C682.983 99.8948 684.435 100.24 685.912 100.413C686.785 100.521 687.665 100.575 688.544 100.575C689.191 100.575 689.833 100.547 690.468 100.488C691.863 100.371 693.236 100.067 694.551 99.5844C695.784 99.115 696.612 98.5977 697.025 98.0363C697.227 97.7866 697.328 97.4697 697.306 97.149C697.284 97.4106 697.186 97.6599 697.025 97.8669Z" fill="white"/>
</g>
</g>
<path d="M722.974 86.1913V96.7959C722.974 100.588 719.141 104.382 711.464 107.288C703.67 110.244 693.404 111.717 683.134 111.717C673.01 111.717 662.886 110.281 655.116 107.404C647.24 104.485 643.295 100.641 643.295 96.7922V86.1895C643.295 90.0366 647.24 93.882 655.116 96.7996C662.884 99.6785 673.01 101.114 683.134 101.114C693.404 101.114 703.67 99.6417 711.464 96.6854C719.141 93.7752 722.974 89.9814 722.974 86.1913Z" fill="#D96D00"/>
<path d="M722.974 85.5652V96.1716C722.974 99.9636 719.141 103.757 711.464 106.664C703.67 109.609 693.404 111.095 683.134 111.095C673.01 111.095 662.886 109.657 655.116 106.78C647.24 103.86 643.295 100.015 643.295 96.1679V85.5634C643.295 89.4105 647.24 93.2559 655.116 96.1753C662.884 99.0506 673.01 100.488 683.134 100.488C693.404 100.488 703.67 99.0156 711.464 96.0593C719.141 93.1491 722.974 89.3571 722.974 85.5652Z" fill="url(#paint13_linear)"/>
<g style="mix-blend-mode:multiply">
<g style="mix-blend-mode:multiply">
<path d="M668.698 99.4741L668.072 99.3839V109.99C668.28 110.023 668.49 110.051 668.698 110.081V99.4741Z" fill="#F5C491"/>
</g>
<g style="mix-blend-mode:multiply">
<path d="M665.748 98.9917L665.123 98.8776V109.484L665.748 109.598V98.9917Z" fill="#F5C491"/>
</g>
<g style="mix-blend-mode:multiply">
<path d="M662.798 98.399C662.588 98.3529 662.382 98.3014 662.172 98.2535V108.86L662.798 109.007V98.399Z" fill="#F5C491"/>
</g>
<g style="mix-blend-mode:multiply">
<path d="M677.548 100.341L676.922 100.302V110.909C677.132 110.924 677.34 110.938 677.548 110.947V100.341Z" fill="#F5C491"/>
</g>
<g style="mix-blend-mode:multiply">
<path d="M674.599 100.138L673.971 100.087V110.695L674.599 110.747V100.138Z" fill="#F5C491"/>
</g>
<g style="mix-blend-mode:multiply">
<path d="M680.497 100.451L679.871 100.435V111.041L680.497 111.06V100.451Z" fill="#F5C491"/>
</g>
<g style="mix-blend-mode:multiply">
<path d="M671.648 99.8551L671.022 99.7797V110.388L671.648 110.463V99.8551Z" fill="#F5C491"/>
</g>
<g style="mix-blend-mode:multiply">
<path d="M656.272 107.189L656.898 107.4V96.792C656.688 96.7239 656.48 96.6521 656.272 96.5803V107.189Z" fill="#F5C491"/>
</g>
<g style="mix-blend-mode:multiply">
<path d="M715.896 94.0457C715.69 94.1579 715.488 94.2684 715.272 94.3807V104.985C715.488 104.877 715.69 104.764 715.896 104.652V94.0457Z" fill="#F5C491"/>
</g>
<g style="mix-blend-mode:multiply">
<path d="M721.172 100.61C721.4 100.334 721.61 100.058 721.798 99.7777V89.1713C721.614 89.4492 721.4 89.7235 721.172 90.0014V100.61Z" fill="#F5C491"/>
</g>
<g style="mix-blend-mode:multiply">
<path d="M712.322 106.325C712.532 106.239 712.745 106.156 712.948 106.071V95.463C712.745 95.5495 712.532 95.6324 712.322 95.717V106.325Z" fill="#F5C491"/>
</g>
<g style="mix-blend-mode:multiply">
<path d="M659.847 97.6738L659.223 97.4989V108.105L659.847 108.289V97.6738Z" fill="#F5C491"/>
</g>
<g style="mix-blend-mode:multiply">
<path d="M718.847 92.1791C718.646 92.3319 718.438 92.4846 718.221 92.6356V103.249C718.438 103.098 718.646 102.946 718.847 102.795V92.1791Z" fill="#F5C491"/>
</g>
<g style="mix-blend-mode:multiply">
<path d="M704.097 98.2535C703.889 98.3032 703.683 98.3529 703.471 98.4008V109.007C703.683 108.961 703.889 108.91 704.097 108.862V98.2535Z" fill="#F5C491"/>
</g>
<g style="mix-blend-mode:multiply">
<path d="M647.422 102.786C647.624 102.94 647.829 103.093 648.048 103.244V92.6374C647.829 92.4865 647.624 92.3319 647.422 92.1791V102.786Z" fill="#F5C491"/>
</g>
<g style="mix-blend-mode:multiply">
<path d="M707.048 97.5006C706.842 97.5595 706.632 97.6166 706.422 97.6718V108.28L707.048 108.109V97.5006Z" fill="#F5C491"/>
</g>
<g style="mix-blend-mode:multiply">
<path d="M709.998 96.5858C709.792 96.6558 709.579 96.722 709.371 96.792V107.398C709.579 107.328 709.792 107.262 709.998 107.192V96.5858Z" fill="#F5C491"/>
</g>
<g style="mix-blend-mode:multiply">
<path d="M650.998 94.3881C650.783 94.2758 650.579 94.1654 650.373 94.0531V104.661C650.579 104.772 650.783 104.884 650.998 104.993V94.3881Z" fill="#F5C491"/>
</g>
<g style="mix-blend-mode:multiply">
<path d="M644.473 99.7796C644.667 100.068 644.876 100.346 645.099 100.612V89.996C644.876 89.7304 644.667 89.4533 644.473 89.1658V99.7796Z" fill="#F5C491"/>
</g>
<g style="mix-blend-mode:multiply">
<path d="M683.448 111.093V100.488H682.822V111.095H683.135L683.448 111.093Z" fill="#F5C491"/>
</g>
<g style="mix-blend-mode:multiply">
<path d="M653.948 95.7188C653.736 95.6341 653.53 95.5457 653.324 95.4592V106.066C653.53 106.152 653.736 106.25 653.948 106.325V95.7188Z" fill="#F5C491"/>
</g>
<g style="mix-blend-mode:multiply">
<path d="M689.347 100.304L688.721 100.341V110.949L689.347 110.912V100.304Z" fill="#F5C491"/>
</g>
<g style="mix-blend-mode:multiply">
<path d="M686.398 100.435L685.772 100.451V111.06L686.398 111.041V100.435Z" fill="#F5C491"/>
</g>
<g style="mix-blend-mode:multiply">
<path d="M701.148 98.8759L700.522 98.9918V109.6L701.148 109.482V98.8759Z" fill="#F5C491"/>
</g>
<g style="mix-blend-mode:multiply">
<path d="M692.298 100.087L691.672 100.138V110.747C691.882 110.728 692.09 110.714 692.298 110.693V100.087Z" fill="#F5C491"/>
</g>
<g style="mix-blend-mode:multiply">
<path d="M695.248 99.7797C695.039 99.8054 694.832 99.833 694.623 99.857V110.465C694.832 110.441 695.039 110.414 695.248 110.388V99.7797Z" fill="#F5C491"/>
</g>
<g style="mix-blend-mode:multiply">
<path d="M698.198 99.3839C697.991 99.417 697.782 99.4428 697.572 99.4741V110.081C697.782 110.051 697.991 110.023 698.198 109.99V99.3839Z" fill="#F5C491"/>
</g>
</g>
<path d="M711.145 76.0063C703.379 73.131 693.255 71.6934 683.133 71.6934C672.863 71.6934 662.595 73.166 654.803 76.1259C639.341 81.985 639.474 91.4355 655.113 97.2302C662.881 100.107 673.007 101.545 683.131 101.545C693.4 101.545 703.666 100.072 711.46 97.1142C726.935 91.2532 726.792 81.801 711.145 76.0063Z" fill="url(#paint14_linear)"/>
<g style="mix-blend-mode:overlay" opacity="0.6">
<path d="M655.116 97.9996C662.884 100.877 673.01 102.313 683.134 102.313C693.404 102.313 703.67 100.84 711.464 97.8836C719.195 94.9532 723.029 91.1262 722.974 87.3085C722.974 87.2073 722.957 87.1042 722.95 87.0029C722.703 90.6679 718.887 94.3089 711.464 97.1271C703.67 100.072 693.404 101.558 683.134 101.558C673.01 101.558 662.886 100.12 655.116 97.2431C647.495 94.4193 643.565 90.7268 643.319 87.0085C643.037 90.9716 646.971 94.9808 655.116 97.9996Z" fill="white"/>
</g>
<path d="M703.966 78.7307C698.19 76.5917 690.663 75.5222 683.136 75.5222C675.501 75.5222 667.858 76.6267 662.076 78.8172C650.575 83.1742 650.676 90.2022 662.312 94.5096C668.086 96.6467 675.611 97.7162 683.136 97.7162C690.771 97.7162 698.405 96.6118 704.196 94.4194C715.699 90.0642 715.592 83.0399 703.966 78.7307Z" fill="#F28500"/>
<g style="mix-blend-mode:overlay" opacity="0.6">
<path d="M662.073 81.4879C667.864 79.2937 675.497 78.193 683.133 78.193C690.66 78.193 698.186 79.2625 703.963 81.4014C708.833 83.2054 711.675 85.4879 712.496 87.8441C713.66 84.5197 710.812 81.0333 703.963 78.5022C698.186 76.3743 690.66 75.3011 683.133 75.3011C675.497 75.3011 667.854 76.4056 662.073 78.5961C655.389 81.1271 652.631 84.562 653.771 87.8385C654.584 85.5192 657.347 83.279 662.073 81.4879Z" fill="white"/>
</g>
<path d="M662.073 81.7124C667.864 79.5183 675.497 78.4193 683.133 78.4193C690.66 78.4193 698.186 79.487 703.963 81.6259C708.833 83.4317 711.675 85.7124 712.496 88.0686C713.66 84.746 710.812 81.2578 703.963 78.7286C698.186 76.5896 690.66 75.5201 683.133 75.5201C675.497 75.5201 667.854 76.6246 662.073 78.8151C655.389 81.348 652.631 84.7828 653.771 88.0575C654.584 85.7419 657.347 83.4998 662.073 81.7124Z" fill="#D96D00"/>
<path d="M683.639 94.5093C687.241 94.6732 694.995 94.6179 696.892 93.5098C698.995 92.2838 695.989 91.0855 694.1 90.502C694.957 89.9023 695.7 89.1542 696.294 88.2931C696.761 87.6288 697.014 86.8374 697.018 86.0253C699.545 85.6295 703.909 84.746 703.477 83.4114C703.083 82.2039 695.817 81.5117 692.2 81.3682C690.22 80.6521 687.7 80.1846 684.773 80.0594C675.694 79.6747 666.135 82.734 663.42 86.8941C660.705 91.0542 665.865 94.7394 674.941 95.126C677.855 95.2445 680.772 95.0377 683.639 94.5093V94.5093ZM682.575 83.8495C682.818 83.4814 684.002 83.2144 685.217 83.266C686.431 83.3175 687.219 83.6636 686.976 84.0373C686.733 84.4109 685.55 84.6705 684.335 84.6189C683.12 84.5674 682.332 84.2232 682.575 83.8495V83.8495ZM677.644 89.092C676.486 88.941 676.342 88.5398 676.55 88.2231C676.609 88.1367 676.682 88.0613 676.767 88.0004C677.08 87.7685 677.688 87.5899 678.393 87.4997C677.841 87.3543 677.493 87.1316 677.491 86.8923C677.494 86.8097 677.52 86.7297 677.568 86.6622C677.776 86.3437 678.419 85.9793 679.705 85.9259C679.915 85.9259 680.097 85.9627 680.11 86.0271C680.123 86.0915 679.963 86.1486 679.742 86.156C678.708 86.1946 678.244 86.5978 678.246 86.872C678.247 87.1463 678.836 87.3801 679.718 87.4335L679.812 87.4427H679.832C679.863 87.4477 679.893 87.4558 679.922 87.4666H679.935C679.956 87.4728 679.975 87.4842 679.991 87.4997V87.4997C679.995 87.5059 679.997 87.5133 679.997 87.5209C679.997 87.5285 679.995 87.5359 679.991 87.5421C679.991 87.5421 679.991 87.5421 679.991 87.5421C679.982 87.5497 679.973 87.5559 679.963 87.5605C679.954 87.5681 679.944 87.5743 679.934 87.5789C679.918 87.5864 679.901 87.5926 679.884 87.5973L679.829 87.6139H679.772L679.694 87.6231H679.626C679.606 87.6249 679.586 87.6249 679.565 87.6231C678.671 87.601 677.828 87.7648 677.467 88.0317C677.106 88.2986 677.044 88.7109 677.973 88.8343C678.157 88.8582 678.24 88.9263 678.157 88.9852C678 89.0689 677.821 89.1059 677.644 89.092V89.092ZM677.721 91.3009C677.964 90.9327 679.148 90.6677 680.362 90.7192C681.577 90.7707 682.365 91.115 682.122 91.4886C681.879 91.8623 680.696 92.1237 679.481 92.0703C678.266 92.0169 677.471 91.6727 677.714 91.299L677.721 91.3009Z" fill="#DB7E27"/>
<path d="M683.867 94.1578C687.469 94.3216 695.223 94.2682 697.12 93.1583C699.224 91.9323 696.217 90.7358 694.328 90.1505C695.186 89.5518 695.929 88.8036 696.522 87.9416C696.989 87.2778 697.241 86.4871 697.246 85.6756C699.773 85.278 704.139 84.3871 703.705 83.0617C703.313 81.8542 696.045 81.1621 692.428 81.0185C690.45 80.3024 687.93 79.833 685.001 79.7097C675.922 79.3231 666.363 82.3825 663.648 86.5426C660.933 90.7027 666.093 94.3897 675.171 94.7763C678.084 94.8933 681 94.6858 683.867 94.1578V94.1578ZM682.798 83.498C683.042 83.1298 684.224 82.8648 685.439 82.9163C686.654 82.9678 687.442 83.3121 687.199 83.6857C686.956 84.0594 685.772 84.3208 684.557 84.2674C683.342 84.214 682.56 83.8717 682.798 83.498ZM677.864 88.7405C676.706 88.5895 676.563 88.1882 676.771 87.8735C676.83 87.7864 676.904 87.7104 676.99 87.6489C677.301 87.417 677.91 87.2402 678.613 87.1482C678.061 87.0046 677.713 86.7801 677.712 86.5408C677.716 86.4581 677.743 86.3783 677.791 86.3107C677.997 85.9922 678.639 85.6277 679.926 85.5744C680.138 85.5744 680.318 85.613 680.331 85.6756C680.344 85.7382 680.184 85.7971 679.974 85.8063C678.937 85.8431 678.474 86.2462 678.475 86.5205C678.477 86.7948 679.066 87.0304 679.948 87.0819C679.979 87.0835 680.01 87.0872 680.04 87.093H680.06C680.091 87.0989 680.121 87.1069 680.151 87.1169H680.165C680.185 87.1248 680.203 87.136 680.219 87.15C680.223 87.156 680.225 87.163 680.225 87.1703C680.225 87.1775 680.223 87.1846 680.219 87.1905V87.1905C680.219 87.1905 680.219 87.1905 680.219 87.1997C680.219 87.2089 680.2 87.2108 680.191 87.2182C680.182 87.2251 680.172 87.2313 680.162 87.2366C680.146 87.2437 680.129 87.2493 680.112 87.2531C680.094 87.2608 680.076 87.2664 680.057 87.2697L680.001 87.2789L679.922 87.2881H679.854H679.793C678.901 87.2642 678.056 87.428 677.695 87.6968C677.334 87.9655 677.275 88.4054 678.196 88.5232C678.38 88.549 678.463 88.6171 678.38 88.676C678.217 88.7458 678.039 88.7682 677.864 88.7405ZM677.942 90.9494C678.186 90.5812 679.368 90.3143 680.585 90.3658C681.802 90.4174 682.588 90.7635 682.343 91.1353C682.098 91.5071 680.916 91.7703 679.701 91.7188C678.486 91.6673 677.699 91.323 677.942 90.9494Z" fill="#FFE83B"/>
<path d="M594.083 95.2403C594.189 109.996 595.773 124.704 598.811 139.144C600.115 145.344 601.757 151.661 605.219 156.815C606.3 158.426 607.577 159.93 609.16 160.9C612.151 162.73 615.745 162.415 619.071 161.927C621.477 161.574 624.059 161.055 625.683 159.102C626.758 157.813 627.258 156.061 627.662 154.349C628.827 149.388 629.428 144.312 629.453 139.216L625.088 138.793C630.025 137.788 635.021 137.099 640.046 136.729C641.703 136.606 643.476 136.545 644.959 137.307L639.847 137.552C641.433 142.381 643.545 147.02 646.145 151.387C647.043 152.891 648.041 154.402 649.427 155.299C651.52 156.655 654.054 156.355 656.376 155.952C659.582 155.4 662.984 154.586 665.169 151.928C666.329 150.518 667.039 148.696 667.538 146.833C669.134 140.865 668.705 134.364 667.998 128.057C666.352 113.397 663.287 98.9305 658.846 84.8621L621.385 71.6786L594.083 95.2403Z" fill="#FFD087"/>
<path d="M614.824 163.994C612.6 163.994 610.344 163.606 608.275 162.338C606.69 161.368 605.23 159.867 603.809 157.752C600.203 152.377 598.471 145.798 597.149 139.49C594.089 124.939 592.493 110.117 592.385 95.2476C592.384 95.0015 592.435 94.758 592.537 94.5339C592.639 94.3098 592.788 94.1105 592.974 93.9498L620.275 70.3882C620.501 70.1927 620.775 70.0604 621.069 70.0048C621.362 69.9492 621.666 69.9722 621.948 70.0716L659.409 83.2587C659.658 83.3456 659.882 83.4894 660.066 83.6786C660.249 83.8678 660.385 84.0972 660.464 84.3485C664.938 98.5219 668.026 113.096 669.686 127.866C670.404 134.268 670.84 141.047 669.178 147.26C668.525 149.706 667.641 151.582 666.481 152.994C663.904 156.123 660.064 157.022 656.666 157.612C654.089 158.063 651.109 158.402 648.503 156.712C646.772 155.591 645.625 153.82 644.687 152.247C642.11 147.919 640.001 143.329 638.395 138.555C635.976 138.77 633.556 139.063 631.15 139.429C631.107 144.581 630.49 149.712 629.309 154.726C628.887 156.519 628.324 158.564 626.982 160.177C624.978 162.588 621.972 163.206 619.312 163.597C617.828 163.837 616.328 163.97 614.824 163.994V163.994ZM595.789 96.0115C595.943 110.391 597.512 124.721 600.472 138.794C601.926 145.697 603.527 151.242 606.629 155.864C607.77 157.565 608.89 158.737 610.047 159.446C612.58 160.996 615.772 160.688 618.824 160.241C620.956 159.928 623.139 159.505 624.378 158.01C625.248 156.966 625.675 155.369 626.01 153.96C627.028 149.628 627.603 145.205 627.728 140.757L624.924 140.484C624.518 140.448 624.139 140.266 623.856 139.973C623.572 139.679 623.404 139.294 623.382 138.887C623.36 138.48 623.485 138.078 623.734 137.756C623.983 137.433 624.341 137.211 624.74 137.13C629.748 136.112 634.815 135.413 639.912 135.037C641.839 134.896 643.873 134.839 645.732 135.801C646.064 135.973 646.33 136.249 646.489 136.587C646.648 136.926 646.691 137.307 646.611 137.672C646.531 138.037 646.333 138.365 646.047 138.606C645.761 138.847 645.404 138.987 645.031 139.004L642.185 139.14C643.629 143.093 645.44 146.903 647.593 150.518C648.33 151.762 649.222 153.152 650.34 153.876C651.917 154.897 654.038 154.636 656.074 154.281C659 153.771 662.012 153.086 663.849 150.851C664.694 149.822 665.362 148.364 665.889 146.395C667.321 141.044 667.089 135.273 666.303 128.258C664.697 113.988 661.739 99.9028 657.467 86.1929L621.749 73.6132L595.789 96.0115Z" fill="#7B413B"/>
<path d="M594.128 93.1897C588.284 88.9357 575.321 76.0707 567.362 82.1065C564.921 83.9583 563.796 87.2606 564.244 90.2887C565.216 96.8712 571.561 103.822 576.945 107.209C583.756 111.502 591.789 113.375 599.435 115.592" fill="#96E2CE"/>
<path d="M599.433 117.412C599.261 117.412 599.09 117.387 598.925 117.339C597.856 117.029 596.777 116.726 595.697 116.418C588.989 114.528 582.051 112.575 575.971 108.746C570.031 105.004 563.478 97.5524 562.443 90.5502C561.88 86.7269 563.378 82.8411 566.261 80.6542C574.066 74.7307 584.814 83.4043 591.925 89.1438C593.193 90.1691 594.29 91.0527 595.2 91.7209C595.59 92.0048 595.852 92.4322 595.927 92.9091C596.003 93.386 595.886 93.8733 595.602 94.2639C595.318 94.6544 594.891 94.9162 594.414 94.9917C593.937 95.0671 593.449 94.95 593.059 94.6661C592.076 93.95 590.947 93.0407 589.641 91.9841C583.791 87.2626 573.994 79.3602 568.461 83.5608C566.648 84.9377 565.676 87.5368 566.044 90.0274C566.907 95.881 572.801 102.458 577.909 105.674C583.544 109.223 590.224 111.104 596.685 112.923C597.775 113.23 598.861 113.536 599.94 113.843C600.359 113.966 600.72 114.236 600.957 114.604C601.194 114.971 601.291 115.412 601.23 115.845C601.169 116.278 600.953 116.674 600.624 116.962C600.294 117.249 599.873 117.409 599.435 117.41L599.433 117.412Z" fill="#7B413B"/>
<path d="M674.146 36.4152C674.186 28.1042 671.896 14.0685 663.12 11.4656C653.428 8.58854 642.023 16.235 638.338 21.3358C627.166 19.1288 615.666 19.1814 604.516 21.4904C600.786 16.4228 592.024 9.56966 584.661 11.8945C573.538 15.4067 576.172 30.9077 576.288 39.2169C569.959 46.7382 567.732 56.6783 570.294 66.2502C575.345 85.1456 593.348 92.1331 611.021 94.8961C629.966 97.8597 657.498 96.0005 672.217 81.9961C684.623 70.2005 685.19 49.3005 674.146 36.4152Z" fill="white"/>
<path d="M626.925 97.9351C621.506 97.9407 616.095 97.529 610.739 96.7037C600.111 95.047 591.686 92.2546 584.98 88.1865C576.499 83.0324 570.966 75.8203 568.534 66.7269C565.873 56.7685 568.03 46.5504 574.454 38.5799C574.427 37.6099 574.373 36.5422 574.316 35.4249C573.878 26.7328 573.212 13.6009 584.113 10.1587C592.1 7.63867 600.958 14.2083 605.261 19.4821C615.936 17.4202 626.903 17.3709 637.596 19.3367C641.981 14.1549 653.268 6.63546 663.639 9.71872C672.631 12.3878 675.884 25.251 675.972 35.7525C687.313 49.5582 686.232 71.1871 673.474 83.3232C666.555 89.9058 656.191 94.5003 643.507 96.6116C638.025 97.5041 632.479 97.9468 626.925 97.9351V97.9351ZM587.75 13.2603C586.889 13.2554 586.032 13.3833 585.21 13.6395C576.993 16.2332 577.525 26.777 577.954 35.2482C578.024 36.66 578.092 37.9946 578.108 39.1984V39.8758L577.69 40.3876C571.702 47.5095 569.65 56.7703 572.061 65.79C576.034 80.6615 588.867 89.5965 611.301 93.105C631.223 96.2195 657.395 93.5873 670.961 80.6854C682.523 69.6869 683.35 49.9558 672.765 37.6007L672.325 37.0852V36.406C672.337 34.0811 672.154 28.0619 670.216 22.3886C668.473 17.2861 665.91 14.1918 662.604 13.2106C657.717 11.7601 652.664 13.4094 649.27 15.0514C644.567 17.3284 641.237 20.4356 639.814 22.4144L639.127 23.3606L637.979 23.1286C627.05 20.9695 615.8 21.0208 604.891 23.2796L603.744 23.5207L603.05 22.5782C600.002 18.4292 593.493 13.253 587.75 13.253V13.2603Z" fill="#7B413B"/>
<path d="M608.155 61.2029C608.155 61.2029 612.105 61.041 612.805 57.3245C612.805 57.3245 613.909 60.728 617.497 61.5048C617.497 61.5048 618.969 68.8145 613.272 68.5163C607.575 68.2181 608.155 61.2029 608.155 61.2029Z" fill="#EF8FA0"/>
<path d="M608.23 62.1674C607.831 64.1683 608.613 66.3864 610.148 67.5976C610.908 68.1911 611.83 68.5412 612.792 68.6019C613.755 68.6627 614.713 68.4313 615.542 67.9381C616.143 67.583 616.64 67.0749 616.981 66.4655C617.635 65.2433 617.499 63.732 617.34 62.333" fill="#EF8FA0"/>
<path d="M607.435 61.9981C606.778 65.6208 609.19 69.1771 612.643 69.4569C613.484 69.5341 614.332 69.4118 615.117 69.0999C615.902 68.7881 616.603 68.2955 617.162 67.6622C618.432 66.1803 618.357 64.1334 618.15 62.2669C618.027 61.1624 616.409 61.2784 616.532 62.3957C616.681 63.7395 616.9 65.341 615.993 66.4454C615.214 67.4044 613.939 67.8223 612.779 67.7339C610.27 67.5296 608.545 64.9636 609.026 62.3387C609.226 61.2342 607.634 60.8992 607.435 62V61.9981Z" fill="#7D3D41"/>
<path d="M612.792 63.1208C612.595 61.9016 612.595 60.6586 612.792 59.4393Z" fill="#7D3D41"/>
<path d="M613.349 62.8391C613.3 62.5336 613.261 62.2243 613.235 61.9095L613.257 62.182C613.214 61.5962 613.214 61.008 613.257 60.4222L613.237 60.6965C613.263 60.3578 613.301 60.0283 613.353 59.7006C613.436 59.1852 613.246 58.5612 612.942 58.4397C612.639 58.3182 612.322 58.6091 612.234 59.1594C612.011 60.5619 612.011 61.9908 612.234 63.3932C612.318 63.9086 612.652 64.2786 612.95 64.1074C613.248 63.9362 613.439 63.395 613.349 62.8428V62.8391Z" fill="#7D3D41"/>
<path d="M607.161 62.2832C604.832 62.2832 602.165 61.2782 601.484 58.5667C601.457 58.4598 601.452 58.3486 601.468 58.2396C601.484 58.1305 601.522 58.0257 601.579 57.9312C601.635 57.8367 601.71 57.7543 601.799 57.6886C601.888 57.623 601.988 57.5755 602.095 57.5488C602.202 57.5221 602.313 57.5167 602.422 57.533C602.531 57.5492 602.636 57.5868 602.731 57.6435C602.825 57.7003 602.908 57.7751 602.973 57.8637C603.039 57.9523 603.086 58.053 603.113 58.1599C603.684 60.4406 606.553 60.8861 608.409 60.4738C610.338 60.0467 611.697 58.3643 611.789 56.2879C611.801 56.0675 611.9 55.8611 612.064 55.7133C612.228 55.5654 612.444 55.4881 612.664 55.498C612.885 55.508 613.092 55.6043 613.242 55.7663C613.392 55.9282 613.473 56.1428 613.465 56.3634C613.34 59.1632 611.411 61.5175 608.772 62.1139C608.242 62.2279 607.702 62.2846 607.161 62.2832V62.2832Z" fill="#7D3D42"/>
<path d="M618.071 62.2338C617.554 62.2353 617.039 62.1828 616.532 62.0773C613.889 61.5159 611.93 59.1689 611.789 56.371C611.778 56.2585 611.791 56.1451 611.825 56.0375C611.86 55.9299 611.915 55.8304 611.989 55.7449C612.063 55.6594 612.153 55.5897 612.255 55.5399C612.356 55.4902 612.467 55.4614 612.579 55.4553C612.692 55.4492 612.805 55.466 612.911 55.5046C613.017 55.5432 613.115 55.6028 613.197 55.6799C613.28 55.7569 613.346 55.8499 613.392 55.9531C613.438 56.0564 613.462 56.1678 613.464 56.2808C613.574 58.3553 614.947 60.0249 616.882 60.4354C618.741 60.8311 621.605 60.3581 622.156 58.0718C622.208 57.8553 622.344 57.6684 622.534 57.5523C622.724 57.4361 622.953 57.4002 623.169 57.4524C623.386 57.5047 623.573 57.6408 623.689 57.8308C623.805 58.0209 623.841 58.2492 623.789 58.4658C623.126 61.2122 620.418 62.2338 618.071 62.2338Z" fill="#7D3D42"/>
<path d="M646.413 46.3904C644.928 46.5479 643.503 47.0571 642.255 47.8759C641.15 48.6232 639.613 49.9173 639.403 51.3144C639.153 52.995 641.428 53.8013 642.647 54.324C644.233 55.011 645.905 55.4798 647.617 55.7175C648.263 55.8058 648.905 55.5537 649.089 54.8671C649.242 54.302 648.889 53.4755 648.239 53.3945C646.977 53.2266 645.735 52.9274 644.535 52.5017C643.976 52.3029 643.429 52.0693 642.899 51.8022C642.45 51.5776 641.826 51.3494 641.496 50.9628L641.809 51.4948C641.748 51.7783 641.782 51.7912 641.905 51.5353C641.968 51.4396 642.034 51.3512 642.102 51.2537C642.238 51.0822 642.383 50.9181 642.536 50.7622C642.873 50.4125 643.25 50.1036 643.659 49.8418C644.493 49.3 645.435 48.9487 646.42 48.8128C647.066 48.7318 647.624 48.3103 647.622 47.6016C647.622 47.0107 647.07 46.3131 646.409 46.3996L646.413 46.3904Z" fill="#7D3D41"/>
<path d="M665.399 54.9885C665.182 54.9877 664.973 54.9061 664.814 54.7596C664.654 54.6131 664.554 54.4123 664.535 54.1964C664.515 53.9804 664.577 53.765 664.708 53.5921C664.839 53.4193 665.029 53.3015 665.243 53.2618L671.339 52.1445C671.453 52.1201 671.571 52.1187 671.685 52.1406C671.799 52.1625 671.908 52.2071 672.005 52.2718C672.102 52.3365 672.185 52.4199 672.249 52.5173C672.313 52.6146 672.357 52.7238 672.378 52.8383C672.399 52.9529 672.397 53.0706 672.372 53.1843C672.346 53.298 672.299 53.4055 672.231 53.5005C672.164 53.5954 672.078 53.6758 671.979 53.737C671.879 53.7981 671.769 53.8387 671.654 53.8564L665.555 54.9737C665.504 54.9832 665.451 54.9881 665.399 54.9885V54.9885Z" fill="#7D3D42"/>
<path d="M671.328 61.3023C671.238 61.3026 671.149 61.2883 671.064 61.26L665.156 59.3843C664.948 59.3046 664.779 59.1489 664.683 58.9488C664.587 58.7487 664.571 58.5194 664.638 58.3078C664.705 58.0962 664.851 57.9183 665.045 57.8104C665.239 57.7026 665.467 57.6729 665.682 57.7276L671.591 59.6051C671.789 59.6678 671.959 59.7994 672.068 59.9761C672.178 60.1528 672.221 60.363 672.189 60.5685C672.157 60.774 672.053 60.9614 671.895 61.0966C671.737 61.2319 671.536 61.3062 671.328 61.306V61.3023Z" fill="#7D3D42"/>
<path d="M577.267 55.3896C577.217 55.3899 577.167 55.3856 577.118 55.3767L571.01 54.3146C570.898 54.2951 570.79 54.2535 570.694 54.1923C570.597 54.1312 570.514 54.0516 570.448 53.9582C570.382 53.8648 570.336 53.7594 570.311 53.6479C570.286 53.5365 570.283 53.4212 570.302 53.3087C570.322 53.1961 570.364 53.0886 570.425 52.9921C570.486 52.8956 570.565 52.8122 570.659 52.7464C570.752 52.6807 570.858 52.634 570.969 52.6091C571.081 52.5841 571.196 52.5813 571.308 52.6009L577.416 53.6612C577.631 53.6985 577.824 53.815 577.957 53.9877C578.09 54.1604 578.153 54.3767 578.134 54.5938C578.116 54.8109 578.016 55.0131 577.855 55.1605C577.695 55.3078 577.485 55.3896 577.267 55.3896V55.3896Z" fill="#7D3D42"/>
<path d="M571.397 61.7587C571.189 61.7597 570.988 61.6864 570.829 61.552C570.671 61.4176 570.566 61.231 570.533 61.0258C570.5 60.8207 570.542 60.6106 570.65 60.4334C570.759 60.2562 570.927 60.1236 571.124 60.0596L577.015 58.1287C577.124 58.093 577.238 58.0792 577.353 58.0878C577.467 58.0965 577.578 58.1276 577.68 58.1793C577.782 58.231 577.873 58.3023 577.948 58.3892C578.022 58.476 578.079 58.5767 578.115 58.6855C578.15 58.7943 578.164 58.909 578.156 59.0232C578.147 59.1373 578.116 59.2486 578.064 59.3508C578.012 59.4529 577.941 59.5438 577.854 59.6184C577.767 59.693 577.667 59.7497 577.558 59.7854L571.668 61.7163C571.58 61.7445 571.489 61.7588 571.397 61.7587V61.7587Z" fill="#7D3D42"/>
<path d="M661.126 90.6769C663.722 86.5499 666.478 82.6125 669.329 78.6586C673.318 73.1253 682.476 65.9077 688.055 73.7714C693.378 81.2761 688.099 91.3911 683.221 97.6386C677.563 104.886 670.363 111.076 662.897 116.398" fill="#96E2CE"/>
<path d="M662.899 118.218C662.513 118.219 662.137 118.097 661.825 117.87C661.513 117.643 661.281 117.323 661.163 116.955C661.045 116.588 661.047 116.192 661.169 115.826C661.291 115.46 661.526 115.142 661.84 114.918C670.308 108.877 676.837 102.857 681.787 96.5196C691.328 84.3006 688.312 77.2763 686.573 74.8244C685.284 73.015 683.79 72.1314 681.988 72.1259H681.965C678.236 72.1259 673.531 75.9436 670.805 79.7227C668.333 83.152 665.432 87.2495 662.669 91.6452C662.412 92.0536 662.003 92.3433 661.533 92.4505C661.063 92.5576 660.569 92.4736 660.161 92.2168C659.752 91.96 659.463 91.5515 659.356 91.0812C659.248 90.6108 659.332 90.1172 659.589 89.7088C662.406 85.2265 665.349 81.0701 667.854 77.5948C671.127 73.0573 676.756 68.4867 681.965 68.4867H682C684.977 68.4977 687.585 69.9593 689.547 72.7204C692.274 76.5621 692.835 81.2634 691.217 86.6973C689.757 91.6011 686.849 95.9637 684.664 98.7598C679.497 105.386 672.725 111.634 663.963 117.882C663.652 118.103 663.28 118.221 662.899 118.218V118.218Z" fill="#7B413B"/>
<path d="M654.385 62.7049C657.267 62.6918 659.598 61.4417 659.591 59.9128C659.584 58.3838 657.242 57.1549 654.36 57.168C651.478 57.181 649.147 58.4311 649.154 59.9601C649.161 61.4891 651.503 62.718 654.385 62.7049Z" fill="#F397B7"/>
<path d="M583.568 63.0283C586.45 63.0152 588.781 61.7651 588.774 60.2361C588.767 58.7071 586.425 57.4783 583.543 57.4913C580.661 57.5044 578.33 58.7545 578.337 60.2835C578.344 61.8125 580.686 63.0413 583.568 63.0283Z" fill="#F397B7"/>
<path d="M592.214 56.4279C595.041 56.4279 597.333 54.1359 597.333 51.3087C597.333 48.4815 595.041 46.1896 592.214 46.1896C589.387 46.1896 587.095 48.4815 587.095 51.3087C587.095 54.1359 589.387 56.4279 592.214 56.4279Z" fill="#7D3D42"/>
<path d="M638.284 116.537L623.539 118.573C620.516 118.99 618.404 121.779 618.821 124.801C619.238 127.824 622.027 129.936 625.051 129.519L639.795 127.483C642.818 127.066 644.931 124.277 644.514 121.255C644.096 118.232 641.307 116.12 638.284 116.537Z" fill="white"/>
<path d="M665.863 98.5203C665.27 101.466 664.123 104.354 661.91 106.29C658.579 109.195 655.582 107.612 651.738 107.947C648.725 108.201 646.987 110.68 645.187 112.981C642.091 116.937 636.773 118.32 632.939 114.973C630.395 112.753 628.619 110.555 625.881 110.892C623.157 110.579 621.384 112.792 618.861 115.03C615.058 118.413 609.719 117.083 606.59 113.152C604.77 110.868 603.01 108.405 599.993 108.182C596.148 107.888 593.166 109.499 589.808 106.623C587.577 104.705 586.404 101.837 585.793 98.8922C585.092 95.5788 585.779 91.5604 586.992 87.5568C594.012 91.4334 602.283 93.6313 610.487 94.9198C626.699 97.4508 649.209 96.455 664.583 87.3212C665.818 91.2585 666.523 95.2346 665.863 98.5203Z" fill="white"/>
<path d="M664.355 98.1044C664.166 99.0603 663.909 100.002 663.585 100.921C663.512 101.129 663.434 101.335 663.35 101.539C663.249 101.793 663.427 101.374 663.315 101.622C663.271 101.723 663.225 101.823 663.179 101.922C662.969 102.364 662.736 102.794 662.479 103.211C662.032 103.955 661.466 104.622 660.804 105.184C660.511 105.441 660.191 105.665 659.849 105.852C659.67 105.956 659.485 106.051 659.296 106.136C659.525 106.036 659.296 106.136 659.252 106.148C659.114 106.195 658.976 106.244 658.836 106.285C658.652 106.338 658.468 106.382 658.284 106.421C658.192 106.439 658.1 106.454 658.006 106.471C658.306 106.419 658.069 106.471 658.006 106.471C657.586 106.509 657.165 106.526 656.743 106.52C655.889 106.506 655.041 106.423 654.188 106.375C652.243 106.263 650.299 106.356 648.568 107.352C647.017 108.245 645.842 109.631 644.754 111.021C644.237 111.728 643.67 112.397 643.057 113.024C642.893 113.182 642.724 113.335 642.551 113.482C642.474 113.547 642.396 113.611 642.317 113.666C642.12 113.826 642.483 113.548 642.279 113.696C641.921 113.955 641.548 114.193 641.161 114.408C640.977 114.513 640.773 114.605 640.578 114.701C640.532 114.725 640.303 114.818 640.556 114.715C640.469 114.752 640.372 114.785 640.291 114.818C639.893 114.966 639.485 115.084 639.07 115.172C638.971 115.192 638.47 115.268 638.798 115.229C638.614 115.251 638.43 115.268 638.246 115.277C637.83 115.297 637.414 115.283 637.001 115.234C637.327 115.273 636.841 115.201 636.731 115.177C636.547 115.137 636.362 115.091 636.188 115.038C636.013 114.984 635.819 114.92 635.652 114.853C635.227 114.697 635.808 114.933 635.562 114.813C635.453 114.76 635.343 114.708 635.236 114.651C635.062 114.558 634.89 114.458 634.722 114.353C634.638 114.299 634.555 114.242 634.472 114.185C634.503 114.207 634.104 113.911 634.258 114.034C634.025 113.85 633.513 113.379 633.183 113.079C631.667 111.697 630.12 110.134 628.101 109.528C627.19 109.254 626.205 109.269 625.265 109.293C624.247 109.331 623.252 109.61 622.363 110.108C620.534 111.104 619.164 112.753 617.589 114.077C617.563 114.097 617.309 114.296 617.441 114.196C617.574 114.097 617.318 114.281 617.29 114.299C617.106 114.426 616.922 114.546 616.722 114.656C616.521 114.767 616.377 114.841 616.202 114.925C616.156 114.949 615.926 115.039 616.18 114.938C616.048 114.991 615.915 115.039 615.781 115.084C615.426 115.199 615.063 115.288 614.695 115.352C614.625 115.365 614.395 115.371 614.695 115.352C614.603 115.352 614.511 115.371 614.419 115.376C614.189 115.393 613.959 115.399 613.728 115.393C613.544 115.393 613.36 115.374 613.176 115.361C612.871 115.338 613.114 115.361 613.176 115.361L612.902 115.315C612.486 115.239 612.076 115.132 611.676 114.995C611.617 114.975 611.102 114.776 611.383 114.896C611.199 114.82 611.032 114.737 610.861 114.649C610.467 114.451 610.088 114.226 609.725 113.975L609.482 113.802C609.093 113.528 609.602 113.905 609.382 113.727C609.226 113.6 609.073 113.467 608.922 113.333C608.581 113.021 608.259 112.688 607.958 112.337C607.391 111.673 606.874 110.966 606.31 110.298C605.101 108.867 603.689 107.612 601.902 106.973C600.151 106.349 598.193 106.57 596.379 106.71C595.576 106.789 594.767 106.809 593.961 106.769L593.611 106.738C593.675 106.738 593.913 106.791 593.611 106.738C593.427 106.703 593.243 106.666 593.059 106.62C592.875 106.574 592.69 106.507 592.506 106.449C592.227 106.36 592.394 106.412 592.46 106.449C592.319 106.388 592.179 106.318 592.041 106.246C590.437 105.405 589.449 104.1 588.641 102.493C588.246 101.698 587.931 100.867 587.702 100.01C587.579 99.5543 587.465 99.0947 587.36 98.6308C587.312 98.4136 587.271 98.1946 587.231 97.9755C587.231 97.9516 587.183 97.6737 587.212 97.8872C587.192 97.7454 587.179 97.6037 587.166 97.462C586.964 95.3304 587.212 93.3276 587.649 91.2991C587.87 90.1799 588.168 89.0755 588.499 87.971L586.207 88.8914C591.454 91.774 597.184 93.7068 603.004 95.0487C608.16 96.2318 613.4 97.0134 618.676 97.3865C628.952 98.1228 639.477 97.5006 649.491 94.9935C655.024 93.6019 660.454 91.5715 665.375 88.6595L663.081 87.728C663.647 89.5048 664.078 91.3219 664.37 93.1638C664.491 94.0231 664.552 94.8897 664.554 95.7574C664.554 96.1716 664.541 96.5858 664.508 96.9981C664.508 97.0607 664.443 97.635 664.469 97.438C664.439 97.6626 664.397 97.8835 664.355 98.1044C664.2 98.9033 664.579 99.8273 665.445 100.026C666.218 100.201 667.199 99.7924 667.366 98.9346C668.147 94.907 667.287 90.7561 666.092 86.8979C666.026 86.6692 665.908 86.4586 665.749 86.2817C665.589 86.1049 665.392 85.9664 665.171 85.8766C664.951 85.7868 664.713 85.7481 664.475 85.7634C664.237 85.7786 664.006 85.8474 663.799 85.9646C662.739 86.5917 661.656 87.1783 660.55 87.7244C660.038 87.9784 659.522 88.2238 659 88.4607C658.371 88.746 657.958 88.9227 657.498 89.1105C655.177 90.0554 652.803 90.8624 650.387 91.5274C647.948 92.2048 645.472 92.7515 642.98 93.1841C642.358 93.2933 641.735 93.3951 641.112 93.4896C640.841 93.532 640.569 93.5725 640.298 93.6111L639.808 93.6792L639.733 93.6903L639.407 93.7326C638.155 93.8946 636.901 94.0314 635.643 94.1431C630.616 94.5847 625.563 94.6659 620.525 94.3861C618.213 94.2633 615.907 94.0609 613.609 93.7786L612.746 93.6682C612.693 93.6643 612.641 93.6575 612.589 93.6479L612.306 93.6093C611.65 93.5172 610.997 93.4178 610.345 93.3111C608.912 93.0791 607.483 92.8177 606.06 92.5269C599.682 91.2181 593.442 89.3093 587.783 86.1984C587.576 86.0815 587.345 86.013 587.107 85.998C586.869 85.9829 586.631 86.0217 586.411 86.1114C586.19 86.2011 585.993 86.3395 585.834 86.5161C585.674 86.6928 585.556 86.9032 585.489 87.1316C584.171 91.5145 583.38 96.1035 584.602 100.597C585.662 104.501 588.171 108.738 592.42 109.685C594.205 110.084 595.984 109.843 597.784 109.736C598.224 109.71 598.666 109.694 599.106 109.699C599.349 109.699 599.591 109.709 599.842 109.725C599.949 109.725 600.057 109.74 600.164 109.749C599.869 109.72 600.337 109.786 600.348 109.79C600.542 109.832 600.734 109.884 600.922 109.946C601.014 109.975 601.106 110.009 601.197 110.044C600.95 109.95 601.176 110.044 601.224 110.058C601.408 110.158 601.609 110.255 601.793 110.368C601.896 110.43 601.997 110.496 602.097 110.563C602.124 110.583 602.432 110.804 602.29 110.697C602.148 110.59 602.493 110.866 602.474 110.85L602.695 111.043C602.842 111.176 602.984 111.314 603.124 111.454C603.463 111.792 603.781 112.149 604.09 112.516C604.672 113.202 605.195 113.935 605.791 114.614C607.084 116.097 608.726 117.236 610.568 117.927C612.279 118.568 614.14 118.696 615.923 118.296C618.014 117.824 619.573 116.523 621.103 115.098C621.471 114.75 621.85 114.401 622.233 114.06C622.404 113.909 622.575 113.76 622.752 113.616C622.789 113.585 623.061 113.366 622.886 113.5C622.991 113.419 623.1 113.342 623.21 113.267C623.56 113.013 623.935 112.796 624.329 112.619C624.088 112.722 624.32 112.619 624.366 112.619C624.484 112.586 624.598 112.543 624.716 112.514C624.834 112.484 624.9 112.468 625.001 112.449C625.103 112.431 625.099 112.431 624.953 112.449C625.029 112.449 625.103 112.437 625.178 112.435C625.616 112.414 626.069 112.418 626.507 112.425C626.608 112.425 626.708 112.435 626.809 112.442C626.538 112.424 626.774 112.442 626.833 112.442C627.071 112.493 627.307 112.558 627.538 112.637C627.829 112.737 627.634 112.68 627.573 112.652C627.685 112.705 627.797 112.76 627.906 112.821C628.11 112.932 628.305 113.053 628.499 113.189C628.585 113.248 628.672 113.311 628.758 113.373C628.775 113.386 628.99 113.545 628.832 113.423C629.055 113.594 629.268 113.778 629.482 113.963C631.124 115.382 632.567 116.957 634.612 117.799C636.337 118.473 638.227 118.601 640.027 118.167C641.868 117.747 643.575 116.759 644.975 115.498C646.33 114.279 647.267 112.685 648.526 111.374C648.832 111.053 649.156 110.751 649.498 110.469C649.277 110.653 649.717 110.316 649.765 110.285C649.965 110.151 650.172 110.028 650.385 109.917C650.472 109.872 650.558 109.832 650.647 109.791C650.406 109.902 650.626 109.791 650.676 109.791C650.888 109.72 651.096 109.65 651.315 109.598C651.412 109.574 651.512 109.556 651.611 109.535C651.893 109.482 651.243 109.554 651.736 109.521C652.007 109.502 652.278 109.482 652.548 109.477C654.273 109.434 655.992 109.758 657.715 109.635C659.846 109.492 661.854 108.584 663.37 107.08C664.879 105.607 665.896 103.732 666.597 101.767C666.919 100.848 667.176 99.9067 667.366 98.9511C667.528 98.1541 667.134 97.2264 666.275 97.0312C665.494 96.838 664.53 97.2503 664.355 98.1044Z" fill="#7B413B"/>
<path d="M587.314 180.975C567.566 180.977 549.083 168.328 542.543 148.451C540.588 142.574 539.812 136.369 540.261 130.192C540.709 124.014 542.373 117.986 545.157 112.453C547.91 106.933 551.73 102.013 556.397 97.9777C561.063 93.9424 566.483 90.872 572.343 88.9436C578.202 87.0153 584.386 86.2674 590.537 86.7432C596.688 87.2189 602.683 88.9088 608.177 91.7153C613.702 94.5147 618.62 98.3774 622.649 103.082C626.678 107.786 629.739 113.24 631.656 119.13C633.611 125.007 634.388 131.212 633.94 137.39C633.492 143.567 631.83 149.596 629.047 155.129C625.176 162.886 619.222 169.413 611.852 173.977C604.482 178.542 595.987 180.965 587.317 180.975H587.314ZM586.964 90.3071C580.12 90.3352 573.379 91.9858 567.297 95.1235C561.214 98.2613 555.962 102.797 551.971 108.358C547.981 113.919 545.366 120.346 544.342 127.114C543.317 133.881 543.912 140.795 546.077 147.288C553.576 170.069 578.075 182.544 600.7 175.102C606.098 173.337 611.09 170.514 615.385 166.799C619.68 163.083 623.192 158.549 625.715 153.462C628.281 148.364 629.814 142.81 630.228 137.118C630.642 131.426 629.928 125.708 628.127 120.293V120.293C625.287 111.605 619.782 104.032 612.395 98.6494C605.007 93.2667 596.112 90.3479 586.971 90.3071H586.964Z" fill="#7B413B"/>
<path d="M599.76 174.354C622.695 166.818 635.192 142.157 627.672 119.272C620.152 96.3865 595.463 83.9439 572.528 91.4802C549.593 99.0165 537.096 123.678 544.616 146.563C552.136 169.448 576.824 181.891 599.76 174.354Z" fill="#FFFDEE"/>
<path d="M629.9 120.957C637.396 143.746 625.131 168.239 602.502 175.685C579.874 183.131 555.456 170.698 547.961 147.919C540.465 125.14 552.73 100.635 575.358 93.1896C597.987 85.7438 622.404 98.1762 629.9 120.957Z" fill="#E68725"/>
<path d="M628.105 119.849C635.451 142.172 623.063 166.306 600.435 173.75C577.806 181.194 553.51 169.134 546.165 146.811C538.821 124.488 551.207 100.354 573.836 92.9099C596.464 85.4659 620.764 97.5265 628.105 119.849Z" fill="url(#paint15_linear)"/>
<g style="mix-blend-mode:overlay" opacity="0.3">
<path d="M546.18 147.026C539.195 123.435 552.034 100.058 573.852 92.9227C596.039 85.6683 620.593 97.4565 628.243 120.024L546.18 147.026Z" fill="white"/>
</g>
<path d="M619.268 122.64C625.026 140.127 615.316 159.05 597.582 164.883C579.848 170.717 560.805 161.266 555.049 143.77C549.293 126.274 559.003 107.362 576.737 101.526C594.471 95.6913 613.512 105.144 619.268 122.64Z" fill="#D77D28"/>
<path d="M620.256 124.203C625.881 141.3 616.263 159.825 598.773 165.579C581.282 171.333 562.541 162.141 556.916 145.044C551.29 127.947 560.91 109.423 578.401 103.667C595.892 97.9112 614.632 107.115 620.256 124.203Z" fill="#FAF3CD"/>
<path d="M618.739 123.104C624.219 139.759 614.699 157.853 597.476 163.521C580.254 169.189 561.86 160.281 556.374 143.626C550.889 126.971 560.413 108.875 577.637 103.209C594.861 97.5429 613.265 106.448 618.739 123.104Z" fill="#FBB325"/>
<path opacity="0.2" d="M556.706 143.991C556.705 144.001 556.705 144.012 556.706 144.022C562.118 160.475 580.406 169.24 597.55 163.597C614.695 157.953 624.216 140.046 618.802 123.593L618.791 123.562L556.706 143.991Z" fill="#F6932B"/>
<path d="M611.721 126.504C611.759 122.323 610.408 113.629 606.219 112.3C601.589 110.828 597.825 115.098 596.052 117.655C590.72 116.519 585.209 116.519 579.877 117.655C578.105 115.098 574.34 110.831 569.711 112.3C565.521 113.629 564.17 122.323 564.209 126.504C561.983 129.265 560.711 132.442 560.711 135.833C560.711 146.343 572.912 154.862 587.964 154.862C603.016 154.862 615.207 146.343 615.207 135.833C615.216 132.442 613.953 129.259 611.721 126.504ZM574.353 135.534C573.694 135.509 573.071 135.23 572.613 134.755C572.156 134.28 571.901 133.646 571.901 132.987C571.901 132.327 572.156 131.694 572.613 131.219C573.071 130.744 573.694 130.464 574.353 130.439C575.703 130.439 576.798 131.581 576.798 132.987C576.798 134.393 575.712 135.534 574.362 135.534H574.353ZM587.447 136.015C587.468 135.965 587.494 135.917 587.524 135.871L587.542 135.853C587.58 135.818 587.622 135.786 587.666 135.759C587.711 135.737 587.759 135.724 587.809 135.72H587.828C587.862 135.723 587.896 135.729 587.929 135.737C587.953 135.741 587.977 135.747 588.001 135.755C588.025 135.767 588.047 135.781 588.069 135.798C588.092 135.813 588.115 135.83 588.135 135.849C588.167 135.892 588.196 135.938 588.222 135.985C588.23 136.01 588.236 136.035 588.24 136.061C587.975 136.076 587.708 136.061 587.447 136.015ZM601.315 135.542C599.966 135.542 598.87 134.402 598.87 132.994C598.87 131.586 599.966 130.447 601.315 130.447C601.974 130.472 602.597 130.751 603.055 131.226C603.512 131.701 603.767 132.335 603.767 132.994C603.767 133.654 603.512 134.287 603.055 134.762C602.597 135.237 601.974 135.517 601.315 135.542V135.542Z" fill="#DB7E27"/>
<path d="M610.456 126.504C610.495 122.323 609.143 113.629 604.952 112.3C600.324 110.828 596.558 115.098 594.786 117.655C589.454 116.519 583.944 116.519 578.613 117.655C576.84 115.098 573.076 110.831 568.446 112.3C564.255 113.629 562.905 122.323 562.942 126.504C560.717 129.265 559.445 132.442 559.445 135.833C559.445 146.343 571.645 154.862 586.688 154.862C601.731 154.862 613.953 146.343 613.953 135.831C613.953 132.442 612.678 129.259 610.456 126.504ZM573.089 135.534C572.761 135.528 572.437 135.457 572.137 135.325C571.837 135.193 571.565 135.004 571.338 134.767C571.111 134.53 570.933 134.252 570.814 133.946C570.695 133.641 570.637 133.315 570.644 132.987C570.644 131.581 571.737 130.439 573.089 130.439C573.747 130.464 574.371 130.744 574.828 131.219C575.286 131.694 575.541 132.327 575.541 132.987C575.541 133.646 575.286 134.28 574.828 134.755C574.371 135.23 573.747 135.509 573.089 135.534V135.534ZM592.282 137.246C591.914 138.66 590.541 139.115 589.388 139.115C589.113 139.116 588.839 139.089 588.569 139.034C588.151 138.945 587.756 138.769 587.411 138.517C587.066 138.265 586.777 137.943 586.565 137.572C586.352 137.943 586.064 138.265 585.718 138.517C585.373 138.769 584.978 138.945 584.56 139.034C584.291 139.089 584.016 139.116 583.741 139.115C582.589 139.115 581.206 138.66 580.847 137.246C580.818 137.137 580.832 137.02 580.887 136.921C580.943 136.822 581.035 136.748 581.144 136.716C581.197 136.703 581.253 136.7 581.308 136.708C581.362 136.716 581.415 136.735 581.462 136.763C581.509 136.792 581.551 136.83 581.583 136.874C581.616 136.919 581.639 136.97 581.652 137.024C581.941 138.163 583.43 138.388 584.396 138.185C584.879 138.088 585.314 137.832 585.634 137.458C585.953 137.084 586.138 136.613 586.158 136.122C586.16 136.083 586.167 136.044 586.18 136.008C586.18 136.008 586.18 135.993 586.18 135.984C586.197 135.941 586.221 135.9 586.25 135.864L586.266 135.846C586.299 135.811 586.336 135.782 586.377 135.759H586.392C586.436 135.737 586.485 135.724 586.535 135.72H586.554C586.565 135.719 586.576 135.719 586.587 135.72C586.61 135.725 586.633 135.731 586.655 135.739C586.679 135.743 586.702 135.749 586.725 135.757C586.774 135.782 586.819 135.814 586.859 135.851C586.875 135.869 586.888 135.888 586.9 135.908C586.919 135.932 586.934 135.959 586.946 135.987C586.955 136.012 586.961 136.037 586.964 136.063C586.971 136.085 586.977 136.108 586.981 136.131C587.002 136.62 587.186 137.088 587.504 137.46C587.822 137.832 588.255 138.087 588.735 138.185C589.701 138.386 591.191 138.161 591.48 137.024C591.492 136.97 591.516 136.919 591.548 136.874C591.581 136.83 591.622 136.792 591.669 136.763C591.716 136.735 591.769 136.716 591.824 136.708C591.878 136.7 591.934 136.703 591.988 136.716C592.097 136.748 592.189 136.821 592.245 136.92C592.301 137.02 592.315 137.137 592.286 137.246H592.282ZM600.041 135.534C599.533 135.555 599.03 135.423 598.597 135.156C598.165 134.888 597.822 134.498 597.613 134.034C597.404 133.57 597.339 133.054 597.426 132.553C597.512 132.052 597.747 131.588 598.099 131.221C598.451 130.854 598.905 130.601 599.402 130.494C599.9 130.388 600.418 130.432 600.889 130.622C601.361 130.812 601.766 131.138 602.05 131.56C602.335 131.981 602.487 132.478 602.487 132.987C602.501 133.648 602.251 134.288 601.793 134.766C601.335 135.244 600.706 135.52 600.045 135.534H600.041Z" fill="#FFE83B"/>
</g>
</g>
</g>
<defs>
<filter id="filter0_bd" x="-19.5311" y="-19.5311" width="769.062" height="189.062" filterUnits="userSpaceOnUse" color-interpolation-filters="sRGB">
<feFlood flood-opacity="0" result="BackgroundImageFix"/>
<feGaussianBlur in="BackgroundImage" stdDeviation="9.76557"/>
<feComposite in2="SourceAlpha" operator="in" result="effect1_backgroundBlur"/>
<feColorMatrix in="SourceAlpha" type="matrix" values="0 0 0 0 0 0 0 0 0 0 0 0 0 0 0 0 0 0 127 0"/>
<feOffset dx="1" dy="1"/>
<feGaussianBlur stdDeviation="0.5"/>
<feColorMatrix type="matrix" values="0 0 0 0 0.0883651 0 0 0 0 0.0720128 0 0 0 0 0.169563 0 0 0 0.1 0"/>
<feBlend mode="normal" in2="effect1_backgroundBlur" result="effect2_dropShadow"/>
<feBlend mode="normal" in="SourceGraphic" in2="effect2_dropShadow" result="shape"/>
</filter>
<linearGradient id="paint0_linear" x1="730" y1="9.75853e-06" x2="522.815" y2="407.673" gradientUnits="userSpaceOnUse">
<stop stop-color="#FAE8BA"/>
<stop offset="1" stop-color="#50E3C2"/>
</linearGradient>
<linearGradient id="paint1_linear" x1="643.295" y1="143.116" x2="722.974" y2="143.116" gradientUnits="userSpaceOnUse">
<stop stop-color="#F28500"/>
<stop offset="1" stop-color="#FBA905"/>
</linearGradient>
<linearGradient id="paint2_linear" x1="698.593" y1="124.663" x2="648.924" y2="146.329" gradientUnits="userSpaceOnUse">
<stop stop-color="#FBCF0A"/>
<stop offset="1" stop-color="#FBA505"/>
</linearGradient>
<linearGradient id="paint3_linear" x1="26899.2" y1="5793.22" x2="23822.3" y2="10334.9" gradientUnits="userSpaceOnUse">
<stop stop-color="#FBCF0A"/>
<stop offset="1" stop-color="#FBA505"/>
</linearGradient>
<linearGradient id="paint4_linear" x1="45295.4" y1="17164" x2="79785.2" y2="17164" gradientUnits="userSpaceOnUse">
<stop stop-color="#F28500"/>
<stop offset="1" stop-color="#FBA905"/>
</linearGradient>
<linearGradient id="paint5_linear" x1="69232.2" y1="17044" x2="58370.8" y2="29692.6" gradientUnits="userSpaceOnUse">
<stop stop-color="#FBCF0A"/>
<stop offset="1" stop-color="#FBA505"/>
</linearGradient>
<linearGradient id="paint6_linear" x1="26899.2" y1="5235.69" x2="23821.4" y2="9777.52" gradientUnits="userSpaceOnUse">
<stop stop-color="#FBCF0A"/>
<stop offset="1" stop-color="#FBA505"/>
</linearGradient>
<linearGradient id="paint7_linear" x1="45295.4" y1="15602.3" x2="79785.2" y2="15602.3" gradientUnits="userSpaceOnUse">
<stop stop-color="#F28500"/>
<stop offset="1" stop-color="#FBA905"/>
</linearGradient>
<linearGradient id="paint8_linear" x1="69232.2" y1="15219" x2="58369.2" y2="27867.9" gradientUnits="userSpaceOnUse">
<stop stop-color="#FBCF0A"/>
<stop offset="1" stop-color="#FBA505"/>
</linearGradient>
<linearGradient id="paint9_linear" x1="26899.2" y1="4675.08" x2="23823.4" y2="9216.21" gradientUnits="userSpaceOnUse">
<stop stop-color="#FBCF0A"/>
<stop offset="1" stop-color="#FBA505"/>
</linearGradient>
<linearGradient id="paint10_linear" x1="45295.4" y1="14038.4" x2="79785.2" y2="14038.4" gradientUnits="userSpaceOnUse">
<stop stop-color="#F28500"/>
<stop offset="1" stop-color="#FBA905"/>
</linearGradient>
<linearGradient id="paint11_linear" x1="69233" y1="13391.4" x2="58370" y2="26040.6" gradientUnits="userSpaceOnUse">
<stop stop-color="#FBCF0A"/>
<stop offset="1" stop-color="#FBA505"/>
</linearGradient>
<linearGradient id="paint12_linear" x1="26900.1" y1="4117.52" x2="23823.1" y2="8659.13" gradientUnits="userSpaceOnUse">
<stop stop-color="#FBCF0A"/>
<stop offset="1" stop-color="#FBA505"/>
</linearGradient>
<linearGradient id="paint13_linear" x1="45295.4" y1="12475.1" x2="79785.2" y2="12475.1" gradientUnits="userSpaceOnUse">
<stop stop-color="#F28500"/>
<stop offset="1" stop-color="#FBA905"/>
</linearGradient>
<linearGradient id="paint14_linear" x1="69232.2" y1="11565.1" x2="58369.2" y2="24214" gradientUnits="userSpaceOnUse">
<stop stop-color="#FBCF0A"/>
<stop offset="1" stop-color="#FBA505"/>
</linearGradient>
<linearGradient id="paint15_linear" x1="2374.35" y1="57662.7" x2="42715.1" y2="57662.7" gradientUnits="userSpaceOnUse">
<stop stop-color="#FBCF0A"/>
<stop offset="1" stop-color="#FBA505"/>
</linearGradient>
<clipPath id="clip0">
<rect width="730" height="150" rx="15" fill="white"/>
</clipPath>
</defs>
</svg>
