<svg width="154" height="130" viewBox="0 0 154 130" fill="none" xmlns="http://www.w3.org/2000/svg">
<g opacity="0.3">
<path d="M-37.9993 121.977V132.581C-37.9993 136.375 -34.1668 140.169 -26.489 143.073C-18.6953 146.019 -8.42938 147.502 1.8402 147.502C11.9644 147.502 22.0885 146.068 29.8584 143.189C37.735 140.268 41.6797 136.43 41.6797 132.581V121.977C41.6797 125.822 37.735 129.667 29.8584 132.587C22.0904 135.464 11.9644 136.9 1.8402 136.9C-8.42938 136.9 -18.6953 135.427 -26.489 132.471C-34.1668 129.562 -37.9993 125.767 -37.9993 121.977Z" fill="#D96D00"/>
<path d="M-37.9993 121.351V131.957C-37.9993 135.751 -34.1668 139.543 -26.489 142.45C-18.6953 145.395 -8.42938 146.88 1.8402 146.88C11.9644 146.88 22.0885 145.443 29.8584 142.566C37.735 139.648 41.6797 135.803 41.6797 131.955V121.351C41.6797 125.196 37.735 129.043 29.8584 131.961C22.0904 134.838 11.9644 136.274 1.8402 136.274C-8.42938 136.274 -18.6953 134.801 -26.489 131.845C-34.1668 128.935 -37.9993 125.143 -37.9993 121.351Z" fill="url(#paint0_linear)"/>
<g style="mix-blend-mode:multiply">
<g style="mix-blend-mode:multiply">
<path d="M37.5527 138.573C37.3503 138.726 37.1459 138.878 36.9269 139.031V128.425C37.1459 128.272 37.3503 128.117 37.5527 127.965V138.573Z" fill="#F5C491"/>
</g>
<g style="mix-blend-mode:multiply">
<path d="M33.9762 130.174C34.1916 130.063 34.3959 129.951 34.6021 129.84V140.452C34.3959 140.563 34.1916 140.675 33.9762 140.784V130.174Z" fill="#F5C491"/>
</g>
<g style="mix-blend-mode:multiply">
<path d="M40.5015 135.565C40.308 135.854 40.0991 136.132 39.8756 136.397V125.789C40.099 125.524 40.308 125.247 40.5015 124.959V135.565Z" fill="#F5C491"/>
</g>
</g>
<path d="M-26.1707 111.794C-18.4045 108.917 -8.28039 107.481 1.84193 107.481C12.1115 107.481 22.3793 108.953 30.1712 111.911C45.6335 117.771 45.501 127.221 29.8619 133.018C22.0903 135.895 11.9643 137.323 1.84009 137.323C-8.42949 137.323 -18.6954 135.85 -26.4891 132.894C-41.9607 127.039 -41.8171 117.588 -26.1707 111.794Z" fill="url(#paint1_linear)"/>
<g style="mix-blend-mode:overlay" opacity="0.3">
<path d="M-26.1708 111.794C-23.639 110.871 -21.0474 110.122 -18.4139 109.552L39.7687 117.835C44.1019 122.897 41.0334 128.648 30.6055 132.723L-37.9682 122.965C-38.3658 118.928 -34.4321 114.851 -26.1708 111.794Z" fill="white"/>
</g>
<g style="mix-blend-mode:overlay" opacity="0.6">
<path d="M29.8584 133.785C22.0904 136.662 11.9644 138.098 1.84025 138.098C-8.42933 138.098 -18.6952 136.626 -26.489 133.669C-34.2202 130.741 -38.0545 126.914 -37.9992 123.094C-37.9992 122.995 -37.9827 122.892 -37.9753 122.79C-37.7286 126.455 -33.9128 130.095 -26.489 132.915C-18.6952 135.851 -8.42933 137.323 1.84025 137.323C11.9644 137.323 22.0886 135.887 29.8584 133.01C37.4791 130.185 41.4091 126.494 41.6558 122.774C41.9374 126.757 38.0038 130.768 29.8584 133.785Z" fill="white"/>
</g>
<path d="M-18.9914 114.516C-13.2151 112.377 -5.68825 111.31 1.8386 111.31C9.47406 111.31 17.1169 112.414 22.8987 114.603C34.3997 118.962 34.2985 125.988 22.6631 130.295C16.8886 132.434 9.36361 133.502 1.8386 133.502C-5.79686 133.502 -13.4305 132.397 -19.2215 130.205C-30.7244 125.85 -30.6176 118.825 -18.9914 114.516Z" fill="#F28500"/>
<g style="mix-blend-mode:overlay" opacity="0.6">
<path d="M22.902 117.274C17.111 115.08 9.47738 113.979 1.84193 113.979C-5.68493 113.979 -13.2118 115.048 -18.9881 117.187C-23.8587 118.991 -26.7008 121.274 -27.5218 123.63C-28.6852 120.316 -25.8375 116.828 -18.9881 114.288C-13.2118 112.149 -5.68493 111.081 1.84193 111.081C9.47738 111.081 17.1202 112.186 22.902 114.376C29.5858 116.907 32.3433 120.342 31.2038 123.621C30.3902 121.309 27.6272 119.065 22.902 117.274Z" fill="white"/>
</g>
<path d="M22.902 117.495C17.111 115.3 9.47738 114.201 1.84193 114.201C-5.68493 114.201 -13.2118 115.269 -18.9881 117.41C-23.8587 119.214 -26.7008 121.496 -27.5218 123.853C-28.6852 120.53 -25.8375 117.042 -18.9881 114.511C-13.2118 112.372 -5.68493 111.304 1.84193 111.304C9.47738 111.304 17.1202 112.409 22.902 114.597C29.5858 117.13 32.3433 120.565 31.2038 123.84C30.3902 121.528 27.6272 119.284 22.902 117.495Z" fill="#D96D00"/>
<path d="M-12.33 123.845V121.861L-1.19159 118.468C-1.05866 118.418 -0.917608 118.393 -0.775582 118.395C-0.635333 118.395 -0.49629 118.421 -0.365097 118.47L18.1143 123.472V125.559C18.1143 125.612 18.048 125.666 17.9302 125.712L13.5657 127.328C13.2998 127.424 13.0089 127.424 12.7429 127.328L6.5948 124.999C6.50553 124.967 6.40797 124.967 6.31869 124.999L3.39005 126.084C1.99335 126.595 0.541493 126.94 -0.935727 127.113C-1.80892 127.222 -2.68804 127.276 -3.56802 127.276C-4.21412 127.276 -4.85654 127.247 -5.4916 127.186C-6.8879 127.07 -8.26196 126.764 -9.57624 126.279C-10.8095 125.809 -11.6379 125.294 -12.0502 124.731C-12.2522 124.482 -12.3522 124.165 -12.33 123.845V123.845ZM-4.30615 124.41C-3.71188 124.624 -3.08381 124.727 -2.45252 124.716H-2.26844C-1.52634 124.701 -0.791807 124.563 -0.094511 124.309L2.22669 123.449C2.31505 123.416 2.31505 123.379 2.22669 123.346L-1.43458 121.96C-1.47811 121.944 -1.52422 121.935 -1.57079 121.934C-1.61854 121.935 -1.66583 121.944 -1.71069 121.96L-4.02452 122.82C-4.70744 123.07 -5.07191 123.343 -5.12897 123.637C-5.18604 123.932 -4.90256 124.182 -4.30615 124.41V124.41Z" fill="#D96D00"/>
<path d="M-11.9582 120.94C-11.4796 120.375 -10.5905 119.851 -9.28356 119.365L-1.19528 116.37C-1.06224 116.32 -0.921182 116.296 -0.779267 116.298C-0.639051 116.297 -0.499848 116.322 -0.368782 116.372L17.9302 123.302C18.0535 123.35 18.1143 123.4 18.1143 123.457C18.1143 123.514 18.048 123.563 17.9302 123.609L13.5657 125.226C13.2998 125.321 13.0089 125.321 12.7429 125.226L6.5948 122.895C6.50553 122.863 6.40797 122.863 6.31869 122.895L3.39005 123.981C1.99309 124.491 0.541334 124.837 -0.935727 125.01C-1.80904 125.118 -2.68811 125.172 -3.56802 125.172C-4.21412 125.172 -4.85654 125.143 -5.4916 125.084C-6.88684 124.967 -8.26004 124.663 -9.57441 124.18C-10.8077 123.711 -11.6361 123.193 -12.0484 122.632C-12.4607 122.071 -12.4313 121.504 -11.9582 120.94ZM-4.30615 122.308C-3.71165 122.52 -3.08374 122.624 -2.45252 122.614H-2.26844C-1.52634 122.599 -0.791807 122.461 -0.094511 122.207L2.22669 121.345C2.31505 121.312 2.31505 121.279 2.22669 121.244L-1.43458 119.858C-1.47782 119.84 -1.52404 119.831 -1.57079 119.83C-1.61873 119.831 -1.66617 119.84 -1.71069 119.858L-4.02452 120.716C-4.70744 120.968 -5.07191 121.24 -5.12897 121.533C-5.18604 121.826 -4.90256 122.08 -4.30615 122.308V122.308Z" fill="url(#paint2_linear)"/>
<g style="mix-blend-mode:overlay" opacity="0.6">
<g style="mix-blend-mode:overlay" opacity="0.6">
<path d="M-4.02842 120.539L-1.71459 119.679C-1.66973 119.663 -1.62243 119.654 -1.57469 119.654C-1.52812 119.654 -1.48201 119.663 -1.43847 119.679L2.2228 121.065C2.31115 121.099 2.31115 121.134 2.2228 121.167L2.1234 121.203L-1.43847 119.856C-1.48171 119.838 -1.52794 119.829 -1.57469 119.828C-1.62263 119.829 -1.67007 119.838 -1.71459 119.856L-4.02842 120.714C-4.68373 120.955 -5.03898 121.216 -5.11261 121.498C-5.12658 121.452 -5.13158 121.403 -5.12734 121.354C-5.0758 121.062 -4.71134 120.789 -4.02842 120.539Z" fill="white"/>
</g>
<g style="mix-blend-mode:overlay" opacity="0.6">
<path d="M-12.0502 122.457C-11.6379 123.009 -10.8095 123.536 -9.57624 124.005C-8.26188 124.488 -6.88868 124.792 -5.49344 124.909C-4.85838 124.968 -4.21596 124.997 -3.56985 124.997C-2.68991 124.996 -1.81085 124.942 -0.937571 124.834C0.539803 124.662 1.99176 124.316 3.38821 123.805L6.31685 122.72C6.40568 122.686 6.50412 122.686 6.59296 122.72L12.7374 125.049C13.0033 125.145 13.2943 125.145 13.5602 125.049L17.9247 123.433C17.9704 123.418 18.0134 123.396 18.0517 123.366C18.0903 123.396 18.1143 123.425 18.1143 123.457C18.1143 123.488 18.048 123.563 17.9302 123.609L13.5657 125.226C13.2998 125.321 13.0089 125.321 12.7429 125.226L6.5948 122.895C6.50552 122.863 6.40796 122.863 6.31869 122.895L3.39005 123.981C1.99309 124.491 0.541332 124.837 -0.935728 125.01C-1.80904 125.118 -2.68811 125.172 -3.56802 125.172C-4.21412 125.172 -4.85654 125.143 -5.4916 125.084C-6.88684 124.967 -8.26005 124.663 -9.57441 124.18C-10.8077 123.711 -11.6361 123.193 -12.0484 122.632C-12.2507 122.383 -12.3513 122.067 -12.33 121.747C-12.3064 122.005 -12.2093 122.252 -12.0502 122.457V122.457Z" fill="white"/>
</g>
</g>
<path d="M-37.9993 110.779V121.386C-37.9993 125.18 -34.1668 128.972 -26.489 131.878C-18.6953 134.823 -8.42938 136.309 1.8402 136.309C11.9644 136.309 22.0885 134.873 29.8584 131.994C37.735 129.077 41.6797 125.231 41.6797 121.384V110.778C41.6797 114.627 37.735 118.472 29.8584 121.39C22.0904 124.268 11.9644 125.702 1.8402 125.702C-8.42938 125.702 -18.6953 124.23 -26.489 121.274C-34.1668 118.363 -37.9993 114.571 -37.9993 110.779Z" fill="#D96D00"/>
<path d="M-37.9993 110.154V120.756C-37.9993 124.548 -34.1668 128.34 -26.489 131.249C-18.6953 134.194 -8.42938 135.679 1.8402 135.679C11.9644 135.679 22.0885 134.244 29.8584 131.366C37.735 128.453 41.6797 124.607 41.6797 120.756V110.154C41.6797 114.001 37.735 117.846 29.8584 120.764C22.0904 123.641 11.9644 125.077 1.8402 125.077C-8.42938 125.077 -18.6953 123.604 -26.489 120.648C-34.1668 117.739 -37.9993 113.946 -37.9993 110.154Z" fill="url(#paint3_linear)"/>
<g style="mix-blend-mode:multiply">
<g style="mix-blend-mode:multiply">
<path d="M16.277 124.07C16.485 124.038 16.6948 124.011 16.9028 123.978V134.58C16.6948 134.613 16.485 134.641 16.277 134.672V124.07Z" fill="#F5C491"/>
</g>
<g style="mix-blend-mode:multiply">
<path d="M19.2262 123.582C19.4342 123.545 19.644 123.506 19.8521 123.466V134.072L19.2262 134.19V123.582Z" fill="#F5C491"/>
</g>
<g style="mix-blend-mode:multiply">
<path d="M22.1769 122.989C22.3867 122.941 22.5929 122.894 22.8027 122.842V133.458L22.1769 133.603V122.989Z" fill="#F5C491"/>
</g>
<g style="mix-blend-mode:multiply">
<path d="M7.42688 124.929L8.05273 124.893V135.499L7.42688 135.538V124.929Z" fill="#F5C491"/>
</g>
<g style="mix-blend-mode:multiply">
<path d="M10.3757 124.729C10.5856 124.712 10.7954 124.697 11.0034 124.679V135.285C10.7954 135.304 10.5856 135.32 10.3757 135.335V124.729Z" fill="#F5C491"/>
</g>
<g style="mix-blend-mode:multiply">
<path d="M4.47765 125.042L5.10352 125.025V135.631L4.47765 135.648V125.042Z" fill="#F5C491"/>
</g>
<g style="mix-blend-mode:multiply">
<path d="M13.3263 124.438L13.9521 124.362V134.971L13.3263 135.044V124.438Z" fill="#F5C491"/>
</g>
<g style="mix-blend-mode:multiply">
<path d="M28.7021 131.777C28.4941 131.851 28.2861 131.921 28.0763 131.989V121.382C28.2861 121.314 28.4941 121.242 28.7021 121.171V131.777Z" fill="#F5C491"/>
</g>
<g style="mix-blend-mode:multiply">
<path d="M25.1274 122.264C25.3373 122.207 25.5435 122.146 25.7515 122.08V132.688L25.1274 132.872V122.264Z" fill="#F5C491"/>
</g>
<g style="mix-blend-mode:multiply">
<path d="M37.5527 127.383C37.3503 127.536 37.1459 127.69 36.9269 127.841V117.226C37.1459 117.077 37.3503 116.922 37.5527 116.769V127.383Z" fill="#F5C491"/>
</g>
<g style="mix-blend-mode:multiply">
<path d="M33.9762 118.974C34.1916 118.866 34.3959 118.755 34.6021 118.641V129.25C34.3959 129.362 34.1916 129.474 33.9762 129.583V118.974Z" fill="#F5C491"/>
</g>
<g style="mix-blend-mode:multiply">
<path d="M40.5015 124.37C40.308 124.658 40.099 124.935 39.8756 125.2V114.594C40.0986 114.328 40.3075 114.051 40.5015 113.764V124.37Z" fill="#F5C491"/>
</g>
<g style="mix-blend-mode:multiply">
<path d="M1.52697 135.681V125.073H1.8399H2.15283V135.681H1.8399H1.52697Z" fill="#F5C491"/>
</g>
<g style="mix-blend-mode:multiply">
<path d="M31.0269 120.309L31.6509 120.049V130.656C31.4447 130.742 31.2385 130.84 31.0269 130.915V120.309Z" fill="#F5C491"/>
</g>
</g>
<path d="M-26.1707 100.596C-18.4045 97.7211 -8.28039 96.2853 1.84193 96.2853C12.1115 96.2853 22.3793 97.7579 30.1712 100.714C45.6335 106.575 45.501 116.024 29.8619 121.82C22.0939 124.697 11.9679 126.133 1.84378 126.133C-8.4258 126.133 -18.6917 124.661 -26.4855 121.704C-41.9607 115.843 -41.8171 106.398 -26.1707 100.596Z" fill="url(#paint4_linear)"/>
<g style="mix-blend-mode:overlay" opacity="0.3">
<path d="M-26.1708 100.596C-23.6387 99.6747 -21.0472 98.9257 -18.4139 98.3542L39.7687 106.638C44.1019 111.702 41.0334 117.45 30.6055 121.526L-37.9645 111.76C-38.3658 107.731 -34.4321 103.656 -26.1708 100.596Z" fill="white"/>
</g>
<g style="mix-blend-mode:overlay" opacity="0.6">
<path d="M29.8584 122.597C22.0904 125.474 11.9644 126.908 1.84025 126.908C-8.42933 126.908 -18.6952 125.435 -26.489 122.479C-34.2202 119.55 -38.0545 115.724 -37.9992 111.906C-37.9992 111.803 -37.9827 111.701 -37.9753 111.602C-37.7286 115.267 -33.9128 118.904 -26.489 121.717C-18.6952 124.662 -8.42933 126.146 1.84025 126.146C11.9644 126.146 22.0886 124.71 29.8584 121.833C37.4791 119.009 41.4091 115.319 41.6558 111.597C41.9374 115.562 38.0038 119.571 29.8584 122.597Z" fill="white"/>
</g>
<path d="M-18.9914 103.321C-13.2151 101.18 -5.68825 100.112 1.8386 100.112C9.47406 100.112 17.1169 101.217 22.8987 103.407C34.3997 107.764 34.2985 114.791 22.6631 119.098C16.8886 121.239 9.36361 122.305 1.8386 122.305C-5.79686 122.305 -13.4305 121.2 -19.2215 119.01C-30.7244 114.654 -30.6176 107.63 -18.9914 103.321Z" fill="#F28500"/>
<g style="mix-blend-mode:overlay" opacity="0.6">
<path d="M22.902 106.076C17.111 103.882 9.47738 102.783 1.84193 102.783C-5.68493 102.783 -13.2118 103.851 -18.9881 105.99C-23.8587 107.795 -26.7008 110.076 -27.5218 112.432C-28.6852 109.119 -25.8375 105.622 -18.9881 103.092C-13.2118 100.952 -5.68493 99.8839 1.84193 99.8839C9.47738 99.8839 17.1202 100.988 22.902 103.179C29.5858 105.712 32.3433 109.145 31.2038 112.423C30.3902 110.109 27.6272 107.871 22.902 106.076Z" fill="white"/>
</g>
<path d="M22.902 106.299C17.111 104.105 9.47738 103.006 1.84193 103.006C-5.68493 103.006 -13.2118 104.072 -18.9881 106.212C-23.8587 108.016 -26.7008 110.299 -27.5218 112.655C-28.6852 109.342 -25.8375 105.844 -18.9881 103.315C-13.2118 101.174 -5.68493 100.107 1.84193 100.107C9.47738 100.107 17.1202 101.211 22.902 103.402C29.5858 105.934 32.3433 109.367 31.2038 112.644C30.3902 110.332 27.6272 108.09 22.902 106.299Z" fill="#D96D00"/>
<path d="M-12.33 112.657V110.669L-1.1916 107.274C-1.05831 107.226 -0.917422 107.202 -0.775583 107.203C-0.635443 107.202 -0.496397 107.227 -0.365098 107.276L18.1143 112.276V114.363C18.1143 114.417 18.048 114.47 17.9302 114.516L13.5657 116.13C13.3003 116.229 13.0084 116.229 12.7429 116.13L6.5948 113.802C6.50597 113.767 6.40752 113.767 6.31869 113.802L3.39005 114.886C1.99342 115.398 0.541563 115.744 -0.935728 115.917C-1.80904 116.024 -2.68811 116.078 -3.56802 116.079C-4.21412 116.079 -4.85654 116.049 -5.4916 115.99C-6.88684 115.873 -8.26005 115.569 -9.57441 115.087C-10.8077 114.617 -11.6361 114.102 -12.0484 113.539C-12.25 113.291 -12.3506 112.976 -12.33 112.657V112.657ZM-4.30615 113.209C-3.71154 113.421 -3.08363 113.524 -2.45252 113.513H-2.26845C-1.52624 113.497 -0.791711 113.359 -0.0945125 113.104L2.22669 112.245C2.31505 112.211 2.31505 112.176 2.22669 112.143L-1.43458 110.757C-1.47782 110.739 -1.52404 110.73 -1.57079 110.73C-1.61873 110.73 -1.66617 110.739 -1.71069 110.757L-4.02452 111.617C-4.70744 111.867 -5.07191 112.138 -5.12898 112.43C-5.18604 112.723 -4.90256 112.986 -4.30615 113.209Z" fill="#D96D00"/>
<path d="M-11.9582 109.743C-11.4796 109.18 -10.5905 108.653 -9.28356 108.167L-1.19528 105.173C-1.06199 105.124 -0.921106 105.1 -0.779267 105.101C-0.639051 105.1 -0.499848 105.125 -0.368782 105.174L17.9302 112.105C18.0535 112.155 18.1143 112.204 18.1143 112.259C18.1143 112.315 18.048 112.368 17.9302 112.412L13.5657 114.03C13.4336 114.078 13.294 114.103 13.1534 114.102C13.0135 114.102 12.8746 114.078 12.7429 114.03L6.5948 111.7C6.50597 111.666 6.40752 111.666 6.31869 111.7L3.39005 112.784C1.99317 113.295 0.541408 113.641 -0.935727 113.815C-1.80904 113.922 -2.68811 113.977 -3.56802 113.977C-4.21412 113.977 -4.85654 113.946 -5.4916 113.887C-6.88688 113.771 -8.26019 113.467 -9.57441 112.985C-10.8077 112.515 -11.6361 111.998 -12.0484 111.435C-12.4607 110.872 -12.4313 110.308 -11.9582 109.743ZM-4.30615 111.111C-3.71188 111.324 -3.08381 111.428 -2.45252 111.416H-2.26844C-1.52697 111.399 -0.793537 111.258 -0.0981849 111L2.22301 110.139C2.31136 110.106 2.31136 110.071 2.22301 110.038L-1.43826 108.652C-1.48155 108.634 -1.52782 108.625 -1.57447 108.626C-1.62231 108.626 -1.66976 108.634 -1.71437 108.652L-4.02821 109.528C-4.71113 109.778 -5.0756 110.051 -5.13266 110.343C-5.18972 110.636 -4.90256 110.884 -4.30615 111.111V111.111Z" fill="url(#paint5_linear)"/>
<g style="mix-blend-mode:overlay" opacity="0.6">
<g style="mix-blend-mode:overlay" opacity="0.6">
<path d="M-4.02842 109.344L-1.71459 108.486C-1.66982 108.469 -1.62253 108.459 -1.57469 108.458C-1.52802 108.459 -1.48191 108.469 -1.43847 108.486L2.2228 109.87C2.31115 109.905 2.31115 109.94 2.2228 109.973L2.1234 110.01L-1.43847 108.661C-1.48176 108.643 -1.52803 108.634 -1.57469 108.635C-1.62252 108.635 -1.66997 108.643 -1.71459 108.661L-4.02842 109.528C-4.68373 109.769 -5.03898 110.028 -5.11261 110.31C-5.12671 110.264 -5.13171 110.216 -5.12734 110.168C-5.0758 109.864 -4.71134 109.592 -4.02842 109.344Z" fill="white"/>
</g>
<g style="mix-blend-mode:overlay" opacity="0.6">
<path d="M-12.0502 111.262C-11.6379 111.814 -10.8095 112.339 -9.57624 112.808C-8.26187 113.291 -6.88868 113.594 -5.49344 113.712C-4.85838 113.771 -4.21595 113.8 -3.56985 113.8C-2.68994 113.8 -1.81088 113.746 -0.937569 113.638C0.539722 113.465 1.99158 113.119 3.38821 112.607L6.31685 111.523C6.40612 111.491 6.50368 111.491 6.59296 111.523L12.7374 113.852C13.0029 113.95 13.2948 113.95 13.5602 113.852L17.9247 112.237C17.9698 112.221 18.0125 112.199 18.0517 112.171C18.0683 112.18 18.0827 112.192 18.0935 112.208C18.1044 112.223 18.1115 112.241 18.1143 112.259C18.1143 112.315 18.048 112.368 17.9302 112.412L13.5657 114.03C13.4336 114.078 13.294 114.103 13.1534 114.102C13.0135 114.102 12.8746 114.077 12.7429 114.03L6.5948 111.7C6.50597 111.665 6.40752 111.665 6.31869 111.7L3.39005 112.784C1.99317 113.295 0.541408 113.641 -0.935727 113.815C-1.80904 113.922 -2.68811 113.976 -3.56802 113.977C-4.21412 113.977 -4.85654 113.946 -5.4916 113.887C-6.88688 113.771 -8.26019 113.467 -9.57441 112.985C-10.8077 112.515 -11.6361 111.998 -12.0484 111.435C-12.2506 111.186 -12.3512 110.871 -12.33 110.551C-12.3061 110.81 -12.209 111.056 -12.0502 111.262Z" fill="white"/>
</g>
</g>
<path d="M-37.9993 99.5876V110.19C-37.9993 113.982 -34.1668 117.776 -26.489 120.683C-18.6953 123.628 -8.42938 125.113 1.8402 125.113C11.9644 125.113 22.0885 123.676 29.8584 120.799C37.735 117.879 41.6797 114.034 41.6797 110.187V99.5876C41.6797 103.435 37.735 107.28 29.8584 110.2C22.0904 113.077 11.9644 114.513 1.8402 114.513C-8.42938 114.513 -18.6953 113.04 -26.489 110.084C-34.1668 107.17 -37.9993 103.376 -37.9993 99.5876Z" fill="#D96D00"/>
<path d="M-37.9993 98.9561V109.564C-37.9993 113.356 -34.1668 117.15 -26.489 120.057C-18.6953 123.002 -8.42938 124.486 1.8402 124.486C11.9644 124.486 22.0885 123.05 29.8584 120.173C37.735 117.259 41.6797 113.412 41.6797 109.564V98.9561C41.6797 102.803 37.735 106.649 29.8584 109.568C22.0904 112.445 11.9644 113.881 1.8402 113.881C-8.42938 113.881 -18.6953 112.408 -26.489 109.45C-34.1668 106.542 -37.9993 102.748 -37.9993 98.9561Z" fill="url(#paint6_linear)"/>
<g style="mix-blend-mode:multiply">
<g style="mix-blend-mode:multiply">
<path d="M16.277 112.867L16.9028 112.775V123.383L16.277 123.475V112.867Z" fill="#F5C491"/>
</g>
<g style="mix-blend-mode:multiply">
<path d="M19.2262 112.386L19.8521 112.27V122.877C19.644 122.917 19.4342 122.954 19.2262 122.993V112.386Z" fill="#F5C491"/>
</g>
<g style="mix-blend-mode:multiply">
<path d="M22.1769 111.792C22.3867 111.746 22.5929 111.696 22.8027 111.646V122.255L22.1769 122.4V111.792Z" fill="#F5C491"/>
</g>
<g style="mix-blend-mode:multiply">
<path d="M7.42688 113.734L8.05273 113.697V124.303L7.42688 124.342V113.734Z" fill="#F5C491"/>
</g>
<g style="mix-blend-mode:multiply">
<path d="M10.3757 113.531C10.5856 113.515 10.7954 113.5 11.0034 113.482V124.088L10.3757 124.14V113.531Z" fill="#F5C491"/>
</g>
<g style="mix-blend-mode:multiply">
<path d="M4.47765 113.844L5.10352 113.828V124.438L4.47765 124.452V113.844Z" fill="#F5C491"/>
</g>
<g style="mix-blend-mode:multiply">
<path d="M13.3263 113.248L13.9521 113.172V123.781L13.3263 123.856V113.248Z" fill="#F5C491"/>
</g>
<g style="mix-blend-mode:multiply">
<path d="M28.7021 120.581L28.0763 120.793V110.185C28.2861 110.117 28.4941 110.045 28.7021 109.975V120.581Z" fill="#F5C491"/>
</g>
<g style="mix-blend-mode:multiply">
<path d="M25.1274 111.066C25.3373 111.011 25.5435 110.95 25.7515 110.882V121.492C25.5435 121.551 25.3373 121.612 25.1274 121.677V111.066Z" fill="#F5C491"/>
</g>
<g style="mix-blend-mode:multiply">
<path d="M37.5527 116.178C37.3503 116.333 37.1459 116.486 36.9269 116.637V106.03C37.1459 105.879 37.3503 105.725 37.5527 105.572V116.178Z" fill="#F5C491"/>
</g>
<g style="mix-blend-mode:multiply">
<path d="M33.9762 107.779C34.1916 107.669 34.3959 107.558 34.6021 107.446V118.052C34.3959 118.165 34.1916 118.277 33.9762 118.385V107.779Z" fill="#F5C491"/>
</g>
<g style="mix-blend-mode:multiply">
<path d="M40.5015 113.172C40.3084 113.46 40.0995 113.737 39.8756 114.002V103.395C40.099 103.13 40.308 102.853 40.5015 102.565V113.172Z" fill="#F5C491"/>
</g>
<g style="mix-blend-mode:multiply">
<path d="M1.52697 124.486V113.877H1.8399H2.15283V124.486H1.52697V124.486Z" fill="#F5C491"/>
</g>
<g style="mix-blend-mode:multiply">
<path d="M31.0269 109.112C31.2385 109.027 31.4447 108.941 31.6509 108.852V119.468C31.4447 119.556 31.2385 119.643 31.0269 119.727V109.112Z" fill="#F5C491"/>
</g>
</g>
<path d="M-26.1707 89.4007C-18.4045 86.5236 -8.28039 85.0859 1.84193 85.0859C12.1115 85.0859 22.3793 86.5585 30.1712 89.5166C45.6335 95.3776 45.501 104.828 29.8619 110.623C22.0939 113.5 11.9679 114.937 1.84378 114.937C-8.4258 114.937 -18.6917 113.465 -26.4855 110.507C-41.9607 104.646 -41.8171 95.1954 -26.1707 89.4007Z" fill="url(#paint7_linear)"/>
<g style="mix-blend-mode:overlay" opacity="0.3">
<path d="M-26.1708 89.4009C-23.6393 88.4776 -21.0476 87.7285 -18.4139 87.1588L39.7687 95.4422C44.1019 100.504 41.0334 106.255 30.6055 110.33L-37.9645 100.563C-38.3658 96.5356 -34.4321 92.4584 -26.1708 89.4009Z" fill="white"/>
</g>
<g style="mix-blend-mode:overlay" opacity="0.6">
<path d="M29.8584 111.39C22.0904 114.269 11.9644 115.705 1.84025 115.705C-8.42933 115.705 -18.6952 114.232 -26.489 111.276C-34.2202 108.346 -38.0545 104.521 -37.9992 100.701C-37.9992 100.6 -37.9827 100.499 -37.9753 100.397C-37.7286 104.062 -33.9128 107.7 -26.489 110.521C-18.6952 113.467 -8.42933 114.952 1.84025 114.952C11.9644 114.952 22.0886 113.515 29.8584 110.637C37.4791 107.816 41.4091 104.123 41.6558 100.401C41.9374 104.373 38.0038 108.373 29.8584 111.39Z" fill="white"/>
</g>
<path d="M-18.9917 92.1233C-13.2117 89.9843 -5.68484 88.9111 1.84202 88.9111C9.47747 88.9111 17.1203 90.0156 22.9021 92.2042C34.4032 96.5632 34.3019 103.587 22.6665 107.897C16.892 110.036 9.36703 111.101 1.84202 111.101C-5.79344 111.101 -13.4271 109.997 -19.2181 107.808C-30.7246 103.453 -30.6179 96.4306 -18.9917 92.1233Z" fill="#F28500"/>
<g style="mix-blend-mode:overlay" opacity="0.6">
<path d="M22.902 94.8807C17.111 92.6846 9.47738 91.5875 1.84193 91.5875C-5.68493 91.5875 -13.2118 92.6552 -18.9881 94.7941C-23.8587 96.5999 -26.7008 98.8806 -27.5218 101.237C-28.6852 97.9234 -25.8375 94.426 -18.9881 91.8949C-13.2118 89.756 -5.68493 88.6884 1.84193 88.6884C9.47738 88.6884 17.1202 89.7928 22.902 91.9833C29.5858 94.5162 32.3433 97.9492 31.2038 101.226C30.3902 98.9138 27.6272 96.6717 22.902 94.8807Z" fill="white"/>
</g>
<path d="M22.902 95.1034C17.111 92.9074 9.47738 91.8085 1.84193 91.8085C-5.68493 91.8085 -13.2118 92.8761 -18.9881 95.0151C-23.8587 96.8209 -26.7008 99.1016 -27.5218 101.458C-28.6852 98.1333 -25.8375 94.6469 -18.9881 92.1159C-13.2118 89.9843 -5.68493 88.9111 1.84193 88.9111C9.47738 88.9111 17.1202 90.0156 22.902 92.2042C29.5858 94.7371 32.3433 98.1701 31.2038 101.449C30.3902 99.1347 27.6272 96.8945 22.902 95.1034Z" fill="#D96D00"/>
<path d="M-12.33 101.452V99.4715L-1.19159 96.079C-1.05855 96.0296 -0.917496 96.0052 -0.775582 96.0072C-0.635366 96.006 -0.496163 96.031 -0.365097 96.0808L18.1143 101.078V103.166C18.1143 103.219 18.048 103.273 17.9302 103.321L13.5657 104.935C13.4339 104.984 13.2941 105.008 13.1534 105.007C13.0134 105.007 12.8744 104.983 12.7429 104.935L6.5948 102.606C6.50597 102.572 6.40752 102.572 6.31869 102.606L3.39005 103.691C1.99309 104.201 0.541334 104.546 -0.935727 104.719C-1.80892 104.829 -2.68804 104.883 -3.56802 104.883C-4.21412 104.883 -4.85654 104.854 -5.4916 104.793C-6.88661 104.676 -8.25969 104.372 -9.57441 103.891C-10.8077 103.42 -11.6361 102.903 -12.0484 102.341C-12.2518 102.091 -12.3525 101.774 -12.33 101.452V101.452ZM-4.30615 102.017C-3.71188 102.231 -3.08381 102.334 -2.45252 102.323H-2.26844C-1.52633 102.306 -0.79195 102.168 -0.094511 101.914L2.22301 101.06C2.31136 101.027 2.31136 100.994 2.22301 100.959L-1.43826 99.5727C-1.4815 99.555 -1.52773 99.5456 -1.57447 99.5451C-1.62242 99.5456 -1.66986 99.5549 -1.71437 99.5727L-4.02821 100.432C-4.71113 100.683 -5.0756 100.955 -5.13266 101.248C-5.18972 101.541 -4.90256 101.796 -4.30615 102.017V102.017Z" fill="#D96D00"/>
<path d="M-11.9582 98.5476C-11.4796 97.9825 -10.5905 97.456 -9.28356 96.9719L-1.19528 93.9752C-1.06189 93.9273 -0.920998 93.9036 -0.779267 93.9052C-0.639051 93.9041 -0.499848 93.929 -0.368782 93.9789L17.9302 100.909C18.0535 100.957 18.1143 101.007 18.1143 101.062C18.1143 101.117 18.048 101.171 17.9302 101.215L13.5657 102.831C13.2998 102.927 13.0089 102.927 12.7429 102.831L6.5948 100.508C6.50553 100.476 6.40797 100.476 6.31869 100.508L3.39005 101.592C1.99342 102.104 0.541565 102.45 -0.935727 102.623C-1.809 102.731 -2.68807 102.786 -3.56802 102.787C-4.21412 102.787 -4.85654 102.756 -5.4916 102.697C-6.88661 102.579 -8.25969 102.276 -9.57441 101.795C-10.8077 101.323 -11.6361 100.806 -12.0484 100.245C-12.4607 99.6834 -12.4313 99.1109 -11.9582 98.5476ZM-4.30615 99.9153C-3.71165 100.128 -3.08374 100.231 -2.45252 100.221H-2.26844C-1.52624 100.205 -0.79171 100.067 -0.094511 99.8122L2.22669 98.9526C2.31505 98.9195 2.31505 98.8845 2.22669 98.8495L-1.43458 97.4652C-1.47782 97.4475 -1.52404 97.4381 -1.57079 97.4376C-1.61873 97.4381 -1.66617 97.4475 -1.71069 97.4652L-4.02452 98.323C-4.70744 98.5752 -5.07191 98.8458 -5.12897 99.1403C-5.18604 99.4349 -4.90256 99.6871 -4.30615 99.9153V99.9153Z" fill="url(#paint8_linear)"/>
<g style="mix-blend-mode:overlay" opacity="0.6">
<g style="mix-blend-mode:overlay" opacity="0.6">
<path d="M-4.02842 98.1443L-1.71459 97.2884C-1.67007 97.2706 -1.62263 97.2612 -1.57469 97.2607C-1.52794 97.2612 -1.48171 97.2706 -1.43847 97.2884L2.2228 98.6671C2.31115 98.7021 2.31115 98.7352 2.2228 98.7683L2.1234 98.8051L-1.43847 97.4577C-1.48171 97.4399 -1.52794 97.4306 -1.57469 97.4301C-1.62263 97.4305 -1.67007 97.4399 -1.71459 97.4577L-4.02842 98.3155C-4.68373 98.5566 -5.03898 98.818 -5.11261 99.0978C-5.12671 99.052 -5.13171 99.0038 -5.12734 98.9561C-5.0758 98.6671 -4.71134 98.3965 -4.02842 98.1443Z" fill="white"/>
</g>
<g style="mix-blend-mode:overlay" opacity="0.6">
<path d="M-12.0502 100.064C-11.6379 100.616 -10.8095 101.141 -9.57624 101.612C-8.26203 102.095 -6.88873 102.398 -5.49344 102.514C-4.85838 102.575 -4.21596 102.603 -3.56985 102.603C-2.68992 102.603 -1.8108 102.549 -0.937571 102.441C0.53949 102.267 1.99125 101.922 3.38821 101.412L6.31685 100.324C6.40568 100.289 6.50412 100.289 6.59296 100.324L12.7374 102.652C12.8688 102.701 13.0078 102.726 13.1479 102.726C13.2887 102.727 13.4285 102.702 13.5602 102.652L17.9247 101.038C17.9699 101.021 18.0126 100.998 18.0517 100.97C18.0903 100.999 18.1143 101.029 18.1143 101.058C18.1143 101.088 18.048 101.167 17.9302 101.211L13.5657 102.827C13.2998 102.923 13.0089 102.923 12.7429 102.827L6.5948 100.508C6.50552 100.476 6.40796 100.476 6.31869 100.508L3.39005 101.592C1.99342 102.104 0.541563 102.45 -0.935728 102.623C-1.809 102.731 -2.68807 102.786 -3.56802 102.787C-4.21412 102.787 -4.85654 102.755 -5.4916 102.696C-6.88661 102.579 -8.25969 102.275 -9.57441 101.794C-10.8077 101.323 -11.6361 100.806 -12.0484 100.245C-12.2504 99.9961 -12.351 99.6805 -12.33 99.361C-12.3053 99.6171 -12.2083 99.861 -12.0502 100.064V100.064Z" fill="white"/>
</g>
</g>
<path d="M-37.9993 88.3866V98.9949C-37.9993 102.787 -34.1668 106.579 -26.489 109.487C-18.6953 112.432 -8.42938 113.916 1.8402 113.916C11.9644 113.916 22.0885 112.48 29.8584 109.603C37.735 106.684 41.6797 102.838 41.6797 98.9912V88.3866C41.6797 92.2319 37.735 96.0791 29.8584 98.9967C22.0904 101.874 11.9644 103.31 1.8402 103.31C-8.42938 103.31 -18.6953 101.837 -26.489 98.8807C-34.1668 95.9723 -37.9993 92.1786 -37.9993 88.3866Z" fill="#D96D00"/>
<path d="M-37.9993 87.7606V98.3671C-37.9993 102.159 -34.1668 105.953 -26.489 108.859C-18.6953 111.805 -8.42938 113.29 1.8402 113.29C11.9644 113.29 22.0885 111.854 29.8584 108.977C37.735 106.058 41.6797 102.212 41.6797 98.3652V87.7606C41.6797 91.606 37.735 95.4513 29.8584 98.3726C22.0904 101.248 11.9644 102.684 1.8402 102.684C-8.42938 102.684 -18.6953 101.211 -26.489 98.2548C-34.1668 95.3537 -37.9993 91.5526 -37.9993 87.7606Z" fill="url(#paint9_linear)"/>
<g style="mix-blend-mode:multiply">
<g style="mix-blend-mode:multiply">
<path d="M16.277 101.671L16.9028 101.579V112.188L16.277 112.278V101.671Z" fill="#F5C491"/>
</g>
<g style="mix-blend-mode:multiply">
<path d="M19.2262 101.187C19.4342 101.15 19.644 101.113 19.8521 101.073V111.681L19.2262 111.795V101.187Z" fill="#F5C491"/>
</g>
<g style="mix-blend-mode:multiply">
<path d="M22.1769 100.596L22.8027 100.451V111.057L22.1769 111.204V100.596Z" fill="#F5C491"/>
</g>
<g style="mix-blend-mode:multiply">
<path d="M7.42688 102.533C7.63489 102.533 7.84289 102.509 8.05273 102.496V113.104C7.84289 113.117 7.63489 113.13 7.42688 113.139V102.533Z" fill="#F5C491"/>
</g>
<g style="mix-blend-mode:multiply">
<path d="M10.3757 102.336L11.0034 102.284V112.891C10.7954 112.911 10.5856 112.926 10.3757 112.942V102.336Z" fill="#F5C491"/>
</g>
<g style="mix-blend-mode:multiply">
<path d="M4.47765 102.647L5.10352 102.63V113.239L4.47765 113.255V102.647Z" fill="#F5C491"/>
</g>
<g style="mix-blend-mode:multiply">
<path d="M13.3266 102.052L13.958 101.981V112.583L13.3321 112.659L13.3266 102.052Z" fill="#F5C491"/>
</g>
<g style="mix-blend-mode:multiply">
<path d="M28.7021 109.384L28.0763 109.596V98.9892L28.7021 98.7775V109.384Z" fill="#F5C491"/>
</g>
<g style="mix-blend-mode:multiply">
<path d="M25.1274 99.8708C25.3373 99.8138 25.5435 99.753 25.7515 99.6868V110.295L25.1274 110.47V99.8708Z" fill="#F5C491"/>
</g>
<g style="mix-blend-mode:multiply">
<path d="M37.5527 104.981C37.3503 105.136 37.1459 105.288 36.9269 105.441V94.8347C37.1459 94.6819 37.3503 94.5273 37.5527 94.3745V104.981Z" fill="#F5C491"/>
</g>
<g style="mix-blend-mode:multiply">
<path d="M33.9762 96.5837C34.1916 96.4732 34.3959 96.3609 34.6021 96.2487V106.857C34.3959 106.967 34.1916 107.08 33.9762 107.19V96.5837Z" fill="#F5C491"/>
</g>
<g style="mix-blend-mode:multiply">
<path d="M40.5015 101.98C40.3084 102.269 40.0995 102.546 39.8756 102.812V92.1999C40.0991 91.9341 40.308 91.6563 40.5015 91.3679V101.98Z" fill="#F5C491"/>
</g>
<g style="mix-blend-mode:multiply">
<path d="M1.52697 113.288V102.682H2.15283V113.288H1.8399H1.52697Z" fill="#F5C491"/>
</g>
<g style="mix-blend-mode:multiply">
<path d="M31.0269 97.9163L31.6509 97.6567V108.263C31.4447 108.35 31.2385 108.447 31.0269 108.523V97.9163Z" fill="#F5C491"/>
</g>
</g>
<path d="M-26.1707 78.2034C-18.4045 75.3263 -8.28039 73.8905 1.84193 73.8905C12.1115 73.8905 22.3793 75.3631 30.1712 78.3212C45.6335 84.1822 45.501 93.6308 29.8619 99.4273C22.0939 102.304 11.9679 103.74 1.84378 103.74C-8.4258 103.74 -18.6917 102.268 -26.4855 99.3113C-41.9607 93.4485 -41.8171 83.9999 -26.1707 78.2034Z" fill="url(#paint10_linear)"/>
<g style="mix-blend-mode:overlay" opacity="0.3">
<path d="M-26.1708 78.2037C-23.639 77.2813 -21.0474 76.5322 -18.4139 75.9617L39.7687 84.2451C44.1019 89.3072 41.0334 95.0577 30.6055 99.1331L-37.9645 89.3771C-38.3658 85.3403 -34.4321 81.263 -26.1708 78.2037Z" fill="white"/>
</g>
<g style="mix-blend-mode:overlay" opacity="0.6">
<path d="M29.8584 100.195C22.0904 103.072 11.9644 104.51 1.84025 104.51C-8.42933 104.51 -18.6952 103.037 -26.489 100.079C-34.2202 97.1504 -38.0545 93.3235 -37.9992 89.5039C-37.9992 89.4027 -37.9827 89.3014 -37.9753 89.2002C-37.7286 92.8651 -33.9128 96.5043 -26.489 99.3244C-18.6952 102.27 -8.42933 103.753 1.84025 103.753C11.9644 103.753 22.0886 102.317 29.8584 99.4403C37.4791 96.6166 41.4091 92.924 41.6558 89.2039C41.9374 93.1689 38.0038 97.178 29.8584 100.195Z" fill="white"/>
</g>
<path d="M-18.9917 80.926C-13.2117 78.787 -5.68484 77.7194 1.84202 77.7194C9.47747 77.7194 17.1203 78.8238 22.9021 81.0143C34.4032 85.3732 34.3019 92.3976 22.6665 96.7049C16.892 98.8439 9.36703 99.9115 1.84202 99.9115C-5.79344 99.9115 -13.4271 98.8071 -19.2181 96.6184C-30.7246 92.2595 -30.6179 85.2296 -18.9917 80.926Z" fill="#F28500"/>
<g style="mix-blend-mode:overlay" opacity="0.6">
<path d="M22.902 83.6852C17.111 81.4892 9.47738 80.3902 1.84193 80.3902C-5.68493 80.3902 -13.2118 81.4579 -18.9881 83.5968C-23.8587 85.4008 -26.7008 87.6833 -27.5218 90.0395C-28.6852 86.7169 -25.8375 83.2287 -18.9881 80.6976C-13.2118 78.5661 -5.68493 77.4984 1.84193 77.4984C9.47738 77.4984 17.1202 78.6029 22.902 80.7915C29.5858 83.3263 32.3433 86.7574 31.2038 90.0358C30.3902 87.7164 27.6272 85.4762 22.902 83.6852Z" fill="white"/>
</g>
<path d="M22.902 83.9061C17.111 81.712 9.47738 80.613 1.84193 80.613C-5.68493 80.613 -13.2118 81.6788 -18.9881 83.8178C-23.8587 85.6236 -26.7008 87.9043 -27.5218 90.2604C-28.6852 86.9471 -25.8375 83.4588 -18.9881 80.9204C-13.2118 78.787 -5.68493 77.7194 1.84193 77.7194C9.47738 77.7194 17.1202 78.8238 22.902 81.0143C29.5858 83.5454 32.3433 86.9802 31.2038 90.2567C30.3902 87.9392 27.6272 85.6972 22.902 83.9061Z" fill="#D96D00"/>
<path d="M-12.33 90.2568V88.2743L-1.19159 84.8818C-1.05831 84.8332 -0.917421 84.8089 -0.775582 84.81C-0.63525 84.8094 -0.496043 84.835 -0.365097 84.8854L18.1143 89.8812V91.9687C18.1143 92.0239 18.048 92.0754 17.9302 92.1233L13.5657 93.7376C13.2998 93.8333 13.0089 93.8333 12.7429 93.7376L6.5948 91.4109C6.50597 91.3766 6.40752 91.3766 6.31869 91.4109L3.39005 92.4933C1.99342 93.005 0.541565 93.3509 -0.935727 93.5241C-1.80904 93.6316 -2.68811 93.6857 -3.56802 93.6861C-4.21412 93.6861 -4.85654 93.6566 -5.4916 93.5977C-6.88684 93.4805 -8.26004 93.1765 -9.57441 92.6939C-10.8077 92.2245 -11.6361 91.7073 -12.0484 91.1459C-12.2516 90.8959 -12.3523 90.5781 -12.33 90.2568V90.2568ZM-4.30615 90.82C-3.71176 91.0323 -3.08353 91.134 -2.45252 91.1201H-2.26844C-1.52624 91.1045 -0.79171 90.9664 -0.094511 90.7114L2.22669 89.8518C2.31505 89.8168 2.31505 89.7837 2.22669 89.7506L-1.43458 88.3626C-1.47811 88.3461 -1.52422 88.3374 -1.57079 88.3369C-1.61854 88.3375 -1.66583 88.3462 -1.71069 88.3626L-4.02452 89.2223C-4.70744 89.4744 -5.07191 89.7469 -5.12897 90.0396C-5.18604 90.3322 -4.90256 90.5936 -4.30615 90.82V90.82Z" fill="#D96D00"/>
<path d="M-11.9582 87.3501C-11.4796 86.785 -10.5905 86.2604 -9.28357 85.7763L-1.19528 82.7795C-1.06224 82.7301 -0.921183 82.7058 -0.779268 82.7078C-0.639128 82.7075 -0.500082 82.7324 -0.368783 82.7814L17.9302 89.7118C18.0535 89.7615 18.1143 89.8112 18.1143 89.8665C18.1143 89.9217 18.048 89.9732 17.9302 90.0192L13.5657 91.6354C13.4339 91.6845 13.2941 91.7089 13.1534 91.7072C13.0134 91.7079 12.8744 91.6836 12.7429 91.6354L6.5948 89.3069C6.50597 89.2725 6.40752 89.2725 6.31869 89.3069L3.38821 90.3837C1.99151 90.8948 0.539649 91.2401 -0.937571 91.4127C-1.8108 91.5211 -2.68992 91.5752 -3.56985 91.5747C-4.21596 91.5747 -4.85838 91.5471 -5.49344 91.4882C-6.88868 91.3709 -8.26188 91.0669 -9.57624 90.5844C-10.8095 90.115 -11.6379 89.5977 -12.0502 89.0363C-12.4625 88.4748 -12.4313 87.9134 -11.9582 87.3501ZM-4.30615 88.727C-3.71131 88.9379 -3.08356 89.0408 -2.45252 89.0308H-2.26845C-1.52634 89.0158 -0.791809 88.8783 -0.0945125 88.6239L2.22669 87.7643C2.31505 87.7293 2.31505 87.6944 2.22669 87.6612L-1.43458 86.277C-1.47782 86.2592 -1.52404 86.2498 -1.57079 86.2494C-1.61873 86.2498 -1.66617 86.2592 -1.71069 86.277L-4.02452 87.1348C-4.70744 87.3851 -5.07191 87.6575 -5.12898 87.9502C-5.18604 88.2429 -4.90256 88.4896 -4.30615 88.727Z" fill="url(#paint11_linear)"/>
<g style="mix-blend-mode:overlay" opacity="0.6">
<g style="mix-blend-mode:overlay" opacity="0.6">
<path d="M-4.02842 86.9486L-1.71459 86.089C-1.66973 86.0726 -1.62243 86.0639 -1.57469 86.0632C-1.52812 86.0637 -1.48201 86.0725 -1.43847 86.089L2.2228 87.4769C2.31115 87.5101 2.31115 87.5432 2.2228 87.5782L2.1234 87.6132L-1.43847 86.2676C-1.48171 86.2498 -1.52794 86.2404 -1.57469 86.2399C-1.62263 86.2404 -1.67007 86.2498 -1.71459 86.2676L-4.02842 87.1253C-4.68373 87.3646 -5.03898 87.626 -5.11261 87.9058C-5.12647 87.8606 -5.13147 87.8131 -5.12734 87.7659C-5.0758 87.4714 -4.71134 87.2008 -4.02842 86.9486Z" fill="white"/>
</g>
<g style="mix-blend-mode:overlay" opacity="0.6">
<path d="M-12.0502 88.8669C-11.6379 89.4284 -10.8095 89.9456 -9.57624 90.415C-8.26187 90.8976 -6.88868 91.2016 -5.49344 91.3188C-4.85838 91.3777 -4.21595 91.4072 -3.56985 91.4072C-2.68994 91.4068 -1.81088 91.3527 -0.937569 91.2452C0.539566 91.0711 1.99132 90.7252 3.38821 90.2144L6.31685 89.1302C6.40612 89.0983 6.50368 89.0983 6.59296 89.1302L12.7374 91.4587C13.0029 91.557 13.2948 91.557 13.5602 91.4587L17.9247 89.8444C17.9694 89.8273 18.0121 89.8051 18.0517 89.7781C18.0683 89.7869 18.0827 89.7995 18.0935 89.8148C18.1044 89.8302 18.1115 89.8479 18.1143 89.8665C18.1143 89.9199 18.048 89.9732 17.9302 90.0193L13.5657 91.6354C13.4339 91.6845 13.2941 91.7089 13.1534 91.7072C13.0134 91.7079 12.8744 91.6836 12.7429 91.6354L6.5948 89.3069C6.50597 89.2725 6.40752 89.2725 6.31869 89.3069L3.38821 90.3837C1.99151 90.8948 0.53965 91.2402 -0.937569 91.4127C-1.8108 91.5212 -2.68991 91.5753 -3.56985 91.5747C-4.21595 91.5747 -4.85838 91.5471 -5.49344 91.4882C-6.88868 91.3709 -8.26187 91.067 -9.57624 90.5844C-10.8095 90.115 -11.6379 89.5977 -12.0502 89.0363C-12.2525 88.7866 -12.3531 88.4697 -12.3319 88.149C-12.3094 88.4106 -12.2116 88.6599 -12.0502 88.8669Z" fill="white"/>
</g>
</g>
<path d="M-37.9993 77.1913V87.7959C-37.9993 91.5878 -34.1668 95.3816 -26.489 98.2882C-18.6953 101.244 -8.42938 102.717 1.8402 102.717C11.9644 102.717 22.0885 101.281 29.8584 98.4042C37.735 95.4847 41.6797 91.6412 41.6797 87.7922V77.1895C41.6797 81.0366 37.735 84.882 29.8584 87.7996C22.0904 90.6785 11.9644 92.1143 1.8402 92.1143C-8.42938 92.1143 -18.6953 90.6417 -26.489 87.6854C-34.1668 84.7752 -37.9993 80.9814 -37.9993 77.1913Z" fill="#D96D00"/>
<path d="M-37.9993 76.5652V87.1716C-37.9993 90.9636 -34.1668 94.7574 -26.489 97.6639C-18.6953 100.609 -8.42938 102.095 1.8402 102.095C11.9644 102.095 22.0885 100.657 29.8584 97.7799C37.735 94.8605 41.6797 91.0151 41.6797 87.1679V76.5634C41.6797 80.4105 37.735 84.2559 29.8584 87.1753C22.0904 90.0506 11.9644 91.4882 1.8402 91.4882C-8.42938 91.4882 -18.6953 90.0156 -26.489 87.0593C-34.1668 84.1491 -37.9993 80.3571 -37.9993 76.5652Z" fill="url(#paint12_linear)"/>
<g style="mix-blend-mode:multiply">
<g style="mix-blend-mode:multiply">
<path d="M16.277 90.4741L16.9028 90.3839V100.99C16.6948 101.023 16.485 101.051 16.277 101.081V90.4741Z" fill="#F5C491"/>
</g>
<g style="mix-blend-mode:multiply">
<path d="M19.2262 89.9917L19.8521 89.8776V100.484L19.2262 100.598V89.9917Z" fill="#F5C491"/>
</g>
<g style="mix-blend-mode:multiply">
<path d="M22.1769 89.399C22.3867 89.3529 22.5929 89.3014 22.8027 89.2535V99.86L22.1769 100.007V89.399Z" fill="#F5C491"/>
</g>
<g style="mix-blend-mode:multiply">
<path d="M7.42688 91.341L8.05273 91.3024V101.909C7.84289 101.924 7.63489 101.938 7.42688 101.947V91.341Z" fill="#F5C491"/>
</g>
<g style="mix-blend-mode:multiply">
<path d="M10.3757 91.1385L11.0034 91.0869V101.695L10.3757 101.747V91.1385Z" fill="#F5C491"/>
</g>
<g style="mix-blend-mode:multiply">
<path d="M4.47765 91.4514L5.10352 91.4348V102.041L4.47765 102.06V91.4514Z" fill="#F5C491"/>
</g>
<g style="mix-blend-mode:multiply">
<path d="M13.3263 90.8551L13.9521 90.7797V101.388L13.3263 101.463V90.8551Z" fill="#F5C491"/>
</g>
<g style="mix-blend-mode:multiply">
<path d="M28.7021 98.1886L28.0763 98.4003V87.792C28.2861 87.7239 28.4941 87.6521 28.7021 87.5803V98.1886Z" fill="#F5C491"/>
</g>
<g style="mix-blend-mode:multiply">
<path d="M25.1274 88.6738L25.7515 88.4989V99.1053L25.1274 99.2894V88.6738Z" fill="#F5C491"/>
</g>
<g style="mix-blend-mode:multiply">
<path d="M37.5527 93.7855C37.3503 93.9401 37.1459 94.0929 36.9269 94.2439V83.6374C37.1459 83.4865 37.3503 83.3319 37.5527 83.1791V93.7855Z" fill="#F5C491"/>
</g>
<g style="mix-blend-mode:multiply">
<path d="M33.9762 85.3881C34.1916 85.2758 34.3959 85.1654 34.6021 85.0531V95.6614C34.3959 95.7718 34.1916 95.8841 33.9762 95.9927V85.3881Z" fill="#F5C491"/>
</g>
<g style="mix-blend-mode:multiply">
<path d="M40.5015 90.7796C40.308 91.068 40.0991 91.3457 39.8756 91.6116V80.996C40.0986 80.7304 40.3075 80.4533 40.5015 80.1658V90.7796Z" fill="#F5C491"/>
</g>
<g style="mix-blend-mode:multiply">
<path d="M1.52697 102.093V91.4882H2.15283V102.095H1.8399L1.52697 102.093Z" fill="#F5C491"/>
</g>
<g style="mix-blend-mode:multiply">
<path d="M31.0269 86.7188C31.2385 86.6341 31.4447 86.5457 31.6509 86.4592V97.0657C31.4447 97.1522 31.2385 97.2497 31.0269 97.3252V86.7188Z" fill="#F5C491"/>
</g>
</g>
<path d="M-26.1707 67.0063C-18.4045 64.131 -8.28039 62.6934 1.84193 62.6934C12.1115 62.6934 22.3793 64.166 30.1712 67.1259C45.6335 72.985 45.501 82.4355 29.8619 88.2302C22.0939 91.1073 11.9679 92.5449 1.84378 92.5449C-8.4258 92.5449 -18.6917 91.0723 -26.4855 88.1142C-41.9607 82.2532 -41.8171 72.801 -26.1707 67.0063Z" fill="url(#paint13_linear)"/>
<g style="mix-blend-mode:overlay" opacity="0.6">
<path d="M29.8584 88.9996C22.0904 91.8767 11.9644 93.3125 1.84025 93.3125C-8.42933 93.3125 -18.6952 91.8399 -26.489 88.8836C-34.2202 85.9532 -38.0545 82.1262 -37.9992 78.3085C-37.9992 78.2073 -37.9827 78.1042 -37.9753 78.0029C-37.7286 81.6679 -33.9128 85.3089 -26.489 88.1271C-18.6952 91.0723 -8.42933 92.5578 1.84025 92.5578C11.9644 92.5578 22.0886 91.1202 29.8584 88.2431C37.4791 85.4193 41.4091 81.7268 41.6558 78.0085C41.9374 81.9716 38.0038 85.9808 29.8584 88.9996Z" fill="white"/>
</g>
<path d="M-18.9914 69.7307C-13.2151 67.5917 -5.68825 66.5222 1.8386 66.5222C9.47406 66.5222 17.1169 67.6267 22.8987 69.8172C34.3997 74.1742 34.2985 81.2022 22.6631 85.5096C16.8886 87.6467 9.36361 88.7162 1.8386 88.7162C-5.79686 88.7162 -13.4305 87.6118 -19.2215 85.4194C-30.7244 81.0642 -30.6176 74.0399 -18.9914 69.7307Z" fill="#F28500"/>
<g style="mix-blend-mode:overlay" opacity="0.6">
<path d="M22.902 72.4879C17.111 70.2937 9.47738 69.193 1.84193 69.193C-5.68493 69.193 -13.2118 70.2625 -18.9881 72.4014C-23.8587 74.2054 -26.7008 76.4879 -27.5218 78.8441C-28.6852 75.5197 -25.8375 72.0333 -18.9881 69.5022C-13.2118 67.3743 -5.68493 66.3011 1.84193 66.3011C9.47738 66.3011 17.1202 67.4056 22.902 69.5961C29.5858 72.1271 32.3433 75.562 31.2038 78.8385C30.3902 76.5192 27.6272 74.279 22.902 72.4879Z" fill="white"/>
</g>
<path d="M22.902 72.7124C17.111 70.5183 9.47738 69.4193 1.84193 69.4193C-5.68493 69.4193 -13.2118 70.487 -18.9881 72.6259C-23.8587 74.4317 -26.7008 76.7124 -27.5218 79.0686C-28.6852 75.746 -25.8375 72.2578 -18.9881 69.7286C-13.2118 67.5896 -5.68493 66.5201 1.84193 66.5201C9.47738 66.5201 17.1202 67.6246 22.902 69.8151C29.5858 72.348 32.3433 75.7828 31.2038 79.0575C30.3902 76.7419 27.6272 74.4998 22.902 72.7124Z" fill="#D96D00"/>
<path d="M1.33562 85.5093C-2.26674 85.6732 -10.02 85.6179 -11.9178 84.5098C-14.02 83.2838 -11.014 82.0855 -9.1254 81.502C-9.98256 80.9023 -10.7256 80.1542 -11.3196 79.2931C-11.7867 78.6288 -12.0391 77.8374 -12.043 77.0253C-14.5704 76.6295 -18.9348 75.746 -18.5022 74.4114C-18.1083 73.2039 -10.8428 72.5117 -7.22574 72.3682C-5.24508 71.6521 -2.72508 71.1846 0.201722 71.0594C9.28033 70.6747 18.8394 73.734 21.5545 77.8941C24.2696 82.0542 19.11 85.7394 10.0332 86.126C7.12009 86.2445 4.20286 86.0377 1.33562 85.5093V85.5093ZM2.39959 74.8495C2.15661 74.4814 0.972992 74.2144 -0.241907 74.266C-1.45681 74.3175 -2.24465 74.6636 -2.00167 75.0373C-1.75869 75.4109 -0.575077 75.6705 0.639823 75.6189C1.85472 75.5674 2.64257 75.2232 2.39959 74.8495V74.8495ZM7.33097 80.092C8.4888 79.941 8.63238 79.5398 8.42438 79.2231C8.36566 79.1367 8.29213 79.0613 8.20717 79.0004C7.89424 78.7685 7.28679 78.5899 6.58178 78.4997C7.13401 78.3543 7.48191 78.1316 7.48375 77.8923C7.48099 77.8097 7.45411 77.7297 7.40643 77.6622C7.19843 77.3437 6.55601 76.9793 5.26932 76.9259C5.05947 76.9259 4.87723 76.9627 4.86435 77.0271C4.85146 77.0915 5.01161 77.1486 5.2325 77.156C6.26701 77.1946 6.73088 77.5978 6.72904 77.872C6.7272 78.1463 6.13815 78.3801 5.25643 78.4335L5.16255 78.4427H5.14231C5.11155 78.4477 5.08135 78.4558 5.05211 78.4666H5.03922C5.01831 78.4728 4.99931 78.4842 4.984 78.4997V78.4997C4.97965 78.5059 4.97731 78.5133 4.97731 78.5209C4.97731 78.5285 4.97965 78.5359 4.984 78.5421C4.984 78.5421 4.984 78.5421 4.984 78.5421C4.99215 78.5497 5.00148 78.5559 5.01162 78.5605C5.02044 78.5681 5.03037 78.5743 5.04107 78.5789C5.05708 78.5864 5.07371 78.5926 5.09077 78.5973L5.14599 78.6139H5.20305L5.28036 78.6231H5.34847C5.36868 78.6249 5.38901 78.6249 5.40922 78.6231C6.30383 78.601 7.1469 78.7648 7.50768 79.0317C7.86847 79.2986 7.93106 79.7109 7.00148 79.8343C6.8174 79.8582 6.73457 79.9263 6.8174 79.9852C6.97497 80.0689 7.15311 80.1059 7.33097 80.092V80.092ZM7.25366 82.3009C7.01068 81.9327 5.82707 81.6677 4.61217 81.7192C3.39727 81.7707 2.60942 82.115 2.8524 82.4886C3.09538 82.8623 4.279 83.1237 5.4939 83.0703C6.7088 83.0169 7.504 82.6727 7.26102 82.299L7.25366 82.3009Z" fill="#DB7E27"/>
<path d="M1.10761 85.1578C-2.49475 85.3216 -10.248 85.2682 -12.1458 84.1583C-14.2498 82.9323 -11.242 81.7358 -9.35341 81.1505C-10.2114 80.5518 -10.9547 79.8036 -11.5476 78.9416C-12.0144 78.2778 -12.2669 77.4871 -12.271 76.6756C-14.7984 76.278 -19.1646 75.3871 -18.7302 74.0617C-18.3381 72.8542 -11.0708 72.1621 -7.45375 72.0185C-5.47494 71.3024 -2.95494 70.833 -0.0262945 70.7097C9.05232 70.3231 18.6114 73.3825 21.3265 77.5426C24.0416 81.7027 18.8819 85.3897 9.80334 85.7763C6.89079 85.8933 3.97428 85.6858 1.10761 85.1578V85.1578ZM2.17709 74.498C1.93226 74.1298 0.750504 73.8648 -0.464395 73.9163C-1.67929 73.9678 -2.46714 74.3121 -2.22416 74.6857C-1.98118 75.0594 -0.797576 75.3208 0.417323 75.2674C1.63222 75.214 2.41454 74.8717 2.17709 74.498ZM7.11031 79.7405C8.26815 79.5895 8.41173 79.1882 8.20372 78.8735C8.14438 78.7864 8.07024 78.7104 7.98467 78.6489C7.67358 78.417 7.06429 78.2402 6.36112 78.1482C6.91335 78.0046 7.26126 77.7801 7.2631 77.5408C7.25907 77.4581 7.23162 77.3783 7.18395 77.3107C6.97778 76.9922 6.33535 76.6277 5.04866 76.5744C4.83697 76.5744 4.65659 76.613 4.6437 76.6756C4.63082 76.7382 4.79096 76.7971 5.00081 76.8063C6.03716 76.8431 6.50102 77.2462 6.49918 77.5205C6.49734 77.7948 5.9083 78.0304 5.02657 78.0819C4.99567 78.0835 4.96492 78.0872 4.93454 78.093H4.91429C4.88372 78.0989 4.85359 78.1069 4.82409 78.1169H4.80936C4.7898 78.1248 4.77175 78.136 4.75599 78.15C4.75179 78.156 4.74953 78.163 4.74953 78.1703C4.74953 78.1775 4.75179 78.1846 4.75599 78.1905V78.1905C4.75599 78.1905 4.75599 78.1905 4.75599 78.1997C4.75599 78.2089 4.77439 78.2108 4.78359 78.2182C4.79287 78.2251 4.80273 78.2313 4.81305 78.2366C4.82902 78.2437 4.84567 78.2493 4.86275 78.2531C4.88044 78.2608 4.89897 78.2664 4.91797 78.2697L4.97319 78.2789L5.05235 78.2881H5.12045H5.1812C6.07397 78.2642 6.91887 78.428 7.27966 78.6968C7.64045 78.9655 7.69935 79.4054 6.77898 79.5232C6.5949 79.549 6.51207 79.6171 6.5949 79.676C6.75715 79.7458 6.93587 79.7682 7.11031 79.7405ZM7.033 81.9494C6.78818 81.5812 5.60642 81.3143 4.38968 81.3658C3.17294 81.4174 2.38693 81.7635 2.63175 82.1353C2.87657 82.5071 4.05834 82.7703 5.27324 82.7188C6.48814 82.6673 7.27598 82.323 7.033 81.9494Z" fill="#FFE83B"/>
<path d="M90.8921 86.2403C90.7857 100.996 89.2015 115.704 86.1632 130.144C84.8599 136.344 83.218 142.661 79.7555 147.815C78.675 149.426 77.3975 150.93 75.8145 151.9C72.8232 153.73 69.2301 153.415 65.9038 152.927C63.498 152.574 60.9154 152.055 59.2918 150.102C58.2168 148.813 57.7161 147.061 57.313 145.349C56.1478 140.388 55.5469 135.312 55.522 130.216L59.8864 129.793C54.9493 128.788 49.9532 128.099 44.9284 127.729C43.2717 127.606 41.4991 127.545 40.0154 128.307L45.1272 128.552C43.5417 133.381 41.4299 138.02 38.83 142.387C37.9317 143.891 36.934 145.402 35.5479 146.299C33.455 147.655 30.9202 147.355 28.5991 146.952C25.3925 146.4 21.9907 145.586 19.8058 142.928C18.6461 141.518 17.9356 139.696 17.4367 137.833C15.8408 131.865 16.2697 125.364 16.9765 119.057C18.6228 104.397 21.6879 89.9305 26.1288 75.8621L63.59 62.6786L90.8921 86.2403Z" fill="#FFD087"/>
<path d="M70.1505 154.994C72.3741 154.994 74.6309 154.606 76.6999 153.338C78.2848 152.368 79.7445 150.867 81.1656 148.752C84.7716 143.377 86.5038 136.798 87.8254 130.49C90.8855 115.939 92.4814 101.117 92.5893 86.2476C92.5911 86.0015 92.5393 85.758 92.4376 85.5339C92.3359 85.3098 92.1867 85.1105 92.0003 84.9498L64.7 61.3882C64.4737 61.1927 64.1998 61.0604 63.906 61.0048C63.6121 60.9492 63.3088 60.9722 63.0268 61.0716L25.5655 74.2587C25.317 74.3456 25.0922 74.4894 24.909 74.6786C24.7259 74.8678 24.5895 75.0972 24.5108 75.3485C20.0368 89.5219 16.9483 104.096 15.2886 118.866C14.5707 125.268 14.1344 132.047 15.7966 138.26C16.4501 140.706 17.3337 142.582 18.4933 143.994C21.0704 147.123 24.9102 148.022 28.3083 148.612C30.8853 149.063 33.8655 149.402 36.472 147.712C38.2023 146.591 39.3491 144.82 40.2879 143.247C42.8648 138.919 44.9739 134.329 46.5796 129.555C48.9984 129.77 51.419 130.063 53.8248 130.429C53.8673 135.581 54.4847 140.712 55.6656 145.726C56.0871 147.519 56.6504 149.564 57.9923 151.177C59.9969 153.588 63.0028 154.206 65.6627 154.597C67.1471 154.837 68.6469 154.97 70.1505 154.994V154.994ZM89.1857 87.0115C89.0312 101.391 87.4626 115.721 84.5029 129.794C83.0487 136.697 81.4472 142.242 78.3455 146.864C77.2043 148.565 76.0851 149.737 74.9273 150.446C72.3944 151.996 69.2025 151.688 66.1505 151.241C64.0189 150.928 61.8358 150.505 60.597 149.01C59.7263 147.966 59.2992 146.369 58.9642 144.96C57.9468 140.628 57.3714 136.205 57.2468 131.757L60.0503 131.484C60.4563 131.448 60.8357 131.266 61.1189 130.973C61.4021 130.679 61.5703 130.294 61.5927 129.887C61.615 129.48 61.49 129.078 61.2406 128.756C60.9912 128.433 60.634 128.211 60.2343 128.13C55.2266 127.112 50.1592 126.413 45.0628 126.037C43.1355 125.896 41.1015 125.839 39.2423 126.801C38.9105 126.973 38.6445 127.249 38.4857 127.587C38.3269 127.926 38.2841 128.307 38.364 128.672C38.4439 129.037 38.6421 129.365 38.9277 129.606C39.2133 129.847 39.5704 129.987 39.9437 130.004L42.7895 130.14C41.3456 134.093 39.535 137.903 37.3813 141.518C36.645 142.762 35.7523 144.152 34.6349 144.876C33.0574 145.897 30.9369 145.636 28.901 145.281C25.9742 144.771 22.9627 144.086 21.1256 141.851C20.2807 140.822 19.6125 139.364 19.0861 137.395C17.654 132.044 17.8859 126.273 18.6719 119.258C20.2772 104.988 23.2357 90.9028 27.5075 77.1929L63.2256 64.6132L89.1857 87.0115Z" fill="#7B413B"/>
<path d="M90.8463 84.1897C96.6907 79.9357 109.653 67.0707 117.613 73.1065C120.054 74.9583 121.178 78.2606 120.731 81.2887C119.759 87.8712 113.414 94.8219 108.03 98.2089C101.219 102.502 93.1859 104.375 85.5394 106.592" fill="#96E2CE"/>
<path d="M85.5412 108.412C85.7132 108.412 85.8843 108.387 86.0493 108.339C87.1188 108.029 88.1974 107.726 89.278 107.418C95.9857 105.528 102.923 103.575 109.004 99.746C114.944 96.0038 121.497 88.5524 122.531 81.5502C123.095 77.7269 121.596 73.8411 118.713 71.6542C110.909 65.7307 100.161 74.4043 93.0497 80.1438C91.7814 81.1691 90.6843 82.0527 89.775 82.7209C89.3844 83.0048 89.1226 83.4322 89.0472 83.9091C88.9718 84.386 89.0889 84.8733 89.3728 85.2639C89.6567 85.6544 90.0841 85.9162 90.561 85.9917C91.0379 86.0671 91.5252 85.95 91.9158 85.6661C92.8987 84.95 94.0271 84.0407 95.334 82.9841C101.184 78.2626 110.98 70.3602 116.514 74.5608C118.327 75.9377 119.299 78.5368 118.931 81.0274C118.067 86.881 112.173 93.458 107.065 96.6738C101.431 100.223 94.7505 102.104 88.2895 103.923C87.1997 104.23 86.1137 104.536 85.035 104.843C84.6154 104.966 84.2541 105.236 84.0172 105.604C83.7804 105.971 83.6837 106.412 83.7449 106.845C83.8061 107.278 84.0211 107.674 84.3506 107.962C84.6801 108.249 85.1021 108.409 85.5394 108.41L85.5412 108.412Z" fill="#7B413B"/>
<path d="M10.8287 27.4152C10.7882 19.1042 13.0781 5.06847 21.8549 2.46564C31.5464 -0.411465 42.9518 7.23504 46.637 12.3358C57.8082 10.1288 69.3084 10.1814 80.459 12.4904C84.1884 7.42279 92.9504 0.569658 100.313 2.89453C111.437 6.4067 108.803 21.9077 108.687 30.2169C115.016 37.7382 117.243 47.6783 114.681 57.2502C109.629 76.1456 91.6269 83.1331 73.9538 85.8961C55.0087 88.8597 27.4765 87.0005 12.7578 72.9961C0.351125 61.2005 -0.215824 40.3005 10.8287 27.4152Z" fill="white"/>
<path d="M58.0495 88.9351C63.4684 88.9407 68.8796 88.529 74.2353 87.7037C84.8638 86.047 93.289 83.2546 99.9948 79.1865C108.475 74.0324 114.009 66.8203 116.44 57.7269C119.102 47.7685 116.945 37.5504 110.52 29.5799C110.548 28.6099 110.601 27.5422 110.658 26.4249C111.096 17.7328 111.763 4.60088 100.862 1.15866C92.8748 -1.36133 84.0171 5.20833 79.7134 10.4821C69.0383 8.4202 58.0719 8.37088 47.3787 10.3367C42.994 5.15494 31.7065 -2.36454 21.3356 0.718722C12.3436 3.38782 9.09094 16.251 9.00258 26.7525C-2.33832 40.5582 -1.25779 62.1871 11.5005 74.3232C18.4199 80.9058 28.7833 85.5003 41.468 87.6116C46.9498 88.5041 52.4955 88.9468 58.0495 88.9351V88.9351ZM97.2245 4.26034C98.0857 4.25541 98.9425 4.38331 99.7647 4.63953C107.982 7.23316 107.45 17.777 107.021 26.2482C106.951 27.66 106.883 28.9946 106.866 30.1984V30.8758L107.284 31.3876C113.272 38.5095 115.325 47.7703 112.913 56.79C108.941 71.6615 96.1072 80.5965 73.6739 84.105C53.7514 87.2195 27.5795 84.5873 14.0131 71.6854C2.45133 60.6869 1.62483 40.9558 12.2092 28.6007L12.6491 28.0852V27.406C12.6381 25.0811 12.8203 19.0619 14.7586 13.3886C16.5018 8.28607 19.0642 5.19176 22.3702 4.21064C27.2574 2.76012 32.3102 4.40944 35.7046 6.05139C40.4077 8.32841 43.7376 11.4356 45.1606 13.4144L45.8471 14.3606L46.9958 14.1286C57.9245 11.9695 69.1749 12.0208 80.0834 14.2796L81.2302 14.5207L81.9241 13.5782C84.9724 9.42918 91.4813 4.25297 97.2245 4.25297V4.26034Z" fill="#7B413B"/>
<path d="M76.8198 52.2029C76.8198 52.2029 72.8696 52.041 72.1701 48.3245C72.1701 48.3245 71.0656 51.728 67.478 52.5048C67.478 52.5048 66.0054 59.8145 71.7025 59.5163C77.3997 59.2181 76.8198 52.2029 76.8198 52.2029Z" fill="#EF8FA0"/>
<path d="M76.7442 53.1674C77.1437 55.1683 76.3613 57.3864 74.8262 58.5976C74.0661 59.1911 73.1445 59.5412 72.1821 59.6019C71.2197 59.6627 70.2614 59.4313 69.4327 58.9381C68.8313 58.583 68.3346 58.0749 67.9933 57.4655C67.3398 56.2433 67.476 54.732 67.6343 53.333" fill="#EF8FA0"/>
<path d="M77.5393 52.9981C78.1964 56.6208 75.785 60.1771 72.3318 60.4569C71.4905 60.5341 70.6428 60.4118 69.8576 60.0999C69.0724 59.7881 68.3718 59.2955 67.8127 58.6622C66.5426 57.1803 66.6181 55.1334 66.8242 53.2669C66.9476 52.1624 68.5656 52.2784 68.4423 53.3957C68.2932 54.7395 68.0741 56.341 68.9816 57.4454C69.7602 58.4044 71.0359 58.8223 72.1956 58.7339C74.7045 58.5296 76.4293 55.9636 75.9489 53.3387C75.7482 52.2342 77.3405 51.8992 77.5393 53V52.9981Z" fill="#7D3D41"/>
<path d="M72.183 54.1208C72.3798 52.9016 72.3798 51.6586 72.183 50.4393Z" fill="#7D3D41"/>
<path d="M71.6254 53.8391C71.6751 53.5336 71.7137 53.2243 71.7395 52.9095L71.7174 53.182C71.7607 52.5962 71.7607 52.008 71.7174 51.4222L71.7376 51.6965C71.7119 51.3578 71.6732 51.0283 71.6217 50.7006C71.5388 50.1852 71.7284 49.5612 72.0322 49.4397C72.3359 49.3182 72.6525 49.6091 72.7409 50.1594C72.964 51.5619 72.964 52.9908 72.7409 54.3932C72.6562 54.9086 72.323 55.2786 72.0248 55.1074C71.7266 54.9362 71.5352 54.395 71.6254 53.8428V53.8391Z" fill="#7D3D41"/>
<path d="M77.8137 53.2832C80.1423 53.2832 82.8095 52.2782 83.4906 49.5667C83.5173 49.4598 83.5227 49.3486 83.5064 49.2396C83.4902 49.1305 83.4526 49.0257 83.3959 48.9312C83.3391 48.8367 83.2643 48.7543 83.1757 48.6886C83.0871 48.623 82.9865 48.5755 82.8795 48.5488C82.7725 48.5221 82.6613 48.5167 82.5523 48.533C82.4432 48.5492 82.3385 48.5868 82.2439 48.6435C82.1494 48.7003 82.067 48.7751 82.0014 48.8637C81.9358 48.9523 81.8883 49.053 81.8615 49.1599C81.2909 51.4406 78.4212 51.8861 76.5657 51.4738C74.6366 51.0467 73.2781 49.3643 73.1861 47.2879C73.1733 47.0675 73.0742 46.8611 72.9103 46.7133C72.7464 46.5654 72.5308 46.4881 72.3103 46.498C72.0899 46.508 71.8821 46.6043 71.7322 46.7663C71.5822 46.9282 71.5021 47.1428 71.5091 47.3634C71.6343 50.1632 73.5634 52.5175 76.2031 53.1139C76.7323 53.2279 77.2723 53.2846 77.8137 53.2832V53.2832Z" fill="#7D3D42"/>
<path d="M66.9034 53.2338C67.4204 53.2353 67.9361 53.1828 68.4422 53.0773C71.0856 52.5159 73.0441 50.1689 73.1859 47.371C73.1963 47.2585 73.1839 47.1451 73.1495 47.0375C73.115 46.9299 73.0592 46.8304 72.9854 46.7449C72.9116 46.6594 72.8212 46.5897 72.7198 46.5399C72.6184 46.4902 72.508 46.4614 72.3952 46.4553C72.2824 46.4492 72.1695 46.466 72.0634 46.5046C71.9572 46.5432 71.8599 46.6028 71.7773 46.6799C71.6948 46.7569 71.6286 46.8499 71.5828 46.9531C71.537 47.0564 71.5125 47.1678 71.5108 47.2808C71.4003 49.3553 70.0271 51.0249 68.0925 51.4354C66.2333 51.8311 63.3691 51.3581 62.8187 49.0718C62.7665 48.8553 62.6304 48.6684 62.4403 48.5523C62.2503 48.4361 62.0219 48.4002 61.8054 48.4524C61.5889 48.5047 61.402 48.6408 61.2858 48.8308C61.1696 49.0209 61.1337 49.2492 61.186 49.4658C61.8486 52.2122 64.5564 53.2338 66.9034 53.2338Z" fill="#7D3D42"/>
<path d="M38.5617 37.3904C40.0461 37.5479 41.4717 38.0571 42.7199 38.8759C43.8244 39.6232 45.3614 40.9173 45.5713 42.3144C45.8216 43.995 43.5464 44.8013 42.3278 45.324C40.7418 46.011 39.0699 46.4798 37.3578 46.7175C36.7117 46.8058 36.0693 46.5537 35.8852 45.8671C35.7324 45.302 36.0858 44.4755 36.7356 44.3945C37.9979 44.2266 39.2391 43.9274 40.4392 43.5017C40.9988 43.3029 41.5453 43.0693 42.0757 42.8022C42.5248 42.5776 43.1488 42.3494 43.4783 41.9628L43.1654 42.4948C43.2261 42.7783 43.193 42.7912 43.0697 42.5353C43.0071 42.4396 42.9408 42.3512 42.8727 42.2537C42.7368 42.0822 42.5918 41.9181 42.4383 41.7622C42.1013 41.4125 41.7245 41.1036 41.3154 40.8418C40.4819 40.3 39.5391 39.9487 38.5543 39.8128C37.9082 39.7318 37.3504 39.3103 37.3523 38.6016C37.3523 38.0107 37.9045 37.3131 38.5653 37.3996L38.5617 37.3904Z" fill="#7D3D41"/>
<path d="M19.5756 45.9885C19.7924 45.9877 20.0012 45.9061 20.161 45.7596C20.3208 45.6131 20.4202 45.4123 20.4398 45.1964C20.4594 44.9804 20.3977 44.765 20.2668 44.5921C20.1359 44.4193 19.9452 44.3015 19.7321 44.2618L13.6355 43.1445C13.5216 43.1201 13.404 43.1187 13.2895 43.1406C13.1751 43.1625 13.0662 43.2071 12.9694 43.2718C12.8725 43.3365 12.7896 43.4199 12.7256 43.5173C12.6615 43.6146 12.6177 43.7238 12.5966 43.8383C12.5755 43.9529 12.5777 44.0706 12.6029 44.1843C12.6281 44.298 12.6759 44.4055 12.7434 44.5005C12.811 44.5954 12.8969 44.6758 12.996 44.737C13.0952 44.7981 13.2056 44.8387 13.3207 44.8564L19.4192 45.9737C19.4708 45.9832 19.5232 45.9881 19.5756 45.9885V45.9885Z" fill="#7D3D42"/>
<path d="M13.6469 52.3023C13.7364 52.3026 13.8253 52.2883 13.9102 52.26L19.819 50.3843C20.0262 50.3046 20.1952 50.1489 20.2915 49.9488C20.3877 49.7487 20.4038 49.5194 20.3366 49.3078C20.2693 49.0962 20.1238 48.9183 19.9297 48.8104C19.7357 48.7026 19.5077 48.6729 19.2925 48.7276L13.3837 50.6051C13.1854 50.6678 13.0161 50.7994 12.9064 50.9761C12.7967 51.1528 12.7539 51.363 12.7857 51.5685C12.8175 51.774 12.9219 51.9614 13.0798 52.0966C13.2378 52.2319 13.439 52.3062 13.6469 52.306V52.3023Z" fill="#7D3D42"/>
<path d="M107.708 46.3896C107.758 46.3899 107.808 46.3856 107.857 46.3767L113.964 45.3146C114.077 45.2951 114.185 45.2535 114.281 45.1923C114.377 45.1312 114.461 45.0516 114.527 44.9582C114.592 44.8648 114.639 44.7594 114.664 44.6479C114.689 44.5365 114.692 44.4212 114.672 44.3087C114.653 44.1961 114.611 44.0886 114.55 43.9921C114.489 43.8956 114.409 43.8122 114.316 43.7464C114.222 43.6807 114.117 43.634 114.005 43.6091C113.894 43.5841 113.779 43.5813 113.666 43.6009L107.559 44.6612C107.344 44.6985 107.151 44.815 107.018 44.9877C106.885 45.1604 106.822 45.3767 106.84 45.5938C106.859 45.8109 106.959 46.0131 107.119 46.1605C107.28 46.3078 107.49 46.3896 107.708 46.3896V46.3896Z" fill="#7D3D42"/>
<path d="M113.578 52.7587C113.785 52.7597 113.987 52.6864 114.145 52.552C114.304 52.4176 114.409 52.231 114.442 52.0258C114.475 51.8207 114.433 51.6106 114.325 51.4334C114.216 51.2562 114.048 51.1236 113.85 51.0596L107.96 49.1287C107.851 49.093 107.736 49.0792 107.622 49.0878C107.508 49.0965 107.397 49.1276 107.294 49.1793C107.192 49.231 107.101 49.3023 107.027 49.3892C106.952 49.476 106.896 49.5767 106.86 49.6855C106.824 49.7943 106.81 49.909 106.819 50.0232C106.828 50.1373 106.859 50.2486 106.91 50.3508C106.962 50.4529 107.034 50.5438 107.12 50.6184C107.207 50.693 107.308 50.7497 107.417 50.7854L113.307 52.7163C113.395 52.7445 113.486 52.7588 113.578 52.7587V52.7587Z" fill="#7D3D42"/>
<path d="M23.8481 81.6769C21.2527 77.5499 18.4971 73.6125 15.6457 69.6586C11.6568 64.1253 2.49906 56.9077 -3.08027 64.7714C-8.40374 72.2761 -3.12445 82.3911 1.75355 88.6386C7.41204 95.8857 14.6112 102.076 22.0773 107.398" fill="#96E2CE"/>
<path d="M22.0757 109.218C22.4617 109.219 22.8379 109.097 23.15 108.87C23.462 108.643 23.6937 108.323 23.8116 107.955C23.9294 107.588 23.9273 107.192 23.8055 106.826C23.6838 106.46 23.4486 106.142 23.1342 105.918C14.6667 99.8766 8.13754 93.8573 3.18774 87.5196C-6.3529 75.3006 -3.33774 68.2763 -1.59823 65.8244C-0.309696 64.015 1.18501 63.1314 2.98711 63.1259H3.00919C6.73857 63.1259 11.4435 66.9436 14.1697 70.7227C16.6418 74.152 19.5429 78.2495 22.3058 82.6452C22.5626 83.0536 22.9711 83.3433 23.4415 83.4505C23.9118 83.5576 24.4055 83.4736 24.8139 83.2168C25.2222 82.96 25.5119 82.5515 25.6191 82.0812C25.7263 81.6108 25.6422 81.1172 25.3854 80.7088C22.5691 76.2265 19.6257 72.0701 17.1204 68.5948C13.8476 64.0573 8.21854 59.4867 3.00919 59.4867H2.97422C-0.00228364 59.4977 -2.61064 60.9593 -4.57288 63.7204C-7.29904 67.5621 -7.86048 72.2634 -6.24245 77.6973C-4.78273 82.6011 -1.87434 86.9637 0.310638 89.7598C5.47764 96.3865 12.2498 102.634 21.0118 108.882C21.3223 109.103 21.6945 109.221 22.0757 109.218V109.218Z" fill="#7B413B"/>
<path d="M30.5894 53.7049C27.7073 53.6918 25.3765 52.4417 25.3835 50.9128C25.3904 49.3838 27.7324 48.1549 30.6145 48.168C33.4966 48.181 35.8274 49.4311 35.8204 50.9601C35.8135 52.4891 33.4715 53.718 30.5894 53.7049Z" fill="#F397B7"/>
<path d="M101.407 54.0283C98.5247 54.0152 96.1939 52.7651 96.2008 51.2361C96.2078 49.7071 98.5498 48.4783 101.432 48.4913C104.314 48.5044 106.645 49.7545 106.638 51.2835C106.631 52.8125 104.289 54.0413 101.407 54.0283Z" fill="#F397B7"/>
<path d="M92.7607 47.4279C89.9335 47.4279 87.6416 45.1359 87.6416 42.3087C87.6416 39.4815 89.9335 37.1896 92.7607 37.1896C95.588 37.1896 97.8799 39.4815 97.8799 42.3087C97.8799 45.1359 95.588 47.4279 92.7607 47.4279Z" fill="#7D3D42"/>
<path d="M46.6906 107.537L61.4351 109.573C64.4584 109.99 66.5709 112.779 66.1536 115.801C65.7363 118.824 62.9472 120.936 59.924 120.519L45.1795 118.483C42.1563 118.066 40.0437 115.277 40.461 112.255C40.8783 109.232 43.6674 107.12 46.6906 107.537Z" fill="white"/>
<path d="M19.112 89.5203C19.7048 92.4655 20.8516 95.3537 23.0641 97.2902C26.3959 100.195 29.3927 98.6118 33.2362 98.9468C36.2495 99.2009 37.9872 101.68 39.7874 103.981C42.8836 107.937 48.2015 109.32 52.0358 105.973C54.5797 103.753 56.3561 101.555 59.0933 101.892C61.8176 101.579 63.5902 103.792 66.1139 106.03C69.9169 109.413 75.2551 108.083 78.3844 104.152C80.2049 101.868 81.9647 99.4052 84.9817 99.1825C88.827 98.8879 91.809 100.499 95.1666 97.6233C97.3976 95.7053 98.5701 92.8374 99.1813 89.8922C99.8826 86.5788 99.196 82.5604 97.9829 78.5568C90.9623 82.4334 82.6918 84.6313 74.4875 85.9198C58.276 88.4508 35.7654 87.455 20.3914 78.3212C19.1562 82.2585 18.4512 86.2346 19.112 89.5203Z" fill="white"/>
<path d="M20.6198 89.1044C20.8087 90.0603 21.0659 91.0015 21.3892 91.9208C21.4629 92.1288 21.5402 92.3349 21.6249 92.5392C21.7261 92.7933 21.5475 92.3736 21.6598 92.6221C21.704 92.7233 21.75 92.8227 21.796 92.9221C22.0052 93.3642 22.2387 93.7944 22.4955 94.2107C22.9426 94.9553 23.5085 95.6218 24.1706 96.1839C24.4634 96.4413 24.7838 96.6654 25.126 96.8521C25.3051 96.9559 25.4894 97.0506 25.6782 97.1356C25.4499 97.0362 25.6782 97.1356 25.7224 97.1485C25.8604 97.1945 25.9985 97.2442 26.1384 97.2847C26.3225 97.3381 26.5065 97.3823 26.6906 97.4209C26.7826 97.4393 26.8747 97.4541 26.9686 97.4706C26.6685 97.4191 26.906 97.4706 26.9686 97.4706C27.3883 97.5092 27.8098 97.5258 28.2313 97.5203C29.0854 97.5056 29.934 97.4228 30.7863 97.3749C32.732 97.2626 34.6758 97.3565 36.4061 98.3523C37.9579 99.2451 39.1323 100.631 40.2202 102.021C40.7379 102.728 41.305 103.397 41.9173 104.024C42.0812 104.182 42.2505 104.335 42.4236 104.482C42.5009 104.547 42.5782 104.611 42.6573 104.666C42.8543 104.826 42.4917 104.548 42.696 104.696C43.0537 104.955 43.4268 105.193 43.8133 105.408C43.9974 105.513 44.2017 105.605 44.3968 105.701C44.4429 105.725 44.6711 105.818 44.4189 105.715C44.5054 105.752 44.603 105.785 44.684 105.818C45.0817 105.966 45.4896 106.084 45.9044 106.172C46.0038 106.192 46.5045 106.268 46.1769 106.229C46.3609 106.251 46.545 106.268 46.7291 106.277C47.1443 106.297 47.5605 106.283 47.9734 106.234C47.6476 106.273 48.1336 106.201 48.244 106.177C48.4281 106.137 48.6122 106.091 48.7871 106.038C48.9619 105.984 49.1552 105.92 49.3227 105.853C49.7479 105.697 49.1662 105.933 49.4129 105.813C49.5215 105.76 49.632 105.708 49.7387 105.651C49.913 105.558 50.0842 105.458 50.2523 105.353C50.337 105.299 50.4198 105.242 50.5026 105.185C50.4713 105.207 50.8708 104.911 50.7162 105.034C50.9499 104.85 51.4617 104.379 51.7912 104.079C53.3079 102.697 54.8542 101.134 56.8735 100.528C57.7847 100.254 58.7695 100.269 59.7101 100.293C60.728 100.331 61.7224 100.61 62.6111 101.108C64.4408 102.104 65.8104 103.753 67.3861 105.077C67.4118 105.097 67.6658 105.296 67.5333 105.196C67.4008 105.097 67.6566 105.281 67.6843 105.299C67.8683 105.426 68.0524 105.546 68.253 105.656C68.4537 105.767 68.5973 105.841 68.7721 105.925C68.8182 105.949 69.0483 106.039 68.7942 105.938C68.9268 105.991 69.0593 106.039 69.1937 106.084C69.5489 106.199 69.9118 106.288 70.2797 106.352C70.3497 106.365 70.5798 106.371 70.2797 106.352C70.3718 106.352 70.4638 106.371 70.5558 106.376C70.7853 106.393 71.0154 106.399 71.2461 106.393C71.4302 106.393 71.6143 106.374 71.7983 106.361C72.1039 106.338 71.8609 106.361 71.7983 106.361L72.0726 106.315C72.4887 106.239 72.8984 106.132 73.2986 105.995C73.3575 105.975 73.8729 105.776 73.5912 105.896C73.7753 105.82 73.9428 105.737 74.114 105.649C74.5075 105.451 74.887 105.226 75.2498 104.975L75.4927 104.802C75.8811 104.528 75.3731 104.905 75.5921 104.727C75.7486 104.6 75.9014 104.467 76.0523 104.333C76.3936 104.021 76.7158 103.688 77.0169 103.337C77.5838 102.673 78.1011 101.966 78.6644 101.298C79.8737 99.8673 81.2856 98.6119 83.073 97.9732C84.8235 97.3491 86.7821 97.57 88.5952 97.7099C89.3989 97.7893 90.2074 97.809 91.014 97.7688L91.3637 97.7375C91.2993 97.7375 91.0619 97.7909 91.3637 97.7375C91.5478 97.7026 91.7319 97.6657 91.916 97.6197C92.1 97.5737 92.2841 97.5074 92.4682 97.4485C92.748 97.3602 92.5805 97.4117 92.5142 97.4485C92.656 97.3878 92.7959 97.3179 92.9339 97.2461C94.5372 96.4048 95.5257 95.0997 96.3338 93.4928C96.7289 92.6985 97.0434 91.8666 97.2726 91.0096C97.3953 90.5543 97.5094 90.0947 97.6149 89.6308C97.6628 89.4136 97.7033 89.1946 97.7438 88.9755C97.7438 88.9516 97.7917 88.6737 97.7622 88.8872C97.7825 88.7454 97.7953 88.6037 97.8082 88.462C98.0107 86.3304 97.7622 84.3276 97.3259 82.2991C97.1051 81.1799 96.8069 80.0755 96.4755 78.971L98.7673 79.8914C93.5211 82.774 87.7908 84.7068 81.9704 86.0487C76.8146 87.2318 71.5748 88.0134 66.2982 88.3865C56.0231 89.1228 45.4976 88.5006 35.4839 85.9935C29.9506 84.6019 24.5204 82.5715 19.6 79.6595L21.8936 78.728C21.3272 80.5048 20.8965 82.3219 20.6051 84.1638C20.484 85.0231 20.4225 85.8897 20.421 86.7574C20.421 87.1716 20.4339 87.5858 20.467 87.9981C20.467 88.0607 20.5314 88.635 20.5057 88.438C20.5351 88.6626 20.5775 88.8835 20.6198 89.1044C20.7744 89.9033 20.3952 90.8273 19.5301 91.0261C18.757 91.201 17.7758 90.7924 17.6083 89.9346C16.8278 85.907 17.6875 81.7561 18.8821 77.8979C18.9487 77.6692 19.0662 77.4586 19.2257 77.2817C19.3852 77.1049 19.5826 76.9664 19.8032 76.8766C20.0238 76.7868 20.2619 76.7481 20.4995 76.7634C20.7372 76.7786 20.9684 76.8474 21.1757 76.9646C22.236 77.5917 23.319 78.1783 24.4246 78.7244C24.9364 78.9784 25.453 79.2238 25.9746 79.4607C26.6041 79.746 27.0164 79.9227 27.4766 80.1105C29.7972 81.0554 32.1717 81.8624 34.5875 82.5274C37.0265 83.2048 39.5023 83.7515 41.9947 84.1841C42.6168 84.2933 43.2396 84.3951 43.863 84.4896C44.1336 84.532 44.4061 84.5725 44.6766 84.6111L45.1663 84.6792L45.2418 84.6903L45.5676 84.7326C46.8193 84.8946 48.0741 85.0314 49.3319 85.1431C54.359 85.5847 59.4113 85.6659 64.45 85.3861C66.762 85.2633 69.0673 85.0609 71.3658 84.7786L72.2291 84.6682C72.2816 84.6643 72.3338 84.6575 72.3855 84.6479L72.669 84.6093C73.3243 84.5172 73.9778 84.4178 74.6294 84.3111C76.0628 84.0791 77.4912 83.8177 78.9147 83.5269C85.2929 82.2181 91.5331 80.3093 97.1916 77.1984C97.399 77.0815 97.6301 77.013 97.8677 76.998C98.1052 76.9829 98.3431 77.0217 98.5636 77.1114C98.7841 77.2011 98.9815 77.3395 99.1411 77.5161C99.3006 77.6928 99.4183 77.9032 99.4852 78.1316C100.803 82.5145 101.595 87.1035 100.372 91.5968C99.3121 95.501 96.8032 99.7384 92.5547 100.685C90.7692 101.084 88.991 100.843 87.1907 100.736C86.7508 100.71 86.309 100.694 85.8691 100.699C85.6261 100.699 85.3831 100.709 85.1328 100.725C85.026 100.725 84.9174 100.74 84.8106 100.749C85.1052 100.72 84.6376 100.786 84.6266 100.79C84.4326 100.832 84.2409 100.884 84.0523 100.946C83.9602 100.975 83.8682 101.009 83.778 101.044C84.0246 100.95 83.7982 101.044 83.7504 101.058C83.5663 101.158 83.3657 101.255 83.1816 101.368C83.0785 101.43 82.9773 101.496 82.8779 101.563C82.8502 101.583 82.5428 101.804 82.6846 101.697C82.8263 101.59 82.4821 101.866 82.5005 101.85L82.2796 102.043C82.1323 102.176 81.9906 102.314 81.8507 102.454C81.512 102.792 81.1936 103.149 80.8843 103.516C80.3026 104.202 79.7799 104.935 79.1835 105.614C77.8905 107.097 76.249 108.236 74.4067 108.927C72.6954 109.568 70.8347 109.696 69.0519 109.296C66.9608 108.824 65.4017 107.523 63.872 106.098C63.5039 105.75 63.1247 105.401 62.7418 105.06C62.5706 104.909 62.3994 104.76 62.2227 104.616C62.1859 104.585 61.9135 104.366 62.0884 104.5C61.9834 104.419 61.8748 104.342 61.7644 104.267C61.4146 104.013 61.0396 103.796 60.6452 103.619C60.8863 103.722 60.6544 103.619 60.6084 103.619C60.4906 103.586 60.3765 103.543 60.2586 103.514C60.1408 103.484 60.0746 103.468 59.9733 103.449C59.8721 103.431 59.8758 103.431 60.0212 103.449C59.9457 103.449 59.8721 103.437 59.7966 103.435C59.3585 103.414 58.9057 103.418 58.4676 103.425C58.3663 103.425 58.2669 103.435 58.1657 103.442C58.4363 103.424 58.2007 103.442 58.1418 103.442C57.9031 103.493 57.6677 103.558 57.4368 103.637C57.1459 103.737 57.341 103.68 57.4018 103.652C57.2895 103.705 57.1772 103.76 57.0686 103.821C56.8643 103.932 56.6692 104.053 56.4759 104.189C56.3894 104.248 56.3029 104.311 56.2163 104.373C56.1998 104.386 55.9844 104.545 56.1427 104.423C55.92 104.594 55.7065 104.778 55.4929 104.963C53.851 106.382 52.4078 107.957 50.3627 108.799C48.6378 109.473 46.7475 109.601 44.9472 109.167C43.1065 108.747 41.4001 107.759 39.9993 106.498C38.6445 105.279 37.7075 103.685 36.4485 102.374C36.143 102.053 35.8184 101.751 35.4765 101.469C35.6974 101.653 35.2575 101.316 35.2096 101.285C35.0095 101.151 34.8025 101.028 34.5893 100.917C34.5028 100.872 34.4163 100.832 34.3279 100.791C34.569 100.902 34.3482 100.791 34.2985 100.791C34.0868 100.72 33.8788 100.65 33.6597 100.598C33.5622 100.574 33.4628 100.556 33.3633 100.535C33.0817 100.482 33.7315 100.554 33.2382 100.521C32.9676 100.502 32.697 100.482 32.4264 100.477C30.7016 100.434 28.9824 100.758 27.2594 100.635C25.1284 100.492 23.1206 99.5844 21.6046 98.0799C20.0952 96.6073 19.0791 94.7316 18.3778 92.7675C18.0561 91.8477 17.799 90.9067 17.6083 89.9511C17.4463 89.1541 17.8403 88.2264 18.6999 88.0312C19.4804 87.838 20.4449 88.2503 20.6198 89.1044Z" fill="#7B413B"/>
<path d="M97.661 171.975C117.409 171.977 135.892 159.328 142.432 139.451C144.387 133.574 145.162 127.369 144.714 121.192C144.265 115.014 142.602 108.986 139.818 103.453C137.064 97.9329 133.244 93.0129 128.578 88.9777C123.912 84.9424 118.492 81.872 112.632 79.9436C106.772 78.0153 100.588 77.2674 94.4376 77.7432C88.2869 78.2189 82.2915 79.9088 76.7979 82.7153C71.2726 85.5147 66.3544 89.3774 62.3254 94.0818C58.2963 98.7862 55.2357 104.24 53.319 110.13C51.3633 116.007 50.5869 122.212 51.0345 128.39C51.4821 134.567 53.1449 140.596 55.9274 146.129C59.7984 153.886 65.7524 160.413 73.1225 164.977C80.4927 169.542 88.988 171.965 97.6573 171.975H97.661ZM98.0107 81.3071C104.855 81.3352 111.595 82.9858 117.678 86.1235C123.761 89.2613 129.013 93.7968 133.003 99.3577C136.993 104.919 139.608 111.346 140.633 118.114C141.658 124.881 141.063 131.795 138.898 138.288C131.398 161.069 106.9 173.544 84.275 166.102C78.877 164.337 73.8847 161.514 69.5895 157.799C65.2944 154.083 61.7826 149.549 59.2591 144.462C56.6938 139.364 55.1602 133.81 54.7464 128.118C54.3326 122.426 55.0467 116.708 56.8477 111.293V111.293C59.6877 102.605 65.1922 95.032 72.5798 89.6494C79.9675 84.2667 88.8629 81.3479 98.0034 81.3071H98.0107Z" fill="#7B413B"/>
<path d="M85.215 165.354C62.2798 157.818 49.7831 133.157 57.3029 110.272C64.8227 87.3865 89.5114 74.9439 112.447 82.4802C135.382 90.0165 147.879 114.678 140.359 137.563C132.839 160.448 108.15 172.891 85.215 165.354Z" fill="#FFFDEE"/>
<path d="M55.0746 111.957C47.5791 134.746 59.844 159.239 82.4724 166.685C105.101 174.131 129.518 161.698 137.014 138.919C144.51 116.14 132.245 91.6355 109.616 84.1896C86.9878 76.7438 62.5702 89.1762 55.0746 111.957Z" fill="#E68725"/>
<path d="M56.8697 110.849C49.5233 133.172 61.9115 157.306 84.54 164.75C107.168 172.194 131.465 160.134 138.809 137.811C146.154 115.488 133.767 91.3539 111.139 83.9099C88.5105 76.4659 64.2107 88.5265 56.8697 110.849Z" fill="url(#paint14_linear)"/>
<g style="mix-blend-mode:overlay" opacity="0.3">
<path d="M138.794 138.026C145.78 114.435 132.941 91.0575 111.122 83.9227C88.9357 76.6683 64.3818 88.4565 56.7316 111.024L138.794 138.026Z" fill="white"/>
</g>
<path d="M65.7068 113.64C59.949 131.127 69.659 150.05 87.3928 155.883C105.127 161.717 124.169 152.266 129.925 134.77C135.681 117.274 125.971 98.3617 108.238 92.5265C90.5037 86.6913 71.4629 96.1435 65.7068 113.64Z" fill="#D77D28"/>
<path d="M64.7186 115.203C59.0933 132.3 68.7112 150.825 86.2021 156.579C103.693 162.333 122.434 153.141 128.059 136.044C133.684 118.947 124.065 100.423 106.574 94.6672C89.0829 88.9112 70.3421 98.115 64.7186 115.203Z" fill="#FAF3CD"/>
<path d="M66.2356 114.104C60.7557 130.759 70.2761 148.853 87.4982 154.521C104.72 160.189 123.115 151.281 128.6 134.626C134.086 117.971 124.562 99.8746 107.338 94.2088C90.1139 88.5429 71.71 97.4485 66.2356 114.104Z" fill="#FBB325"/>
<path opacity="0.2" d="M128.269 134.991C128.27 135.001 128.27 135.012 128.269 135.022C122.857 151.475 104.569 160.24 87.4242 154.597C70.2794 148.953 60.759 131.046 66.1727 114.593L66.1837 114.562L128.269 134.991Z" fill="#F6932B"/>
<path d="M73.254 117.504C73.2153 113.323 74.5664 104.629 78.756 103.3C83.3855 101.828 87.1499 106.098 88.9225 108.655C94.2542 107.519 99.7655 107.519 105.097 108.655C106.87 106.098 110.634 101.831 115.264 103.3C119.453 104.629 120.804 113.323 120.766 117.504C122.991 120.265 124.263 123.442 124.263 126.833C124.263 137.343 112.063 145.862 97.0108 145.862C81.9589 145.862 69.7676 137.343 69.7676 126.833C69.7584 123.442 71.0212 120.259 73.254 117.504ZM110.621 126.534C111.28 126.509 111.904 126.23 112.361 125.755C112.818 125.28 113.074 124.646 113.074 123.987C113.074 123.327 112.818 122.694 112.361 122.219C111.904 121.744 111.28 121.464 110.621 121.439C109.272 121.439 108.177 122.581 108.177 123.987C108.177 125.393 109.263 126.534 110.612 126.534H110.621ZM97.528 127.015C97.5063 126.965 97.4804 126.917 97.4507 126.871L97.4323 126.853C97.3944 126.818 97.353 126.786 97.309 126.759C97.264 126.737 97.2153 126.724 97.1654 126.72H97.147C97.1129 126.723 97.079 126.729 97.0458 126.737C97.0214 126.741 96.9974 126.747 96.974 126.755C96.95 126.767 96.9272 126.781 96.9059 126.798C96.8822 126.813 96.8601 126.83 96.8396 126.849C96.8072 126.892 96.7783 126.938 96.7531 126.985C96.745 127.01 96.7389 127.035 96.7347 127.061C97 127.076 97.2662 127.061 97.528 127.015ZM83.6598 126.542C85.0091 126.542 86.1043 125.402 86.1043 123.994C86.1043 122.586 85.0091 121.447 83.6598 121.447C83.0009 121.472 82.3773 121.751 81.92 122.226C81.4627 122.701 81.2072 123.335 81.2072 123.994C81.2072 124.654 81.4627 125.287 81.92 125.762C82.3773 126.237 83.0009 126.517 83.6598 126.542V126.542Z" fill="#DB7E27"/>
<path d="M74.5187 117.504C74.4801 113.323 75.8312 104.629 80.0226 103.3C84.6503 101.828 88.4165 106.098 90.1891 108.655C95.5202 107.519 101.031 107.519 106.362 108.655C108.135 106.098 111.899 101.831 116.528 103.3C120.72 104.629 122.069 113.323 122.032 117.504C124.258 120.265 125.53 123.442 125.53 126.833C125.53 137.343 113.329 145.862 98.2866 145.862C83.2439 145.862 71.0213 137.343 71.0213 126.831C71.0213 123.442 72.297 120.259 74.5187 117.504ZM111.886 126.534C112.214 126.528 112.537 126.457 112.837 126.325C113.138 126.193 113.409 126.004 113.636 125.767C113.863 125.53 114.041 125.252 114.16 124.946C114.28 124.641 114.337 124.315 114.331 123.987C114.331 122.581 113.237 121.439 111.886 121.439C111.227 121.464 110.604 121.744 110.146 122.219C109.689 122.694 109.434 123.327 109.434 123.987C109.434 124.646 109.689 125.28 110.146 125.755C110.604 126.23 111.227 126.509 111.886 126.534V126.534ZM92.6925 128.246C93.0607 129.66 94.4339 130.115 95.5862 130.115C95.8613 130.116 96.1358 130.089 96.4053 130.034C96.8235 129.945 97.2181 129.769 97.5636 129.517C97.909 129.265 98.1974 128.943 98.4099 128.572C98.6225 128.943 98.9109 129.265 99.2563 129.517C99.6017 129.769 99.9964 129.945 100.415 130.034C100.684 130.089 100.959 130.116 101.234 130.115C102.386 130.115 103.768 129.66 104.127 128.246C104.157 128.137 104.143 128.02 104.087 127.921C104.032 127.822 103.94 127.748 103.831 127.716C103.777 127.703 103.722 127.7 103.667 127.708C103.612 127.716 103.56 127.735 103.512 127.763C103.465 127.792 103.424 127.83 103.391 127.874C103.359 127.919 103.336 127.97 103.323 128.024C103.034 129.163 101.545 129.388 100.578 129.185C100.096 129.088 99.6602 128.832 99.3407 128.458C99.0213 128.084 98.8368 127.613 98.8167 127.122C98.8151 127.083 98.8076 127.044 98.7946 127.008C98.7946 127.008 98.7946 126.993 98.7946 126.984C98.7772 126.941 98.7536 126.9 98.7247 126.864L98.7081 126.846C98.6761 126.811 98.6388 126.782 98.5977 126.759H98.5829C98.5381 126.737 98.4893 126.724 98.4394 126.72H98.421C98.41 126.719 98.3988 126.719 98.3878 126.72C98.3647 126.725 98.3419 126.731 98.3197 126.739C98.2959 126.743 98.2725 126.749 98.2498 126.757C98.2011 126.782 98.1559 126.814 98.1154 126.851C98.0998 126.869 98.0863 126.888 98.0749 126.908C98.0561 126.932 98.0406 126.959 98.0289 126.987C98.02 127.012 98.0138 127.037 98.0105 127.063C98.0032 127.085 97.9977 127.108 97.9939 127.131C97.9725 127.62 97.7883 128.088 97.4704 128.46C97.1525 128.832 96.7193 129.087 96.2397 129.185C95.2733 129.386 93.7841 129.161 93.4951 128.024C93.4824 127.97 93.4591 127.919 93.4266 127.874C93.394 127.83 93.3529 127.792 93.3056 127.763C93.2583 127.735 93.2058 127.716 93.1511 127.708C93.0964 127.7 93.0406 127.703 92.9871 127.716C92.8778 127.748 92.7854 127.821 92.7297 127.92C92.6739 128.02 92.6593 128.137 92.6888 128.246H92.6925ZM84.9337 126.534C85.4419 126.555 85.9447 126.423 86.3773 126.156C86.8099 125.888 87.1527 125.498 87.3615 125.034C87.5703 124.57 87.6356 124.054 87.5491 123.553C87.4625 123.052 87.228 122.588 86.8757 122.221C86.5234 121.854 86.0695 121.601 85.5722 121.494C85.0749 121.388 84.5571 121.432 84.0852 121.622C83.6134 121.812 83.2091 122.138 82.9243 122.56C82.6396 122.981 82.4874 123.478 82.4874 123.987C82.4741 124.648 82.7238 125.288 83.1818 125.766C83.6397 126.244 84.2685 126.52 84.9301 126.534H84.9337Z" fill="#FFE83B"/>
</g>
<defs>
<linearGradient id="paint0_linear" x1="41.6797" y1="134.116" x2="-37.9993" y2="134.116" gradientUnits="userSpaceOnUse">
<stop stop-color="#F28500"/>
<stop offset="1" stop-color="#FBA905"/>
</linearGradient>
<linearGradient id="paint1_linear" x1="-13.6186" y1="115.663" x2="36.0506" y2="137.329" gradientUnits="userSpaceOnUse">
<stop stop-color="#FBCF0A"/>
<stop offset="1" stop-color="#FBA505"/>
</linearGradient>
<linearGradient id="paint2_linear" x1="-26214.3" y1="5784.22" x2="-23137.3" y2="10325.9" gradientUnits="userSpaceOnUse">
<stop stop-color="#FBCF0A"/>
<stop offset="1" stop-color="#FBA505"/>
</linearGradient>
<linearGradient id="paint3_linear" x1="-44610.4" y1="17155" x2="-79100.3" y2="17155" gradientUnits="userSpaceOnUse">
<stop stop-color="#F28500"/>
<stop offset="1" stop-color="#FBA905"/>
</linearGradient>
<linearGradient id="paint4_linear" x1="-68547.3" y1="17035" x2="-57685.8" y2="29683.6" gradientUnits="userSpaceOnUse">
<stop stop-color="#FBCF0A"/>
<stop offset="1" stop-color="#FBA505"/>
</linearGradient>
<linearGradient id="paint5_linear" x1="-26214.3" y1="5226.69" x2="-23136.4" y2="9768.52" gradientUnits="userSpaceOnUse">
<stop stop-color="#FBCF0A"/>
<stop offset="1" stop-color="#FBA505"/>
</linearGradient>
<linearGradient id="paint6_linear" x1="-44610.4" y1="15593.3" x2="-79100.3" y2="15593.3" gradientUnits="userSpaceOnUse">
<stop stop-color="#F28500"/>
<stop offset="1" stop-color="#FBA905"/>
</linearGradient>
<linearGradient id="paint7_linear" x1="-68547.2" y1="15210" x2="-57684.2" y2="27858.9" gradientUnits="userSpaceOnUse">
<stop stop-color="#FBCF0A"/>
<stop offset="1" stop-color="#FBA505"/>
</linearGradient>
<linearGradient id="paint8_linear" x1="-26214.3" y1="4666.08" x2="-23138.4" y2="9207.21" gradientUnits="userSpaceOnUse">
<stop stop-color="#FBCF0A"/>
<stop offset="1" stop-color="#FBA505"/>
</linearGradient>
<linearGradient id="paint9_linear" x1="-44610.4" y1="14029.4" x2="-79100.3" y2="14029.4" gradientUnits="userSpaceOnUse">
<stop stop-color="#F28500"/>
<stop offset="1" stop-color="#FBA905"/>
</linearGradient>
<linearGradient id="paint10_linear" x1="-68548" y1="13382.4" x2="-57685.1" y2="26031.6" gradientUnits="userSpaceOnUse">
<stop stop-color="#FBCF0A"/>
<stop offset="1" stop-color="#FBA505"/>
</linearGradient>
<linearGradient id="paint11_linear" x1="-26215.1" y1="4108.52" x2="-23138.1" y2="8650.13" gradientUnits="userSpaceOnUse">
<stop stop-color="#FBCF0A"/>
<stop offset="1" stop-color="#FBA505"/>
</linearGradient>
<linearGradient id="paint12_linear" x1="-44610.4" y1="12466.1" x2="-79100.3" y2="12466.1" gradientUnits="userSpaceOnUse">
<stop stop-color="#F28500"/>
<stop offset="1" stop-color="#FBA905"/>
</linearGradient>
<linearGradient id="paint13_linear" x1="-68547.3" y1="11556.1" x2="-57684.2" y2="24205" gradientUnits="userSpaceOnUse">
<stop stop-color="#FBCF0A"/>
<stop offset="1" stop-color="#FBA505"/>
</linearGradient>
<linearGradient id="paint14_linear" x1="-1689.38" y1="57653.7" x2="-42030.1" y2="57653.7" gradientUnits="userSpaceOnUse">
<stop stop-color="#FBCF0A"/>
<stop offset="1" stop-color="#FBA505"/>
</linearGradient>
</defs>
</svg>
