<svg width="192" height="179" viewBox="0 0 192 179" fill="none" xmlns="http://www.w3.org/2000/svg">
<g opacity="0.3">
<path d="M191.974 121.977V132.581C191.974 136.375 188.141 140.169 180.464 143.073C172.67 146.019 162.404 147.502 152.134 147.502C142.01 147.502 131.886 146.068 124.116 143.189C116.24 140.268 112.295 136.43 112.295 132.581V121.977C112.295 125.822 116.24 129.667 124.116 132.587C131.884 135.464 142.01 136.9 152.134 136.9C162.404 136.9 172.67 135.427 180.464 132.471C188.141 129.562 191.974 125.767 191.974 121.977Z" fill="#D96D00"/>
<path d="M191.974 121.351V131.957C191.974 135.751 188.141 139.543 180.464 142.45C172.67 145.395 162.404 146.88 152.134 146.88C142.01 146.88 131.886 145.443 124.116 142.566C116.24 139.648 112.295 135.803 112.295 131.955V121.351C112.295 125.196 116.24 129.043 124.116 131.961C131.884 134.838 142.01 136.274 152.134 136.274C162.404 136.274 172.67 134.801 180.464 131.845C188.141 128.935 191.974 125.143 191.974 121.351Z" fill="url(#paint0_linear)"/>
<g style="mix-blend-mode:multiply">
<g style="mix-blend-mode:multiply">
<path d="M137.698 135.26L137.072 135.169V145.778L137.698 145.868V135.26Z" fill="#F5C491"/>
</g>
<g style="mix-blend-mode:multiply">
<path d="M134.748 134.777L134.123 134.663V145.27C134.331 145.31 134.54 145.347 134.748 145.385V134.777Z" fill="#F5C491"/>
</g>
<g style="mix-blend-mode:multiply">
<path d="M131.798 134.194L131.172 134.046V144.653L131.798 144.8V134.194Z" fill="#F5C491"/>
</g>
<g style="mix-blend-mode:multiply">
<path d="M146.548 136.126L145.922 136.088V146.696L146.548 146.735V136.126Z" fill="#F5C491"/>
</g>
<g style="mix-blend-mode:multiply">
<path d="M143.599 135.924C143.389 135.907 143.179 135.893 142.971 135.874V146.481L143.599 146.532V135.924Z" fill="#F5C491"/>
</g>
<g style="mix-blend-mode:multiply">
<path d="M149.497 136.239L148.871 136.22V146.829L149.497 146.845V136.239Z" fill="#F5C491"/>
</g>
<g style="mix-blend-mode:multiply">
<path d="M140.648 135.642L140.022 135.567V146.175L140.648 146.249V135.642Z" fill="#F5C491"/>
</g>
<g style="mix-blend-mode:multiply">
<path d="M125.272 142.974L125.898 143.186V132.577C125.688 132.509 125.48 132.438 125.272 132.368V142.974Z" fill="#F5C491"/>
</g>
<g style="mix-blend-mode:multiply">
<path d="M184.896 129.84C184.69 129.951 184.488 130.063 184.272 130.174V140.778C184.488 140.67 184.69 140.557 184.896 140.447V129.84Z" fill="#F5C491"/>
</g>
<g style="mix-blend-mode:multiply">
<path d="M190.172 136.403C190.4 136.126 190.61 135.85 190.798 135.571V124.957C190.614 125.235 190.4 125.509 190.172 125.789V136.403Z" fill="#F5C491"/>
</g>
<g style="mix-blend-mode:multiply">
<path d="M181.322 142.109C181.532 142.024 181.745 141.94 181.948 141.855V131.249C181.745 131.333 181.532 131.418 181.322 131.501V142.109Z" fill="#F5C491"/>
</g>
<g style="mix-blend-mode:multiply">
<path d="M128.847 133.457L128.223 133.273V143.88C128.431 143.938 128.637 143.999 128.847 144.064V133.457Z" fill="#F5C491"/>
</g>
<g style="mix-blend-mode:multiply">
<path d="M187.847 127.965C187.646 128.117 187.438 128.27 187.221 128.421V139.028C187.438 138.877 187.646 138.726 187.847 138.573V127.965Z" fill="#F5C491"/>
</g>
<g style="mix-blend-mode:multiply">
<path d="M173.097 134.039C172.889 134.089 172.683 134.14 172.471 134.186V144.795C172.683 144.747 172.889 144.695 173.097 144.647V134.039Z" fill="#F5C491"/>
</g>
<g style="mix-blend-mode:multiply">
<path d="M116.422 138.573C116.624 138.726 116.829 138.878 117.048 139.031V128.425C116.829 128.272 116.624 128.117 116.422 127.965V138.573Z" fill="#F5C491"/>
</g>
<g style="mix-blend-mode:multiply">
<path d="M176.048 133.286C175.842 133.345 175.632 133.402 175.422 133.459V144.066C175.632 144.009 175.842 143.953 176.048 143.894V133.286Z" fill="#F5C491"/>
</g>
<g style="mix-blend-mode:multiply">
<path d="M178.998 132.371C178.792 132.443 178.579 132.508 178.371 132.576V143.184C178.579 143.114 178.792 143.05 178.998 142.98V132.371Z" fill="#F5C491"/>
</g>
<g style="mix-blend-mode:multiply">
<path d="M119.998 130.174C119.783 130.063 119.579 129.951 119.373 129.84V140.452C119.579 140.563 119.783 140.675 119.998 140.784V130.174Z" fill="#F5C491"/>
</g>
<g style="mix-blend-mode:multiply">
<path d="M113.473 135.565C113.667 135.854 113.876 136.132 114.099 136.397V125.789C113.876 125.524 113.667 125.247 113.473 124.959V135.565Z" fill="#F5C491"/>
</g>
<g style="mix-blend-mode:multiply">
<path d="M152.448 146.879V136.272H151.822V146.879H152.135H152.448Z" fill="#F5C491"/>
</g>
<g style="mix-blend-mode:multiply">
<path d="M122.948 131.504C122.736 131.42 122.53 131.331 122.324 131.245V141.853L122.948 142.113V131.504Z" fill="#F5C491"/>
</g>
<g style="mix-blend-mode:multiply">
<path d="M158.347 136.088C158.139 136.102 157.931 136.115 157.721 136.124V146.733L158.347 146.696V136.088Z" fill="#F5C491"/>
</g>
<g style="mix-blend-mode:multiply">
<path d="M155.398 136.219L154.772 136.237V146.843L155.398 146.825V136.219Z" fill="#F5C491"/>
</g>
<g style="mix-blend-mode:multiply">
<path d="M170.148 134.661L169.522 134.779V145.386L170.148 145.27V134.661Z" fill="#F5C491"/>
</g>
<g style="mix-blend-mode:multiply">
<path d="M161.298 135.872L160.672 135.924V146.527L161.298 146.475V135.872Z" fill="#F5C491"/>
</g>
<g style="mix-blend-mode:multiply">
<path d="M164.248 135.567C164.039 135.593 163.832 135.62 163.623 135.644V146.251L164.248 146.175V135.567Z" fill="#F5C491"/>
</g>
<g style="mix-blend-mode:multiply">
<path d="M167.198 135.169C166.991 135.203 166.782 135.23 166.572 135.26V145.866C166.782 145.837 166.991 145.809 167.198 145.778V135.169Z" fill="#F5C491"/>
</g>
</g>
<path d="M180.145 111.794C172.379 108.917 162.255 107.481 152.133 107.481C141.863 107.481 131.595 108.953 123.803 111.911C108.341 117.771 108.474 127.221 124.113 133.018C131.884 135.895 142.01 137.323 152.135 137.323C162.404 137.323 172.67 135.85 180.464 132.894C195.935 127.039 195.792 117.588 180.145 111.794Z" fill="url(#paint1_linear)"/>
<g style="mix-blend-mode:overlay" opacity="0.3">
<path d="M180.145 111.794C177.614 110.871 175.022 110.122 172.388 109.552L114.206 117.835C109.873 122.897 112.941 128.648 123.369 132.723L191.943 122.965C192.34 118.928 188.407 114.851 180.145 111.794Z" fill="white"/>
</g>
<g style="mix-blend-mode:overlay" opacity="0.6">
<path d="M124.116 133.785C131.884 136.662 142.01 138.098 152.134 138.098C162.404 138.098 172.67 136.626 180.464 133.669C188.195 130.741 192.029 126.914 191.974 123.094C191.974 122.995 191.957 122.892 191.95 122.79C191.703 126.455 187.887 130.095 180.464 132.915C172.67 135.851 162.404 137.323 152.134 137.323C142.01 137.323 131.886 135.887 124.116 133.01C116.495 130.185 112.565 126.494 112.319 122.774C112.037 126.757 115.971 130.768 124.116 133.785Z" fill="white"/>
</g>
<path d="M172.966 114.516C167.19 112.377 159.663 111.31 152.136 111.31C144.501 111.31 136.858 112.414 131.076 114.603C119.575 118.962 119.676 125.988 131.312 130.295C137.086 132.434 144.611 133.502 152.136 133.502C159.771 133.502 167.405 132.397 173.196 130.205C184.699 125.85 184.592 118.825 172.966 114.516Z" fill="#F28500"/>
<g style="mix-blend-mode:overlay" opacity="0.6">
<path d="M131.073 117.274C136.864 115.08 144.497 113.979 152.133 113.979C159.66 113.979 167.186 115.048 172.963 117.187C177.833 118.991 180.675 121.274 181.496 123.63C182.66 120.316 179.812 116.828 172.963 114.288C167.186 112.149 159.66 111.081 152.133 111.081C144.497 111.081 136.854 112.186 131.073 114.376C124.389 116.907 121.631 120.342 122.771 123.621C123.584 121.309 126.347 119.065 131.073 117.274Z" fill="white"/>
</g>
<path d="M131.073 117.495C136.864 115.3 144.497 114.201 152.133 114.201C159.66 114.201 167.186 115.269 172.963 117.41C177.833 119.214 180.675 121.496 181.496 123.853C182.66 120.53 179.812 117.042 172.963 114.511C167.186 112.372 159.66 111.304 152.133 111.304C144.497 111.304 136.854 112.409 131.073 114.597C124.389 117.13 121.631 120.565 122.771 123.84C123.584 121.528 126.347 119.284 131.073 117.495Z" fill="#D96D00"/>
<path d="M166.305 123.845V121.861L155.166 118.468C155.033 118.418 154.892 118.393 154.75 118.395C154.61 118.395 154.471 118.421 154.34 118.47L135.86 123.472V125.559C135.86 125.612 135.927 125.666 136.044 125.712L140.409 127.328C140.675 127.424 140.966 127.424 141.232 127.328L147.38 124.999C147.469 124.967 147.567 124.967 147.656 124.999L150.585 126.084C151.981 126.595 153.433 126.94 154.91 127.113C155.784 127.222 156.663 127.276 157.543 127.276C158.189 127.276 158.831 127.247 159.466 127.186C160.863 127.07 162.237 126.764 163.551 126.279C164.784 125.809 165.612 125.294 166.025 124.731C166.227 124.482 166.327 124.165 166.305 123.845V123.845ZM158.281 124.41C157.686 124.624 157.058 124.727 156.427 124.716H156.243C155.501 124.701 154.766 124.563 154.069 124.309L151.748 123.449C151.66 123.416 151.66 123.379 151.748 123.346L155.409 121.96C155.453 121.944 155.499 121.935 155.545 121.934C155.593 121.935 155.64 121.944 155.685 121.96L157.999 122.82C158.682 123.07 159.047 123.343 159.104 123.637C159.161 123.932 158.877 124.182 158.281 124.41V124.41Z" fill="#D96D00"/>
<path d="M165.933 120.94C165.454 120.375 164.565 119.851 163.258 119.365L155.17 116.37C155.037 116.32 154.896 116.296 154.754 116.298C154.614 116.297 154.474 116.322 154.343 116.372L136.044 123.302C135.921 123.35 135.86 123.4 135.86 123.457C135.86 123.514 135.927 123.563 136.044 123.609L140.409 125.226C140.675 125.321 140.966 125.321 141.232 125.226L147.38 122.895C147.469 122.863 147.567 122.863 147.656 122.895L150.585 123.981C151.982 124.491 153.433 124.837 154.91 125.01C155.784 125.118 156.663 125.172 157.543 125.172C158.189 125.172 158.831 125.143 159.466 125.084C160.861 124.967 162.235 124.663 163.549 124.18C164.782 123.711 165.611 123.193 166.023 122.632C166.435 122.071 166.406 121.504 165.933 120.94ZM158.281 122.308C157.686 122.52 157.058 122.624 156.427 122.614H156.243C155.501 122.599 154.766 122.461 154.069 122.207L151.748 121.345C151.66 121.312 151.66 121.279 151.748 121.244L155.409 119.858C155.452 119.84 155.499 119.831 155.545 119.83C155.593 119.831 155.641 119.84 155.685 119.858L157.999 120.716C158.682 120.968 159.047 121.24 159.104 121.533C159.161 121.826 158.877 122.08 158.281 122.308V122.308Z" fill="url(#paint2_linear)"/>
<g style="mix-blend-mode:overlay" opacity="0.6">
<g style="mix-blend-mode:overlay" opacity="0.6">
<path d="M158.003 120.539L155.689 119.679C155.644 119.663 155.597 119.654 155.549 119.654C155.503 119.654 155.457 119.663 155.413 119.679L151.752 121.065C151.663 121.099 151.663 121.134 151.752 121.167L151.851 121.203L155.413 119.856C155.456 119.838 155.503 119.829 155.549 119.828C155.597 119.829 155.645 119.838 155.689 119.856L158.003 120.714C158.658 120.955 159.014 121.216 159.087 121.498C159.101 121.452 159.106 121.403 159.102 121.354C159.05 121.062 158.686 120.789 158.003 120.539Z" fill="white"/>
</g>
<g style="mix-blend-mode:overlay" opacity="0.6">
<path d="M166.025 122.457C165.612 123.009 164.784 123.536 163.551 124.005C162.236 124.488 160.863 124.792 159.468 124.909C158.833 124.968 158.191 124.997 157.544 124.997C156.665 124.996 155.785 124.942 154.912 124.834C153.435 124.662 151.983 124.316 150.586 123.805L147.658 122.72C147.569 122.686 147.47 122.686 147.382 122.72L141.237 125.049C140.971 125.145 140.68 125.145 140.414 125.049L136.05 123.433C136.004 123.418 135.961 123.396 135.923 123.366C135.884 123.396 135.86 123.425 135.86 123.457C135.86 123.488 135.927 123.563 136.044 123.609L140.409 125.226C140.675 125.321 140.966 125.321 141.232 125.226L147.38 122.895C147.469 122.863 147.567 122.863 147.656 122.895L150.585 123.981C151.982 124.491 153.433 124.837 154.91 125.01C155.784 125.118 156.663 125.172 157.543 125.172C158.189 125.172 158.831 125.143 159.466 125.084C160.861 124.967 162.235 124.663 163.549 124.18C164.782 123.711 165.611 123.193 166.023 122.632C166.225 122.383 166.326 122.067 166.305 121.747C166.281 122.005 166.184 122.252 166.025 122.457V122.457Z" fill="white"/>
</g>
</g>
<path d="M191.974 110.779V121.386C191.974 125.18 188.141 128.972 180.464 131.878C172.67 134.823 162.404 136.309 152.134 136.309C142.01 136.309 131.886 134.873 124.116 131.994C116.24 129.077 112.295 125.231 112.295 121.384V110.778C112.295 114.627 116.24 118.472 124.116 121.39C131.884 124.268 142.01 125.702 152.134 125.702C162.404 125.702 172.67 124.23 180.464 121.274C188.141 118.363 191.974 114.571 191.974 110.779Z" fill="#D96D00"/>
<path d="M191.974 110.154V120.756C191.974 124.548 188.141 128.34 180.464 131.249C172.67 134.194 162.404 135.679 152.134 135.679C142.01 135.679 131.886 134.244 124.116 131.366C116.24 128.453 112.295 124.607 112.295 120.756V110.154C112.295 114.001 116.24 117.846 124.116 120.764C131.884 123.641 142.01 125.077 152.134 125.077C162.404 125.077 172.67 123.604 180.464 120.648C188.141 117.739 191.974 113.946 191.974 110.154Z" fill="url(#paint3_linear)"/>
<g style="mix-blend-mode:multiply">
<g style="mix-blend-mode:multiply">
<path d="M137.698 124.07C137.49 124.038 137.28 124.011 137.072 123.978V134.58C137.28 134.613 137.49 134.641 137.698 134.672V124.07Z" fill="#F5C491"/>
</g>
<g style="mix-blend-mode:multiply">
<path d="M134.748 123.582C134.54 123.545 134.331 123.506 134.123 123.466V134.072L134.748 134.19V123.582Z" fill="#F5C491"/>
</g>
<g style="mix-blend-mode:multiply">
<path d="M131.798 122.989C131.588 122.941 131.382 122.894 131.172 122.842V133.458L131.798 133.603V122.989Z" fill="#F5C491"/>
</g>
<g style="mix-blend-mode:multiply">
<path d="M146.548 124.929L145.922 124.893V135.499L146.548 135.538V124.929Z" fill="#F5C491"/>
</g>
<g style="mix-blend-mode:multiply">
<path d="M143.599 124.729C143.389 124.712 143.179 124.697 142.971 124.679V135.285C143.179 135.304 143.389 135.32 143.599 135.335V124.729Z" fill="#F5C491"/>
</g>
<g style="mix-blend-mode:multiply">
<path d="M149.497 125.042L148.871 125.025V135.631L149.497 135.648V125.042Z" fill="#F5C491"/>
</g>
<g style="mix-blend-mode:multiply">
<path d="M140.648 124.438L140.022 124.362V134.971L140.648 135.044V124.438Z" fill="#F5C491"/>
</g>
<g style="mix-blend-mode:multiply">
<path d="M125.272 131.777C125.48 131.851 125.688 131.921 125.898 131.989V121.382C125.688 121.314 125.48 121.242 125.272 121.171V131.777Z" fill="#F5C491"/>
</g>
<g style="mix-blend-mode:multiply">
<path d="M184.896 118.641C184.69 118.755 184.488 118.866 184.272 118.974V129.592C184.488 129.483 184.69 129.371 184.896 129.259V118.641Z" fill="#F5C491"/>
</g>
<g style="mix-blend-mode:multiply">
<path d="M190.172 125.2C190.395 124.932 190.604 124.653 190.798 124.364V113.761C190.604 114.049 190.395 114.327 190.172 114.594V125.2Z" fill="#F5C491"/>
</g>
<g style="mix-blend-mode:multiply">
<path d="M181.322 130.914C181.532 130.831 181.745 130.746 181.948 130.66V120.053C181.745 120.14 181.532 120.223 181.322 120.305V130.914Z" fill="#F5C491"/>
</g>
<g style="mix-blend-mode:multiply">
<path d="M128.847 122.264C128.637 122.207 128.431 122.146 128.223 122.08V132.688L128.847 132.872V122.264Z" fill="#F5C491"/>
</g>
<g style="mix-blend-mode:multiply">
<path d="M187.847 116.769C187.646 116.922 187.438 117.073 187.221 117.224V127.832C187.438 127.679 187.646 127.529 187.847 127.376V116.769Z" fill="#F5C491"/>
</g>
<g style="mix-blend-mode:multiply">
<path d="M173.097 122.844C172.889 122.893 172.683 122.945 172.471 122.991V133.597C172.683 133.551 172.889 133.5 173.097 133.45V122.844Z" fill="#F5C491"/>
</g>
<g style="mix-blend-mode:multiply">
<path d="M116.422 127.383C116.624 127.536 116.829 127.69 117.048 127.841V117.226C116.829 117.077 116.624 116.922 116.422 116.769V127.383Z" fill="#F5C491"/>
</g>
<g style="mix-blend-mode:multiply">
<path d="M176.048 122.091L175.422 122.262V132.868C175.632 132.811 175.842 132.756 176.048 132.697V122.091Z" fill="#F5C491"/>
</g>
<g style="mix-blend-mode:multiply">
<path d="M178.998 121.176C178.792 121.246 178.579 121.312 178.371 121.38V131.985C178.579 131.917 178.792 131.851 178.998 131.781V121.176Z" fill="#F5C491"/>
</g>
<g style="mix-blend-mode:multiply">
<path d="M119.998 118.974C119.783 118.866 119.579 118.755 119.373 118.641V129.25C119.579 129.362 119.783 129.474 119.998 129.583V118.974Z" fill="#F5C491"/>
</g>
<g style="mix-blend-mode:multiply">
<path d="M113.473 124.37C113.667 124.658 113.876 124.935 114.099 125.2V114.594C113.876 114.328 113.667 114.051 113.473 113.764V124.37Z" fill="#F5C491"/>
</g>
<g style="mix-blend-mode:multiply">
<path d="M152.448 135.681V125.073H152.135H151.822V135.681H152.135H152.448Z" fill="#F5C491"/>
</g>
<g style="mix-blend-mode:multiply">
<path d="M122.948 120.309L122.324 120.049V130.656C122.53 130.742 122.736 130.84 122.948 130.915V120.309Z" fill="#F5C491"/>
</g>
<g style="mix-blend-mode:multiply">
<path d="M158.347 124.893L157.721 124.929V135.536C157.931 135.536 158.139 135.512 158.347 135.501V124.893Z" fill="#F5C491"/>
</g>
<g style="mix-blend-mode:multiply">
<path d="M155.398 125.023L154.772 125.041V135.648C154.98 135.648 155.19 135.648 155.398 135.631V125.023Z" fill="#F5C491"/>
</g>
<g style="mix-blend-mode:multiply">
<path d="M170.148 123.466L169.522 123.584V134.194L170.148 134.076V123.466Z" fill="#F5C491"/>
</g>
<g style="mix-blend-mode:multiply">
<path d="M161.298 124.677C161.09 124.696 160.882 124.712 160.672 124.727V135.335C160.882 135.32 161.09 135.302 161.298 135.284V124.677Z" fill="#F5C491"/>
</g>
<g style="mix-blend-mode:multiply">
<path d="M164.248 124.37L163.623 124.445V135.053L164.248 134.978V124.37Z" fill="#F5C491"/>
</g>
<g style="mix-blend-mode:multiply">
<path d="M167.198 123.974L166.572 124.064V134.67C166.782 134.641 166.991 134.613 167.198 134.582V123.974Z" fill="#F5C491"/>
</g>
</g>
<path d="M180.145 100.596C172.379 97.7211 162.255 96.2853 152.133 96.2853C141.863 96.2853 131.595 97.7579 123.803 100.714C108.341 106.575 108.474 116.024 124.113 121.82C131.881 124.697 142.007 126.133 152.131 126.133C162.4 126.133 172.666 124.661 180.46 121.704C195.935 115.843 195.792 106.398 180.145 100.596Z" fill="url(#paint4_linear)"/>
<g style="mix-blend-mode:overlay" opacity="0.3">
<path d="M180.145 100.596C177.613 99.6747 175.022 98.9257 172.388 98.3542L114.206 106.638C109.873 111.702 112.941 117.45 123.369 121.526L191.939 111.76C192.34 107.731 188.407 103.656 180.145 100.596Z" fill="white"/>
</g>
<g style="mix-blend-mode:overlay" opacity="0.6">
<path d="M124.116 122.597C131.884 125.474 142.01 126.908 152.134 126.908C162.404 126.908 172.67 125.435 180.464 122.479C188.195 119.55 192.029 115.724 191.974 111.906C191.974 111.803 191.957 111.701 191.95 111.602C191.703 115.267 187.887 118.904 180.464 121.717C172.67 124.662 162.404 126.146 152.134 126.146C142.01 126.146 131.886 124.71 124.116 121.833C116.495 119.009 112.565 115.319 112.319 111.597C112.037 115.562 115.971 119.571 124.116 122.597Z" fill="white"/>
</g>
<path d="M172.966 103.321C167.19 101.18 159.663 100.112 152.136 100.112C144.501 100.112 136.858 101.217 131.076 103.407C119.575 107.764 119.676 114.791 131.312 119.098C137.086 121.239 144.611 122.305 152.136 122.305C159.771 122.305 167.405 121.2 173.196 119.01C184.699 114.654 184.592 107.63 172.966 103.321Z" fill="#F28500"/>
<g style="mix-blend-mode:overlay" opacity="0.6">
<path d="M131.073 106.076C136.864 103.882 144.497 102.783 152.133 102.783C159.66 102.783 167.186 103.851 172.963 105.99C177.833 107.795 180.675 110.076 181.496 112.432C182.66 109.119 179.812 105.622 172.963 103.092C167.186 100.952 159.66 99.8839 152.133 99.8839C144.497 99.8839 136.854 100.988 131.073 103.179C124.389 105.712 121.631 109.145 122.771 112.423C123.584 110.109 126.347 107.871 131.073 106.076Z" fill="white"/>
</g>
<path d="M131.073 106.299C136.864 104.105 144.497 103.006 152.133 103.006C159.66 103.006 167.186 104.072 172.963 106.212C177.833 108.016 180.675 110.299 181.496 112.655C182.66 109.342 179.812 105.844 172.963 103.315C167.186 101.174 159.66 100.107 152.133 100.107C144.497 100.107 136.854 101.211 131.073 103.402C124.389 105.934 121.631 109.367 122.771 112.644C123.584 110.332 126.347 108.09 131.073 106.299Z" fill="#D96D00"/>
<path d="M166.305 112.657V110.669L155.166 107.274C155.033 107.226 154.892 107.202 154.75 107.203C154.61 107.202 154.471 107.227 154.34 107.276L135.86 112.276V114.363C135.86 114.417 135.927 114.47 136.044 114.516L140.409 116.13C140.674 116.229 140.966 116.229 141.232 116.13L147.38 113.802C147.469 113.767 147.567 113.767 147.656 113.802L150.585 114.886C151.981 115.398 153.433 115.744 154.91 115.917C155.784 116.024 156.663 116.078 157.543 116.079C158.189 116.079 158.831 116.049 159.466 115.99C160.861 115.873 162.235 115.569 163.549 115.087C164.782 114.617 165.611 114.102 166.023 113.539C166.225 113.291 166.325 112.976 166.305 112.657V112.657ZM158.281 113.209C157.686 113.421 157.058 113.524 156.427 113.513H156.243C155.501 113.497 154.766 113.359 154.069 113.104L151.748 112.245C151.66 112.211 151.66 112.176 151.748 112.143L155.409 110.757C155.452 110.739 155.499 110.73 155.545 110.73C155.593 110.73 155.641 110.739 155.685 110.757L157.999 111.617C158.682 111.867 159.047 112.138 159.104 112.43C159.161 112.723 158.877 112.986 158.281 113.209Z" fill="#D96D00"/>
<path d="M165.933 109.743C165.454 109.18 164.565 108.653 163.258 108.167L155.17 105.173C155.037 105.124 154.896 105.1 154.754 105.101C154.614 105.1 154.474 105.125 154.343 105.174L136.044 112.105C135.921 112.155 135.86 112.204 135.86 112.259C135.86 112.315 135.927 112.368 136.044 112.412L140.409 114.03C140.541 114.078 140.681 114.103 140.821 114.102C140.961 114.102 141.1 114.078 141.232 114.03L147.38 111.7C147.469 111.666 147.567 111.666 147.656 111.7L150.585 112.784C151.981 113.295 153.433 113.641 154.91 113.815C155.784 113.922 156.663 113.977 157.543 113.977C158.189 113.977 158.831 113.946 159.466 113.887C160.861 113.771 162.235 113.467 163.549 112.985C164.782 112.515 165.611 111.998 166.023 111.435C166.435 110.872 166.406 110.308 165.933 109.743ZM158.281 111.111C157.686 111.324 157.058 111.428 156.427 111.416H156.243C155.502 111.399 154.768 111.258 154.073 111L151.752 110.139C151.663 110.106 151.663 110.071 151.752 110.038L155.413 108.652C155.456 108.634 155.502 108.625 155.549 108.626C155.597 108.626 155.644 108.634 155.689 108.652L158.003 109.528C158.686 109.778 159.05 110.051 159.107 110.343C159.164 110.636 158.877 110.884 158.281 111.111V111.111Z" fill="url(#paint5_linear)"/>
<g style="mix-blend-mode:overlay" opacity="0.6">
<g style="mix-blend-mode:overlay" opacity="0.6">
<path d="M158.003 109.344L155.689 108.486C155.644 108.469 155.597 108.459 155.549 108.458C155.503 108.459 155.457 108.469 155.413 108.486L151.752 109.87C151.663 109.905 151.663 109.94 151.752 109.973L151.851 110.01L155.413 108.661C155.456 108.643 155.503 108.634 155.549 108.635C155.597 108.635 155.645 108.643 155.689 108.661L158.003 109.528C158.658 109.769 159.014 110.028 159.087 110.31C159.101 110.264 159.106 110.216 159.102 110.168C159.05 109.864 158.686 109.592 158.003 109.344Z" fill="white"/>
</g>
<g style="mix-blend-mode:overlay" opacity="0.6">
<path d="M166.025 111.262C165.612 111.814 164.784 112.339 163.551 112.808C162.236 113.291 160.863 113.594 159.468 113.712C158.833 113.771 158.191 113.8 157.544 113.8C156.665 113.8 155.785 113.746 154.912 113.638C153.435 113.465 151.983 113.119 150.586 112.607L147.658 111.523C147.568 111.491 147.471 111.491 147.382 111.523L141.237 113.852C140.972 113.95 140.68 113.95 140.414 113.852L136.05 112.237C136.005 112.221 135.962 112.199 135.923 112.171C135.906 112.18 135.892 112.192 135.881 112.208C135.87 112.223 135.863 112.241 135.86 112.259C135.86 112.315 135.927 112.368 136.044 112.412L140.409 114.03C140.541 114.078 140.681 114.103 140.821 114.102C140.961 114.102 141.1 114.077 141.232 114.03L147.38 111.7C147.469 111.665 147.567 111.665 147.656 111.7L150.585 112.784C151.981 113.295 153.433 113.641 154.91 113.815C155.784 113.922 156.663 113.976 157.543 113.977C158.189 113.977 158.831 113.946 159.466 113.887C160.861 113.771 162.235 113.467 163.549 112.985C164.782 112.515 165.611 111.998 166.023 111.435C166.225 111.186 166.326 110.871 166.305 110.551C166.281 110.81 166.184 111.056 166.025 111.262Z" fill="white"/>
</g>
</g>
<path d="M191.974 99.5876V110.19C191.974 113.982 188.141 117.776 180.464 120.683C172.67 123.628 162.404 125.113 152.134 125.113C142.01 125.113 131.886 123.676 124.116 120.799C116.24 117.879 112.295 114.034 112.295 110.187V99.5876C112.295 103.435 116.24 107.28 124.116 110.2C131.884 113.077 142.01 114.513 152.134 114.513C162.404 114.513 172.67 113.04 180.464 110.084C188.141 107.17 191.974 103.376 191.974 99.5876Z" fill="#D96D00"/>
<path d="M191.974 98.9561V109.564C191.974 113.356 188.141 117.15 180.464 120.057C172.67 123.002 162.404 124.486 152.134 124.486C142.01 124.486 131.886 123.05 124.116 120.173C116.24 117.259 112.295 113.412 112.295 109.564V98.9561C112.295 102.803 116.24 106.649 124.116 109.568C131.884 112.445 142.01 113.881 152.134 113.881C162.404 113.881 172.67 112.408 180.464 109.45C188.141 106.542 191.974 102.748 191.974 98.9561Z" fill="url(#paint6_linear)"/>
<g style="mix-blend-mode:multiply">
<g style="mix-blend-mode:multiply">
<path d="M137.698 112.867L137.072 112.775V123.383L137.698 123.475V112.867Z" fill="#F5C491"/>
</g>
<g style="mix-blend-mode:multiply">
<path d="M134.748 112.386L134.123 112.27V122.877C134.331 122.917 134.54 122.954 134.748 122.993V112.386Z" fill="#F5C491"/>
</g>
<g style="mix-blend-mode:multiply">
<path d="M131.798 111.792C131.588 111.746 131.382 111.696 131.172 111.646V122.255L131.798 122.4V111.792Z" fill="#F5C491"/>
</g>
<g style="mix-blend-mode:multiply">
<path d="M146.548 113.734L145.922 113.697V124.303L146.548 124.342V113.734Z" fill="#F5C491"/>
</g>
<g style="mix-blend-mode:multiply">
<path d="M143.599 113.531C143.389 113.515 143.179 113.5 142.971 113.482V124.088L143.599 124.14V113.531Z" fill="#F5C491"/>
</g>
<g style="mix-blend-mode:multiply">
<path d="M149.497 113.844L148.871 113.828V124.438L149.497 124.452V113.844Z" fill="#F5C491"/>
</g>
<g style="mix-blend-mode:multiply">
<path d="M140.648 113.248L140.022 113.172V123.781L140.648 123.856V113.248Z" fill="#F5C491"/>
</g>
<g style="mix-blend-mode:multiply">
<path d="M125.272 120.581L125.898 120.793V110.185C125.688 110.117 125.48 110.045 125.272 109.975V120.581Z" fill="#F5C491"/>
</g>
<g style="mix-blend-mode:multiply">
<path d="M184.896 107.446C184.69 107.558 184.488 107.669 184.272 107.779V118.385C184.488 118.277 184.69 118.165 184.896 118.052V107.446Z" fill="#F5C491"/>
</g>
<g style="mix-blend-mode:multiply">
<path d="M190.172 114.003C190.4 113.726 190.61 113.45 190.798 113.169V102.562C190.614 102.842 190.4 103.114 190.172 103.396V114.003Z" fill="#F5C491"/>
</g>
<g style="mix-blend-mode:multiply">
<path d="M181.322 119.716C181.532 119.631 181.745 119.55 181.948 119.464V108.856C181.745 108.942 181.532 109.025 181.322 109.11V119.716Z" fill="#F5C491"/>
</g>
<g style="mix-blend-mode:multiply">
<path d="M128.847 111.066C128.637 111.011 128.431 110.95 128.223 110.882V121.492C128.431 121.551 128.637 121.612 128.847 121.677V111.066Z" fill="#F5C491"/>
</g>
<g style="mix-blend-mode:multiply">
<path d="M187.847 105.572C187.646 105.725 187.438 105.875 187.221 106.028V116.635C187.438 116.484 187.646 116.331 187.847 116.178V105.572Z" fill="#F5C491"/>
</g>
<g style="mix-blend-mode:multiply">
<path d="M173.097 111.648C172.889 111.696 172.683 111.748 172.471 111.794V122.402C172.683 122.354 172.889 122.304 173.097 122.255V111.648Z" fill="#F5C491"/>
</g>
<g style="mix-blend-mode:multiply">
<path d="M116.422 116.178C116.624 116.333 116.829 116.486 117.048 116.637V106.03C116.829 105.879 116.624 105.725 116.422 105.572V116.178Z" fill="#F5C491"/>
</g>
<g style="mix-blend-mode:multiply">
<path d="M176.048 110.894C175.842 110.952 175.632 111.008 175.422 111.065V121.677L176.048 121.507V110.894Z" fill="#F5C491"/>
</g>
<g style="mix-blend-mode:multiply">
<path d="M178.998 109.98C178.792 110.05 178.579 110.115 178.371 110.183V120.791C178.579 120.721 178.792 120.657 178.998 120.587V109.98Z" fill="#F5C491"/>
</g>
<g style="mix-blend-mode:multiply">
<path d="M119.998 107.779C119.783 107.669 119.579 107.558 119.373 107.446V118.052C119.579 118.165 119.783 118.277 119.998 118.385V107.779Z" fill="#F5C491"/>
</g>
<g style="mix-blend-mode:multiply">
<path d="M113.473 113.172C113.666 113.46 113.875 113.737 114.099 114.002V103.395C113.876 103.13 113.667 102.853 113.473 102.565V113.172Z" fill="#F5C491"/>
</g>
<g style="mix-blend-mode:multiply">
<path d="M152.448 124.486V113.877H152.135H151.822V124.486H152.448V124.486Z" fill="#F5C491"/>
</g>
<g style="mix-blend-mode:multiply">
<path d="M122.948 109.112C122.736 109.027 122.53 108.941 122.324 108.852V119.468C122.53 119.556 122.736 119.643 122.948 119.727V109.112Z" fill="#F5C491"/>
</g>
<g style="mix-blend-mode:multiply">
<path d="M158.347 113.697L157.721 113.734V124.34L158.347 124.305V113.697Z" fill="#F5C491"/>
</g>
<g style="mix-blend-mode:multiply">
<path d="M155.398 113.828L154.772 113.844V124.451L155.398 124.436V113.828Z" fill="#F5C491"/>
</g>
<g style="mix-blend-mode:multiply">
<path d="M170.148 112.269L169.522 112.386V122.993L170.148 122.875V112.269Z" fill="#F5C491"/>
</g>
<g style="mix-blend-mode:multiply">
<path d="M161.298 113.48L160.672 113.531V124.139L161.298 124.088V113.48Z" fill="#F5C491"/>
</g>
<g style="mix-blend-mode:multiply">
<path d="M164.248 113.172C164.039 113.198 163.832 113.226 163.623 113.25V123.858C163.832 123.832 164.039 123.805 164.248 123.781V113.172Z" fill="#F5C491"/>
</g>
<g style="mix-blend-mode:multiply">
<path d="M167.198 112.776L166.572 112.867V123.473L167.198 123.385V112.776Z" fill="#F5C491"/>
</g>
</g>
<path d="M180.145 89.4007C172.379 86.5236 162.255 85.0859 152.133 85.0859C141.863 85.0859 131.595 86.5585 123.803 89.5166C108.341 95.3776 108.474 104.828 124.113 110.623C131.881 113.5 142.007 114.937 152.131 114.937C162.4 114.937 172.666 113.465 180.46 110.507C195.935 104.646 195.792 95.1954 180.145 89.4007Z" fill="url(#paint7_linear)"/>
<g style="mix-blend-mode:overlay" opacity="0.3">
<path d="M180.145 89.4009C177.614 88.4776 175.022 87.7285 172.388 87.1588L114.206 95.4422C109.873 100.504 112.941 106.255 123.369 110.33L191.939 100.563C192.34 96.5356 188.407 92.4584 180.145 89.4009Z" fill="white"/>
</g>
<g style="mix-blend-mode:overlay" opacity="0.6">
<path d="M124.116 111.39C131.884 114.269 142.01 115.705 152.134 115.705C162.404 115.705 172.67 114.232 180.464 111.276C188.195 108.346 192.029 104.521 191.974 100.701C191.974 100.6 191.957 100.499 191.95 100.397C191.703 104.062 187.887 107.7 180.464 110.521C172.67 113.467 162.404 114.952 152.134 114.952C142.01 114.952 131.886 113.515 124.116 110.637C116.495 107.816 112.565 104.123 112.319 100.401C112.037 104.373 115.971 108.373 124.116 111.39Z" fill="white"/>
</g>
<path d="M172.966 92.1233C167.186 89.9843 159.659 88.9111 152.133 88.9111C144.497 88.9111 136.854 90.0156 131.072 92.2042C119.571 96.5632 119.673 103.587 131.308 107.897C137.083 110.036 144.608 111.101 152.133 111.101C159.768 111.101 167.402 109.997 173.193 107.808C184.699 103.453 184.592 96.4306 172.966 92.1233Z" fill="#F28500"/>
<g style="mix-blend-mode:overlay" opacity="0.6">
<path d="M131.073 94.8807C136.864 92.6846 144.497 91.5875 152.133 91.5875C159.66 91.5875 167.186 92.6552 172.963 94.7941C177.833 96.5999 180.675 98.8806 181.496 101.237C182.66 97.9234 179.812 94.426 172.963 91.8949C167.186 89.756 159.66 88.6884 152.133 88.6884C144.497 88.6884 136.854 89.7928 131.073 91.9833C124.389 94.5162 121.631 97.9492 122.771 101.226C123.584 98.9138 126.347 96.6717 131.073 94.8807Z" fill="white"/>
</g>
<path d="M131.073 95.1034C136.864 92.9074 144.497 91.8085 152.133 91.8085C159.66 91.8085 167.186 92.8761 172.963 95.0151C177.833 96.8209 180.675 99.1016 181.496 101.458C182.66 98.1333 179.812 94.6469 172.963 92.1159C167.186 89.9843 159.66 88.9111 152.133 88.9111C144.497 88.9111 136.854 90.0156 131.073 92.2042C124.389 94.7371 121.631 98.1701 122.771 101.449C123.584 99.1347 126.347 96.8945 131.073 95.1034Z" fill="#D96D00"/>
<path d="M166.305 101.452V99.4715L155.166 96.079C155.033 96.0296 154.892 96.0052 154.75 96.0072C154.61 96.006 154.471 96.031 154.34 96.0808L135.86 101.078V103.166C135.86 103.219 135.927 103.273 136.044 103.321L140.409 104.935C140.541 104.984 140.681 105.008 140.821 105.007C140.961 105.007 141.1 104.983 141.232 104.935L147.38 102.606C147.469 102.572 147.567 102.572 147.656 102.606L150.585 103.691C151.982 104.201 153.433 104.546 154.91 104.719C155.784 104.829 156.663 104.883 157.543 104.883C158.189 104.883 158.831 104.854 159.466 104.793C160.861 104.676 162.234 104.372 163.549 103.891C164.782 103.42 165.611 102.903 166.023 102.341C166.226 102.091 166.327 101.774 166.305 101.452V101.452ZM158.281 102.017C157.686 102.231 157.058 102.334 156.427 102.323H156.243C155.501 102.306 154.767 102.168 154.069 101.914L151.752 101.06C151.663 101.027 151.663 100.994 151.752 100.959L155.413 99.5727C155.456 99.555 155.502 99.5456 155.549 99.5451C155.597 99.5456 155.644 99.5549 155.689 99.5727L158.003 100.432C158.686 100.683 159.05 100.955 159.107 101.248C159.164 101.541 158.877 101.796 158.281 102.017V102.017Z" fill="#D96D00"/>
<path d="M165.933 98.5476C165.454 97.9825 164.565 97.456 163.258 96.9719L155.17 93.9752C155.036 93.9273 154.896 93.9036 154.754 93.9052C154.614 93.9041 154.474 93.929 154.343 93.9789L136.044 100.909C135.921 100.957 135.86 101.007 135.86 101.062C135.86 101.117 135.927 101.171 136.044 101.215L140.409 102.831C140.675 102.927 140.966 102.927 141.232 102.831L147.38 100.508C147.469 100.476 147.567 100.476 147.656 100.508L150.585 101.592C151.981 102.104 153.433 102.45 154.91 102.623C155.784 102.731 156.663 102.786 157.543 102.787C158.189 102.787 158.831 102.756 159.466 102.697C160.861 102.579 162.234 102.276 163.549 101.795C164.782 101.323 165.611 100.806 166.023 100.245C166.435 99.6834 166.406 99.1109 165.933 98.5476ZM158.281 99.9153C157.686 100.128 157.058 100.231 156.427 100.221H156.243C155.501 100.205 154.766 100.067 154.069 99.8122L151.748 98.9526C151.66 98.9195 151.66 98.8845 151.748 98.8495L155.409 97.4652C155.452 97.4475 155.499 97.4381 155.545 97.4376C155.593 97.4381 155.641 97.4475 155.685 97.4652L157.999 98.323C158.682 98.5752 159.047 98.8458 159.104 99.1403C159.161 99.4349 158.877 99.6871 158.281 99.9153V99.9153Z" fill="url(#paint8_linear)"/>
<g style="mix-blend-mode:overlay" opacity="0.6">
<g style="mix-blend-mode:overlay" opacity="0.6">
<path d="M158.003 98.1443L155.689 97.2884C155.645 97.2706 155.597 97.2612 155.549 97.2607C155.503 97.2612 155.456 97.2706 155.413 97.2884L151.752 98.6671C151.663 98.7021 151.663 98.7352 151.752 98.7683L151.851 98.8051L155.413 97.4577C155.456 97.4399 155.503 97.4306 155.549 97.4301C155.597 97.4305 155.645 97.4399 155.689 97.4577L158.003 98.3155C158.658 98.5566 159.014 98.818 159.087 99.0978C159.101 99.052 159.106 99.0038 159.102 98.9561C159.05 98.6671 158.686 98.3965 158.003 98.1443Z" fill="white"/>
</g>
<g style="mix-blend-mode:overlay" opacity="0.6">
<path d="M166.025 100.064C165.612 100.616 164.784 101.141 163.551 101.612C162.237 102.095 160.863 102.398 159.468 102.514C158.833 102.575 158.191 102.603 157.544 102.603C156.665 102.603 155.785 102.549 154.912 102.441C153.435 102.267 151.983 101.922 150.586 101.412L147.658 100.324C147.569 100.289 147.47 100.289 147.382 100.324L141.237 102.652C141.106 102.701 140.967 102.726 140.827 102.726C140.686 102.727 140.546 102.702 140.414 102.652L136.05 101.038C136.005 101.021 135.962 100.998 135.923 100.97C135.884 100.999 135.86 101.029 135.86 101.058C135.86 101.088 135.927 101.167 136.044 101.211L140.409 102.827C140.675 102.923 140.966 102.923 141.232 102.827L147.38 100.508C147.469 100.476 147.567 100.476 147.656 100.508L150.585 101.592C151.981 102.104 153.433 102.45 154.91 102.623C155.784 102.731 156.663 102.786 157.543 102.787C158.189 102.787 158.831 102.755 159.466 102.696C160.861 102.579 162.234 102.275 163.549 101.794C164.782 101.323 165.611 100.806 166.023 100.245C166.225 99.9961 166.326 99.6805 166.305 99.361C166.28 99.6171 166.183 99.861 166.025 100.064V100.064Z" fill="white"/>
</g>
</g>
<path d="M191.974 88.3866V98.9949C191.974 102.787 188.141 106.579 180.464 109.487C172.67 112.432 162.404 113.916 152.134 113.916C142.01 113.916 131.886 112.48 124.116 109.603C116.24 106.684 112.295 102.838 112.295 98.9912V88.3866C112.295 92.2319 116.24 96.0791 124.116 98.9967C131.884 101.874 142.01 103.31 152.134 103.31C162.404 103.31 172.67 101.837 180.464 98.8807C188.141 95.9723 191.974 92.1786 191.974 88.3866Z" fill="#D96D00"/>
<path d="M191.974 87.7606V98.3671C191.974 102.159 188.141 105.953 180.464 108.859C172.67 111.805 162.404 113.29 152.134 113.29C142.01 113.29 131.886 111.854 124.116 108.977C116.24 106.058 112.295 102.212 112.295 98.3652V87.7606C112.295 91.606 116.24 95.4513 124.116 98.3726C131.884 101.248 142.01 102.684 152.134 102.684C162.404 102.684 172.67 101.211 180.464 98.2548C188.141 95.3537 191.974 91.5526 191.974 87.7606Z" fill="url(#paint9_linear)"/>
<g style="mix-blend-mode:multiply">
<g style="mix-blend-mode:multiply">
<path d="M137.698 101.671L137.072 101.579V112.188L137.698 112.278V101.671Z" fill="#F5C491"/>
</g>
<g style="mix-blend-mode:multiply">
<path d="M134.748 101.187C134.54 101.15 134.331 101.113 134.123 101.073V111.681L134.748 111.795V101.187Z" fill="#F5C491"/>
</g>
<g style="mix-blend-mode:multiply">
<path d="M131.798 100.596L131.172 100.451V111.057L131.798 111.204V100.596Z" fill="#F5C491"/>
</g>
<g style="mix-blend-mode:multiply">
<path d="M146.548 102.533C146.34 102.533 146.132 102.509 145.922 102.496V113.104C146.132 113.117 146.34 113.13 146.548 113.139V102.533Z" fill="#F5C491"/>
</g>
<g style="mix-blend-mode:multiply">
<path d="M143.599 102.336L142.971 102.284V112.891C143.179 112.911 143.389 112.926 143.599 112.942V102.336Z" fill="#F5C491"/>
</g>
<g style="mix-blend-mode:multiply">
<path d="M149.497 102.647L148.871 102.63V113.239L149.497 113.255V102.647Z" fill="#F5C491"/>
</g>
<g style="mix-blend-mode:multiply">
<path d="M140.648 102.052L140.017 101.981V112.583L140.642 112.659L140.648 102.052Z" fill="#F5C491"/>
</g>
<g style="mix-blend-mode:multiply">
<path d="M125.272 109.384L125.898 109.596V98.9892L125.272 98.7775V109.384Z" fill="#F5C491"/>
</g>
<g style="mix-blend-mode:multiply">
<path d="M184.896 96.2487C184.69 96.3609 184.488 96.4732 184.272 96.5837V107.19C184.488 107.08 184.69 106.967 184.896 106.857V96.2487Z" fill="#F5C491"/>
</g>
<g style="mix-blend-mode:multiply">
<path d="M190.172 102.805C190.4 102.529 190.61 102.253 190.798 101.973V91.3667C190.614 91.6447 190.4 91.9189 190.172 92.1987V102.805Z" fill="#F5C491"/>
</g>
<g style="mix-blend-mode:multiply">
<path d="M181.322 108.521C181.532 108.436 181.745 108.353 181.948 108.267V97.6584C181.745 97.7468 181.532 97.8278 181.322 97.9143V108.521Z" fill="#F5C491"/>
</g>
<g style="mix-blend-mode:multiply">
<path d="M128.847 99.8708C128.637 99.8138 128.431 99.753 128.223 99.6868V110.295L128.847 110.47V99.8708Z" fill="#F5C491"/>
</g>
<g style="mix-blend-mode:multiply">
<path d="M187.847 94.3766C187.646 94.5275 187.438 94.6803 187.221 94.8312V105.44C187.438 105.289 187.646 105.136 187.847 104.983V94.3766Z" fill="#F5C491"/>
</g>
<g style="mix-blend-mode:multiply">
<path d="M173.097 100.451C172.889 100.499 172.683 100.55 172.471 100.596V111.204C172.683 111.157 172.889 111.105 173.097 111.057V100.451Z" fill="#F5C491"/>
</g>
<g style="mix-blend-mode:multiply">
<path d="M116.422 104.981C116.624 105.136 116.829 105.288 117.048 105.441V94.8347C116.829 94.6819 116.624 94.5273 116.422 94.3745V104.981Z" fill="#F5C491"/>
</g>
<g style="mix-blend-mode:multiply">
<path d="M176.048 99.6981C175.842 99.757 175.632 99.8123 175.422 99.8693V110.476C175.632 110.419 175.842 110.363 176.048 110.305V99.6981Z" fill="#F5C491"/>
</g>
<g style="mix-blend-mode:multiply">
<path d="M178.998 98.7833C178.792 98.8533 178.579 98.9195 178.371 98.9876V109.594C178.579 109.526 178.792 109.46 178.998 109.39V98.7833Z" fill="#F5C491"/>
</g>
<g style="mix-blend-mode:multiply">
<path d="M119.998 96.5837C119.783 96.4732 119.579 96.3609 119.373 96.2487V106.857C119.579 106.967 119.783 107.08 119.998 107.19V96.5837Z" fill="#F5C491"/>
</g>
<g style="mix-blend-mode:multiply">
<path d="M113.473 101.98C113.666 102.269 113.875 102.546 114.099 102.812V92.1999C113.876 91.9341 113.667 91.6563 113.473 91.3679V101.98Z" fill="#F5C491"/>
</g>
<g style="mix-blend-mode:multiply">
<path d="M152.448 113.288V102.682H151.822V113.288H152.135H152.448Z" fill="#F5C491"/>
</g>
<g style="mix-blend-mode:multiply">
<path d="M122.948 97.9163L122.324 97.6567V108.263C122.53 108.35 122.736 108.447 122.948 108.523V97.9163Z" fill="#F5C491"/>
</g>
<g style="mix-blend-mode:multiply">
<path d="M158.347 102.5L157.721 102.536V113.143C157.931 113.143 158.139 113.121 158.347 113.108V102.5Z" fill="#F5C491"/>
</g>
<g style="mix-blend-mode:multiply">
<path d="M155.398 102.63C155.19 102.63 154.98 102.643 154.772 102.647V113.255L155.398 113.239V102.63Z" fill="#F5C491"/>
</g>
<g style="mix-blend-mode:multiply">
<path d="M170.148 101.071L169.522 101.189V111.797L170.148 111.68V101.071Z" fill="#F5C491"/>
</g>
<g style="mix-blend-mode:multiply">
<path d="M161.298 102.284L160.672 102.336V112.942L161.298 112.891V102.284Z" fill="#F5C491"/>
</g>
<g style="mix-blend-mode:multiply">
<path d="M164.248 101.981L163.623 102.056V112.657C163.832 112.633 164.039 112.605 164.248 112.58V101.981Z" fill="#F5C491"/>
</g>
<g style="mix-blend-mode:multiply">
<path d="M167.198 101.581C166.991 101.612 166.782 101.638 166.572 101.671V112.278L167.198 112.187V101.581Z" fill="#F5C491"/>
</g>
</g>
<path d="M180.145 78.2034C172.379 75.3263 162.255 73.8905 152.133 73.8905C141.863 73.8905 131.595 75.3631 123.803 78.3212C108.341 84.1822 108.474 93.6308 124.113 99.4273C131.881 102.304 142.007 103.74 152.131 103.74C162.4 103.74 172.666 102.268 180.46 99.3113C195.935 93.4485 195.792 83.9999 180.145 78.2034Z" fill="url(#paint10_linear)"/>
<g style="mix-blend-mode:overlay" opacity="0.3">
<path d="M180.145 78.2037C177.614 77.2813 175.022 76.5322 172.388 75.9617L114.206 84.2451C109.873 89.3072 112.941 95.0577 123.369 99.1331L191.939 89.3771C192.34 85.3403 188.407 81.263 180.145 78.2037Z" fill="white"/>
</g>
<g style="mix-blend-mode:overlay" opacity="0.6">
<path d="M124.116 100.195C131.884 103.072 142.01 104.51 152.134 104.51C162.404 104.51 172.67 103.037 180.464 100.079C188.195 97.1504 192.029 93.3235 191.974 89.5039C191.974 89.4027 191.957 89.3014 191.95 89.2002C191.703 92.8651 187.887 96.5043 180.464 99.3244C172.67 102.27 162.404 103.753 152.134 103.753C142.01 103.753 131.886 102.317 124.116 99.4403C116.495 96.6166 112.565 92.924 112.319 89.2039C112.037 93.1689 115.971 97.178 124.116 100.195Z" fill="white"/>
</g>
<path d="M172.966 80.926C167.186 78.787 159.659 77.7194 152.133 77.7194C144.497 77.7194 136.854 78.8238 131.072 81.0143C119.571 85.3732 119.673 92.3976 131.308 96.7049C137.083 98.8439 144.608 99.9115 152.133 99.9115C159.768 99.9115 167.402 98.8071 173.193 96.6184C184.699 92.2595 184.592 85.2296 172.966 80.926Z" fill="#F28500"/>
<g style="mix-blend-mode:overlay" opacity="0.6">
<path d="M131.073 83.6852C136.864 81.4892 144.497 80.3902 152.133 80.3902C159.66 80.3902 167.186 81.4579 172.963 83.5968C177.833 85.4008 180.675 87.6833 181.496 90.0395C182.66 86.7169 179.812 83.2287 172.963 80.6976C167.186 78.5661 159.66 77.4984 152.133 77.4984C144.497 77.4984 136.854 78.6029 131.073 80.7915C124.389 83.3263 121.631 86.7574 122.771 90.0358C123.584 87.7164 126.347 85.4762 131.073 83.6852Z" fill="white"/>
</g>
<path d="M131.073 83.9061C136.864 81.712 144.497 80.613 152.133 80.613C159.66 80.613 167.186 81.6788 172.963 83.8178C177.833 85.6236 180.675 87.9043 181.496 90.2604C182.66 86.9471 179.812 83.4588 172.963 80.9204C167.186 78.787 159.66 77.7194 152.133 77.7194C144.497 77.7194 136.854 78.8238 131.073 81.0143C124.389 83.5454 121.631 86.9802 122.771 90.2567C123.584 87.9392 126.347 85.6972 131.073 83.9061Z" fill="#D96D00"/>
<path d="M166.305 90.2568V88.2743L155.166 84.8818C155.033 84.8332 154.892 84.8089 154.75 84.81C154.61 84.8094 154.471 84.835 154.34 84.8854L135.86 89.8812V91.9687C135.86 92.0239 135.927 92.0754 136.044 92.1233L140.409 93.7376C140.675 93.8333 140.966 93.8333 141.232 93.7376L147.38 91.4109C147.469 91.3766 147.567 91.3766 147.656 91.4109L150.585 92.4933C151.981 93.005 153.433 93.3509 154.91 93.5241C155.784 93.6316 156.663 93.6857 157.543 93.6861C158.189 93.6861 158.831 93.6566 159.466 93.5977C160.861 93.4805 162.235 93.1765 163.549 92.6939C164.782 92.2245 165.611 91.7073 166.023 91.1459C166.226 90.8959 166.327 90.5781 166.305 90.2568V90.2568ZM158.281 90.82C157.686 91.0323 157.058 91.134 156.427 91.1201H156.243C155.501 91.1045 154.766 90.9664 154.069 90.7114L151.748 89.8518C151.66 89.8168 151.66 89.7837 151.748 89.7506L155.409 88.3626C155.453 88.3461 155.499 88.3374 155.545 88.3369C155.593 88.3375 155.64 88.3462 155.685 88.3626L157.999 89.2223C158.682 89.4744 159.047 89.7469 159.104 90.0396C159.161 90.3322 158.877 90.5936 158.281 90.82V90.82Z" fill="#D96D00"/>
<path d="M165.933 87.3501C165.454 86.785 164.565 86.2604 163.258 85.7763L155.17 82.7795C155.037 82.7301 154.896 82.7058 154.754 82.7078C154.614 82.7075 154.475 82.7324 154.343 82.7814L136.044 89.7118C135.921 89.7615 135.86 89.8112 135.86 89.8665C135.86 89.9217 135.927 89.9732 136.044 90.0192L140.409 91.6354C140.541 91.6845 140.681 91.7089 140.821 91.7072C140.961 91.7079 141.1 91.6836 141.232 91.6354L147.38 89.3069C147.469 89.2725 147.567 89.2725 147.656 89.3069L150.586 90.3837C151.983 90.8948 153.435 91.2401 154.912 91.4127C155.785 91.5211 156.665 91.5752 157.544 91.5747C158.191 91.5747 158.833 91.5471 159.468 91.4882C160.863 91.3709 162.236 91.0669 163.551 90.5844C164.784 90.115 165.612 89.5977 166.025 89.0363C166.437 88.4748 166.406 87.9134 165.933 87.3501ZM158.281 88.727C157.686 88.9379 157.058 89.0408 156.427 89.0308H156.243C155.501 89.0158 154.766 88.8783 154.069 88.6239L151.748 87.7643C151.66 87.7293 151.66 87.6944 151.748 87.6612L155.409 86.277C155.452 86.2592 155.499 86.2498 155.545 86.2494C155.593 86.2498 155.641 86.2592 155.685 86.277L157.999 87.1348C158.682 87.3851 159.047 87.6575 159.104 87.9502C159.161 88.2429 158.877 88.4896 158.281 88.727Z" fill="url(#paint11_linear)"/>
<g style="mix-blend-mode:overlay" opacity="0.6">
<g style="mix-blend-mode:overlay" opacity="0.6">
<path d="M158.003 86.9486L155.689 86.089C155.644 86.0726 155.597 86.0639 155.549 86.0632C155.503 86.0637 155.457 86.0725 155.413 86.089L151.752 87.4769C151.663 87.5101 151.663 87.5432 151.752 87.5782L151.851 87.6132L155.413 86.2676C155.456 86.2498 155.503 86.2404 155.549 86.2399C155.597 86.2404 155.645 86.2498 155.689 86.2676L158.003 87.1253C158.658 87.3646 159.014 87.626 159.087 87.9058C159.101 87.8606 159.106 87.8131 159.102 87.7659C159.05 87.4714 158.686 87.2008 158.003 86.9486Z" fill="white"/>
</g>
<g style="mix-blend-mode:overlay" opacity="0.6">
<path d="M166.025 88.8669C165.612 89.4284 164.784 89.9456 163.551 90.415C162.236 90.8976 160.863 91.2016 159.468 91.3188C158.833 91.3777 158.191 91.4072 157.544 91.4072C156.665 91.4068 155.785 91.3527 154.912 91.2452C153.435 91.0711 151.983 90.7252 150.586 90.2144L147.658 89.1302C147.568 89.0983 147.471 89.0983 147.382 89.1302L141.237 91.4587C140.972 91.557 140.68 91.557 140.414 91.4587L136.05 89.8444C136.005 89.8273 135.963 89.8051 135.923 89.7781C135.906 89.7869 135.892 89.7995 135.881 89.8148C135.87 89.8302 135.863 89.8479 135.86 89.8665C135.86 89.9199 135.927 89.9732 136.044 90.0193L140.409 91.6354C140.541 91.6845 140.681 91.7089 140.821 91.7072C140.961 91.7079 141.1 91.6836 141.232 91.6354L147.38 89.3069C147.469 89.2725 147.567 89.2725 147.656 89.3069L150.586 90.3837C151.983 90.8948 153.435 91.2402 154.912 91.4127C155.785 91.5212 156.665 91.5753 157.544 91.5747C158.191 91.5747 158.833 91.5471 159.468 91.4882C160.863 91.3709 162.236 91.067 163.551 90.5844C164.784 90.115 165.612 89.5977 166.025 89.0363C166.227 88.7866 166.328 88.4697 166.306 88.149C166.284 88.4106 166.186 88.6599 166.025 88.8669Z" fill="white"/>
</g>
</g>
<path d="M191.974 77.1913V87.7959C191.974 91.5878 188.141 95.3816 180.464 98.2882C172.67 101.244 162.404 102.717 152.134 102.717C142.01 102.717 131.886 101.281 124.116 98.4042C116.24 95.4847 112.295 91.6412 112.295 87.7922V77.1895C112.295 81.0366 116.24 84.882 124.116 87.7996C131.884 90.6785 142.01 92.1143 152.134 92.1143C162.404 92.1143 172.67 90.6417 180.464 87.6854C188.141 84.7752 191.974 80.9814 191.974 77.1913Z" fill="#D96D00"/>
<path d="M191.974 76.5652V87.1716C191.974 90.9636 188.141 94.7574 180.464 97.6639C172.67 100.609 162.404 102.095 152.134 102.095C142.01 102.095 131.886 100.657 124.116 97.7799C116.24 94.8605 112.295 91.0151 112.295 87.1679V76.5634C112.295 80.4105 116.24 84.2559 124.116 87.1753C131.884 90.0506 142.01 91.4882 152.134 91.4882C162.404 91.4882 172.67 90.0156 180.464 87.0593C188.141 84.1491 191.974 80.3571 191.974 76.5652Z" fill="url(#paint12_linear)"/>
<g style="mix-blend-mode:multiply">
<g style="mix-blend-mode:multiply">
<path d="M137.698 90.4741L137.072 90.3839V100.99C137.28 101.023 137.49 101.051 137.698 101.081V90.4741Z" fill="#F5C491"/>
</g>
<g style="mix-blend-mode:multiply">
<path d="M134.748 89.9917L134.123 89.8776V100.484L134.748 100.598V89.9917Z" fill="#F5C491"/>
</g>
<g style="mix-blend-mode:multiply">
<path d="M131.798 89.399C131.588 89.3529 131.382 89.3014 131.172 89.2535V99.86L131.798 100.007V89.399Z" fill="#F5C491"/>
</g>
<g style="mix-blend-mode:multiply">
<path d="M146.548 91.341L145.922 91.3024V101.909C146.132 101.924 146.34 101.938 146.548 101.947V91.341Z" fill="#F5C491"/>
</g>
<g style="mix-blend-mode:multiply">
<path d="M143.599 91.1385L142.971 91.0869V101.695L143.599 101.747V91.1385Z" fill="#F5C491"/>
</g>
<g style="mix-blend-mode:multiply">
<path d="M149.497 91.4514L148.871 91.4348V102.041L149.497 102.06V91.4514Z" fill="#F5C491"/>
</g>
<g style="mix-blend-mode:multiply">
<path d="M140.648 90.8551L140.022 90.7797V101.388L140.648 101.463V90.8551Z" fill="#F5C491"/>
</g>
<g style="mix-blend-mode:multiply">
<path d="M125.272 98.1886L125.898 98.4003V87.792C125.688 87.7239 125.48 87.6521 125.272 87.5803V98.1886Z" fill="#F5C491"/>
</g>
<g style="mix-blend-mode:multiply">
<path d="M184.896 85.0457C184.69 85.1579 184.488 85.2684 184.272 85.3807V95.9853C184.488 95.8767 184.69 95.7644 184.896 95.6521V85.0457Z" fill="#F5C491"/>
</g>
<g style="mix-blend-mode:multiply">
<path d="M190.172 91.6097C190.4 91.3336 190.61 91.0575 190.798 90.7777V80.1713C190.614 80.4492 190.4 80.7235 190.172 81.0014V91.6097Z" fill="#F5C491"/>
</g>
<g style="mix-blend-mode:multiply">
<path d="M181.322 97.3253C181.532 97.2388 181.745 97.156 181.948 97.0713V86.463C181.745 86.5495 181.532 86.6324 181.322 86.717V97.3253Z" fill="#F5C491"/>
</g>
<g style="mix-blend-mode:multiply">
<path d="M128.847 88.6738L128.223 88.4989V99.1053L128.847 99.2894V88.6738Z" fill="#F5C491"/>
</g>
<g style="mix-blend-mode:multiply">
<path d="M187.847 83.1791C187.646 83.3319 187.438 83.4846 187.221 83.6356V94.2494C187.438 94.0984 187.646 93.9457 187.847 93.7947V83.1791Z" fill="#F5C491"/>
</g>
<g style="mix-blend-mode:multiply">
<path d="M173.097 89.2535C172.889 89.3032 172.683 89.3529 172.471 89.4008V100.007C172.683 99.9612 172.889 99.9097 173.097 99.8618V89.2535Z" fill="#F5C491"/>
</g>
<g style="mix-blend-mode:multiply">
<path d="M116.422 93.7855C116.624 93.9401 116.829 94.0929 117.048 94.2439V83.6374C116.829 83.4865 116.624 83.3319 116.422 83.1791V93.7855Z" fill="#F5C491"/>
</g>
<g style="mix-blend-mode:multiply">
<path d="M176.048 88.5006C175.842 88.5595 175.632 88.6166 175.422 88.6718V99.2801L176.048 99.1089V88.5006Z" fill="#F5C491"/>
</g>
<g style="mix-blend-mode:multiply">
<path d="M178.998 87.5858C178.792 87.6558 178.579 87.722 178.371 87.792V98.3984C178.579 98.3285 178.792 98.2622 178.998 98.1923V87.5858Z" fill="#F5C491"/>
</g>
<g style="mix-blend-mode:multiply">
<path d="M119.998 85.3881C119.783 85.2758 119.579 85.1654 119.373 85.0531V95.6614C119.579 95.7718 119.783 95.8841 119.998 95.9927V85.3881Z" fill="#F5C491"/>
</g>
<g style="mix-blend-mode:multiply">
<path d="M113.473 90.7796C113.667 91.068 113.876 91.3457 114.099 91.6116V80.996C113.876 80.7304 113.667 80.4533 113.473 80.1658V90.7796Z" fill="#F5C491"/>
</g>
<g style="mix-blend-mode:multiply">
<path d="M152.448 102.093V91.4882H151.822V102.095H152.135L152.448 102.093Z" fill="#F5C491"/>
</g>
<g style="mix-blend-mode:multiply">
<path d="M122.948 86.7188C122.736 86.6341 122.53 86.5457 122.324 86.4592V97.0657C122.53 97.1522 122.736 97.2497 122.948 97.3252V86.7188Z" fill="#F5C491"/>
</g>
<g style="mix-blend-mode:multiply">
<path d="M158.347 91.3042L157.721 91.341V101.949L158.347 101.912V91.3042Z" fill="#F5C491"/>
</g>
<g style="mix-blend-mode:multiply">
<path d="M155.398 91.4348L154.772 91.4514V102.06L155.398 102.041V91.4348Z" fill="#F5C491"/>
</g>
<g style="mix-blend-mode:multiply">
<path d="M170.148 89.8759L169.522 89.9918V100.6L170.148 100.482V89.8759Z" fill="#F5C491"/>
</g>
<g style="mix-blend-mode:multiply">
<path d="M161.298 91.0869L160.672 91.1385V101.747C160.882 101.728 161.09 101.714 161.298 101.693V91.0869Z" fill="#F5C491"/>
</g>
<g style="mix-blend-mode:multiply">
<path d="M164.248 90.7797C164.039 90.8054 163.832 90.833 163.623 90.857V101.465C163.832 101.441 164.039 101.414 164.248 101.388V90.7797Z" fill="#F5C491"/>
</g>
<g style="mix-blend-mode:multiply">
<path d="M167.198 90.3839C166.991 90.417 166.782 90.4428 166.572 90.4741V101.081C166.782 101.051 166.991 101.023 167.198 100.99V90.3839Z" fill="#F5C491"/>
</g>
</g>
<path d="M180.145 67.0063C172.379 64.131 162.255 62.6934 152.133 62.6934C141.863 62.6934 131.595 64.166 123.803 67.1259C108.341 72.985 108.474 82.4355 124.113 88.2302C131.881 91.1073 142.007 92.5449 152.131 92.5449C162.4 92.5449 172.666 91.0723 180.46 88.1142C195.935 82.2532 195.792 72.801 180.145 67.0063Z" fill="url(#paint13_linear)"/>
<g style="mix-blend-mode:overlay" opacity="0.6">
<path d="M124.116 88.9996C131.884 91.8767 142.01 93.3125 152.134 93.3125C162.404 93.3125 172.67 91.8399 180.464 88.8836C188.195 85.9532 192.029 82.1262 191.974 78.3085C191.974 78.2073 191.957 78.1042 191.95 78.0029C191.703 81.6679 187.887 85.3089 180.464 88.1271C172.67 91.0723 162.404 92.5578 152.134 92.5578C142.01 92.5578 131.886 91.1202 124.116 88.2431C116.495 85.4193 112.565 81.7268 112.319 78.0085C112.037 81.9716 115.971 85.9808 124.116 88.9996Z" fill="white"/>
</g>
<path d="M172.966 69.7307C167.19 67.5917 159.663 66.5222 152.136 66.5222C144.501 66.5222 136.858 67.6267 131.076 69.8172C119.575 74.1742 119.676 81.2022 131.312 85.5096C137.086 87.6467 144.611 88.7162 152.136 88.7162C159.771 88.7162 167.405 87.6118 173.196 85.4194C184.699 81.0642 184.592 74.0399 172.966 69.7307Z" fill="#F28500"/>
<g style="mix-blend-mode:overlay" opacity="0.6">
<path d="M131.073 72.4879C136.864 70.2937 144.497 69.193 152.133 69.193C159.66 69.193 167.186 70.2625 172.963 72.4014C177.833 74.2054 180.675 76.4879 181.496 78.8441C182.66 75.5197 179.812 72.0333 172.963 69.5022C167.186 67.3743 159.66 66.3011 152.133 66.3011C144.497 66.3011 136.854 67.4056 131.073 69.5961C124.389 72.1271 121.631 75.562 122.771 78.8385C123.584 76.5192 126.347 74.279 131.073 72.4879Z" fill="white"/>
</g>
<path d="M131.073 72.7124C136.864 70.5183 144.497 69.4193 152.133 69.4193C159.66 69.4193 167.186 70.487 172.963 72.6259C177.833 74.4317 180.675 76.7124 181.496 79.0686C182.66 75.746 179.812 72.2578 172.963 69.7286C167.186 67.5896 159.66 66.5201 152.133 66.5201C144.497 66.5201 136.854 67.6246 131.073 69.8151C124.389 72.348 121.631 75.7828 122.771 79.0575C123.584 76.7419 126.347 74.4998 131.073 72.7124Z" fill="#D96D00"/>
<path d="M152.639 85.5093C156.241 85.6732 163.995 85.6179 165.892 84.5098C167.995 83.2838 164.989 82.0855 163.1 81.502C163.957 80.9023 164.7 80.1542 165.294 79.2931C165.761 78.6288 166.014 77.8374 166.018 77.0253C168.545 76.6295 172.909 75.746 172.477 74.4114C172.083 73.2039 164.817 72.5117 161.2 72.3682C159.22 71.6521 156.7 71.1846 153.773 71.0594C144.694 70.6747 135.135 73.734 132.42 77.8941C129.705 82.0542 134.865 85.7394 143.941 86.126C146.855 86.2445 149.772 86.0377 152.639 85.5093V85.5093ZM151.575 74.8495C151.818 74.4814 153.002 74.2144 154.217 74.266C155.431 74.3175 156.219 74.6636 155.976 75.0373C155.733 75.4109 154.55 75.6705 153.335 75.6189C152.12 75.5674 151.332 75.2232 151.575 74.8495V74.8495ZM146.644 80.092C145.486 79.941 145.342 79.5398 145.55 79.2231C145.609 79.1367 145.682 79.0613 145.767 79.0004C146.08 78.7685 146.688 78.5899 147.393 78.4997C146.841 78.3543 146.493 78.1316 146.491 77.8923C146.494 77.8097 146.52 77.7297 146.568 77.6622C146.776 77.3437 147.419 76.9793 148.705 76.9259C148.915 76.9259 149.097 76.9627 149.11 77.0271C149.123 77.0915 148.963 77.1486 148.742 77.156C147.708 77.1946 147.244 77.5978 147.246 77.872C147.247 78.1463 147.836 78.3801 148.718 78.4335L148.812 78.4427H148.832C148.863 78.4477 148.893 78.4558 148.922 78.4666H148.935C148.956 78.4728 148.975 78.4842 148.991 78.4997V78.4997C148.995 78.5059 148.997 78.5133 148.997 78.5209C148.997 78.5285 148.995 78.5359 148.991 78.5421C148.991 78.5421 148.991 78.5421 148.991 78.5421C148.982 78.5497 148.973 78.5559 148.963 78.5605C148.954 78.5681 148.944 78.5743 148.934 78.5789C148.918 78.5864 148.901 78.5926 148.884 78.5973L148.829 78.6139H148.772L148.694 78.6231H148.626C148.606 78.6249 148.586 78.6249 148.565 78.6231C147.671 78.601 146.828 78.7648 146.467 79.0317C146.106 79.2986 146.044 79.7109 146.973 79.8343C147.157 79.8582 147.24 79.9263 147.157 79.9852C147 80.0689 146.821 80.1059 146.644 80.092V80.092ZM146.721 82.3009C146.964 81.9327 148.148 81.6677 149.362 81.7192C150.577 81.7707 151.365 82.115 151.122 82.4886C150.879 82.8623 149.696 83.1237 148.481 83.0703C147.266 83.0169 146.471 82.6727 146.714 82.299L146.721 82.3009Z" fill="#DB7E27"/>
<path d="M152.867 85.1578C156.469 85.3216 164.223 85.2682 166.12 84.1583C168.224 82.9323 165.217 81.7358 163.328 81.1505C164.186 80.5518 164.929 79.8036 165.522 78.9416C165.989 78.2778 166.241 77.4871 166.246 76.6756C168.773 76.278 173.139 75.3871 172.705 74.0617C172.313 72.8542 165.045 72.1621 161.428 72.0185C159.45 71.3024 156.93 70.833 154.001 70.7097C144.922 70.3231 135.363 73.3825 132.648 77.5426C129.933 81.7027 135.093 85.3897 144.171 85.7763C147.084 85.8933 150 85.6858 152.867 85.1578V85.1578ZM151.798 74.498C152.042 74.1298 153.224 73.8648 154.439 73.9163C155.654 73.9678 156.442 74.3121 156.199 74.6857C155.956 75.0594 154.772 75.3208 153.557 75.2674C152.342 75.214 151.56 74.8717 151.798 74.498ZM146.864 79.7405C145.706 79.5895 145.563 79.1882 145.771 78.8735C145.83 78.7864 145.904 78.7104 145.99 78.6489C146.301 78.417 146.91 78.2402 147.613 78.1482C147.061 78.0046 146.713 77.7801 146.712 77.5408C146.716 77.4581 146.743 77.3783 146.791 77.3107C146.997 76.9922 147.639 76.6277 148.926 76.5744C149.138 76.5744 149.318 76.613 149.331 76.6756C149.344 76.7382 149.184 76.7971 148.974 76.8063C147.937 76.8431 147.474 77.2462 147.475 77.5205C147.477 77.7948 148.066 78.0304 148.948 78.0819C148.979 78.0835 149.01 78.0872 149.04 78.093H149.06C149.091 78.0989 149.121 78.1069 149.151 78.1169H149.165C149.185 78.1248 149.203 78.136 149.219 78.15C149.223 78.156 149.225 78.163 149.225 78.1703C149.225 78.1775 149.223 78.1846 149.219 78.1905V78.1905C149.219 78.1905 149.219 78.1905 149.219 78.1997C149.219 78.2089 149.2 78.2108 149.191 78.2182C149.182 78.2251 149.172 78.2313 149.162 78.2366C149.146 78.2437 149.129 78.2493 149.112 78.2531C149.094 78.2608 149.076 78.2664 149.057 78.2697L149.001 78.2789L148.922 78.2881H148.854H148.793C147.901 78.2642 147.056 78.428 146.695 78.6968C146.334 78.9655 146.275 79.4054 147.196 79.5232C147.38 79.549 147.463 79.6171 147.38 79.676C147.217 79.7458 147.039 79.7682 146.864 79.7405ZM146.942 81.9494C147.186 81.5812 148.368 81.3143 149.585 81.3658C150.802 81.4174 151.588 81.7635 151.343 82.1353C151.098 82.5071 149.916 82.7703 148.701 82.7188C147.486 82.6673 146.699 82.323 146.942 81.9494Z" fill="#FFE83B"/>
<path d="M63.0825 86.2403C63.1889 100.996 64.7731 115.704 67.8114 130.144C69.1147 136.344 70.7566 142.661 74.2191 147.815C75.2996 149.426 76.5771 150.93 78.1602 151.9C81.1514 153.73 84.7445 153.415 88.0708 152.927C90.4767 152.574 93.0592 152.055 94.6828 150.102C95.7578 148.813 96.2585 147.061 96.6616 145.349C97.8269 140.388 98.4277 135.312 98.4527 130.216L94.0882 129.793C99.0253 128.788 104.021 128.099 109.046 127.729C110.703 127.606 112.476 127.545 113.959 128.307L108.847 128.552C110.433 133.381 112.545 138.02 115.145 142.387C116.043 143.891 117.041 145.402 118.427 146.299C120.52 147.655 123.054 147.355 125.376 146.952C128.582 146.4 131.984 145.586 134.169 142.928C135.329 141.518 136.039 139.696 136.538 137.833C138.134 131.865 137.705 125.364 136.998 119.057C135.352 104.397 132.287 89.9305 127.846 75.8621L90.3846 62.6786L63.0825 86.2403Z" fill="#FFD087"/>
<path d="M83.8241 154.994C81.6005 154.994 79.3437 154.606 77.2747 153.338C75.6898 152.368 74.2301 150.867 72.809 148.752C69.203 143.377 67.4708 136.798 66.1492 130.49C63.0891 115.939 61.4932 101.117 61.3853 86.2476C61.3835 86.0015 61.4353 85.758 61.537 85.5339C61.6387 85.3098 61.7879 85.1105 61.9743 84.9498L89.2746 61.3882C89.5009 61.1927 89.7748 61.0604 90.0686 61.0048C90.3625 60.9492 90.6658 60.9722 90.9478 61.0716L128.409 74.2587C128.658 74.3456 128.882 74.4894 129.066 74.6786C129.249 74.8678 129.385 75.0972 129.464 75.3485C133.938 89.5219 137.026 104.096 138.686 118.866C139.404 125.268 139.84 132.047 138.178 138.26C137.525 140.706 136.641 142.582 135.481 143.994C132.904 147.123 129.064 148.022 125.666 148.612C123.089 149.063 120.109 149.402 117.503 147.712C115.772 146.591 114.625 144.82 113.687 143.247C111.11 138.919 109.001 134.329 107.395 129.555C104.976 129.77 102.556 130.063 100.15 130.429C100.107 135.581 99.4899 140.712 98.309 145.726C97.8875 147.519 97.3242 149.564 95.9823 151.177C93.9777 153.588 90.9718 154.206 88.3119 154.597C86.8275 154.837 85.3277 154.97 83.8241 154.994V154.994ZM64.7889 87.0115C64.9434 101.391 66.512 115.721 69.4717 129.794C70.9259 136.697 72.5274 142.242 75.6291 146.864C76.7703 148.565 77.8895 149.737 79.0474 150.446C81.5802 151.996 84.7721 151.688 87.8241 151.241C89.9557 150.928 92.1388 150.505 93.3776 149.01C94.2483 147.966 94.6754 146.369 95.0104 144.96C96.0278 140.628 96.6032 136.205 96.7278 131.757L93.9244 131.484C93.5183 131.448 93.1389 131.266 92.8557 130.973C92.5725 130.679 92.4043 130.294 92.382 129.887C92.3596 129.48 92.4846 129.078 92.734 128.756C92.9834 128.433 93.3406 128.211 93.7403 128.13C98.7481 127.112 103.815 126.413 108.912 126.037C110.839 125.896 112.873 125.839 114.732 126.801C115.064 126.973 115.33 127.249 115.489 127.587C115.648 127.926 115.691 128.307 115.611 128.672C115.531 129.037 115.333 129.365 115.047 129.606C114.761 129.847 114.404 129.987 114.031 130.004L111.185 130.14C112.629 134.093 114.44 137.903 116.593 141.518C117.33 142.762 118.222 144.152 119.34 144.876C120.917 145.897 123.038 145.636 125.074 145.281C128 144.771 131.012 144.086 132.849 141.851C133.694 140.822 134.362 139.364 134.889 137.395C136.321 132.044 136.089 126.273 135.303 119.258C133.697 104.988 130.739 90.9028 126.467 77.1929L90.749 64.6132L64.7889 87.0115Z" fill="#7B413B"/>
<path d="M63.1283 84.1897C57.2839 79.9357 44.3213 67.0707 36.3619 73.1065C33.9211 74.9583 32.7964 78.2606 33.2437 81.2887C34.2156 87.8712 40.5607 94.8219 45.9449 98.2089C52.7557 102.502 60.7887 104.375 68.4352 106.592" fill="#96E2CE"/>
<path d="M68.4334 108.412C68.2614 108.412 68.0903 108.387 67.9253 108.339C66.8559 108.029 65.7772 107.726 64.6966 107.418C57.9889 105.528 51.0511 103.575 44.9711 99.746C39.031 96.0038 32.4779 88.5524 31.4434 81.5502C30.8801 77.7269 32.3785 73.8411 35.2611 71.6542C43.0659 65.7307 53.8141 74.4043 60.9249 80.1438C62.1932 81.1691 63.2903 82.0527 64.1996 82.7209C64.5902 83.0048 64.852 83.4322 64.9274 83.9091C65.0028 84.386 64.8857 84.8733 64.6018 85.2639C64.318 85.6544 63.8906 85.9162 63.4136 85.9917C62.9367 86.0671 62.4494 85.95 62.0588 85.6661C61.0759 84.95 59.9475 84.0407 58.6406 82.9841C52.7906 78.2626 42.9941 70.3602 37.4608 74.5608C35.6477 75.9377 34.6757 78.5368 35.0439 81.0274C35.9072 86.881 41.8013 93.458 46.9094 96.6738C52.544 100.223 59.2241 102.104 65.6851 103.923C66.7749 104.23 67.8609 104.536 68.9396 104.843C69.3592 104.966 69.7205 105.236 69.9574 105.604C70.1943 105.971 70.2909 106.412 70.2297 106.845C70.1685 107.278 69.9535 107.674 69.624 107.962C69.2945 108.249 68.8725 108.409 68.4352 108.41L68.4334 108.412Z" fill="#7B413B"/>
<path d="M143.146 27.4152C143.186 19.1042 140.896 5.06847 132.12 2.46564C122.428 -0.411465 111.023 7.23504 107.338 12.3358C96.1664 10.1288 84.6662 10.1814 73.5156 12.4904C69.7862 7.42279 61.0242 0.569658 53.6612 2.89453C42.5375 6.4067 45.1716 21.9077 45.2876 30.2169C38.9591 37.7382 36.7318 47.6783 39.2941 57.2502C44.3451 76.1456 62.3477 83.1331 80.0208 85.8961C98.9659 88.8597 126.498 87.0005 141.217 72.9961C153.623 61.2005 154.19 40.3005 143.146 27.4152Z" fill="white"/>
<path d="M95.9251 88.9351C90.5062 88.9407 85.095 88.529 79.7393 87.7037C69.1108 86.047 60.6856 83.2546 53.9798 79.1865C45.4994 74.0324 39.9661 66.8203 37.5345 57.7269C34.8727 47.7685 37.0301 37.5504 43.4543 29.5799C43.4267 28.6099 43.3733 27.5422 43.3163 26.4249C42.8782 17.7328 42.2118 4.60088 53.1128 1.15866C61.0998 -1.36133 69.9575 5.20833 74.2612 10.4821C84.9363 8.4202 95.9027 8.37088 106.596 10.3367C110.981 5.15494 122.268 -2.36454 132.639 0.718722C141.631 3.38782 144.884 16.251 144.972 26.7525C156.313 40.5582 155.232 62.1871 142.474 74.3232C135.555 80.9058 125.191 85.5003 112.507 87.6116C107.025 88.5041 101.479 88.9468 95.9251 88.9351V88.9351ZM56.7501 4.26034C55.8889 4.25541 55.0321 4.38331 54.2099 4.63953C45.9927 7.23316 46.5247 17.777 46.9536 26.2482C47.0236 27.66 47.0917 28.9946 47.1082 30.1984V30.8758L46.6904 31.3876C40.7024 38.5095 38.65 47.7703 41.0613 56.79C45.0337 71.6615 57.8674 80.5965 80.3007 84.105C100.223 87.2195 126.395 84.5873 139.961 71.6854C151.523 60.6869 152.35 40.9558 141.765 28.6007L141.325 28.0852V27.406C141.337 25.0811 141.154 19.0619 139.216 13.3886C137.473 8.28607 134.91 5.19176 131.604 4.21064C126.717 2.76012 121.664 4.40944 118.27 6.05139C113.567 8.32841 110.237 11.4356 108.814 13.4144L108.127 14.3606L106.979 14.1286C96.0502 11.9695 84.7997 12.0208 73.8912 14.2796L72.7444 14.5207L72.0505 13.5782C69.0022 9.42918 62.4933 4.25297 56.7501 4.25297V4.26034Z" fill="#7B413B"/>
<path d="M77.1548 52.2029C77.1548 52.2029 81.105 52.041 81.8045 48.3245C81.8045 48.3245 82.909 51.728 86.4966 52.5048C86.4966 52.5048 87.9692 59.8145 82.2721 59.5163C76.5749 59.2181 77.1548 52.2029 77.1548 52.2029Z" fill="#EF8FA0"/>
<path d="M77.2304 53.1674C76.8309 55.1683 77.6133 57.3864 79.1485 58.5976C79.9085 59.1911 80.8301 59.5412 81.7925 59.6019C82.7549 59.6627 83.7132 59.4313 84.5419 58.9381C85.1433 58.583 85.64 58.0749 85.9813 57.4655C86.6348 56.2433 86.4986 54.732 86.3403 53.333" fill="#EF8FA0"/>
<path d="M76.4353 52.9981C75.7782 56.6208 78.1896 60.1771 81.6428 60.4569C82.4841 60.5341 83.3318 60.4118 84.117 60.0999C84.9022 59.7881 85.6028 59.2955 86.1619 58.6622C87.432 57.1803 87.3565 55.1334 87.1504 53.2669C87.027 52.1624 85.409 52.2784 85.5323 53.3957C85.6815 54.7395 85.9005 56.341 84.993 57.4454C84.2144 58.4044 82.9387 58.8223 81.779 58.7339C79.2701 58.5296 77.5453 55.9636 78.0257 53.3387C78.2264 52.2342 76.6341 51.8992 76.4353 53V52.9981Z" fill="#7D3D41"/>
<path d="M81.7916 54.1208C81.5949 52.9016 81.5949 51.6586 81.7916 50.4393Z" fill="#7D3D41"/>
<path d="M82.3493 53.8391C82.2995 53.5336 82.2609 53.2243 82.2351 52.9095L82.2572 53.182C82.214 52.5962 82.214 52.008 82.2572 51.4222L82.237 51.6965C82.2627 51.3578 82.3014 51.0283 82.3529 50.7006C82.4358 50.1852 82.2462 49.5612 81.9424 49.4397C81.6387 49.3182 81.3221 49.6091 81.2338 50.1594C81.0106 51.5619 81.0106 52.9908 81.2338 54.3932C81.3184 54.9086 81.6516 55.2786 81.9498 55.1074C82.248 54.9362 82.4394 54.395 82.3493 53.8428V53.8391Z" fill="#7D3D41"/>
<path d="M76.1609 53.2832C73.8323 53.2832 71.1651 52.2782 70.484 49.5667C70.4573 49.4598 70.4519 49.3486 70.4682 49.2396C70.4844 49.1305 70.522 49.0257 70.5787 48.9312C70.6355 48.8367 70.7103 48.7543 70.7989 48.6886C70.8875 48.623 70.9882 48.5755 71.0951 48.5488C71.2021 48.5221 71.3133 48.5167 71.4223 48.533C71.5314 48.5492 71.6361 48.5868 71.7307 48.6435C71.8252 48.7003 71.9076 48.7751 71.9732 48.8637C72.0388 48.9523 72.0864 49.053 72.1131 49.1599C72.6837 51.4406 75.5534 51.8861 77.4089 51.4738C79.338 51.0467 80.6965 49.3643 80.7885 47.2879C80.8014 47.0675 80.9004 46.8611 81.0643 46.7133C81.2282 46.5654 81.4438 46.4881 81.6643 46.498C81.8848 46.508 82.0925 46.6043 82.2424 46.7663C82.3924 46.9282 82.4725 47.1428 82.4655 47.3634C82.3403 50.1632 80.4112 52.5175 77.7716 53.1139C77.2423 53.2279 76.7023 53.2846 76.1609 53.2832V53.2832Z" fill="#7D3D42"/>
<path d="M87.0712 53.2338C86.5542 53.2353 86.0385 53.1828 85.5324 53.0773C82.889 52.5159 80.9305 50.1689 80.7887 47.371C80.7783 47.2585 80.7907 47.1451 80.8251 47.0375C80.8596 46.9299 80.9154 46.8304 80.9892 46.7449C81.0631 46.6594 81.1534 46.5897 81.2548 46.5399C81.3562 46.4902 81.4666 46.4614 81.5794 46.4553C81.6922 46.4492 81.8051 46.466 81.9112 46.5046C82.0174 46.5432 82.1147 46.6028 82.1973 46.6799C82.2799 46.7569 82.346 46.8499 82.3918 46.9531C82.4376 47.0564 82.4621 47.1678 82.4638 47.2808C82.5743 49.3553 83.9475 51.0249 85.8821 51.4354C87.7413 51.8311 90.6055 51.3581 91.1559 49.0718C91.2081 48.8553 91.3442 48.6684 91.5343 48.5523C91.7243 48.4361 91.9527 48.4002 92.1692 48.4524C92.3857 48.5047 92.5726 48.6408 92.6888 48.8308C92.805 49.0209 92.8409 49.2492 92.7886 49.4658C92.126 52.2122 89.4182 53.2338 87.0712 53.2338Z" fill="#7D3D42"/>
<path d="M115.413 37.3904C113.928 37.5479 112.503 38.0571 111.255 38.8759C110.15 39.6232 108.613 40.9173 108.403 42.3144C108.153 43.995 110.428 44.8013 111.647 45.324C113.233 46.011 114.905 46.4798 116.617 46.7175C117.263 46.8058 117.905 46.5537 118.089 45.8671C118.242 45.302 117.889 44.4755 117.239 44.3945C115.977 44.2266 114.735 43.9274 113.535 43.5017C112.976 43.3029 112.429 43.0693 111.899 42.8022C111.45 42.5776 110.826 42.3494 110.496 41.9628L110.809 42.4948C110.748 42.7783 110.782 42.7912 110.905 42.5353C110.968 42.4396 111.034 42.3512 111.102 42.2537C111.238 42.0822 111.383 41.9181 111.536 41.7622C111.873 41.4125 112.25 41.1036 112.659 40.8418C113.493 40.3 114.435 39.9487 115.42 39.8128C116.066 39.7318 116.624 39.3103 116.622 38.6016C116.622 38.0107 116.07 37.3131 115.409 37.3996L115.413 37.3904Z" fill="#7D3D41"/>
<path d="M134.399 45.9885C134.182 45.9877 133.973 45.9061 133.814 45.7596C133.654 45.6131 133.554 45.4123 133.535 45.1964C133.515 44.9804 133.577 44.765 133.708 44.5921C133.839 44.4193 134.029 44.3015 134.243 44.2618L140.339 43.1445C140.453 43.1201 140.571 43.1187 140.685 43.1406C140.799 43.1625 140.908 43.2071 141.005 43.2718C141.102 43.3365 141.185 43.4199 141.249 43.5173C141.313 43.6146 141.357 43.7238 141.378 43.8383C141.399 43.9529 141.397 44.0706 141.372 44.1843C141.346 44.298 141.299 44.4055 141.231 44.5005C141.164 44.5954 141.078 44.6758 140.979 44.737C140.879 44.7981 140.769 44.8387 140.654 44.8564L134.555 45.9737C134.504 45.9832 134.451 45.9881 134.399 45.9885V45.9885Z" fill="#7D3D42"/>
<path d="M140.328 52.3023C140.238 52.3026 140.149 52.2883 140.064 52.26L134.156 50.3843C133.948 50.3046 133.779 50.1489 133.683 49.9488C133.587 49.7487 133.571 49.5194 133.638 49.3078C133.705 49.0962 133.851 48.9183 134.045 48.8104C134.239 48.7026 134.467 48.6729 134.682 48.7276L140.591 50.6051C140.789 50.6678 140.959 50.7994 141.068 50.9761C141.178 51.1528 141.221 51.363 141.189 51.5685C141.157 51.774 141.053 51.9614 140.895 52.0966C140.737 52.2319 140.536 52.3062 140.328 52.306V52.3023Z" fill="#7D3D42"/>
<path d="M46.2669 46.3896C46.2169 46.3899 46.167 46.3856 46.1178 46.3767L40.0102 45.3146C39.8977 45.2951 39.7901 45.2535 39.6936 45.1923C39.5972 45.1312 39.5137 45.0516 39.448 44.9582C39.3822 44.8648 39.3356 44.7594 39.3106 44.6479C39.2856 44.5365 39.2828 44.4212 39.3024 44.3087C39.322 44.1961 39.3636 44.0886 39.4247 43.9921C39.4859 43.8956 39.5654 43.8122 39.6588 43.7464C39.7522 43.6807 39.8577 43.634 39.9691 43.6091C40.0806 43.5841 40.1959 43.5813 40.3084 43.6009L46.416 44.6612C46.6307 44.6985 46.8236 44.815 46.9566 44.9877C47.0896 45.1604 47.153 45.3767 47.1342 45.5938C47.1155 45.8109 47.016 46.0131 46.8555 46.1605C46.6949 46.3078 46.4849 46.3896 46.2669 46.3896V46.3896Z" fill="#7D3D42"/>
<path d="M40.3969 52.7587C40.1892 52.7597 39.9879 52.6864 39.8295 52.552C39.671 52.4176 39.5658 52.231 39.533 52.0258C39.5001 51.8207 39.5416 51.6106 39.6501 51.4334C39.7586 51.2562 39.9268 51.1236 40.1245 51.0596L46.0149 49.1287C46.1237 49.093 46.2384 49.0792 46.3526 49.0878C46.4667 49.0965 46.578 49.1276 46.6802 49.1793C46.7823 49.231 46.8732 49.3023 46.9478 49.3892C47.0224 49.476 47.0791 49.5767 47.1148 49.6855C47.1504 49.7943 47.1643 49.909 47.1556 50.0232C47.1469 50.1373 47.1158 50.2486 47.0641 50.3508C47.0124 50.4529 46.9411 50.5438 46.8543 50.6184C46.7674 50.693 46.6667 50.7497 46.5579 50.7854L40.6675 52.7163C40.5801 52.7445 40.4888 52.7588 40.3969 52.7587V52.7587Z" fill="#7D3D42"/>
<path d="M130.126 81.6769C132.722 77.5499 135.478 73.6125 138.329 69.6586C142.318 64.1253 151.476 56.9077 157.055 64.7714C162.378 72.2761 157.099 82.3911 152.221 88.6386C146.563 95.8857 139.363 102.076 131.897 107.398" fill="#96E2CE"/>
<path d="M131.899 109.218C131.513 109.219 131.137 109.097 130.825 108.87C130.513 108.643 130.281 108.323 130.163 107.955C130.045 107.588 130.047 107.192 130.169 106.826C130.291 106.46 130.526 106.142 130.84 105.918C139.308 99.8766 145.837 93.8573 150.787 87.5196C160.328 75.3006 157.312 68.2763 155.573 65.8244C154.284 64.015 152.79 63.1314 150.988 63.1259H150.965C147.236 63.1259 142.531 66.9436 139.805 70.7227C137.333 74.152 134.432 78.2495 131.669 82.6452C131.412 83.0536 131.003 83.3433 130.533 83.4505C130.063 83.5576 129.569 83.4736 129.161 83.2168C128.752 82.96 128.463 82.5515 128.356 82.0812C128.248 81.6108 128.332 81.1172 128.589 80.7088C131.406 76.2265 134.349 72.0701 136.854 68.5948C140.127 64.0573 145.756 59.4867 150.965 59.4867H151C153.977 59.4977 156.585 60.9593 158.547 63.7204C161.274 67.5621 161.835 72.2634 160.217 77.6973C158.757 82.6011 155.849 86.9637 153.664 89.7598C148.497 96.3865 141.725 102.634 132.963 108.882C132.652 109.103 132.28 109.221 131.899 109.218V109.218Z" fill="#7B413B"/>
<path d="M123.385 53.7049C126.267 53.6918 128.598 52.4417 128.591 50.9128C128.584 49.3838 126.242 48.1549 123.36 48.168C120.478 48.181 118.147 49.4311 118.154 50.9601C118.161 52.4891 120.503 53.718 123.385 53.7049Z" fill="#F397B7"/>
<path d="M52.5678 54.0283C55.4499 54.0152 57.7807 52.7651 57.7738 51.2361C57.7668 49.7071 55.4248 48.4783 52.5427 48.4913C49.6606 48.5044 47.3298 49.7545 47.3368 51.2835C47.3437 52.8125 49.6857 54.0413 52.5678 54.0283Z" fill="#F397B7"/>
<path d="M61.2139 47.4279C64.0411 47.4279 66.333 45.1359 66.333 42.3087C66.333 39.4815 64.0411 37.1896 61.2139 37.1896C58.3866 37.1896 56.0947 39.4815 56.0947 42.3087C56.0947 45.1359 58.3866 47.4279 61.2139 47.4279Z" fill="#7D3D42"/>
<path d="M107.284 107.537L92.5395 109.573C89.5162 109.99 87.4037 112.779 87.821 115.801C88.2383 118.824 91.0274 120.936 94.0506 120.519L108.795 118.483C111.818 118.066 113.931 115.277 113.514 112.255C113.096 109.232 110.307 107.12 107.284 107.537Z" fill="white"/>
<path d="M134.863 89.5203C134.27 92.4655 133.123 95.3537 130.91 97.2902C127.579 100.195 124.582 98.6118 120.738 98.9468C117.725 99.2009 115.987 101.68 114.187 103.981C111.091 107.937 105.773 109.32 101.939 105.973C99.3949 103.753 97.6185 101.555 94.8813 101.892C92.157 101.579 90.3844 103.792 87.8607 106.03C84.0577 109.413 78.7195 108.083 75.5902 104.152C73.7697 101.868 72.0099 99.4052 68.9929 99.1825C65.1476 98.8879 62.1656 100.499 58.808 97.6233C56.577 95.7053 55.4045 92.8374 54.7934 89.8922C54.092 86.5788 54.7786 82.5604 55.9917 78.5568C63.0123 82.4334 71.2828 84.6313 79.4871 85.9198C95.6986 88.4508 118.209 87.455 133.583 78.3212C134.818 82.2585 135.523 86.2346 134.863 89.5203Z" fill="white"/>
<path d="M133.355 89.1044C133.166 90.0603 132.909 91.0015 132.585 91.9208C132.512 92.1288 132.434 92.3349 132.35 92.5392C132.249 92.7933 132.427 92.3736 132.315 92.6221C132.271 92.7233 132.225 92.8227 132.179 92.9221C131.969 93.3642 131.736 93.7944 131.479 94.2107C131.032 94.9553 130.466 95.6218 129.804 96.1839C129.511 96.4413 129.191 96.6654 128.849 96.8521C128.67 96.9559 128.485 97.0506 128.296 97.1356C128.525 97.0362 128.296 97.1356 128.252 97.1485C128.114 97.1945 127.976 97.2442 127.836 97.2847C127.652 97.3381 127.468 97.3823 127.284 97.4209C127.192 97.4393 127.1 97.4541 127.006 97.4706C127.306 97.4191 127.069 97.4706 127.006 97.4706C126.586 97.5092 126.165 97.5258 125.743 97.5203C124.889 97.5056 124.041 97.4228 123.188 97.3749C121.243 97.2626 119.299 97.3565 117.568 98.3523C116.017 99.2451 114.842 100.631 113.754 102.021C113.237 102.728 112.67 103.397 112.057 104.024C111.893 104.182 111.724 104.335 111.551 104.482C111.474 104.547 111.396 104.611 111.317 104.666C111.12 104.826 111.483 104.548 111.279 104.696C110.921 104.955 110.548 105.193 110.161 105.408C109.977 105.513 109.773 105.605 109.578 105.701C109.532 105.725 109.303 105.818 109.556 105.715C109.469 105.752 109.372 105.785 109.291 105.818C108.893 105.966 108.485 106.084 108.07 106.172C107.971 106.192 107.47 106.268 107.798 106.229C107.614 106.251 107.43 106.268 107.246 106.277C106.83 106.297 106.414 106.283 106.001 106.234C106.327 106.273 105.841 106.201 105.731 106.177C105.547 106.137 105.362 106.091 105.188 106.038C105.013 105.984 104.819 105.92 104.652 105.853C104.227 105.697 104.808 105.933 104.562 105.813C104.453 105.76 104.343 105.708 104.236 105.651C104.062 105.558 103.89 105.458 103.722 105.353C103.638 105.299 103.555 105.242 103.472 105.185C103.503 105.207 103.104 104.911 103.258 105.034C103.025 104.85 102.513 104.379 102.183 104.079C100.667 102.697 99.1204 101.134 97.1011 100.528C96.1899 100.254 95.2051 100.269 94.2645 100.293C93.2466 100.331 92.2522 100.61 91.3635 101.108C89.5338 102.104 88.1642 103.753 86.5886 105.077C86.5628 105.097 86.3088 105.296 86.4413 105.196C86.5738 105.097 86.318 105.281 86.2904 105.299C86.1063 105.426 85.9222 105.546 85.7216 105.656C85.5209 105.767 85.3773 105.841 85.2025 105.925C85.1565 105.949 84.9264 106.039 85.1804 105.938C85.0478 105.991 84.9153 106.039 84.7809 106.084C84.4257 106.199 84.0628 106.288 83.6949 106.352C83.6249 106.365 83.3948 106.371 83.6949 106.352C83.6029 106.352 83.5108 106.371 83.4188 106.376C83.1893 106.393 82.9592 106.399 82.7285 106.393C82.5444 106.393 82.3603 106.374 82.1763 106.361C81.8707 106.338 82.1137 106.361 82.1763 106.361L81.902 106.315C81.486 106.239 81.0762 106.132 80.6761 105.995C80.6171 105.975 80.1017 105.776 80.3834 105.896C80.1993 105.82 80.0318 105.737 79.8606 105.649C79.4671 105.451 79.0876 105.226 78.7248 104.975L78.4819 104.802C78.0935 104.528 78.6015 104.905 78.3825 104.727C78.226 104.6 78.0732 104.467 77.9223 104.333C77.581 104.021 77.2589 103.688 76.9577 103.337C76.3908 102.673 75.8735 101.966 75.3102 101.298C74.1009 99.8673 72.689 98.6119 70.9016 97.9732C69.1511 97.3491 67.1925 97.57 65.3794 97.7099C64.5757 97.7893 63.7672 97.809 62.9606 97.7688L62.6109 97.7375C62.6753 97.7375 62.9128 97.7909 62.6109 97.7375C62.4268 97.7026 62.2427 97.6657 62.0586 97.6197C61.8746 97.5737 61.6905 97.5074 61.5064 97.4485C61.2266 97.3602 61.3941 97.4117 61.4604 97.4485C61.3187 97.3878 61.1788 97.3179 61.0407 97.2461C59.4374 96.4048 58.4489 95.0997 57.6408 93.4928C57.2457 92.6985 56.9312 91.8666 56.702 91.0096C56.5793 90.5543 56.4652 90.0947 56.3597 89.6308C56.3118 89.4136 56.2713 89.1946 56.2308 88.9755C56.2308 88.9516 56.1829 88.6737 56.2124 88.8872C56.1922 88.7454 56.1793 88.6037 56.1664 88.462C55.9639 86.3304 56.2124 84.3276 56.6487 82.2991C56.8696 81.1799 57.1678 80.0755 57.4991 78.971L55.2073 79.8914C60.4535 82.774 66.1838 84.7068 72.0042 86.0487C77.16 87.2318 82.3998 88.0134 87.6764 88.3865C97.9515 89.1228 108.477 88.5006 118.491 85.9935C124.024 84.6019 129.454 82.5715 134.375 79.6595L132.081 78.728C132.647 80.5048 133.078 82.3219 133.37 84.1638C133.491 85.0231 133.552 85.8897 133.554 86.7574C133.554 87.1716 133.541 87.5858 133.508 87.9981C133.508 88.0607 133.443 88.635 133.469 88.438C133.439 88.6626 133.397 88.8835 133.355 89.1044C133.2 89.9033 133.579 90.8273 134.445 91.0261C135.218 91.201 136.199 90.7924 136.366 89.9346C137.147 85.907 136.287 81.7561 135.092 77.8979C135.026 77.6692 134.908 77.4586 134.749 77.2817C134.589 77.1049 134.392 76.9664 134.171 76.8766C133.951 76.7868 133.713 76.7481 133.475 76.7634C133.237 76.7786 133.006 76.8474 132.799 76.9646C131.739 77.5917 130.656 78.1783 129.55 78.7244C129.038 78.9784 128.522 79.2238 128 79.4607C127.371 79.746 126.958 79.9227 126.498 80.1105C124.177 81.0554 121.803 81.8624 119.387 82.5274C116.948 83.2048 114.472 83.7515 111.98 84.1841C111.358 84.2933 110.735 84.3951 110.112 84.4896C109.841 84.532 109.569 84.5725 109.298 84.6111L108.808 84.6792L108.733 84.6903L108.407 84.7326C107.155 84.8946 105.901 85.0314 104.643 85.1431C99.6156 85.5847 94.5633 85.6659 89.5246 85.3861C87.2126 85.2633 84.9073 85.0609 82.6088 84.7786L81.7455 84.6682C81.693 84.6643 81.6408 84.6575 81.5891 84.6479L81.3056 84.6093C80.6503 84.5172 79.9968 84.4178 79.3452 84.3111C77.9118 84.0791 76.4834 83.8177 75.0599 83.5269C68.6817 82.2181 62.4415 80.3093 56.783 77.1984C56.5756 77.0815 56.3445 77.013 56.107 76.998C55.8694 76.9829 55.6315 77.0217 55.411 77.1114C55.1905 77.2011 54.9931 77.3395 54.8335 77.5161C54.674 77.6928 54.5564 77.9032 54.4895 78.1316C53.1715 82.5145 52.3799 87.1035 53.6022 91.5968C54.6625 95.501 57.1714 99.7384 61.4199 100.685C63.2054 101.084 64.9836 100.843 66.7839 100.736C67.2238 100.71 67.6656 100.694 68.1055 100.699C68.3485 100.699 68.5915 100.709 68.8418 100.725C68.9486 100.725 69.0572 100.74 69.164 100.749C68.8694 100.72 69.337 100.786 69.348 100.79C69.542 100.832 69.7337 100.884 69.9224 100.946C70.0144 100.975 70.1064 101.009 70.1966 101.044C69.95 100.95 70.1764 101.044 70.2242 101.058C70.4083 101.158 70.609 101.255 70.793 101.368C70.8961 101.43 70.9974 101.496 71.0968 101.563C71.1244 101.583 71.4318 101.804 71.29 101.697C71.1483 101.59 71.4925 101.866 71.4741 101.85L71.695 102.043C71.8423 102.176 71.984 102.314 72.1239 102.454C72.4626 102.792 72.7811 103.149 73.0903 103.516C73.672 104.202 74.1947 104.935 74.7912 105.614C76.0841 107.097 77.7256 108.236 79.5679 108.927C81.2792 109.568 83.1399 109.696 84.9227 109.296C87.0138 108.824 88.5729 107.523 90.1026 106.098C90.4707 105.75 90.8499 105.401 91.2328 105.06C91.404 104.909 91.5752 104.76 91.7519 104.616C91.7887 104.585 92.0611 104.366 91.8863 104.5C91.9912 104.419 92.0998 104.342 92.2102 104.267C92.56 104.013 92.935 103.796 93.3294 103.619C93.0883 103.722 93.3202 103.619 93.3662 103.619C93.484 103.586 93.5982 103.543 93.716 103.514C93.8338 103.484 93.9 103.468 94.0013 103.449C94.1025 103.431 94.0988 103.431 93.9534 103.449C94.0289 103.449 94.1025 103.437 94.178 103.435C94.6161 103.414 95.0689 103.418 95.507 103.425C95.6083 103.425 95.7077 103.435 95.8089 103.442C95.5383 103.424 95.7739 103.442 95.8328 103.442C96.0715 103.493 96.3069 103.558 96.5378 103.637C96.8287 103.737 96.6336 103.68 96.5728 103.652C96.6851 103.705 96.7974 103.76 96.906 103.821C97.1103 103.932 97.3054 104.053 97.4987 104.189C97.5852 104.248 97.6718 104.311 97.7583 104.373C97.7748 104.386 97.9902 104.545 97.8319 104.423C98.0546 104.594 98.2682 104.778 98.4817 104.963C100.124 106.382 101.567 107.957 103.612 108.799C105.337 109.473 107.227 109.601 109.027 109.167C110.868 108.747 112.575 107.759 113.975 106.498C115.33 105.279 116.267 103.685 117.526 102.374C117.832 102.053 118.156 101.751 118.498 101.469C118.277 101.653 118.717 101.316 118.765 101.285C118.965 101.151 119.172 101.028 119.385 100.917C119.472 100.872 119.558 100.832 119.647 100.791C119.406 100.902 119.626 100.791 119.676 100.791C119.888 100.72 120.096 100.65 120.315 100.598C120.412 100.574 120.512 100.556 120.611 100.535C120.893 100.482 120.243 100.554 120.736 100.521C121.007 100.502 121.278 100.482 121.548 100.477C123.273 100.434 124.992 100.758 126.715 100.635C128.846 100.492 130.854 99.5844 132.37 98.0799C133.879 96.6073 134.896 94.7316 135.597 92.7675C135.919 91.8477 136.176 90.9067 136.366 89.9511C136.528 89.1541 136.134 88.2264 135.275 88.0312C134.494 87.838 133.53 88.2503 133.355 89.1044Z" fill="#7B413B"/>
<path d="M56.3136 171.975C36.566 171.977 18.0829 159.328 11.5427 139.451C9.5877 133.574 8.81221 127.369 9.26076 121.192C9.70931 115.014 11.3731 108.986 14.1566 103.453C16.9102 97.9329 20.7305 93.0129 25.3967 88.9777C30.0629 84.9424 35.4826 81.872 41.3425 79.9436C47.2024 78.0153 53.3864 77.2674 59.537 77.7432C65.6877 78.2189 71.6831 79.9088 77.1767 82.7153C82.702 85.5147 87.6202 89.3774 91.6492 94.0818C95.6783 98.7862 98.7389 104.24 100.656 110.13C102.611 116.007 103.388 122.212 102.94 128.39C102.492 134.567 100.83 140.596 98.0472 146.129C94.1762 153.886 88.2222 160.413 80.8521 164.977C73.4819 169.542 64.9866 171.965 56.3173 171.975H56.3136ZM55.9639 81.3071C49.1195 81.3352 42.3793 82.9858 36.2965 86.1235C30.2137 89.2613 24.9617 93.7968 20.9714 99.3577C16.9811 104.919 14.3664 111.346 13.3417 118.114C12.3171 124.881 12.9118 131.795 15.077 138.288C22.5762 161.069 47.0749 173.544 69.6996 166.102C75.0976 164.337 80.0899 161.514 84.3851 157.799C88.6802 154.083 92.192 149.549 94.7155 144.462C97.2808 139.364 98.8144 133.81 99.2282 128.118C99.642 122.426 98.9279 116.708 97.1269 111.293V111.293C94.2869 102.605 88.7824 95.032 81.3948 89.6494C74.0071 84.2667 65.1117 81.3479 55.9712 81.3071H55.9639Z" fill="#7B413B"/>
<path d="M68.7596 165.354C91.6948 157.818 104.192 133.157 96.6718 110.272C89.152 87.3865 64.4633 74.9439 41.528 82.4802C18.5927 90.0165 6.096 114.678 13.6158 137.563C21.1356 160.448 45.8243 172.891 68.7596 165.354Z" fill="#FFFDEE"/>
<path d="M98.9 111.957C106.396 134.746 94.1306 159.239 71.5022 166.685C48.8738 174.131 24.4561 161.698 16.9606 138.919C9.46501 116.14 21.73 91.6355 44.3584 84.1896C66.9868 76.7438 91.4044 89.1762 98.9 111.957Z" fill="#E68725"/>
<path d="M97.1049 110.849C104.451 133.172 92.0631 157.306 69.4346 164.75C46.8062 172.194 22.5101 160.134 15.1655 137.811C7.82084 115.488 20.2073 91.3539 42.8357 83.9099C65.4641 76.4659 89.764 88.5265 97.1049 110.849Z" fill="url(#paint14_linear)"/>
<g style="mix-blend-mode:overlay" opacity="0.3">
<path d="M15.1802 138.026C8.19456 114.435 21.0338 91.0575 42.8523 83.9227C65.039 76.6683 89.5928 88.4565 97.243 111.024L15.1802 138.026Z" fill="white"/>
</g>
<path d="M88.2678 113.64C94.0256 131.127 84.3157 150.05 66.5818 155.883C48.848 161.717 29.8053 152.266 24.0493 134.77C18.2933 117.274 28.0032 98.3617 45.7371 92.5265C63.4709 86.6913 82.5117 96.1435 88.2678 113.64Z" fill="#D77D28"/>
<path d="M89.256 115.203C94.8814 132.3 85.2634 150.825 67.7725 156.579C50.2817 162.333 31.5409 153.141 25.9156 136.044C20.2902 118.947 29.91 100.423 47.4009 94.6672C64.8918 88.9112 83.6325 98.115 89.256 115.203Z" fill="#FAF3CD"/>
<path d="M87.739 114.104C93.2189 130.759 83.6985 148.853 66.4764 154.521C49.2543 160.189 30.8596 151.281 25.3742 134.626C19.8887 117.971 29.4128 99.8746 46.6368 94.2088C63.8607 88.5429 82.2646 97.4485 87.739 114.104Z" fill="#FBB325"/>
<path opacity="0.2" d="M25.7059 134.991C25.7048 135.001 25.7048 135.012 25.7059 135.022C31.1177 151.475 49.4056 160.24 66.5504 154.597C83.6952 148.953 93.2156 131.046 87.8019 114.593L87.7909 114.562L25.7059 134.991Z" fill="#F6932B"/>
<path d="M80.7206 117.504C80.7593 113.323 79.4082 104.629 75.2186 103.3C70.5891 101.828 66.8248 106.098 65.0521 108.655C59.7204 107.519 54.2091 107.519 48.8774 108.655C47.1047 106.098 43.3404 101.831 38.7109 103.3C34.5213 104.629 33.1702 113.323 33.2089 117.504C30.9834 120.265 29.7114 123.442 29.7114 126.833C29.7114 137.343 41.912 145.862 56.9638 145.862C72.0157 145.862 84.207 137.343 84.207 126.833C84.2162 123.442 82.9535 120.259 80.7206 117.504ZM43.3533 126.534C42.6944 126.509 42.0708 126.23 41.6135 125.755C41.1562 125.28 40.9007 124.646 40.9007 123.987C40.9007 123.327 41.1562 122.694 41.6135 122.219C42.0708 121.744 42.6944 121.464 43.3533 121.439C44.7025 121.439 45.7978 122.581 45.7978 123.987C45.7978 125.393 44.7117 126.534 43.3625 126.534H43.3533ZM56.4466 127.015C56.4683 126.965 56.4942 126.917 56.5239 126.871L56.5423 126.853C56.5803 126.818 56.6216 126.786 56.6656 126.759C56.7106 126.737 56.7593 126.724 56.8092 126.72H56.8276C56.8617 126.723 56.8956 126.729 56.9288 126.737C56.9532 126.741 56.9772 126.747 57.0006 126.755C57.0246 126.767 57.0474 126.781 57.0687 126.798C57.0924 126.813 57.1145 126.83 57.135 126.849C57.1674 126.892 57.1963 126.938 57.2215 126.985C57.2296 127.01 57.2358 127.035 57.2399 127.061C56.9746 127.076 56.7084 127.061 56.4466 127.015ZM70.3148 126.542C68.9656 126.542 67.8703 125.402 67.8703 123.994C67.8703 122.586 68.9656 121.447 70.3148 121.447C70.9737 121.472 71.5973 121.751 72.0546 122.226C72.5119 122.701 72.7674 123.335 72.7674 123.994C72.7674 124.654 72.5119 125.287 72.0546 125.762C71.5973 126.237 70.9737 126.517 70.3148 126.542V126.542Z" fill="#DB7E27"/>
<path d="M79.4559 117.504C79.4945 113.323 78.1434 104.629 73.952 103.3C69.3243 101.828 65.5582 106.098 63.7855 108.655C58.4544 107.519 52.9437 107.519 47.6126 108.655C45.84 106.098 42.0756 101.831 37.4461 103.3C33.2547 104.629 31.9054 113.323 31.9423 117.504C29.7168 120.265 28.4448 123.442 28.4448 126.833C28.4448 137.343 40.6454 145.862 55.688 145.862C70.7307 145.862 82.9533 137.343 82.9533 126.831C82.9533 123.442 81.6777 120.259 79.4559 117.504ZM42.0885 126.534C41.7607 126.528 41.4374 126.457 41.1371 126.325C40.8369 126.193 40.5655 126.004 40.3385 125.767C40.1115 125.53 39.9333 125.252 39.8141 124.946C39.695 124.641 39.6371 124.315 39.644 123.987C39.644 122.581 40.7374 121.439 42.0885 121.439C42.7474 121.464 43.371 121.744 43.8283 122.219C44.2856 122.694 44.5411 123.327 44.5411 123.987C44.5411 124.646 44.2856 125.28 43.8283 125.755C43.371 126.23 42.7474 126.509 42.0885 126.534V126.534ZM61.2821 128.246C60.9139 129.66 59.5407 130.115 58.3884 130.115C58.1133 130.116 57.8388 130.089 57.5693 130.034C57.1511 129.945 56.7565 129.769 56.4111 129.517C56.0656 129.265 55.7772 128.943 55.5647 128.572C55.3521 128.943 55.0637 129.265 54.7183 129.517C54.3729 129.769 53.9782 129.945 53.5601 130.034C53.2906 130.089 53.0161 130.116 52.741 130.115C51.5887 130.115 50.2062 129.66 49.8473 128.246C49.8176 128.137 49.8321 128.02 49.8874 127.921C49.9428 127.822 50.0348 127.748 50.1437 127.716C50.1972 127.703 50.253 127.7 50.3077 127.708C50.3624 127.716 50.4149 127.735 50.4622 127.763C50.5095 127.792 50.5506 127.83 50.5832 127.874C50.6157 127.919 50.639 127.97 50.6517 128.024C50.9407 129.163 52.4299 129.388 53.3963 129.185C53.8786 129.088 54.3144 128.832 54.6339 128.458C54.9533 128.084 55.1378 127.613 55.1579 127.122C55.1595 127.083 55.167 127.044 55.18 127.008C55.18 127.008 55.18 126.993 55.18 126.984C55.1974 126.941 55.221 126.9 55.2499 126.864L55.2665 126.846C55.2985 126.811 55.3358 126.782 55.3769 126.759H55.3917C55.4365 126.737 55.4853 126.724 55.5352 126.72H55.5536C55.5646 126.719 55.5758 126.719 55.5868 126.72C55.6099 126.725 55.6327 126.731 55.6549 126.739C55.6787 126.743 55.7021 126.749 55.7248 126.757C55.7735 126.782 55.8187 126.814 55.8592 126.851C55.8748 126.869 55.8883 126.888 55.8997 126.908C55.9185 126.932 55.934 126.959 55.9457 126.987C55.9547 127.012 55.9608 127.037 55.9641 127.063C55.9714 127.085 55.9769 127.108 55.9807 127.131C56.0021 127.62 56.1863 128.088 56.5042 128.46C56.8221 128.832 57.2553 129.087 57.7349 129.185C58.7013 129.386 60.1905 129.161 60.4795 128.024C60.4922 127.97 60.5155 127.919 60.5481 127.874C60.5806 127.83 60.6217 127.792 60.669 127.763C60.7163 127.735 60.7689 127.716 60.8235 127.708C60.8782 127.7 60.934 127.703 60.9876 127.716C61.0968 127.748 61.1892 127.821 61.2449 127.92C61.3007 128.02 61.3153 128.137 61.2858 128.246H61.2821ZM69.0409 126.534C68.5327 126.555 68.0299 126.423 67.5973 126.156C67.1647 125.888 66.8219 125.498 66.6131 125.034C66.4043 124.57 66.339 124.054 66.4255 123.553C66.5121 123.052 66.7466 122.588 67.0989 122.221C67.4512 121.854 67.9051 121.601 68.4024 121.494C68.8997 121.388 69.4175 121.432 69.8894 121.622C70.3612 121.812 70.7655 122.138 71.0503 122.56C71.335 122.981 71.4872 123.478 71.4872 123.987C71.5006 124.648 71.2508 125.288 70.7929 125.766C70.3349 126.244 69.7061 126.52 69.0445 126.534H69.0409Z" fill="#FFE83B"/>
</g>
<defs>
<linearGradient id="paint0_linear" x1="112.295" y1="134.116" x2="191.974" y2="134.116" gradientUnits="userSpaceOnUse">
<stop stop-color="#F28500"/>
<stop offset="1" stop-color="#FBA905"/>
</linearGradient>
<linearGradient id="paint1_linear" x1="167.593" y1="115.663" x2="117.924" y2="137.329" gradientUnits="userSpaceOnUse">
<stop stop-color="#FBCF0A"/>
<stop offset="1" stop-color="#FBA505"/>
</linearGradient>
<linearGradient id="paint2_linear" x1="26368.2" y1="5784.22" x2="23291.3" y2="10325.9" gradientUnits="userSpaceOnUse">
<stop stop-color="#FBCF0A"/>
<stop offset="1" stop-color="#FBA505"/>
</linearGradient>
<linearGradient id="paint3_linear" x1="44764.4" y1="17155" x2="79254.2" y2="17155" gradientUnits="userSpaceOnUse">
<stop stop-color="#F28500"/>
<stop offset="1" stop-color="#FBA905"/>
</linearGradient>
<linearGradient id="paint4_linear" x1="68701.2" y1="17035" x2="57839.8" y2="29683.6" gradientUnits="userSpaceOnUse">
<stop stop-color="#FBCF0A"/>
<stop offset="1" stop-color="#FBA505"/>
</linearGradient>
<linearGradient id="paint5_linear" x1="26368.2" y1="5226.69" x2="23290.4" y2="9768.52" gradientUnits="userSpaceOnUse">
<stop stop-color="#FBCF0A"/>
<stop offset="1" stop-color="#FBA505"/>
</linearGradient>
<linearGradient id="paint6_linear" x1="44764.4" y1="15593.3" x2="79254.2" y2="15593.3" gradientUnits="userSpaceOnUse">
<stop stop-color="#F28500"/>
<stop offset="1" stop-color="#FBA905"/>
</linearGradient>
<linearGradient id="paint7_linear" x1="68701.2" y1="15210" x2="57838.2" y2="27858.9" gradientUnits="userSpaceOnUse">
<stop stop-color="#FBCF0A"/>
<stop offset="1" stop-color="#FBA505"/>
</linearGradient>
<linearGradient id="paint8_linear" x1="26368.2" y1="4666.08" x2="23292.4" y2="9207.21" gradientUnits="userSpaceOnUse">
<stop stop-color="#FBCF0A"/>
<stop offset="1" stop-color="#FBA505"/>
</linearGradient>
<linearGradient id="paint9_linear" x1="44764.4" y1="14029.4" x2="79254.2" y2="14029.4" gradientUnits="userSpaceOnUse">
<stop stop-color="#F28500"/>
<stop offset="1" stop-color="#FBA905"/>
</linearGradient>
<linearGradient id="paint10_linear" x1="68702" y1="13382.4" x2="57839" y2="26031.6" gradientUnits="userSpaceOnUse">
<stop stop-color="#FBCF0A"/>
<stop offset="1" stop-color="#FBA505"/>
</linearGradient>
<linearGradient id="paint11_linear" x1="26369.1" y1="4108.52" x2="23292.1" y2="8650.13" gradientUnits="userSpaceOnUse">
<stop stop-color="#FBCF0A"/>
<stop offset="1" stop-color="#FBA505"/>
</linearGradient>
<linearGradient id="paint12_linear" x1="44764.4" y1="12466.1" x2="79254.2" y2="12466.1" gradientUnits="userSpaceOnUse">
<stop stop-color="#F28500"/>
<stop offset="1" stop-color="#FBA905"/>
</linearGradient>
<linearGradient id="paint13_linear" x1="68701.2" y1="11556.1" x2="57838.2" y2="24205" gradientUnits="userSpaceOnUse">
<stop stop-color="#FBCF0A"/>
<stop offset="1" stop-color="#FBA505"/>
</linearGradient>
<linearGradient id="paint14_linear" x1="1843.35" y1="57653.7" x2="42184.1" y2="57653.7" gradientUnits="userSpaceOnUse">
<stop stop-color="#FBCF0A"/>
<stop offset="1" stop-color="#FBA505"/>
</linearGradient>
</defs>
</svg>
